<svg width="913" height="667" viewBox="0 0 913 667" fill="none" xmlns="http://www.w3.org/2000/svg">
<mask id="path-1-outside-1_48_236" maskUnits="userSpaceOnUse" x="3" y="30" width="284" height="82" fill="black">
<rect fill="white" x="3" y="30" width="284" height="82"/>
<path d="M20.412 31.895V89H4.536V31.895H20.412ZM59.18 43.154C64.418 43.154 68.576 44.909 71.654 48.419C74.732 51.875 76.271 56.573 76.271 62.513V89H60.395V64.619C60.395 62.027 59.72 60.002 58.37 58.544C57.02 57.032 55.211 56.276 52.943 56.276C50.567 56.276 48.704 57.032 47.354 58.544C46.004 60.002 45.329 62.027 45.329 64.619V89H29.453V43.559H45.329V50.039C46.733 47.987 48.623 46.34 50.999 45.098C53.375 43.802 56.102 43.154 59.18 43.154ZM106.771 74.015L115.276 43.559H132.205L116.572 89H96.8083L81.1753 43.559H98.1043L106.771 74.015ZM181.001 65.753C181.001 66.995 180.92 68.237 180.758 69.479H150.707C150.869 71.963 151.544 73.826 152.732 75.068C153.974 76.256 155.54 76.85 157.43 76.85C160.076 76.85 161.966 75.662 163.1 73.286H180.029C179.327 76.418 177.95 79.226 175.898 81.71C173.9 84.14 171.362 86.057 168.284 87.461C165.206 88.865 161.804 89.567 158.078 89.567C153.596 89.567 149.6 88.622 146.09 86.732C142.634 84.842 139.907 82.142 137.909 78.632C135.965 75.122 134.993 70.991 134.993 66.239C134.993 61.487 135.965 57.383 137.909 53.927C139.853 50.417 142.553 47.717 146.009 45.827C149.519 43.937 153.542 42.992 158.078 42.992C162.56 42.992 166.529 43.91 169.985 45.746C173.441 47.582 176.141 50.228 178.085 53.684C180.029 57.086 181.001 61.109 181.001 65.753ZM164.801 61.784C164.801 59.84 164.153 58.328 162.857 57.248C161.561 56.114 159.941 55.547 157.997 55.547C156.053 55.547 154.46 56.087 153.218 57.167C151.976 58.193 151.166 59.732 150.788 61.784H164.801ZM230.914 65.753C230.914 66.995 230.833 68.237 230.671 69.479H200.62C200.782 71.963 201.457 73.826 202.645 75.068C203.887 76.256 205.453 76.85 207.343 76.85C209.989 76.85 211.879 75.662 213.013 73.286H229.942C229.24 76.418 227.863 79.226 225.811 81.71C223.813 84.14 221.275 86.057 218.197 87.461C215.119 88.865 211.717 89.567 207.991 89.567C203.509 89.567 199.513 88.622 196.003 86.732C192.547 84.842 189.82 82.142 187.822 78.632C185.878 75.122 184.906 70.991 184.906 66.239C184.906 61.487 185.878 57.383 187.822 53.927C189.766 50.417 192.466 47.717 195.922 45.827C199.432 43.937 203.455 42.992 207.991 42.992C212.473 42.992 216.442 43.91 219.898 45.746C223.354 47.582 226.054 50.228 227.998 53.684C229.942 57.086 230.914 61.109 230.914 65.753ZM214.714 61.784C214.714 59.84 214.066 58.328 212.77 57.248C211.474 56.114 209.854 55.547 207.91 55.547C205.966 55.547 204.373 56.087 203.131 57.167C201.889 58.193 201.079 59.732 200.701 61.784H214.714ZM253.287 49.877C254.529 47.771 256.284 46.097 258.552 44.855C260.82 43.613 263.493 42.992 266.571 42.992C270.189 42.992 273.456 43.937 276.372 45.827C279.342 47.717 281.664 50.417 283.338 53.927C285.066 57.437 285.93 61.541 285.93 66.239C285.93 70.937 285.066 75.068 283.338 78.632C281.664 82.142 279.342 84.842 276.372 86.732C273.456 88.622 270.189 89.567 266.571 89.567C263.493 89.567 260.82 88.946 258.552 87.704C256.338 86.462 254.583 84.788 253.287 82.682V110.708H237.411V43.559H253.287V49.877ZM269.811 66.239C269.811 63.269 269.001 60.974 267.381 59.354C265.815 57.68 263.871 56.843 261.549 56.843C259.227 56.843 257.256 57.68 255.636 59.354C254.07 61.028 253.287 63.323 253.287 66.239C253.287 69.209 254.07 71.531 255.636 73.205C257.256 74.879 259.227 75.716 261.549 75.716C263.871 75.716 265.815 74.879 267.381 73.205C269.001 71.477 269.811 69.155 269.811 66.239Z"/>
</mask>
<path d="M20.412 31.895V89H4.536V31.895H20.412ZM59.18 43.154C64.418 43.154 68.576 44.909 71.654 48.419C74.732 51.875 76.271 56.573 76.271 62.513V89H60.395V64.619C60.395 62.027 59.72 60.002 58.37 58.544C57.02 57.032 55.211 56.276 52.943 56.276C50.567 56.276 48.704 57.032 47.354 58.544C46.004 60.002 45.329 62.027 45.329 64.619V89H29.453V43.559H45.329V50.039C46.733 47.987 48.623 46.34 50.999 45.098C53.375 43.802 56.102 43.154 59.18 43.154ZM106.771 74.015L115.276 43.559H132.205L116.572 89H96.8083L81.1753 43.559H98.1043L106.771 74.015ZM181.001 65.753C181.001 66.995 180.92 68.237 180.758 69.479H150.707C150.869 71.963 151.544 73.826 152.732 75.068C153.974 76.256 155.54 76.85 157.43 76.85C160.076 76.85 161.966 75.662 163.1 73.286H180.029C179.327 76.418 177.95 79.226 175.898 81.71C173.9 84.14 171.362 86.057 168.284 87.461C165.206 88.865 161.804 89.567 158.078 89.567C153.596 89.567 149.6 88.622 146.09 86.732C142.634 84.842 139.907 82.142 137.909 78.632C135.965 75.122 134.993 70.991 134.993 66.239C134.993 61.487 135.965 57.383 137.909 53.927C139.853 50.417 142.553 47.717 146.009 45.827C149.519 43.937 153.542 42.992 158.078 42.992C162.56 42.992 166.529 43.91 169.985 45.746C173.441 47.582 176.141 50.228 178.085 53.684C180.029 57.086 181.001 61.109 181.001 65.753ZM164.801 61.784C164.801 59.84 164.153 58.328 162.857 57.248C161.561 56.114 159.941 55.547 157.997 55.547C156.053 55.547 154.46 56.087 153.218 57.167C151.976 58.193 151.166 59.732 150.788 61.784H164.801ZM230.914 65.753C230.914 66.995 230.833 68.237 230.671 69.479H200.62C200.782 71.963 201.457 73.826 202.645 75.068C203.887 76.256 205.453 76.85 207.343 76.85C209.989 76.85 211.879 75.662 213.013 73.286H229.942C229.24 76.418 227.863 79.226 225.811 81.71C223.813 84.14 221.275 86.057 218.197 87.461C215.119 88.865 211.717 89.567 207.991 89.567C203.509 89.567 199.513 88.622 196.003 86.732C192.547 84.842 189.82 82.142 187.822 78.632C185.878 75.122 184.906 70.991 184.906 66.239C184.906 61.487 185.878 57.383 187.822 53.927C189.766 50.417 192.466 47.717 195.922 45.827C199.432 43.937 203.455 42.992 207.991 42.992C212.473 42.992 216.442 43.91 219.898 45.746C223.354 47.582 226.054 50.228 227.998 53.684C229.942 57.086 230.914 61.109 230.914 65.753ZM214.714 61.784C214.714 59.84 214.066 58.328 212.77 57.248C211.474 56.114 209.854 55.547 207.91 55.547C205.966 55.547 204.373 56.087 203.131 57.167C201.889 58.193 201.079 59.732 200.701 61.784H214.714ZM253.287 49.877C254.529 47.771 256.284 46.097 258.552 44.855C260.82 43.613 263.493 42.992 266.571 42.992C270.189 42.992 273.456 43.937 276.372 45.827C279.342 47.717 281.664 50.417 283.338 53.927C285.066 57.437 285.93 61.541 285.93 66.239C285.93 70.937 285.066 75.068 283.338 78.632C281.664 82.142 279.342 84.842 276.372 86.732C273.456 88.622 270.189 89.567 266.571 89.567C263.493 89.567 260.82 88.946 258.552 87.704C256.338 86.462 254.583 84.788 253.287 82.682V110.708H237.411V43.559H253.287V49.877ZM269.811 66.239C269.811 63.269 269.001 60.974 267.381 59.354C265.815 57.68 263.871 56.843 261.549 56.843C259.227 56.843 257.256 57.68 255.636 59.354C254.07 61.028 253.287 63.323 253.287 66.239C253.287 69.209 254.07 71.531 255.636 73.205C257.256 74.879 259.227 75.716 261.549 75.716C263.871 75.716 265.815 74.879 267.381 73.205C269.001 71.477 269.811 69.155 269.811 66.239Z" fill="#5CC59E"/>
<path d="M20.412 31.895H21.412V30.895H20.412V31.895ZM20.412 89V90H21.412V89H20.412ZM4.536 89H3.536V90H4.536V89ZM4.536 31.895V30.895H3.536V31.895H4.536ZM19.412 31.895V89H21.412V31.895H19.412ZM20.412 88H4.536V90H20.412V88ZM5.536 89V31.895H3.536V89H5.536ZM4.536 32.895H20.412V30.895H4.536V32.895ZM71.654 48.419L70.9021 49.0783L70.9072 49.0841L71.654 48.419ZM76.271 89V90H77.271V89H76.271ZM60.395 89H59.395V90H60.395V89ZM58.37 58.544L57.6241 59.21L57.6301 59.2168L57.6362 59.2234L58.37 58.544ZM47.354 58.544L48.0878 59.2234L48.0939 59.2168L48.0999 59.21L47.354 58.544ZM45.329 89V90H46.329V89H45.329ZM29.453 89H28.453V90H29.453V89ZM29.453 43.559V42.559H28.453V43.559H29.453ZM45.329 43.559H46.329V42.559H45.329V43.559ZM45.329 50.039H44.329V53.2714L46.1543 50.6037L45.329 50.039ZM50.999 45.098L51.4622 45.9842L51.4701 45.9801L51.4778 45.9759L50.999 45.098ZM59.18 44.154C64.1692 44.154 68.0384 45.8127 70.9021 49.0783L72.4059 47.7597C69.1136 44.0053 64.6668 42.154 59.18 42.154V44.154ZM70.9072 49.0841C73.7801 52.3098 75.271 56.7467 75.271 62.513H77.271C77.271 56.3993 75.6839 51.4402 72.4008 47.7539L70.9072 49.0841ZM75.271 62.513V89H77.271V62.513H75.271ZM76.271 88H60.395V90H76.271V88ZM61.395 89V64.619H59.395V89H61.395ZM61.395 64.619C61.395 61.854 60.6719 59.5582 59.1038 57.8646L57.6362 59.2234C58.7681 60.4458 59.395 62.2 59.395 64.619H61.395ZM59.1159 57.878C57.5525 56.1269 55.4581 55.276 52.943 55.276V57.276C54.9638 57.276 56.4875 57.9371 57.6241 59.21L59.1159 57.878ZM52.943 55.276C50.336 55.276 48.1809 56.1164 46.6081 57.878L48.0999 59.21C49.2271 57.9476 50.798 57.276 52.943 57.276V55.276ZM46.6202 57.8646C45.0521 59.5582 44.329 61.854 44.329 64.619H46.329C46.329 62.2 46.9559 60.4458 48.0878 59.2234L46.6202 57.8646ZM44.329 64.619V89H46.329V64.619H44.329ZM45.329 88H29.453V90H45.329V88ZM30.453 89V43.559H28.453V89H30.453ZM29.453 44.559H45.329V42.559H29.453V44.559ZM44.329 43.559V50.039H46.329V43.559H44.329ZM46.1543 50.6037C47.4586 48.6974 49.2198 47.1564 51.4622 45.9842L50.5357 44.2118C48.0262 45.5236 46.0074 47.2766 44.5037 49.4743L46.1543 50.6037ZM51.4778 45.9759C53.6878 44.7705 56.2461 44.154 59.18 44.154V42.154C55.9579 42.154 53.0622 42.8335 50.5201 44.2201L51.4778 45.9759ZM106.771 74.015L105.809 74.2887L106.78 77.7004L107.734 74.284L106.771 74.015ZM115.276 43.559V42.559H114.517L114.313 43.29L115.276 43.559ZM132.205 43.559L133.151 43.8843L133.607 42.559H132.205V43.559ZM116.572 89V90H117.286L117.518 89.3253L116.572 89ZM96.8083 89L95.8627 89.3253L96.0948 90H96.8083V89ZM81.1753 43.559V42.559H79.7737L80.2297 43.8843L81.1753 43.559ZM98.1043 43.559L99.0661 43.2853L98.8594 42.559H98.1043V43.559ZM107.734 74.284L116.239 43.828L114.313 43.29L105.808 73.746L107.734 74.284ZM115.276 44.559H132.205V42.559H115.276V44.559ZM131.26 43.2337L115.627 88.6747L117.518 89.3253L133.151 43.8843L131.26 43.2337ZM116.572 88H96.8083V90H116.572V88ZM97.7539 88.6747L82.1209 43.2337L80.2297 43.8843L95.8627 89.3253L97.7539 88.6747ZM81.1753 44.559H98.1043V42.559H81.1753V44.559ZM97.1425 43.8327L105.809 74.2887L107.733 73.7413L99.0661 43.2853L97.1425 43.8327ZM180.758 69.479V70.479H181.636L181.749 69.6083L180.758 69.479ZM150.707 69.479V68.479H149.639L149.709 69.5441L150.707 69.479ZM152.732 75.068L152.009 75.7592L152.025 75.7753L152.041 75.7906L152.732 75.068ZM163.1 73.286V72.286H162.469L162.197 72.8553L163.1 73.286ZM180.029 73.286L181.005 73.5047L181.278 72.286H180.029V73.286ZM175.898 81.71L175.127 81.0731L175.125 81.0749L175.898 81.71ZM168.284 87.461L168.699 88.3708L168.284 87.461ZM146.09 86.732L145.61 87.6094L145.616 87.6125L146.09 86.732ZM137.909 78.632L137.034 79.1165L137.04 79.1267L137.909 78.632ZM137.909 53.927L138.78 54.4173L138.784 54.4115L137.909 53.927ZM146.009 45.827L145.535 44.9465L145.529 44.9496L146.009 45.827ZM169.985 45.746L170.454 44.8629L169.985 45.746ZM178.085 53.684L177.213 54.1743L177.217 54.1801L178.085 53.684ZM164.801 61.784V62.784H165.801V61.784H164.801ZM162.857 57.248L162.198 58.0006L162.207 58.0085L162.217 58.0162L162.857 57.248ZM153.218 57.167L153.855 57.938L153.864 57.9299L153.874 57.9216L153.218 57.167ZM150.788 61.784L149.804 61.6028L149.587 62.784H150.788V61.784ZM180.001 65.753C180.001 66.9514 179.923 68.1502 179.766 69.3497L181.749 69.6083C181.917 68.3238 182.001 67.0386 182.001 65.753H180.001ZM180.758 68.479H150.707V70.479H180.758V68.479ZM149.709 69.5441C149.88 72.1599 150.599 74.2854 152.009 75.7592L153.454 74.3768C152.488 73.3666 151.858 71.7661 151.705 69.4139L149.709 69.5441ZM152.041 75.7906C153.488 77.1751 155.31 77.85 157.43 77.85V75.85C155.769 75.85 154.46 75.3369 153.423 74.3454L152.041 75.7906ZM157.43 77.85C158.906 77.85 160.232 77.5171 161.364 76.8056C162.496 76.094 163.369 75.0445 164.002 73.7167L162.197 72.8553C161.697 73.9035 161.057 74.636 160.3 75.1124C159.542 75.5889 158.6 75.85 157.43 75.85V77.85ZM163.1 74.286H180.029V72.286H163.1V74.286ZM179.053 73.0673C178.386 76.0451 177.079 78.71 175.127 81.0731L176.669 82.3469C178.821 79.742 180.268 76.7909 181.005 73.5047L179.053 73.0673ZM175.125 81.0749C173.231 83.3786 170.819 85.2055 167.869 86.5512L168.699 88.3708C171.905 86.9085 174.568 84.9014 176.67 82.3451L175.125 81.0749ZM167.869 86.5512C164.934 87.89 161.675 88.567 158.078 88.567V90.567C161.932 90.567 165.478 89.84 168.699 88.3708L167.869 86.5512ZM158.078 88.567C153.74 88.567 149.911 87.6537 146.564 85.8515L145.616 87.6125C149.289 89.5903 153.451 90.567 158.078 90.567V88.567ZM146.57 85.8546C143.281 84.056 140.687 81.4904 138.778 78.1373L137.04 79.1267C139.127 82.7936 141.987 85.628 145.61 87.6094L146.57 85.8546ZM138.784 78.1475C136.936 74.8109 135.993 70.8528 135.993 66.239H133.993C133.993 71.1292 134.994 75.4331 137.034 79.1165L138.784 78.1475ZM135.993 66.239C135.993 61.6247 136.936 57.6965 138.78 54.4173L137.037 53.4367C134.994 57.0695 133.993 61.3493 133.993 66.239H135.993ZM138.784 54.4115C140.638 51.064 143.202 48.5017 146.489 46.7044L145.529 44.9496C141.904 46.9323 139.068 49.77 137.034 53.4425L138.784 54.4115ZM146.483 46.7075C149.828 44.9062 153.684 43.992 158.078 43.992V41.992C153.399 41.992 149.209 42.9678 145.535 44.9465L146.483 46.7075ZM158.078 43.992C162.42 43.992 166.224 44.8804 169.516 46.6291L170.454 44.8629C166.834 42.9396 162.699 41.992 158.078 41.992V43.992ZM169.516 46.6291C172.8 48.3741 175.362 50.8827 177.213 54.1743L178.956 53.1937C176.92 49.5733 174.081 46.7899 170.454 44.8629L169.516 46.6291ZM177.217 54.1801C179.059 57.4052 180.001 61.2507 180.001 65.753H182.001C182.001 60.9673 180.998 56.7668 178.953 53.1879L177.217 54.1801ZM165.801 61.784C165.801 59.5937 165.057 57.7799 163.497 56.4798L162.217 58.0162C163.249 58.8761 163.801 60.0863 163.801 61.784H165.801ZM163.515 56.4954C162.013 55.1812 160.15 54.547 157.997 54.547V56.547C159.732 56.547 161.108 57.0468 162.198 58.0006L163.515 56.4954ZM157.997 54.547C155.858 54.547 154.018 55.1464 152.562 56.4124L153.874 57.9216C154.902 57.0276 156.248 56.547 157.997 56.547V54.547ZM152.581 56.396C151.11 57.6113 150.212 59.3891 149.804 61.6028L151.771 61.9652C152.119 60.0749 152.842 58.7747 153.855 57.938L152.581 56.396ZM150.788 62.784H164.801V60.784H150.788V62.784ZM230.671 69.479V70.479H231.549L231.663 69.6083L230.671 69.479ZM200.62 69.479V68.479H199.553L199.622 69.5441L200.62 69.479ZM202.645 75.068L201.922 75.7592L201.938 75.7753L201.954 75.7906L202.645 75.068ZM213.013 73.286V72.286H212.382L212.11 72.8553L213.013 73.286ZM229.942 73.286L230.918 73.5047L231.191 72.286H229.942V73.286ZM225.811 81.71L225.04 81.0731L225.038 81.0749L225.811 81.71ZM218.197 87.461L218.612 88.3708L218.197 87.461ZM196.003 86.732L195.523 87.6094L195.529 87.6125L196.003 86.732ZM187.822 78.632L186.947 79.1165L186.953 79.1267L187.822 78.632ZM187.822 53.927L188.694 54.4173L188.697 54.4115L187.822 53.927ZM195.922 45.827L195.448 44.9465L195.442 44.9496L195.922 45.827ZM219.898 45.746L220.367 44.8629L219.898 45.746ZM227.998 53.684L227.126 54.1743L227.13 54.1801L227.998 53.684ZM214.714 61.784V62.784H215.714V61.784H214.714ZM212.77 57.248L212.111 58.0006L212.12 58.0085L212.13 58.0162L212.77 57.248ZM203.131 57.167L203.768 57.938L203.778 57.9299L203.787 57.9216L203.131 57.167ZM200.701 61.784L199.717 61.6028L199.5 62.784H200.701V61.784ZM229.914 65.753C229.914 66.9514 229.836 68.1502 229.679 69.3497L231.663 69.6083C231.83 68.3238 231.914 67.0386 231.914 65.753H229.914ZM230.671 68.479H200.62V70.479H230.671V68.479ZM199.622 69.5441C199.793 72.1599 200.513 74.2854 201.922 75.7592L203.368 74.3768C202.401 73.3666 201.771 71.7661 201.618 69.4139L199.622 69.5441ZM201.954 75.7906C203.401 77.1751 205.223 77.85 207.343 77.85V75.85C205.682 75.85 204.373 75.3369 203.336 74.3454L201.954 75.7906ZM207.343 77.85C208.819 77.85 210.145 77.5171 211.277 76.8056C212.409 76.094 213.282 75.0445 213.915 73.7167L212.11 72.8553C211.61 73.9035 210.971 74.636 210.213 75.1124C209.455 75.5889 208.513 75.85 207.343 75.85V77.85ZM213.013 74.286H229.942V72.286H213.013V74.286ZM228.966 73.0673C228.299 76.0451 226.992 78.71 225.04 81.0731L226.582 82.3469C228.734 79.742 230.181 76.7909 230.918 73.5047L228.966 73.0673ZM225.038 81.0749C223.144 83.3786 220.732 85.2055 217.782 86.5512L218.612 88.3708C221.818 86.9085 224.481 84.9014 226.583 82.3451L225.038 81.0749ZM217.782 86.5512C214.847 87.89 211.588 88.567 207.991 88.567V90.567C211.845 90.567 215.391 89.84 218.612 88.3708L217.782 86.5512ZM207.991 88.567C203.654 88.567 199.824 87.6537 196.477 85.8515L195.529 87.6125C199.202 89.5903 203.364 90.567 207.991 90.567V88.567ZM196.483 85.8546C193.194 84.056 190.6 81.4904 188.691 78.1373L186.953 79.1267C189.04 82.7936 191.9 85.628 195.523 87.6094L196.483 85.8546ZM188.697 78.1475C186.849 74.8109 185.906 70.8528 185.906 66.239H183.906C183.906 71.1292 184.907 75.4331 186.947 79.1165L188.697 78.1475ZM185.906 66.239C185.906 61.6247 186.849 57.6965 188.693 54.4173L186.95 53.4367C184.907 57.0695 183.906 61.3493 183.906 66.239H185.906ZM188.697 54.4115C190.551 51.064 193.115 48.5017 196.402 46.7044L195.442 44.9496C191.817 46.9323 188.981 49.77 186.947 53.4425L188.697 54.4115ZM196.396 46.7075C199.741 44.9062 203.597 43.992 207.991 43.992V41.992C203.312 41.992 199.123 42.9678 195.448 44.9465L196.396 46.7075ZM207.991 43.992C212.333 43.992 216.137 44.8804 219.429 46.6291L220.367 44.8629C216.747 42.9396 212.613 41.992 207.991 41.992V43.992ZM219.429 46.6291C222.713 48.3741 225.275 50.8827 227.126 54.1743L228.869 53.1937C226.833 49.5733 223.994 46.7899 220.367 44.8629L219.429 46.6291ZM227.13 54.1801C228.973 57.4052 229.914 61.2507 229.914 65.753H231.914C231.914 60.9673 230.911 56.7668 228.866 53.1879L227.13 54.1801ZM215.714 61.784C215.714 59.5937 214.97 57.7799 213.41 56.4798L212.13 58.0162C213.162 58.8761 213.714 60.0863 213.714 61.784H215.714ZM213.428 56.4954C211.926 55.1812 210.063 54.547 207.91 54.547V56.547C209.645 56.547 211.021 57.0468 212.111 58.0006L213.428 56.4954ZM207.91 54.547C205.771 54.547 203.931 55.1464 202.475 56.4124L203.787 57.9216C204.815 57.0276 206.161 56.547 207.91 56.547V54.547ZM202.494 56.396C201.023 57.6113 200.125 59.3891 199.717 61.6028L201.684 61.9652C202.033 60.0749 202.755 58.7747 203.768 57.938L202.494 56.396ZM200.701 62.784H214.714V60.784H200.701V62.784ZM253.287 49.877H252.287V53.5412L254.148 50.385L253.287 49.877ZM258.552 44.855L258.072 43.9779L258.552 44.855ZM276.372 45.827L275.828 46.6662L275.835 46.6707L276.372 45.827ZM283.338 53.927L282.435 54.3575L282.441 54.3687L283.338 53.927ZM283.338 78.632L282.438 78.1957L282.435 78.2015L283.338 78.632ZM276.372 86.732L275.835 85.8883L275.828 85.8928L276.372 86.732ZM258.552 87.704L258.063 88.5762L258.072 88.5811L258.552 87.704ZM253.287 82.682L254.139 82.1579L252.287 79.149V82.682H253.287ZM253.287 110.708V111.708H254.287V110.708H253.287ZM237.411 110.708H236.411V111.708H237.411V110.708ZM237.411 43.559V42.559H236.411V43.559H237.411ZM253.287 43.559H254.287V42.559H253.287V43.559ZM267.381 59.354L266.651 60.0372L266.662 60.0493L266.674 60.0611L267.381 59.354ZM255.636 59.354L254.917 58.6586L254.912 58.6647L254.906 58.6708L255.636 59.354ZM255.636 73.205L254.906 73.8882L254.912 73.8943L254.917 73.9004L255.636 73.205ZM267.381 73.205L266.651 72.5211L266.651 72.5218L267.381 73.205ZM254.148 50.385C255.294 48.4431 256.913 46.8928 259.032 45.7321L258.072 43.9779C255.655 45.3012 253.764 47.0989 252.426 49.369L254.148 50.385ZM259.032 45.7321C261.127 44.5848 263.629 43.992 266.571 43.992V41.992C263.357 41.992 260.513 42.6412 258.072 43.9779L259.032 45.7321ZM266.571 43.992C270.004 43.992 273.081 44.8856 275.828 46.6661L276.916 44.9878C273.831 42.9884 270.374 41.992 266.571 41.992V43.992ZM275.835 46.6707C278.631 48.4496 280.833 50.9985 282.435 54.3575L284.241 53.4965C282.495 49.8355 280.053 46.9844 276.909 44.9833L275.835 46.6707ZM282.441 54.3687C284.089 57.7164 284.93 61.6638 284.93 66.239H286.93C286.93 61.4182 286.043 57.1576 284.235 53.4853L282.441 54.3687ZM284.93 66.239C284.93 70.8138 284.089 74.7907 282.438 78.1957L284.238 79.0683C286.043 75.3453 286.93 71.0602 286.93 66.239H284.93ZM282.435 78.2015C280.833 81.5605 278.631 84.1094 275.835 85.8883L276.909 87.5757C280.053 85.5746 282.495 82.7235 284.241 79.0625L282.435 78.2015ZM275.828 85.8928C273.081 87.6734 270.004 88.567 266.571 88.567V90.567C270.374 90.567 273.831 89.5706 276.916 87.5712L275.828 85.8928ZM266.571 88.567C263.629 88.567 261.127 87.9742 259.032 86.8269L258.072 88.5811C260.513 89.9178 263.357 90.567 266.571 90.567V88.567ZM259.041 86.8319C256.972 85.6708 255.343 84.115 254.139 82.1579L252.435 83.2061C253.823 85.461 255.704 87.2532 258.063 88.5761L259.041 86.8319ZM252.287 82.682V110.708H254.287V82.682H252.287ZM253.287 109.708H237.411V111.708H253.287V109.708ZM238.411 110.708V43.559H236.411V110.708H238.411ZM237.411 44.559H253.287V42.559H237.411V44.559ZM252.287 43.559V49.877H254.287V43.559H252.287ZM270.811 66.239C270.811 63.0858 269.947 60.5054 268.088 58.6469L266.674 60.0611C268.055 61.4426 268.811 63.4522 268.811 66.239H270.811ZM268.111 58.6708C266.353 56.7918 264.144 55.843 261.549 55.843V57.843C263.598 57.843 265.277 58.5682 266.651 60.0372L268.111 58.6708ZM261.549 55.843C258.955 55.843 256.725 56.7906 254.917 58.6586L256.355 60.0494C257.787 58.5694 259.499 57.843 261.549 57.843V55.843ZM254.906 58.6708C253.123 60.5766 252.287 63.1411 252.287 66.239H254.287C254.287 63.5049 255.017 61.4794 256.366 60.0372L254.906 58.6708ZM252.287 66.239C252.287 69.3852 253.12 71.9792 254.906 73.8882L256.366 72.5218C255.02 71.0828 254.287 69.0328 254.287 66.239H252.287ZM254.917 73.9004C256.725 75.7684 258.955 76.716 261.549 76.716V74.716C259.499 74.716 257.787 73.9896 256.355 72.5096L254.917 73.9004ZM261.549 76.716C264.144 76.716 266.353 75.7672 268.111 73.8882L266.651 72.5218C265.277 73.9908 263.598 74.716 261.549 74.716V76.716ZM268.111 73.8889C269.942 71.935 270.811 69.3473 270.811 66.239H268.811C268.811 68.9627 268.06 71.019 266.651 72.5211L268.111 73.8889Z" fill="#5CC59E" mask="url(#path-1-outside-1_48_236)"/>
<mask id="path-3-outside-2_48_236" maskUnits="userSpaceOnUse" x="1" y="152" width="187" height="61" fill="black">
<rect fill="white" x="1" y="152" width="187" height="61"/>
<path d="M2.592 182.326C2.592 176.71 3.753 171.715 6.075 167.341C8.451 162.913 11.799 159.484 16.119 157.054C20.439 154.57 25.407 153.328 31.023 153.328C38.151 153.328 44.145 155.245 49.005 159.079C53.865 162.859 56.997 168.016 58.401 174.55H41.31C40.284 172.39 38.853 170.743 37.017 169.609C35.235 168.475 33.156 167.908 30.78 167.908C27.108 167.908 24.165 169.231 21.951 171.877C19.791 174.469 18.711 177.952 18.711 182.326C18.711 186.754 19.791 190.291 21.951 192.937C24.165 195.529 27.108 196.825 30.78 196.825C33.156 196.825 35.235 196.258 37.017 195.124C38.853 193.99 40.284 192.343 41.31 190.183H58.401C56.997 196.717 53.865 201.901 49.005 205.735C44.145 209.515 38.151 211.405 31.023 211.405C25.407 211.405 20.439 210.19 16.119 207.76C11.799 205.276 8.451 201.847 6.075 197.473C3.753 193.045 2.592 187.996 2.592 182.326ZM94.8358 211L83.4958 189.94H81.7948V211H65.9188V153.895H90.9478C95.5378 153.895 99.4258 154.705 102.612 156.325C105.798 157.891 108.201 160.078 109.821 162.886C111.441 165.64 112.251 168.745 112.251 172.201C112.251 176.089 111.171 179.518 109.011 182.488C106.905 185.404 103.8 187.483 99.6958 188.725L112.575 211H94.8358ZM81.7948 179.086H89.6518C91.8118 179.086 93.4318 178.573 94.5118 177.547C95.5918 176.521 96.1318 175.036 96.1318 173.092C96.1318 171.256 95.5648 169.825 94.4308 168.799C93.3508 167.719 91.7578 167.179 89.6518 167.179H81.7948V179.086ZM186.134 153.895V211H170.258V179.491L159.485 211H146.201L135.347 179.248V211H119.471V153.895H138.668L153.005 190.993L167.018 153.895H186.134Z"/>
</mask>
<path d="M2.592 182.326C2.592 176.71 3.753 171.715 6.075 167.341C8.451 162.913 11.799 159.484 16.119 157.054C20.439 154.57 25.407 153.328 31.023 153.328C38.151 153.328 44.145 155.245 49.005 159.079C53.865 162.859 56.997 168.016 58.401 174.55H41.31C40.284 172.39 38.853 170.743 37.017 169.609C35.235 168.475 33.156 167.908 30.78 167.908C27.108 167.908 24.165 169.231 21.951 171.877C19.791 174.469 18.711 177.952 18.711 182.326C18.711 186.754 19.791 190.291 21.951 192.937C24.165 195.529 27.108 196.825 30.78 196.825C33.156 196.825 35.235 196.258 37.017 195.124C38.853 193.99 40.284 192.343 41.31 190.183H58.401C56.997 196.717 53.865 201.901 49.005 205.735C44.145 209.515 38.151 211.405 31.023 211.405C25.407 211.405 20.439 210.19 16.119 207.76C11.799 205.276 8.451 201.847 6.075 197.473C3.753 193.045 2.592 187.996 2.592 182.326ZM94.8358 211L83.4958 189.94H81.7948V211H65.9188V153.895H90.9478C95.5378 153.895 99.4258 154.705 102.612 156.325C105.798 157.891 108.201 160.078 109.821 162.886C111.441 165.64 112.251 168.745 112.251 172.201C112.251 176.089 111.171 179.518 109.011 182.488C106.905 185.404 103.8 187.483 99.6958 188.725L112.575 211H94.8358ZM81.7948 179.086H89.6518C91.8118 179.086 93.4318 178.573 94.5118 177.547C95.5918 176.521 96.1318 175.036 96.1318 173.092C96.1318 171.256 95.5648 169.825 94.4308 168.799C93.3508 167.719 91.7578 167.179 89.6518 167.179H81.7948V179.086ZM186.134 153.895V211H170.258V179.491L159.485 211H146.201L135.347 179.248V211H119.471V153.895H138.668L153.005 190.993L167.018 153.895H186.134Z" fill="#1A2B42"/>
<path d="M6.075 167.341L5.19383 166.868L5.19174 166.872L6.075 167.341ZM16.119 157.054L16.6093 157.926L16.6175 157.921L16.119 157.054ZM49.005 159.079L48.3856 159.864L48.3911 159.868L49.005 159.079ZM58.401 174.55V175.55H59.6387L59.3787 174.34L58.401 174.55ZM41.31 174.55L40.4067 174.979L40.6779 175.55H41.31V174.55ZM37.017 169.609L36.4801 170.453L36.4915 170.46L37.017 169.609ZM21.951 171.877L21.1841 171.235L21.1828 171.237L21.951 171.877ZM21.951 192.937L21.1763 193.569L21.1834 193.578L21.1906 193.586L21.951 192.937ZM37.017 195.124L36.4915 194.273L36.4801 194.28L37.017 195.124ZM41.31 190.183V189.183H40.6779L40.4067 189.754L41.31 190.183ZM58.401 190.183L59.3787 190.393L59.6387 189.183H58.401V190.183ZM49.005 205.735L49.619 206.524L49.6244 206.52L49.005 205.735ZM16.119 207.76L15.6205 208.627L15.6287 208.632L16.119 207.76ZM6.075 197.473L5.18938 197.937L5.19278 197.944L5.19628 197.95L6.075 197.473ZM3.592 182.326C3.592 176.851 4.72267 172.021 6.95826 167.81L5.19174 166.872C2.78333 171.409 1.592 176.569 1.592 182.326H3.592ZM6.95616 167.814C9.24369 163.551 12.4572 160.261 16.6093 157.926L15.6287 156.182C11.1408 158.707 7.65832 162.275 5.19384 166.868L6.95616 167.814ZM16.6175 157.921C20.7673 155.535 25.5593 154.328 31.023 154.328V152.328C25.2547 152.328 20.1107 153.605 15.6205 156.187L16.6175 157.921ZM31.023 154.328C37.9619 154.328 43.7282 156.19 48.3856 159.864L49.6244 158.294C44.5618 154.3 38.3401 152.328 31.023 152.328V154.328ZM48.3911 159.868C53.0491 163.491 56.0642 168.435 57.4233 174.76L59.3787 174.34C57.9298 167.597 54.6809 162.227 49.6189 158.29L48.3911 159.868ZM58.401 173.55H41.31V175.55H58.401V173.55ZM42.2133 174.121C41.1139 171.806 39.5599 170.004 37.5425 168.758L36.4915 170.46C38.1461 171.482 39.4541 172.974 40.4067 174.979L42.2133 174.121ZM37.5539 168.765C35.592 167.517 33.3217 166.908 30.78 166.908V168.908C32.9903 168.908 34.878 169.433 36.4801 170.453L37.5539 168.765ZM30.78 166.908C26.8337 166.908 23.6016 168.346 21.1841 171.235L22.7179 172.519C24.7284 170.116 27.3823 168.908 30.78 168.908V166.908ZM21.1828 171.237C18.8334 174.056 17.711 177.789 17.711 182.326H19.711C19.711 178.115 20.7486 174.882 22.7192 172.517L21.1828 171.237ZM17.711 182.326C17.711 186.915 18.8321 190.698 21.1763 193.569L22.7257 192.305C20.7499 189.884 19.711 186.593 19.711 182.326H17.711ZM21.1906 193.586C23.6106 196.42 26.8411 197.825 30.78 197.825V195.825C27.3749 195.825 24.7194 194.638 22.7114 192.288L21.1906 193.586ZM30.78 197.825C33.3217 197.825 35.592 197.216 37.5539 195.968L36.4801 194.28C34.878 195.3 32.9903 195.825 30.78 195.825V197.825ZM37.5425 195.975C39.5599 194.729 41.1139 192.927 42.2133 190.612L40.4067 189.754C39.4541 191.759 38.1461 193.251 36.4915 194.273L37.5425 195.975ZM41.31 191.183H58.401V189.183H41.31V191.183ZM57.4233 189.973C56.064 196.299 53.0479 201.272 48.3856 204.95L49.6244 206.52C54.6821 202.53 57.93 197.135 59.3787 190.393L57.4233 189.973ZM48.3911 204.946C43.7335 208.568 37.9653 210.405 31.023 210.405V212.405C38.3367 212.405 44.5565 210.462 49.6189 206.524L48.3911 204.946ZM31.023 210.405C25.5555 210.405 20.7606 209.224 16.6093 206.888L15.6287 208.632C20.1174 211.156 25.2585 212.405 31.023 212.405V210.405ZM16.6175 206.893C12.4576 204.501 9.24133 201.207 6.95372 196.996L5.19628 197.95C7.66067 202.487 11.1404 206.051 15.6205 208.627L16.6175 206.893ZM6.96062 197.009C4.7233 192.742 3.592 187.856 3.592 182.326H1.592C1.592 188.136 2.7827 193.348 5.18938 197.937L6.96062 197.009ZM94.8358 211L93.9553 211.474L94.2385 212H94.8358V211ZM83.4958 189.94L84.3763 189.466L84.0931 188.94H83.4958V189.94ZM81.7948 189.94V188.94H80.7948V189.94H81.7948ZM81.7948 211V212H82.7948V211H81.7948ZM65.9188 211H64.9188V212H65.9188V211ZM65.9188 153.895V152.895H64.9188V153.895H65.9188ZM102.612 156.325L102.159 157.216L102.171 157.222L102.612 156.325ZM109.821 162.886L108.955 163.386L108.959 163.393L109.821 162.886ZM109.011 182.488L108.202 181.9L108.2 181.903L109.011 182.488ZM99.6958 188.725L99.4062 187.768L98.1986 188.133L98.8301 189.226L99.6958 188.725ZM112.575 211V212H114.308L113.441 210.499L112.575 211ZM81.7948 179.086H80.7948V180.086H81.7948V179.086ZM94.5118 177.547L93.8231 176.822L94.5118 177.547ZM94.4308 168.799L93.7237 169.506L93.7414 169.524L93.7599 169.541L94.4308 168.799ZM81.7948 167.179V166.179H80.7948V167.179H81.7948ZM95.7163 210.526L84.3763 189.466L82.6153 190.414L93.9553 211.474L95.7163 210.526ZM83.4958 188.94H81.7948V190.94H83.4958V188.94ZM80.7948 189.94V211H82.7948V189.94H80.7948ZM81.7948 210H65.9188V212H81.7948V210ZM66.9188 211V153.895H64.9188V211H66.9188ZM65.9188 154.895H90.9478V152.895H65.9188V154.895ZM90.9478 154.895C95.4237 154.895 99.1471 155.685 102.159 157.216L103.065 155.434C99.7045 153.725 95.6519 152.895 90.9478 152.895V154.895ZM102.171 157.222C105.196 158.71 107.443 160.766 108.955 163.386L110.687 162.386C108.958 159.39 106.399 157.072 103.053 155.428L102.171 157.222ZM108.959 163.393C110.481 165.981 111.251 168.908 111.251 172.201H113.251C113.251 168.582 112.4 165.299 110.683 162.379L108.959 163.393ZM111.251 172.201C111.251 175.891 110.23 179.111 108.202 181.9L109.82 183.076C112.111 179.925 113.251 176.287 113.251 172.201H111.251ZM108.2 181.903C106.246 184.609 103.342 186.577 99.4062 187.768L99.9855 189.682C104.258 188.389 107.564 186.199 109.821 183.073L108.2 181.903ZM98.8301 189.226L111.709 211.501L113.441 210.499L100.562 188.224L98.8301 189.226ZM112.575 210H94.8358V212H112.575V210ZM81.7948 180.086H89.6518V178.086H81.7948V180.086ZM89.6518 180.086C91.9535 180.086 93.8656 179.54 95.2006 178.272L93.8231 176.822C92.9981 177.606 91.6701 178.086 89.6518 178.086V180.086ZM95.2006 178.272C96.535 177.004 97.1318 175.222 97.1318 173.092H95.1318C95.1318 174.85 94.6486 176.038 93.8231 176.822L95.2006 178.272ZM97.1318 173.092C97.1318 171.035 96.487 169.311 95.1017 168.057L93.7599 169.541C94.6426 170.339 95.1318 171.477 95.1318 173.092H97.1318ZM95.1379 168.092C93.8086 166.763 91.9205 166.179 89.6518 166.179V168.179C91.5952 168.179 92.8931 168.675 93.7237 169.506L95.1379 168.092ZM89.6518 166.179H81.7948V168.179H89.6518V166.179ZM80.7948 167.179V179.086H82.7948V167.179H80.7948ZM186.134 153.895H187.134V152.895H186.134V153.895ZM186.134 211V212H187.134V211H186.134ZM170.258 211H169.258V212H170.258V211ZM170.258 179.491H171.258L169.311 179.167L170.258 179.491ZM159.485 211V212H160.2L160.431 211.324L159.485 211ZM146.201 211L145.254 211.323L145.486 212H146.201V211ZM135.347 179.248L136.293 178.925L134.347 179.248H135.347ZM135.347 211V212H136.347V211H135.347ZM119.471 211H118.471V212H119.471V211ZM119.471 153.895V152.895H118.471V153.895H119.471ZM138.668 153.895L139.6 153.535L139.353 152.895H138.668V153.895ZM153.005 190.993L152.072 191.353L153.015 193.795L153.94 191.346L153.005 190.993ZM167.018 153.895V152.895H166.326L166.082 153.542L167.018 153.895ZM185.134 153.895V211H187.134V153.895H185.134ZM186.134 210H170.258V212H186.134V210ZM171.258 211V179.491H169.258V211H171.258ZM169.311 179.167L158.538 210.676L160.431 211.324L171.204 179.815L169.311 179.167ZM159.485 210H146.201V212H159.485V210ZM147.147 210.677L136.293 178.925L134.4 179.571L145.254 211.323L147.147 210.677ZM134.347 179.248V211H136.347V179.248H134.347ZM135.347 210H119.471V212H135.347V210ZM120.471 211V153.895H118.471V211H120.471ZM119.471 154.895H138.668V152.895H119.471V154.895ZM137.735 154.255L152.072 191.353L153.937 190.633L139.6 153.535L137.735 154.255ZM153.94 191.346L167.953 154.248L166.082 153.542L152.069 190.64L153.94 191.346ZM167.018 154.895H186.134V152.895H167.018V154.895Z" fill="#1A2B42" mask="url(#path-3-outside-2_48_236)"/>
<path d="M727.357 570.531C727.362 570.549 727.855 572.695 728.888 576.165L727.019 576.721C725.966 573.19 725.474 571.056 725.456 570.965L727.357 570.531ZM730.659 581.728C731.234 583.43 731.89 585.27 732.631 587.216L730.808 587.911C730.058 585.939 729.394 584.075 728.811 582.354L730.659 581.728ZM734.805 592.63C735.538 594.362 736.33 596.142 737.184 597.949L735.42 598.784C734.555 596.95 733.751 595.146 733.009 593.39L734.805 592.63ZM739.783 603.158C740.704 604.912 741.657 606.621 742.614 608.24L740.936 609.23C739.963 607.587 738.992 605.85 738.056 604.068L739.783 603.158ZM745.704 613.16C746.795 614.791 747.928 616.377 749.067 617.875L747.517 619.062C746.35 617.53 745.194 615.908 744.08 614.244L745.704 613.16ZM752.744 622.346C754.049 623.821 755.396 625.22 756.748 626.51L755.405 627.922C754.012 626.596 752.624 625.157 751.284 623.641L752.744 622.346ZM761.103 630.281C762.637 631.48 764.221 632.583 765.811 633.561L764.787 635.225C763.136 634.208 761.492 633.063 759.899 631.819L761.103 630.281ZM770.847 636.247C772.594 637.039 774.389 637.711 776.188 638.246L775.629 640.115C773.749 639.555 771.868 638.849 770.041 638.021L770.847 636.247ZM781.743 639.491C783.595 639.77 785.507 639.923 787.418 639.953L787.391 641.903C785.389 641.874 783.389 641.712 781.451 641.419L781.743 639.491ZM798.784 638.683L799.223 640.585C797.247 641.039 795.272 641.382 793.351 641.601L793.132 639.662C794.978 639.45 796.88 639.121 798.784 638.683ZM809.695 635.029L810.475 636.817C808.627 637.621 806.766 638.34 804.942 638.953L804.317 637.105C806.089 636.507 807.898 635.807 809.695 635.029ZM819.951 629.685L820.961 631.354C819.234 632.397 817.501 633.374 815.816 634.259L814.907 632.53C816.562 631.664 818.259 630.705 819.951 629.685ZM810.607 471.203C811.113 472.925 811.998 474.651 813.095 476.059L811.555 477.259C810.293 475.64 809.318 473.735 808.734 471.753L810.607 471.203ZM811.628 460.014L812.9 461.494C811.534 462.668 810.656 464.149 810.29 465.895L808.379 465.496C808.836 463.321 809.929 461.475 811.628 460.014ZM829.555 623.17L830.726 624.732C829.131 625.928 827.519 627.081 825.928 628.162L824.831 626.547C826.395 625.486 827.984 624.351 829.555 623.17ZM817.272 479.274C818.87 479.911 820.656 480.159 822.582 480.013L822.73 481.961C820.503 482.128 818.425 481.836 816.546 481.086L817.272 479.274ZM821.566 456.444C822.085 456.396 822.628 456.36 823.184 456.338L823.268 458.29C822.743 458.311 822.232 458.344 821.744 458.388C820.277 458.522 818.92 458.759 817.709 459.091L817.191 457.211C818.51 456.847 819.982 456.588 821.566 456.444ZM838.582 615.839L839.865 617.309C838.35 618.635 836.849 619.899 835.367 621.107L834.135 619.593C835.601 618.402 837.083 617.151 838.582 615.839ZM832.9 476.005L834.002 477.615C832.253 478.811 830.463 479.782 828.682 480.503L827.953 478.694C829.601 478.027 831.267 477.122 832.9 476.005ZM847.116 607.913L848.483 609.303C847.05 610.711 845.635 612.066 844.236 613.368L842.904 611.941C844.293 610.65 845.699 609.307 847.116 607.913ZM829.16 456.497C829.968 456.57 830.806 456.659 831.675 456.769C832.768 456.91 833.922 457.15 835.104 457.49L834.566 459.368C833.478 459.054 832.422 458.832 831.429 458.705C830.587 458.598 829.773 458.51 828.989 458.443L829.16 456.497ZM841.104 468.146L842.642 469.347C841.392 470.953 840.047 472.453 838.647 473.804L837.291 472.4C838.626 471.111 839.909 469.682 841.104 468.146ZM855.223 599.535L856.656 600.861C855.298 602.328 853.952 603.752 852.619 605.131L851.216 603.772C852.54 602.406 853.873 600.995 855.223 599.535ZM840.706 459.69C842.133 460.388 843.6 461.209 845.075 462.127C845.757 460.898 846.397 459.623 846.982 458.325L848.762 459.125C847.938 460.953 847.013 462.732 846.009 464.415L845.098 463.87L844.831 464.286C843.145 463.193 841.469 462.238 839.847 461.443L840.706 459.69ZM861.895 592.065C862.256 591.65 862.609 591.233 862.96 590.816L864.454 592.071C864.099 592.493 863.737 592.919 863.37 593.341C862.44 594.419 861.516 595.474 860.598 596.509L859.14 595.213C860.054 594.184 860.971 593.135 861.895 592.065ZM850.725 466.104C852.238 467.291 853.758 468.584 855.246 469.943L853.928 471.383C852.477 470.055 850.993 468.797 849.519 467.641L850.725 466.104ZM850.566 447.414L852.471 447.832C852.044 449.78 851.519 451.711 850.91 453.572L849.057 452.966C849.644 451.167 850.153 449.299 850.566 447.414ZM851.96 435.99L853.908 436.05C853.847 438.037 853.698 440.031 853.462 441.974L851.527 441.735C851.756 439.851 851.899 437.919 851.96 435.99ZM851.407 414.546C851.737 415.837 852.034 417.115 852.296 418.379L850.385 418.775C850.128 417.54 849.839 416.294 849.517 415.029L851.407 414.546ZM853.291 424.217C853.56 426.225 853.74 428.196 853.843 430.121L851.895 430.222C851.794 428.348 851.616 426.431 851.359 424.472L853.291 424.217ZM869.914 581.543L871.54 582.625C870.473 584.23 869.323 585.856 868.127 587.45L866.567 586.277C867.743 584.711 868.868 583.118 869.914 581.543ZM859.473 474.087C860.82 475.497 862.152 476.981 863.424 478.492L861.93 479.749C860.684 478.269 859.381 476.816 858.062 475.433L859.473 474.087ZM875.709 571.525L877.458 572.389C876.598 574.131 875.658 575.882 874.663 577.601L872.973 576.625C873.946 574.942 874.868 573.226 875.709 571.525ZM867.098 483.131C868.265 484.697 869.406 486.329 870.49 487.974L868.858 489.046C867.798 487.432 866.678 485.834 865.534 484.296L867.098 483.131ZM880.098 560.834L881.954 561.445C881.342 563.304 880.649 565.172 879.901 566.998L878.094 566.257C878.828 564.474 879.504 562.648 880.098 560.834ZM873.589 493.01C874.571 494.711 875.511 496.461 876.386 498.218L874.64 499.091C873.782 497.369 872.86 495.649 871.9 493.984L873.589 493.01ZM882.883 549.627L884.806 549.952C884.479 551.889 884.072 553.841 883.597 555.753L881.702 555.284C882.164 553.417 882.561 551.515 882.883 549.627ZM878.865 503.587C879.637 505.407 880.357 507.261 881.005 509.105L879.163 509.751C878.529 507.945 877.825 506.129 877.069 504.351L878.865 503.587ZM882.782 514.746C883.315 516.654 883.786 518.589 884.18 520.499L882.268 520.891C881.881 519.029 881.421 517.135 880.902 515.268L882.782 514.746ZM883.931 538.127L885.881 538.157C885.855 540.126 885.748 542.116 885.569 544.076L883.625 543.901C883.8 541.987 883.903 540.05 883.931 538.127ZM885.176 526.335C885.437 528.279 885.626 530.245 885.748 532.23L883.801 532.349C883.684 530.41 883.496 528.492 883.241 526.594L885.176 526.335Z" fill="white"/>
<path d="M844.866 419.79L846.605 424.188L851.478 418.524L843.176 400.092L844.866 419.79Z" fill="#F0C542"/>
<path d="M837.509 420.856L843.176 400.092L847.51 419.409L837.509 420.856Z" fill="#FAD77E"/>
<path d="M843.176 400.092L850.114 418.866L859.124 416.584L843.176 400.092Z" fill="#FAD784"/>
<path d="M846.605 424.187L847.51 419.408L844.866 419.79L846.605 424.187Z" fill="#DBAB33"/>
<path d="M481.798 667C719.759 667 912.664 652.032 912.664 633.568C912.664 615.104 719.759 600.136 481.798 600.136C243.838 600.136 50.9324 615.104 50.9324 633.568C50.9324 652.032 243.838 667 481.798 667Z" fill="#1A2B42" fill-opacity="0.12"/>
<path d="M316.177 629.109C306.725 633.814 285.494 638.891 257.842 638.891C179.263 638.891 138.773 589.985 138.773 525.23C138.773 447.639 194.074 404.469 262.874 404.469C289.537 404.469 309.759 409.877 318.88 414.602L308.417 455.396C297.953 451.024 283.47 446.979 265.247 446.979C224.453 446.979 192.734 471.596 192.734 522.172C192.734 567.715 219.704 596.377 265.6 596.377C281.096 596.377 298.283 592.99 308.417 588.947L316.177 629.109Z" fill="white"/>
<path d="M356.524 411.241C373.053 408.514 397.672 406.492 424.993 406.492C458.734 406.492 482.342 411.57 498.518 424.385C512.013 435.177 519.419 451.026 519.419 471.952C519.419 500.943 498.846 520.833 479.284 527.911V528.946C495.131 535.341 503.925 550.533 509.639 571.411C516.716 597.062 523.817 626.738 528.191 635.507H475.569C471.878 629.111 466.47 610.536 459.722 582.556C453.655 554.224 443.874 546.466 422.971 546.135H407.453V635.507H356.524V411.241ZM407.453 509.03H427.698C453.327 509.03 468.516 496.215 468.516 476.324C468.516 455.397 454.338 444.958 430.73 444.628C418.245 444.628 411.168 445.615 407.453 446.297V509.03Z" fill="white"/>
<path d="M755.371 548.508C754.383 521.186 753.349 488.127 753.349 455.07H752.361C745.261 484.084 735.807 516.437 727.062 543.102L699.409 631.792H659.249L634.984 543.762C627.554 517.144 619.795 484.743 614.41 455.071H613.728C612.389 485.779 611.378 520.834 609.685 549.169L605.64 635.507H558.097L572.582 408.187H641.049L663.317 484.084C670.392 510.372 677.469 538.728 682.525 565.346H683.561C689.956 539.057 697.716 509.032 705.145 483.756L729.411 408.187H796.516L809.024 635.507H758.755L755.371 548.508Z" fill="white"/>
<path d="M191.415 513.407C191.338 513.457 189.489 514.63 186.257 516.402L185.318 514.694C188.491 512.951 190.351 511.77 190.368 511.761L191.415 513.407ZM181.024 519.151C179.399 519.965 177.616 520.825 175.697 521.7L174.889 519.924C176.784 519.06 178.544 518.212 180.149 517.406L181.024 519.151ZM170.282 524.05C168.52 524.779 166.681 525.496 164.777 526.193L164.108 524.359C165.985 523.673 167.8 522.965 169.539 522.247L170.282 524.05ZM159.185 528.1C157.267 528.709 155.356 529.261 153.508 529.747L153.012 527.863C154.83 527.382 156.709 526.837 158.598 526.237L159.185 528.1ZM147.748 531.103C145.786 531.503 143.826 531.844 141.918 532.115L141.649 530.181C143.514 529.916 145.434 529.584 147.356 529.192L147.748 531.103ZM136.022 532.727C134.003 532.863 132.005 532.913 130.081 532.876L130.117 530.928C131.985 530.958 133.927 530.911 135.892 530.779L136.022 532.727ZM124.144 532.488C122.139 532.254 120.163 531.913 118.275 531.476L118.716 529.572C120.533 529.995 122.435 530.322 124.37 530.548L124.144 532.488ZM112.568 529.773C110.687 529.078 108.853 528.259 107.121 527.335L108.04 525.612C109.695 526.496 111.447 527.28 113.244 527.944L112.568 529.773ZM102.064 524.17C100.479 523.016 98.9427 521.727 97.4986 520.341L98.8502 518.935C100.232 520.258 101.699 521.492 103.213 522.595L102.064 524.17ZM94.993 514.711L93.4734 515.936C92.2611 514.429 91.0958 512.798 90.0102 511.087L91.6593 510.042C92.7036 511.693 93.8262 513.262 94.993 514.711ZM88.8307 505.031L87.0877 505.906C86.2227 504.189 85.4017 502.369 84.6533 500.498L86.4631 499.773C87.1945 501.591 87.9912 503.361 88.8307 505.031ZM84.5124 494.332L82.6514 494.924C82.0737 493.109 81.5273 491.197 81.0322 489.241L82.9231 488.763C83.4112 490.681 83.9447 492.553 84.5124 494.332ZM201.903 384.302C200.094 385.3 198.061 385.971 196.025 386.235L195.772 384.3C197.542 384.07 199.384 383.464 200.955 382.594L201.903 384.302ZM206.552 380.099L204.913 379.04C205.881 377.54 206.296 375.871 206.15 374.076L208.095 373.918C208.276 376.15 207.755 378.23 206.552 380.099ZM81.6582 483.103L79.7417 483.481C79.3703 481.594 79.0345 479.641 78.74 477.67L80.6708 477.383C80.9596 479.322 81.2911 481.249 81.6582 483.103ZM189.784 385.447C187.922 384.66 186.239 383.407 184.772 381.724L186.246 380.443C187.515 381.901 188.959 382.98 190.544 383.65L189.784 385.447ZM206.107 368.013L204.417 368.986C203.789 367.899 202.99 366.777 202.041 365.65C201.723 365.274 201.383 364.893 201.025 364.507L202.456 363.178C202.836 363.585 203.196 363.991 203.532 364.391C204.558 365.607 205.424 366.825 206.107 368.013ZM79.9281 471.616L77.9873 471.827C77.781 469.927 77.6032 467.974 77.4566 465.965L79.4031 465.821C79.5453 467.807 79.7218 469.74 79.9281 471.616ZM183.35 375.732L181.561 376.506C180.801 374.742 180.209 372.792 179.808 370.712L181.723 370.342C182.098 372.284 182.648 374.099 183.35 375.732ZM79.0673 460.01L77.118 460.091C77.0369 458.18 76.9814 456.223 76.9544 454.214L78.9036 454.185C78.9307 456.173 78.9876 458.116 79.0673 460.01ZM196.847 360.597C196.243 360.094 195.602 359.586 194.928 359.069C194.131 358.462 193.225 357.877 192.23 357.336L193.167 355.622C194.248 356.212 195.238 356.851 196.113 357.52C196.808 358.052 197.466 358.578 198.094 359.095L196.847 360.597ZM181.132 364.689L179.182 364.736C179.136 362.791 179.233 360.78 179.472 358.758L181.41 358.984C181.181 360.918 181.088 362.835 181.132 364.689ZM78.8951 448.357L76.943 448.337C76.9643 446.419 77.007 444.46 77.0725 442.463L79.0232 442.527C78.9577 444.514 78.915 446.455 78.8951 448.357ZM187.014 355.1C185.303 354.526 183.437 354.027 181.471 353.618L181.57 353.135L180.54 352.883C181.008 350.981 181.6 349.064 182.299 347.184L184.127 347.866C183.631 349.201 183.19 350.557 182.811 351.911C184.506 352.295 186.126 352.742 187.633 353.248L187.014 355.1ZM79.2764 436.7L77.3286 436.598C77.4011 435.216 77.4865 433.816 77.5818 432.396C77.6174 431.837 77.6601 431.282 77.7042 430.731L79.6478 430.888C79.6051 431.431 79.5638 431.976 79.5283 432.525C79.4315 433.934 79.3476 435.327 79.2764 436.7ZM175.778 352.711C173.916 352.499 171.976 352.351 170.011 352.274L170.087 350.323C172.1 350.403 174.091 350.551 176 350.769L175.778 352.711ZM186.421 342.596L184.677 341.725C185.55 339.974 186.535 338.231 187.6 336.545L189.249 337.586C188.219 339.218 187.267 340.904 186.421 342.596ZM192.558 332.872L191.012 331.681C192.21 330.132 193.505 328.609 194.858 327.152L196.287 328.48C194.974 329.894 193.719 331.371 192.558 332.872ZM212.757 315.286C211.639 315.959 210.556 316.643 209.506 317.341L208.425 315.716C209.501 315 210.609 314.3 211.751 313.614L212.757 315.286ZM204.81 320.71C203.25 321.922 201.777 323.161 200.389 324.422L199.074 322.981C200.5 321.682 202.014 320.408 203.614 319.169L204.81 320.71ZM80.2724 425.123L78.3402 424.861C78.6077 422.884 78.9335 420.92 79.302 419.029L81.2186 419.403C80.8543 421.26 80.5356 423.183 80.2724 425.123ZM164.223 352.251C162.314 352.308 160.366 352.425 158.44 352.603L158.26 350.659C160.228 350.478 162.217 350.357 164.166 350.302L164.223 352.251ZM82.4991 413.756L80.6096 413.262C81.1104 411.341 81.6725 409.433 82.2857 407.59L84.1368 408.205C83.5392 410.005 82.9886 411.873 82.4991 413.756ZM152.681 353.304C150.788 353.594 148.867 353.943 146.979 354.345L146.57 352.437C148.497 352.028 150.455 351.671 152.387 351.375L152.681 353.304ZM86.143 402.78L84.336 402.039C85.0858 400.213 85.9068 398.396 86.779 396.645L88.5276 397.514C87.6754 399.223 86.8743 400.996 86.143 402.78ZM141.344 355.721C139.49 356.231 137.627 356.806 135.805 357.427L135.176 355.579C137.035 354.946 138.934 354.361 140.828 353.84L141.344 355.721ZM91.2893 392.439L89.6104 391.441C90.6163 389.747 91.6991 388.072 92.8274 386.464L94.4238 387.584C93.3254 389.154 92.2697 390.785 91.2893 392.439ZM130.38 359.462C128.593 360.198 126.816 360.994 125.096 361.831L124.239 360.079C125.995 359.223 127.81 358.409 129.639 357.658L130.38 359.462ZM119.979 364.534C118.296 365.498 116.638 366.521 115.055 367.575L113.971 365.95C115.594 364.87 117.289 363.824 119.009 362.841L119.979 364.534ZM97.9197 382.988L96.4129 381.748C97.6636 380.228 98.9868 378.737 100.351 377.318L101.758 378.667C100.43 380.053 99.1405 381.506 97.9197 382.988ZM110.355 370.946C108.841 372.118 107.36 373.349 105.915 374.648L104.611 373.195C106.092 371.869 107.611 370.604 109.161 369.405L110.355 370.946Z" fill="white"/>
<path d="M212.72 321.942L208.392 323.849L208.904 316.393L227.765 309.117L212.72 321.942Z" fill="#F0C542"/>
<path d="M217.204 327.871L227.765 309.117L211.107 319.811L217.204 327.871Z" fill="#FAD77E"/>
<path d="M227.765 309.117L209.636 317.597L204.829 309.639L227.765 309.117Z" fill="#FAD784"/>
<path d="M208.392 323.849L211.107 319.811L212.72 321.942L208.392 323.849Z" fill="#DBAB33"/>
<path d="M495.847 356.622C494.732 356.622 493.65 356.81 492.606 357.127C490.476 353.392 487.11 350.97 483.314 350.97C480.906 350.97 478.664 351.946 476.805 353.61C476.132 347.016 471.901 341.93 466.765 341.93C461.245 341.93 456.769 347.799 456.638 355.112C454.848 353.846 452.81 353.12 450.637 353.12C444.583 353.12 439.527 358.706 438.17 366.216C437.252 365.812 436.268 365.593 435.248 365.593C430.983 365.593 427.377 369.375 426.224 374.568H510.11C509.68 364.563 503.471 356.622 495.847 356.622Z" fill="#EAEAE8"/>
<path d="M466.765 341.93C461.245 341.93 456.769 347.799 456.638 355.112C454.848 353.846 452.81 353.12 450.637 353.12C444.583 353.12 439.527 358.706 438.17 366.216C437.252 365.812 436.268 365.593 435.248 365.593C430.983 365.593 427.377 369.375 426.224 374.568H443.184C445.283 372.102 446.686 369.094 447.123 365.795C450.589 367.71 454.671 368.821 459.047 368.821C470.596 368.821 480.115 361.115 481.492 351.16C479.779 351.522 478.186 352.375 476.804 353.613C476.132 347.016 471.9 341.93 466.765 341.93Z" fill="#F9F9F9"/>
<path d="M804.962 347.291C803.153 347.291 801.41 347.594 799.719 348.108C796.261 342.058 790.815 338.141 784.667 338.141C780.764 338.141 777.136 339.717 774.119 342.409C773.028 331.732 766.174 323.491 757.859 323.491C748.921 323.491 741.67 332.999 741.453 344.849C738.554 342.795 735.252 341.619 731.736 341.619C721.928 341.619 713.743 350.673 711.542 362.831C710.059 362.181 708.461 361.819 706.815 361.819C699.905 361.819 694.062 367.949 692.199 376.356H828.064C827.371 360.152 817.315 347.291 804.962 347.291Z" fill="#EAEAE8"/>
<path d="M757.859 323.491C748.921 323.491 741.67 332.999 741.453 344.849C738.554 342.795 735.252 341.619 731.736 341.619C721.928 341.619 713.743 350.673 711.542 362.831C710.059 362.181 708.461 361.819 706.815 361.819C699.905 361.819 694.062 367.949 692.199 376.356H719.668C723.07 372.362 725.345 367.491 726.046 362.148C731.655 365.253 738.27 367.045 745.362 367.045C764.065 367.045 779.482 354.566 781.718 338.444C778.938 339.028 776.357 340.407 774.121 342.411C773.029 331.732 766.174 323.491 757.859 323.491Z" fill="#F9F9F9"/>
<path d="M658.748 548.028C663.305 548.031 663.12 561.698 666.812 564.366C670.503 567.04 683.827 562.549 684.842 566.987C685.86 571.428 672.652 575.232 671.795 579.706C670.942 584.18 678.786 595.324 674.877 597.663C670.967 600.001 663.268 588.615 658.748 589.184C654.232 589.754 646.056 600.657 642.622 597.663C639.19 594.668 647.64 583.826 645.703 579.706C643.764 575.584 630.87 571.18 632.656 566.987C634.44 562.797 647.36 567.479 650.686 564.366C654.013 561.256 654.198 548.028 658.748 548.028Z" fill="#FDD247"/>
<path d="M721.694 548.028C726.248 548.031 726.063 561.698 729.755 564.366C733.445 567.04 746.768 562.549 747.784 566.987C748.803 571.428 735.593 575.232 734.735 579.706C733.885 584.18 741.727 595.324 737.82 597.663C733.91 600.001 726.213 588.615 721.694 589.184C717.175 589.754 709.001 600.657 705.563 597.663C702.133 594.668 710.584 583.826 708.646 579.706C706.706 575.584 693.812 571.18 695.599 566.987C697.383 562.797 710.304 567.479 713.628 564.366C716.951 561.256 717.141 548.028 721.694 548.028Z" fill="#FDD247"/>
<path d="M786.58 628.263C786.58 628.263 755.136 589.981 736.133 594.268C724.317 596.93 717.282 638.509 717.282 638.509H726.958L740.461 614.654L761.099 638.509L786.58 628.263Z" fill="#427242"/>
<path d="M809.503 630.953C809.503 630.953 811.541 647.257 792.686 646.243C792.686 646.243 749.897 643.531 735.626 643.969C723.725 644.336 688.243 648.785 688.243 648.785V639.875L743.777 628.237C743.777 628.237 791.157 624.842 809.503 630.953Z" fill="#538854"/>
<path d="M688.244 639.877C688.244 639.877 685.183 639.491 683.653 633.949C682.125 628.406 679.067 629.302 679.577 633.949C680.087 638.599 678.559 650.318 682.125 648.787C685.7 647.264 688.244 648.787 688.244 648.787V639.877Z" fill="#312E3F"/>
<path d="M788.447 589.171C788.447 589.171 780.324 616.666 770.053 611.389C759.778 606.112 754.638 598.761 754.638 598.761L756.334 592.389C756.334 592.389 766.698 607.581 774.112 603.31C777.325 601.453 780.685 586.976 780.685 586.976L788.447 589.171Z" fill="#F99C73"/>
<path d="M778.483 590.659L791.177 594.647C791.177 594.647 797.557 576.799 790.418 576.184C783.284 575.569 780.368 586.034 778.483 590.659Z" fill="#FDD247"/>
<path d="M844.447 593.178C844.447 593.178 853.174 597.819 850.494 603.077C847.809 608.334 838.429 613.964 841.449 622.757C844.461 631.548 854.438 636.708 845.932 639.286C837.421 641.862 813.261 622.72 811.622 619.979C809.987 617.23 828.305 595.082 828.305 595.082L844.447 593.178Z" fill="#312E3F"/>
<path d="M805.539 552.369C805.539 552.369 811.282 555.15 811.31 559.678C811.34 564.199 818.336 571.571 824.191 573.106C860.46 582.602 830.992 582.579 846.575 595.083C853.17 600.378 831.224 592.599 821.246 619.246C819.556 623.765 814.812 606.038 813.705 603.341C812.608 600.654 803.192 586.6 802.351 582.047C801.494 577.479 795.869 578.994 794.389 575.662C792.918 572.315 795.141 568.159 794.514 566.327C792.249 559.612 795.757 555.221 799.611 552.602C803.454 549.973 805.539 552.369 805.539 552.369Z" fill="#312E3F"/>
<path d="M760.655 582.266C755.931 582.269 756.119 595.904 752.296 598.566C748.468 601.234 734.65 596.755 733.594 601.184C732.537 605.613 746.237 609.409 747.127 613.876C748.01 618.339 739.879 629.457 743.934 631.795C747.988 634.13 755.97 622.763 760.655 623.333C765.343 623.905 773.825 634.785 777.383 631.795C780.947 628.807 772.18 617.989 774.19 613.876C776.201 609.762 789.58 605.367 787.723 601.184C785.869 597.001 772.474 601.673 769.02 598.566C765.568 595.466 765.38 582.266 760.655 582.266Z" fill="#FDD247"/>
<path d="M810.31 575.073C810.31 575.073 824.597 580.298 820.513 598.49C816.431 616.684 809.217 633.052 809.217 633.052C809.217 633.052 792.752 632.016 784.18 626.541C784.18 626.541 769.075 561.052 810.31 575.073Z" fill="#4E49A3"/>
<path d="M816.891 591.808C816.891 591.808 820.784 623.976 807.652 622.74C794.52 621.503 776.189 611.138 776.189 611.138L777.715 607.398C777.715 607.398 802.42 620.15 808.257 612.588C810.785 609.303 807.776 592.744 807.776 592.744L816.891 591.808Z" fill="#F99C73"/>
<path d="M804.814 599.773L818.064 601.402C818.064 601.402 820.852 582.715 813.718 583.399C806.594 584.088 805.771 594.89 804.814 599.773Z" fill="#FDD247"/>
<path d="M805.818 564.898L807.789 574.788C807.789 574.788 796.179 582.856 797.499 578.025C798.723 573.549 799.744 564.592 799.744 564.592L805.818 564.898Z" fill="#F99C73"/>
<path d="M806.322 553.68C806.975 555.712 808.267 559.672 807.106 562.243C805.919 564.824 804.146 569.435 801.298 570.413C798.448 571.399 797.858 567.973 797.315 566.817C796.765 565.669 795.782 554.528 800.417 552.105C803.907 550.284 805.827 552.13 806.322 553.68Z" fill="#F99C73"/>
<path d="M801.96 554.67C801.96 554.67 804.273 560.67 807.925 562.061C807.925 562.061 808.94 552.846 803.744 551.404C803.744 551.404 797.441 550.649 796.489 559.022C796.489 559.022 801.472 557.535 801.96 554.67Z" fill="#312E3F"/>
<path d="M780.503 608.744C780.503 608.744 776.944 604.245 773.173 603.834C769.405 603.42 768.905 605.493 768.399 608.085C767.896 610.672 773.836 609.872 776.189 611.14C778.54 612.403 780.503 608.744 780.503 608.744Z" fill="#F99C73"/>
<path d="M108.368 511.769C108.368 511.769 81.1091 477.4 89.1495 458.871C97.197 440.344 109.822 437.035 132.174 437.035C154.527 437.035 215.677 432.921 227.529 443.666C239.38 454.415 250.736 487.776 218.174 492.242C185.62 496.704 126.834 493.306 121.487 492.818C116.145 492.33 108.368 511.769 108.368 511.769Z" fill="#312E3F"/>
<path d="M122.177 456.849C123.858 456.849 123.785 461.867 125.141 462.849C126.499 463.829 131.392 462.18 131.766 463.811C132.136 465.444 127.288 466.84 126.972 468.483C126.662 470.122 129.541 474.22 128.105 475.079C126.669 475.939 123.844 471.754 122.177 471.965C120.524 472.175 117.522 476.179 116.257 475.079C114.992 473.979 118.101 469.998 117.39 468.483C116.673 466.968 111.943 465.351 112.596 463.811C113.255 462.272 117.996 463.991 119.221 462.849C120.446 461.706 120.511 456.849 122.177 456.849Z" fill="#FDD247"/>
<path d="M143.871 456.849C145.545 456.849 145.479 461.867 146.835 462.849C148.193 463.829 153.078 462.18 153.454 463.811C153.823 465.444 148.981 466.84 148.666 468.483C148.349 470.122 151.229 474.22 149.792 475.079C148.356 475.939 145.532 471.754 143.871 471.965C142.219 472.175 139.209 476.179 137.951 475.079C136.686 473.979 139.789 469.998 139.078 468.483C138.366 466.968 133.637 465.351 134.283 463.811C134.949 462.272 139.69 463.991 140.915 462.849C142.14 461.706 142.198 456.849 143.871 456.849Z" fill="#FDD247"/>
<path d="M166.159 456.849C167.832 456.849 167.765 461.867 169.122 462.849C170.471 463.829 175.366 462.18 175.74 463.811C176.11 465.444 171.268 466.84 170.946 468.483C170.636 470.122 173.515 474.22 172.079 475.079C170.643 475.939 167.818 471.754 166.159 471.965C164.498 472.175 161.496 476.179 160.238 475.079C158.973 473.979 162.075 469.998 161.364 468.483C160.652 466.968 155.917 465.351 156.57 463.811C157.229 462.272 161.977 463.991 163.195 462.849C164.414 461.706 164.485 456.849 166.159 456.849Z" fill="#FDD247"/>
<path d="M189.848 456.849C191.529 456.849 191.456 461.867 192.812 462.849C194.168 463.829 199.056 462.18 199.43 463.811C199.807 465.444 194.958 466.84 194.643 468.483C194.326 470.122 197.204 474.22 195.776 475.079C194.34 475.939 191.507 471.754 189.848 471.965C188.195 472.175 185.186 476.179 183.928 475.079C182.663 473.979 185.772 469.998 185.054 468.483C184.342 466.968 179.608 465.351 180.267 463.811C180.926 462.272 185.667 463.991 186.892 462.849C188.115 461.706 188.175 456.849 189.848 456.849Z" fill="#FDD247"/>
<path d="M212.136 456.849C213.809 456.849 213.735 461.867 215.099 462.849C216.455 463.829 221.346 462.18 221.72 463.811C222.09 465.444 217.239 466.84 216.922 468.483C216.613 470.122 219.495 474.22 218.056 475.079C216.619 475.939 213.795 471.754 212.136 471.965C210.475 472.175 207.473 476.179 206.214 475.079C204.949 473.979 208.052 469.998 207.341 468.483C206.629 466.968 201.894 465.351 202.546 463.811C203.205 462.272 207.954 463.991 209.172 462.849C210.396 461.706 210.462 456.849 212.136 456.849Z" fill="#1A1A1E"/>
<path d="M791.041 531.973C791.041 531.973 806.735 512.186 802.1 501.519C797.471 490.85 790.199 488.947 777.33 488.947C764.462 488.947 729.255 486.579 722.432 492.765C715.61 498.952 709.073 518.161 727.816 520.731C746.559 523.302 780.407 521.343 783.486 521.064C786.562 520.784 791.041 531.973 791.041 531.973Z" fill="#312E3F"/>
<path d="M783.084 500.352C782.121 500.352 782.16 503.241 781.383 503.806C780.602 504.371 777.783 503.422 777.565 504.363C777.353 505.3 780.145 506.105 780.323 507.05C780.505 507.996 778.846 510.355 779.671 510.849C780.502 511.343 782.128 508.934 783.083 509.054C784.039 509.175 785.764 511.481 786.491 510.849C787.219 510.217 785.429 507.922 785.839 507.05C786.253 506.181 788.979 505.248 788.599 504.363C788.224 503.475 785.493 504.465 784.788 503.806C784.086 503.149 784.045 500.352 783.084 500.352Z" fill="#FDD247"/>
<path d="M770.596 500.352C769.633 500.352 769.672 503.241 768.893 503.806C768.111 504.371 765.296 503.422 765.08 504.363C764.867 505.3 767.655 506.105 767.837 507.05C768.021 507.996 766.362 510.355 767.189 510.849C768.015 511.343 769.644 508.934 770.598 509.054C771.552 509.175 773.283 511.481 774.007 510.849C774.735 510.217 772.948 507.922 773.358 507.05C773.768 506.181 776.491 505.248 776.118 504.363C775.736 503.475 773.007 504.465 772.301 503.806C771.595 503.149 771.558 500.352 770.596 500.352Z" fill="#FDD247"/>
<path d="M757.764 500.352C756.801 500.352 756.842 503.241 756.061 503.806C755.281 504.371 752.467 503.422 752.248 504.363C752.036 505.3 754.823 506.105 755.008 507.05C755.189 507.996 753.53 510.355 754.356 510.849C755.183 511.343 756.812 508.934 757.765 509.054C758.723 509.175 760.453 511.481 761.176 510.849C761.904 510.217 760.116 507.922 760.526 507.05C760.935 506.181 763.663 505.248 763.286 504.363C762.907 503.475 760.174 504.465 759.47 503.806C758.767 503.149 758.73 500.352 757.764 500.352Z" fill="#FDD247"/>
<path d="M744.125 500.352C743.16 500.352 743.2 503.241 742.421 503.806C741.639 504.371 738.825 503.422 738.608 504.363C738.393 505.3 741.184 506.105 741.366 507.05C741.549 507.996 739.89 510.355 740.715 510.849C741.541 511.343 743.173 508.934 744.125 509.054C745.079 509.175 746.809 511.481 747.535 510.849C748.264 510.217 746.475 507.922 746.886 507.05C747.296 506.181 750.022 505.248 749.645 504.363C749.265 503.475 746.535 504.465 745.831 503.806C745.123 503.149 745.088 500.352 744.125 500.352Z" fill="#1A1A1E"/>
<path d="M731.294 500.352C730.333 500.352 730.373 503.241 729.59 503.806C728.808 504.371 725.994 503.422 725.777 504.363C725.565 505.3 728.358 506.105 728.538 507.05C728.718 507.996 727.059 510.355 727.886 510.849C728.713 511.343 730.34 508.934 731.295 509.054C732.253 509.175 733.98 511.481 734.704 510.849C735.433 510.217 733.646 507.922 734.055 507.05C734.465 506.181 737.193 505.248 736.816 504.363C736.437 503.475 733.705 504.465 733.002 503.806C732.297 503.149 732.255 500.352 731.294 500.352Z" fill="#1A1A1E"/>
<path d="M123.414 550.781C123.414 550.781 97.4489 529.372 85.3463 548.34C73.2437 567.306 48.7982 627.454 100.817 635.515C152.835 643.575 215.158 642.673 193.622 619.061C172.085 595.452 142.005 562.148 123.414 550.781Z" fill="#427242"/>
<path d="M101.884 540.676C101.884 540.676 73.8428 566.785 98.9343 595.41C124.022 624.031 172.226 634.546 187.723 612.596C187.723 612.596 136.692 541.102 101.884 540.676Z" fill="#538854"/>
<path d="M112.571 588.107L139.432 590.256L170.887 594.766C170.887 594.766 177.794 594.947 177.326 612.65L177.783 644.554L174.163 644.498C174.163 644.498 165.225 625.277 163.644 609.374C163.644 609.374 138.248 607.96 128.856 603.794C119.467 599.627 110.453 589.283 112.571 588.107Z" fill="#5AA0A0"/>
<path d="M104.826 589.607C104.826 589.607 139.462 593.948 161.574 603.079C166.036 604.923 168.206 604.726 162.67 622.362L154.235 655.039L150.616 653.946C150.616 653.946 148.082 633.036 150.449 616.334C150.449 616.334 124.965 617.576 113.723 613.105C103.765 609.126 101.38 594.491 104.826 589.607Z" fill="#8AC4C5"/>
<path d="M157.529 651.726C157.529 651.726 157.558 655.029 163.256 657.334C168.954 659.643 167.624 662.779 162.752 661.662C157.872 660.546 145.236 660.726 147.303 657.126C149.365 653.516 148.057 650.625 148.057 650.625L157.529 651.726Z" fill="#F45866"/>
<path d="M180.832 643.008C180.832 643.008 180.866 646.307 186.562 648.615C192.266 650.924 190.931 654.062 186.061 652.945C181.184 651.825 168.543 652.007 170.612 648.407C172.674 644.798 171.366 641.908 171.366 641.908L180.832 643.008Z" fill="#F45866"/>
<path d="M132.665 558.167C132.665 558.167 133.032 589.036 144.832 586.329C156.629 583.627 172.043 571.682 172.043 571.682L170.198 568.331C170.198 568.331 153.847 578.596 147.619 572.123C144.919 569.317 141.07 557.993 141.07 557.993L132.665 558.167Z" fill="#F99C73"/>
<path d="M133.764 567.645L144.411 561.589C144.411 561.589 135.758 545.814 130.925 550.262C126.085 554.711 131.671 563.402 133.764 567.645Z" fill="#FDD247"/>
<path d="M122.549 541.24C122.549 541.24 137.792 543.713 136.57 561.506C135.349 579.303 142.096 587.198 135.434 592.84C130.409 597.098 113.163 600.156 103.645 596.475C103.645 596.475 78.7417 535.105 122.549 541.24Z" fill="#D99C31"/>
<path d="M113.281 535.042L111.118 543.966C111.118 543.966 113.703 548.957 119.77 543.746L117.486 534.472L113.281 535.042Z" fill="#F99C73"/>
<path d="M112.7 520.569C111.627 522.198 109.502 525.36 110.025 527.898C110.532 530.442 111.176 534.924 113.634 536.479C116.096 538.041 118.155 535.977 118.811 535.005C119.853 533.423 122.424 523.877 118.621 520.631C115.745 518.184 113.513 519.338 112.7 520.569Z" fill="#F99C73"/>
<path d="M125.938 520.553C125.938 520.553 117.697 524.236 114.878 522.893C112.063 521.54 111.832 524.555 111.765 524.871C111.701 525.197 111.347 529.487 110.303 529.353C109.255 529.204 108.955 523.701 111.19 520.514C113.414 517.326 125.103 515.795 125.938 520.553Z" fill="#171B23"/>
<path d="M100.083 561.273C100.083 561.273 100.452 592.144 112.252 589.439C124.044 586.733 139.462 574.791 139.462 574.791L137.617 571.436C137.617 571.436 121.264 581.704 115.039 575.23C112.339 572.425 108.489 561.1 108.489 561.1L100.083 561.273Z" fill="#F99C73"/>
<path d="M99.1562 568.995L110.221 563.744C110.221 563.744 102.759 547.372 97.6053 551.449C92.4518 555.528 97.3791 564.61 99.1562 568.995Z" fill="#FDD247"/>
<path d="M147.635 591.192L119.321 591.789L119.378 594.496L147.692 593.899L147.635 591.192Z" fill="#59589E"/>
<path d="M192.182 565.984L152.761 566.811L145.189 593.947L184.586 593.107L192.182 565.984Z" fill="#59589E"/>
<path d="M166.762 582.015C166.8 583.923 168.388 585.44 170.293 585.398C172.211 585.359 173.732 583.778 173.692 581.867C173.654 579.952 172.063 578.438 170.152 578.476C168.243 578.518 166.719 580.097 166.762 582.015Z" fill="#EAEAEA"/>
<path d="M337.473 527.347C337.473 527.347 331.309 549.039 323.509 544.874C315.709 540.711 311.808 534.91 311.808 534.91L313.091 529.885C313.091 529.885 320.959 541.868 326.588 538.497C329.027 537.038 331.579 525.611 331.579 525.611L337.473 527.347Z" fill="#F99C73"/>
<path d="M329.5 527.604L342.422 531.827C342.422 531.827 348.919 512.938 341.65 512.287C334.386 511.64 331.42 522.713 329.5 527.604Z" fill="#538854"/>
<path d="M396.661 530.27C396.661 530.27 405.545 535.184 402.816 540.749C400.085 546.312 390.533 552.271 393.603 561.573C396.673 570.877 383.215 585.021 374.553 587.75C365.895 590.481 364.906 561.535 363.238 558.628C361.571 555.721 380.223 532.287 380.223 532.287L396.661 530.27Z" fill="#312E3F"/>
<path d="M357.048 487.087C357.048 487.087 362.893 490.032 362.921 494.821C362.954 499.602 370.075 507.403 376.035 509.027C412.962 519.08 382.962 519.052 398.823 532.287C405.538 537.886 383.201 529.655 373.04 557.851C371.32 562.639 366.488 543.88 365.363 541.025C364.244 538.185 354.662 523.313 353.805 518.494C352.933 513.659 347.202 515.264 345.695 511.734C344.198 508.197 346.465 503.795 345.824 501.858C343.517 494.754 347.089 490.107 351.013 487.331C354.928 484.55 357.048 487.087 357.048 487.087Z" fill="#312E3F"/>
<path d="M360.791 572.466C360.791 572.466 360.465 598.8 358.843 606.688C356.625 617.47 352.418 640.992 352.418 640.992L348.704 638.502C348.704 638.502 351.789 611.46 349.638 603.563C347.491 595.665 343.989 569.548 343.989 569.548L360.791 572.466Z" fill="#F99C73"/>
<path d="M335.3 565.575C335.3 565.575 335.031 600.696 336.649 608.582C338.867 619.367 343.667 642.411 343.667 642.411L347.378 639.919C347.378 639.919 344.103 613.169 346.251 605.271C348.4 597.374 352.088 570.966 352.088 570.966L335.3 565.575Z" fill="#F99C73"/>
<path d="M361.904 511.111C361.904 511.111 376.448 516.642 372.292 535.895C368.136 555.147 360.791 572.466 360.791 572.466C360.791 572.466 344.026 571.369 335.3 565.575C335.3 565.575 319.923 496.278 361.904 511.111Z" fill="#FDD247"/>
<path d="M357.329 500.347L359.337 510.811C359.337 510.811 347.518 519.346 348.861 514.236C350.107 509.499 351.147 500.021 351.147 500.021L357.329 500.347Z" fill="#F99C73"/>
<path d="M357.843 488.477C358.508 490.625 359.825 494.816 358.638 497.535C357.435 500.266 355.631 505.145 352.731 506.181C349.828 507.225 349.228 503.597 348.673 502.375C348.114 501.163 347.111 489.373 351.833 486.812C355.383 484.881 357.341 486.838 357.843 488.477Z" fill="#F99C73"/>
<path d="M353.401 489.521C353.401 489.521 355.754 495.868 359.476 497.345C359.476 497.345 360.509 487.591 355.218 486.068C355.218 486.068 348.8 485.268 347.833 494.125C347.833 494.125 352.902 492.553 353.401 489.521Z" fill="#312E3F"/>
<path d="M364.387 563.094C364.387 563.094 354.706 568.295 333.762 558.377C333.762 558.377 320.862 581.805 315.316 591.923C313.563 595.116 314.171 603.044 318.617 601.45C323.069 599.854 335.798 596.92 342.642 603.358C348.747 609.104 355.295 594.249 365.861 602.631C373.501 608.697 374.987 607.059 379.537 603.563C384.093 600.066 364.387 563.094 364.387 563.094Z" fill="#8AC4C5"/>
<path d="M349.047 638.731C349.047 638.731 345.553 643.526 353.038 646.769C360.517 650.014 368.832 649.705 364.811 645.842C360.794 641.979 350.971 638.661 349.047 638.731Z" fill="#5AA0A0"/>
<path d="M347.028 639.36C347.028 639.36 350.791 642.676 345.012 646.991C339.235 651.299 332.162 652.785 334.904 648.678C337.646 644.572 345.386 639.705 347.028 639.36Z" fill="#5AA0A0"/>
<path d="M402.029 497.551C398.388 501.046 392.11 505.186 390.124 503.116C388.138 501.044 391.588 494.511 395.232 491.013C398.869 487.525 400.926 488.112 402.91 490.182C404.9 492.251 405.673 494.061 402.029 497.551Z" fill="#F45866"/>
<path d="M386.359 471.871C383.993 476.903 379.171 483.638 376.316 482.293C373.45 480.946 374.422 472.864 376.787 467.834C379.15 462.806 381.495 462.596 384.353 463.94C387.214 465.292 388.73 466.837 386.359 471.871Z" fill="#D99C31"/>
<path d="M366.26 530.074C366.26 530.074 350.326 560.417 340.026 551.798C329.725 543.169 320.501 523.59 320.501 523.59L324.017 521.197C324.017 521.197 337.174 546.534 346.596 543.272C350.679 541.86 358.034 525.662 358.034 525.662L366.26 530.074Z" fill="#F99C73"/>
<path d="M351.352 530.1L361.518 539.131C361.518 539.131 375.017 524.407 368.612 520.91C362.213 517.414 355.073 526.385 351.352 530.1Z" fill="#538854"/>
<path d="M325.115 523.287C325.115 523.287 322.208 518.057 318.472 517.077C314.733 516.096 313.916 518.195 313.018 520.836C312.119 523.474 318.229 523.499 320.406 525.167C322.587 526.831 325.115 523.287 325.115 523.287Z" fill="#F99C73"/>
<path d="M341.582 351.503C341.582 351.503 288.752 342.348 289.059 368.13C289.362 393.914 277.021 409.974 328.042 417.725L346.956 446.815L364.425 424.073C364.425 424.073 408.699 422.717 407.064 401.817C405.437 380.921 433.173 349.926 341.582 351.503Z" fill="#B967A1"/>
<path d="M352.085 381.811C356.978 393.688 355.436 405.588 348.626 408.397C341.823 411.204 332.335 403.852 327.436 391.977C322.54 380.105 324.086 368.206 330.89 365.396C337.7 362.589 347.187 369.936 352.085 381.811Z" fill="white"/>
<path d="M365.153 393.938C359.452 405.449 349.482 412.131 342.885 408.861C336.291 405.593 335.563 393.615 341.266 382.102C346.963 370.595 356.932 363.915 363.53 367.179C370.129 370.449 370.849 382.425 365.153 393.938Z" fill="white"/>
<path d="M280.81 465.165C280.81 465.165 244.533 458.881 244.75 476.579C244.953 494.285 236.479 505.315 271.512 510.639L284.499 530.61L296.498 514.998C296.498 514.998 326.899 514.066 325.777 499.716C324.654 485.367 343.702 464.085 280.81 465.165Z" fill="#B967A1"/>
<path d="M288.019 485.975C291.38 494.131 290.326 502.305 285.647 504.229C280.975 506.157 274.458 501.11 271.098 492.958C267.737 484.803 268.797 476.63 273.469 474.705C278.142 472.779 284.659 477.824 288.019 485.975Z" fill="white"/>
<path d="M296.995 494.3C293.08 502.205 286.235 506.795 281.708 504.552C277.175 502.308 276.677 494.081 280.591 486.179C284.505 478.275 291.35 473.691 295.878 475.93C300.412 478.177 300.909 486.401 296.995 494.3Z" fill="white"/>
<path d="M603.357 568.306C603.357 568.306 595.692 591.764 585.768 598.977C575.844 606.194 562.31 624.687 559.154 635.062C556 645.431 556 645.431 556 645.431H549.683C549.683 645.431 555.86 583.19 579.765 568.306H603.357Z" fill="#B967A1"/>
<path d="M603.357 568.306C603.357 568.306 606.652 603.256 610.264 606.87C613.872 610.478 636.283 619.273 636.283 619.273V624.796C636.283 624.796 596.764 638.812 579.764 604.236L603.357 568.306Z" fill="#A34F8F"/>
<path d="M547.456 644.361C547.456 644.361 547.423 647.652 541.746 649.954C536.066 652.255 537.391 655.38 542.248 654.266C547.11 653.156 559.699 653.332 557.64 649.748C555.59 646.153 556.889 643.271 556.889 643.271L547.456 644.361Z" fill="#312E3F"/>
<path d="M634.361 627.023C634.361 627.023 637.542 627.855 638.383 633.926C639.228 639.993 642.58 639.474 642.687 634.492C642.795 629.504 646.049 617.342 642.068 618.461C638.08 619.571 635.601 617.604 635.601 617.604L634.361 627.023Z" fill="#312E3F"/>
<path d="M559.612 521.283C559.612 521.283 547.496 523.392 537.503 514.883C527.506 506.373 518.661 487.165 518.661 487.165L522.117 484.864C522.117 484.864 534.366 504.294 543.732 506.961C555.469 510.302 563.542 510.798 563.542 510.798L559.612 521.283Z" fill="#F99C73"/>
<path d="M553.267 522.045L555.565 508.967C555.565 508.967 574.83 512.043 572.051 518.604C569.275 525.17 558.366 522.634 553.267 522.045Z" fill="#427242"/>
<path d="M585.327 509.705C585.327 509.705 602.05 510.589 602.818 529.918C603.581 549.246 606.318 570.261 606.318 570.261C606.318 570.261 584.308 576.38 573.619 573.527C573.619 573.527 537.374 508.218 585.327 509.705Z" fill="#312E3F"/>
<path d="M571.792 517.484L575.666 525.752L569.275 531.881L565.446 524.837L571.792 517.484Z" fill="#D99C31"/>
<path d="M569.951 531.232C569.951 531.232 570.723 568.481 584.949 572.813L588.694 582.668L577.27 579.382C577.27 579.382 556.603 565.722 567.552 528.703L569.951 531.232Z" fill="#D99C31"/>
<path d="M581.332 505.347L585.242 514.504C585.242 514.504 583.369 520.302 575.949 515.818L576.735 505.491L581.332 505.347Z" fill="#F99C73"/>
<path d="M579.36 489.763C580.801 491.314 583.644 494.313 583.542 497.124C583.451 499.936 583.566 504.843 581.21 506.948C578.852 509.058 576.285 507.221 575.413 506.299C574.012 504.792 569.557 495.043 573.04 490.888C575.679 487.755 578.277 488.589 579.36 489.763Z" fill="#F99C73"/>
<path d="M565.2 492.116C565.2 492.116 574.677 494.582 577.453 492.641C580.222 490.691 581.003 493.871 581.134 494.201C581.264 494.535 582.409 499.06 583.503 498.731C584.594 498.377 583.933 492.444 580.969 489.434C578.017 486.422 565.244 486.875 565.2 492.116Z" fill="#171B23"/>
<path d="M586.029 533.629C586.029 533.629 564.883 559.59 556.697 549.333C548.506 539.074 543.482 518.536 543.482 518.536L547.311 516.929C547.311 516.929 554.258 536.679 563.919 535.386C568.101 534.827 579.014 527.812 579.014 527.812L586.029 533.629Z" fill="#F99C73"/>
<path d="M586.569 536.263L577.352 526.699C577.352 526.699 591.189 512.941 594.856 519.047C598.521 525.16 590.051 532.486 586.569 536.263Z" fill="#427242"/>
<path d="M547.311 516.929C547.311 516.929 546.658 506.905 543.482 508.968C540.309 511.029 543.482 518.535 543.482 518.535L547.311 516.929Z" fill="#F99C73"/>
<path d="M535.156 485.018C535.156 485.018 519.152 482.431 510.303 469.396C508.029 466.046 502.011 459.457 509.816 427.251C510.558 424.193 504.314 413.906 497.395 425.211C490.476 436.512 487.608 445.107 489.17 453.058C489.17 453.058 489.42 456.878 477.321 451.963C468.886 448.536 467.684 457.456 469.193 461.155C469.193 461.155 462.324 461.249 459.971 469.5C459.971 469.5 459.558 473.937 462.92 476.883C462.92 476.883 450.381 482.946 456.398 491.237C456.398 491.237 437.146 500.199 454.683 510.266C454.683 510.266 466.234 518.562 488.224 520.173C510.211 521.788 510.191 524.061 516.213 526.817C522.236 529.572 522.236 529.572 522.236 529.572L536.825 485.699L535.156 485.018Z" fill="#F99C73"/>
<path d="M534.278 484.661L518.992 528.09L527.42 531.594L545.06 487.848L534.278 484.661Z" fill="#538854"/>
<path d="M509.973 421.692C509.973 421.692 503.575 422.27 503.075 428.348C502.574 434.431 504.595 435.935 505.263 435.872C505.929 435.811 509.121 433.379 509.858 430.872C510.598 428.367 513.393 421.961 509.973 421.692Z" fill="#FDD247"/>
<path d="M636.418 348.354C636.418 369.011 619.671 385.756 599.019 385.756C578.364 385.756 561.62 369.009 561.62 348.354C561.62 327.696 578.364 310.955 599.019 310.955C619.671 310.955 636.418 327.696 636.418 348.354Z" fill="#FDD247"/>
<path d="M590.173 338.583C590.173 342.112 587.308 344.974 583.779 344.974C580.251 344.974 577.385 342.112 577.385 338.583C577.385 335.052 580.251 332.186 583.779 332.186C587.308 332.186 590.173 335.05 590.173 338.583Z" fill="#8F3F1F"/>
<path d="M618.239 338.583C618.239 342.112 615.376 344.974 611.847 344.974C608.314 344.974 605.45 342.112 605.45 338.583C605.45 335.052 608.316 332.186 611.847 332.186C615.376 332.186 618.239 335.05 618.239 338.583Z" fill="#8F3F1F"/>
<path d="M630.143 349.321C630.143 351.452 627.148 353.178 623.449 353.178C619.75 353.178 616.755 351.452 616.755 349.321C616.755 347.187 619.75 345.458 623.449 345.458C627.148 345.458 630.143 347.187 630.143 349.321Z" fill="#F45866"/>
<path d="M580.922 349.321C580.922 351.452 577.924 353.178 574.228 353.178C570.528 353.178 567.531 351.452 567.531 349.321C567.531 347.187 570.528 345.458 574.228 345.458C577.924 345.458 580.922 347.187 580.922 349.321Z" fill="#F45866"/>
<path d="M606.688 327.504L604.21 326.011C604.285 325.886 606.113 322.909 609.843 322.02C612.665 321.353 615.753 322.04 619.01 324.084L617.47 326.533C614.899 324.921 612.557 324.349 610.511 324.839C607.997 325.442 606.702 327.486 606.688 327.504Z" fill="#FDC33B"/>
<path d="M588.934 327.515C588.928 327.492 587.614 325.416 585.074 324.827C583.036 324.359 580.709 324.93 578.155 326.533L576.615 324.085C579.864 322.039 582.96 321.353 585.783 322.02C589.509 322.909 591.334 325.886 591.413 326.011L588.934 327.504L590.173 326.76L588.934 327.515Z" fill="#FDC33B"/>
<path d="M598.972 371.831C598.722 371.831 598.474 371.826 598.225 371.816C586.581 371.321 578.883 359.53 578.564 359.028L580.996 357.461C581.071 357.574 588.224 368.504 598.362 368.924C604.695 369.195 611.018 365.294 617.112 357.363L619.41 359.128C612.933 367.562 606.061 371.831 598.972 371.831Z" fill="#8F3F1F"/>
<path d="M581.228 358.247C581.228 359.048 580.578 359.697 579.78 359.697C578.977 359.697 578.328 359.048 578.328 358.247C578.328 357.447 578.976 356.798 579.78 356.798C580.578 356.8 581.228 357.449 581.228 358.247Z" fill="#8F3F1F"/>
<path d="M619.708 358.247C619.708 359.048 619.058 359.697 618.257 359.697C617.459 359.697 616.809 359.048 616.809 358.247C616.809 357.447 617.459 356.798 618.257 356.798C619.058 356.8 619.708 357.449 619.708 358.247Z" fill="#8F3F1F"/>
<path d="M263.602 359.695C263.602 373 252.817 383.785 239.514 383.785C226.209 383.785 215.424 372.999 215.424 359.695C215.424 346.389 226.209 335.607 239.514 335.607C252.817 335.607 263.602 346.389 263.602 359.695Z" fill="#FDD247"/>
<path d="M233.818 353.402C233.818 355.675 231.973 357.518 229.698 357.518C227.424 357.518 225.579 355.674 225.579 353.402C225.579 351.127 227.424 349.281 229.698 349.281C231.973 349.281 233.818 351.127 233.818 353.402Z" fill="#8F3F1F"/>
<path d="M251.894 353.402C251.894 355.675 250.05 357.518 247.776 357.518C245.501 357.518 243.656 355.674 243.656 353.402C243.656 351.127 245.501 349.281 247.776 349.281C250.05 349.281 251.894 351.127 251.894 353.402Z" fill="#8F3F1F"/>
<path d="M259.563 360.318C259.563 361.691 257.633 362.802 255.25 362.802C252.868 362.802 250.939 361.691 250.939 360.318C250.939 358.944 252.868 357.831 255.25 357.831C257.632 357.83 259.563 358.944 259.563 360.318Z" fill="#F45866"/>
<path d="M227.858 360.318C227.858 361.691 225.927 362.802 223.547 362.802C221.164 362.802 219.233 361.691 219.233 360.318C219.233 358.944 221.164 357.831 223.547 357.831C225.927 357.83 227.858 358.944 227.858 360.318Z" fill="#F45866"/>
<path d="M244.455 346.265L242.859 345.305C242.907 345.224 244.085 343.307 246.487 342.734C248.305 342.304 250.294 342.747 252.392 344.064L251.401 345.641C249.745 344.604 248.236 344.234 246.92 344.548C245.297 344.938 244.464 346.255 244.455 346.265Z" fill="#FDC33B"/>
<path d="M233.019 346.272C233.016 346.258 232.168 344.921 230.533 344.542C229.221 344.241 227.72 344.608 226.075 345.641L225.085 344.064C227.176 342.747 229.17 342.304 230.988 342.734C233.39 343.306 234.565 345.224 234.615 345.305L233.019 346.265L233.818 345.786L233.019 346.272Z" fill="#FDC33B"/>
<path d="M239.484 374.817C239.323 374.817 239.162 374.814 239.003 374.809C231.503 374.49 226.545 366.895 226.34 366.572L227.906 365.563C227.955 365.636 232.56 372.676 239.091 372.946C243.169 373.121 247.243 370.608 251.167 365.5L252.646 366.637C248.478 372.068 244.05 374.817 239.484 374.817Z" fill="#8F3F1F"/>
<path d="M228.056 366.068C228.056 366.583 227.636 367.002 227.124 367.002C226.606 367.002 226.189 366.583 226.189 366.068C226.189 365.553 226.606 365.135 227.124 365.135C227.636 365.135 228.056 365.553 228.056 366.068Z" fill="#8F3F1F"/>
<path d="M252.841 366.068C252.841 366.583 252.422 367.002 251.907 367.002C251.393 367.002 250.975 366.583 250.975 366.068C250.975 365.553 251.393 365.135 251.907 365.135C252.422 365.135 252.841 365.553 252.841 366.068Z" fill="#8F3F1F"/>
<path d="M841.518 310.088C841.518 323.393 830.732 334.178 817.429 334.178C804.124 334.178 793.339 323.392 793.339 310.088C793.339 296.782 804.124 286 817.429 286C830.732 286 841.518 296.782 841.518 310.088Z" fill="#FDD247"/>
<path d="M811.733 303.795C811.733 306.069 809.888 307.913 807.613 307.913C805.339 307.913 803.493 306.069 803.493 303.795C803.493 301.52 805.339 299.675 807.613 299.675C809.888 299.675 811.733 301.522 811.733 303.795Z" fill="#8F3F1F"/>
<path d="M829.809 303.795C829.809 306.069 827.966 307.913 825.692 307.913C823.416 307.913 821.572 306.069 821.572 303.795C821.572 301.52 823.417 299.675 825.692 299.675C827.966 299.675 829.809 301.522 829.809 303.795Z" fill="#8F3F1F"/>
<path d="M837.476 310.712C837.476 312.085 835.547 313.196 833.165 313.196C830.782 313.196 828.852 312.085 828.852 310.712C828.852 309.337 830.783 308.225 833.165 308.225C835.547 308.223 837.476 309.337 837.476 310.712Z" fill="#F45866"/>
<path d="M805.773 310.712C805.773 312.085 803.842 313.196 801.462 313.196C799.078 313.196 797.148 312.085 797.148 310.712C797.148 309.337 799.078 308.225 801.462 308.225C803.842 308.223 805.773 309.337 805.773 310.712Z" fill="#F45866"/>
<path d="M822.369 296.66L820.774 295.699C820.821 295.618 821.999 293.702 824.4 293.128C826.22 292.699 828.208 293.141 830.305 294.459L829.315 296.035C827.659 294.997 826.15 294.628 824.833 294.943C823.214 295.331 822.379 296.649 822.369 296.66Z" fill="#FDC33B"/>
<path d="M810.933 296.665C810.931 296.651 810.082 295.313 808.448 294.935C807.136 294.633 805.636 295 803.991 296.033L803 294.457C805.093 293.139 807.085 292.697 808.904 293.126C811.303 293.698 812.481 295.616 812.531 295.698L810.933 296.658L811.733 296.178L810.933 296.665Z" fill="#FDC33B"/>
<path d="M817.4 325.21C817.239 325.21 817.077 325.207 816.918 325.202C809.417 324.883 804.459 317.288 804.255 316.965L805.821 315.956C805.87 316.029 810.475 323.067 817.006 323.338C821.085 323.514 825.157 321 829.083 315.892L830.561 317.029C826.392 322.461 821.966 325.21 817.4 325.21Z" fill="#8F3F1F"/>
<path d="M805.97 316.462C805.97 316.977 805.551 317.395 805.039 317.395C804.521 317.395 804.104 316.978 804.104 316.462C804.104 315.947 804.521 315.528 805.039 315.528C805.551 315.528 805.97 315.947 805.97 316.462Z" fill="#8F3F1F"/>
<path d="M830.756 316.462C830.756 316.977 830.336 317.395 829.823 317.395C829.309 317.395 828.889 316.978 828.889 316.462C828.889 315.947 829.309 315.528 829.823 315.528C830.336 315.528 830.756 315.947 830.756 316.462Z" fill="#8F3F1F"/>
<path d="M549.67 400.091C549.67 409.173 542.308 416.532 533.229 416.532C524.149 416.532 516.79 409.173 516.79 400.091C516.79 391.012 524.149 383.652 533.229 383.652C542.308 383.653 549.67 391.012 549.67 400.091Z" fill="#C0D838"/>
<path d="M529.343 395.798C529.343 397.349 528.083 398.608 526.53 398.608C524.98 398.608 523.719 397.349 523.719 395.798C523.719 394.243 524.98 392.985 526.53 392.985C528.083 392.985 529.343 394.243 529.343 395.798Z" fill="#51641E"/>
<path d="M541.682 395.798C541.682 397.349 540.421 398.608 538.869 398.608C537.317 398.608 536.056 397.349 536.056 395.798C536.056 394.243 537.317 392.985 538.869 392.985C540.421 392.985 541.682 394.243 541.682 395.798Z" fill="#51641E"/>
<path d="M546.912 400.516C546.912 401.454 545.595 402.212 543.969 402.212C542.344 402.212 541.026 401.454 541.026 400.516C541.026 399.58 542.345 398.819 543.969 398.819C545.595 398.819 546.912 399.58 546.912 400.516Z" fill="#F99C73"/>
<path d="M525.276 400.516C525.276 401.454 523.957 402.212 522.333 402.212C520.704 402.212 519.388 401.454 519.388 400.516C519.388 399.58 520.705 398.819 522.333 398.819C523.957 398.819 525.276 399.58 525.276 400.516Z" fill="#F99C73"/>
<path d="M536.604 390.926L535.513 390.271C535.546 390.215 536.349 388.909 537.989 388.518C539.228 388.223 540.588 388.526 542.018 389.424L541.341 390.502C540.21 389.794 539.182 389.541 538.283 389.757C537.175 390.02 536.607 390.918 536.604 390.926Z" fill="#B9CD34"/>
<path d="M528.798 390.931C528.793 390.922 528.217 390.01 527.098 389.751C526.205 389.543 525.182 389.795 524.06 390.501L523.38 389.422C524.812 388.525 526.171 388.222 527.413 388.516C529.05 388.907 529.856 390.214 529.886 390.269L528.796 390.925L529.343 390.598L528.798 390.931Z" fill="#B9CD34"/>
<path d="M533.209 410.411C533.101 410.411 532.99 410.409 532.882 410.404C527.761 410.188 524.378 405.004 524.24 404.784L525.307 404.096C525.341 404.146 528.484 408.95 532.943 409.132C535.723 409.256 538.506 407.54 541.183 404.054L542.194 404.831C539.347 408.534 536.327 410.411 533.209 410.411Z" fill="white"/>
<path d="M525.409 404.44C525.409 404.792 525.125 405.076 524.773 405.076C524.42 405.076 524.137 404.792 524.137 404.44C524.137 404.087 524.42 403.804 524.773 403.804C525.125 403.804 525.409 404.087 525.409 404.44Z" fill="white"/>
<path d="M542.324 404.44C542.324 404.792 542.038 405.076 541.685 405.076C541.338 405.076 541.052 404.792 541.052 404.44C541.052 404.087 541.338 403.804 541.685 403.804C542.038 403.804 542.324 404.087 542.324 404.44Z" fill="white"/>
<path d="M524.773 403.804H541.685L538.871 407.644L532.457 409.868C532.457 409.868 525.681 407.367 524.773 403.804Z" fill="white"/>
<path d="M390.993 313.355C390.993 322.437 383.632 329.796 374.553 329.796C365.472 329.796 358.113 322.437 358.113 313.355C358.113 304.276 365.472 296.916 374.553 296.916C383.632 296.917 390.993 304.278 390.993 313.355Z" fill="#C0D838"/>
<path d="M370.667 309.062C370.667 310.613 369.406 311.873 367.854 311.873C366.303 311.873 365.043 310.613 365.043 309.062C365.043 307.507 366.303 306.25 367.854 306.25C369.406 306.25 370.667 307.507 370.667 309.062Z" fill="#51641E"/>
<path d="M383.004 309.062C383.004 310.613 381.744 311.873 380.191 311.873C378.639 311.873 377.378 310.613 377.378 309.062C377.378 307.507 378.639 306.25 380.191 306.25C381.745 306.25 383.004 307.507 383.004 309.062Z" fill="#51641E"/>
<path d="M388.235 313.781C388.235 314.719 386.917 315.477 385.291 315.477C383.666 315.477 382.348 314.719 382.348 313.781C382.348 312.845 383.667 312.083 385.291 312.083C386.917 312.083 388.235 312.845 388.235 313.781Z" fill="#F99C73"/>
<path d="M366.598 313.781C366.598 314.719 365.279 315.477 363.655 315.477C362.026 315.477 360.71 314.719 360.71 313.781C360.71 312.845 362.028 312.083 363.655 312.083C365.279 312.083 366.598 312.845 366.598 313.781Z" fill="#F99C73"/>
<path d="M377.926 304.191L376.835 303.535C376.868 303.48 377.671 302.174 379.311 301.782C380.55 301.488 381.91 301.791 383.34 302.689L382.663 303.767C381.532 303.059 380.504 302.805 379.605 303.022C378.497 303.285 377.93 304.183 377.926 304.191Z" fill="#B9CD34"/>
<path d="M370.122 304.195C370.116 304.186 369.54 303.274 368.422 303.015C367.528 302.808 366.505 303.059 365.384 303.765L364.702 302.687C366.134 301.789 367.493 301.486 368.735 301.78C370.372 302.172 371.178 303.478 371.208 303.533L370.118 304.189L370.666 303.863L370.122 304.195Z" fill="#B9CD34"/>
<path d="M374.531 323.675C374.423 323.675 374.312 323.674 374.204 323.668C369.083 323.452 365.7 318.268 365.562 318.048L366.629 317.361C366.663 317.41 369.806 322.214 374.265 322.396C377.045 322.52 379.829 320.804 382.505 317.318L383.516 318.095C380.671 321.798 377.65 323.675 374.531 323.675Z" fill="white"/>
<path d="M366.733 317.705C366.733 318.056 366.448 318.341 366.097 318.341C365.744 318.341 365.461 318.056 365.461 317.705C365.461 317.352 365.744 317.069 366.097 317.069C366.448 317.069 366.733 317.352 366.733 317.705Z" fill="white"/>
<path d="M383.647 317.705C383.647 318.056 383.361 318.341 383.009 318.341C382.661 318.341 382.375 318.056 382.375 317.705C382.375 317.352 382.661 317.069 383.009 317.069C383.36 317.069 383.647 317.352 383.647 317.705Z" fill="white"/>
<path d="M366.097 317.069H383.009L380.193 320.909L373.779 323.133C373.779 323.133 367.003 320.632 366.097 317.069Z" fill="white"/>
</svg>
