<svg width="929" height="735" viewBox="0 0 929 735" fill="none" xmlns="http://www.w3.org/2000/svg">
<mask id="path-1-outside-1_71_953" maskUnits="userSpaceOnUse" x="3" y="143" width="351" height="91" fill="black">
<rect fill="white" x="3" y="143" width="351" height="91"/>
<path d="M27.135 153.895C33.129 153.895 38.367 155.11 42.849 157.54C47.385 159.916 50.868 163.264 53.298 167.584C55.728 171.904 56.943 176.845 56.943 182.407C56.943 187.915 55.701 192.829 53.217 197.149C50.787 201.469 47.304 204.871 42.768 207.355C38.286 209.785 33.075 211 27.135 211H4.536V153.895H27.135ZM25.92 196.987C30.564 196.987 34.209 195.718 36.855 193.18C39.501 190.642 40.824 187.051 40.824 182.407C40.824 177.709 39.501 174.091 36.855 171.553C34.209 168.961 30.564 167.665 25.92 167.665H20.412V196.987H25.92ZM107.515 187.753C107.515 188.995 107.434 190.237 107.272 191.479H77.2215C77.3835 193.963 78.0585 195.826 79.2465 197.068C80.4885 198.256 82.0545 198.85 83.9445 198.85C86.5905 198.85 88.4805 197.662 89.6145 195.286H106.543C105.841 198.418 104.464 201.226 102.412 203.71C100.414 206.14 97.8765 208.057 94.7985 209.461C91.7205 210.865 88.3185 211.567 84.5925 211.567C80.1105 211.567 76.1145 210.622 72.6045 208.732C69.1485 206.842 66.4215 204.142 64.4235 200.632C62.4795 197.122 61.5075 192.991 61.5075 188.239C61.5075 183.487 62.4795 179.383 64.4235 175.927C66.3675 172.417 69.0675 169.717 72.5235 167.827C76.0335 165.937 80.0565 164.992 84.5925 164.992C89.0745 164.992 93.0435 165.91 96.4995 167.746C99.9555 169.582 102.655 172.228 104.599 175.684C106.543 179.086 107.515 183.109 107.515 187.753ZM91.3155 183.784C91.3155 181.84 90.6675 180.328 89.3715 179.248C88.0755 178.114 86.4555 177.547 84.5115 177.547C82.5675 177.547 80.9745 178.087 79.7325 179.167C78.4905 180.193 77.6805 181.732 77.3025 183.784H91.3155ZM129.889 151.06V211H114.013V151.06H129.889ZM146.949 161.347C144.141 161.347 141.873 160.591 140.145 159.079C138.471 157.513 137.634 155.569 137.634 153.247C137.634 150.871 138.471 148.9 140.145 147.334C141.873 145.768 144.141 144.985 146.949 144.985C149.703 144.985 151.917 145.768 153.591 147.334C155.319 148.9 156.183 150.871 156.183 153.247C156.183 155.569 155.319 157.513 153.591 159.079C151.917 160.591 149.703 161.347 146.949 161.347ZM154.806 165.559V211H138.93V165.559H154.806ZM185.636 196.015L194.141 165.559H211.07L195.437 211H175.673L160.04 165.559H176.969L185.636 196.015ZM259.865 187.753C259.865 188.995 259.784 190.237 259.622 191.479H229.571C229.733 193.963 230.408 195.826 231.596 197.068C232.838 198.256 234.404 198.85 236.294 198.85C238.94 198.85 240.83 197.662 241.964 195.286H258.893C258.191 198.418 256.814 201.226 254.762 203.71C252.764 206.14 250.226 208.057 247.148 209.461C244.07 210.865 240.668 211.567 236.942 211.567C232.46 211.567 228.464 210.622 224.954 208.732C221.498 206.842 218.771 204.142 216.773 200.632C214.829 197.122 213.857 192.991 213.857 188.239C213.857 183.487 214.829 179.383 216.773 175.927C218.717 172.417 221.417 169.717 224.873 167.827C228.383 165.937 232.406 164.992 236.942 164.992C241.424 164.992 245.393 165.91 248.849 167.746C252.305 169.582 255.005 172.228 256.949 175.684C258.893 179.086 259.865 183.109 259.865 187.753ZM243.665 183.784C243.665 181.84 243.017 180.328 241.721 179.248C240.425 178.114 238.805 177.547 236.861 177.547C234.917 177.547 233.324 178.087 232.082 179.167C230.84 180.193 230.03 181.732 229.652 183.784H243.665ZM282.238 173.578C284.02 170.986 286.18 168.934 288.718 167.422C291.256 165.91 293.983 165.154 296.899 165.154V182.083H292.444C288.988 182.083 286.423 182.758 284.749 184.108C283.075 185.458 282.238 187.807 282.238 191.155V211H266.362V165.559H282.238V173.578ZM351.515 165.559L322.679 232.627H305.426L316.28 209.056L297.65 165.559H315.308L324.866 191.317L334.1 165.559H351.515Z"/>
</mask>
<path d="M27.135 153.895C33.129 153.895 38.367 155.11 42.849 157.54C47.385 159.916 50.868 163.264 53.298 167.584C55.728 171.904 56.943 176.845 56.943 182.407C56.943 187.915 55.701 192.829 53.217 197.149C50.787 201.469 47.304 204.871 42.768 207.355C38.286 209.785 33.075 211 27.135 211H4.536V153.895H27.135ZM25.92 196.987C30.564 196.987 34.209 195.718 36.855 193.18C39.501 190.642 40.824 187.051 40.824 182.407C40.824 177.709 39.501 174.091 36.855 171.553C34.209 168.961 30.564 167.665 25.92 167.665H20.412V196.987H25.92ZM107.515 187.753C107.515 188.995 107.434 190.237 107.272 191.479H77.2215C77.3835 193.963 78.0585 195.826 79.2465 197.068C80.4885 198.256 82.0545 198.85 83.9445 198.85C86.5905 198.85 88.4805 197.662 89.6145 195.286H106.543C105.841 198.418 104.464 201.226 102.412 203.71C100.414 206.14 97.8765 208.057 94.7985 209.461C91.7205 210.865 88.3185 211.567 84.5925 211.567C80.1105 211.567 76.1145 210.622 72.6045 208.732C69.1485 206.842 66.4215 204.142 64.4235 200.632C62.4795 197.122 61.5075 192.991 61.5075 188.239C61.5075 183.487 62.4795 179.383 64.4235 175.927C66.3675 172.417 69.0675 169.717 72.5235 167.827C76.0335 165.937 80.0565 164.992 84.5925 164.992C89.0745 164.992 93.0435 165.91 96.4995 167.746C99.9555 169.582 102.655 172.228 104.599 175.684C106.543 179.086 107.515 183.109 107.515 187.753ZM91.3155 183.784C91.3155 181.84 90.6675 180.328 89.3715 179.248C88.0755 178.114 86.4555 177.547 84.5115 177.547C82.5675 177.547 80.9745 178.087 79.7325 179.167C78.4905 180.193 77.6805 181.732 77.3025 183.784H91.3155ZM129.889 151.06V211H114.013V151.06H129.889ZM146.949 161.347C144.141 161.347 141.873 160.591 140.145 159.079C138.471 157.513 137.634 155.569 137.634 153.247C137.634 150.871 138.471 148.9 140.145 147.334C141.873 145.768 144.141 144.985 146.949 144.985C149.703 144.985 151.917 145.768 153.591 147.334C155.319 148.9 156.183 150.871 156.183 153.247C156.183 155.569 155.319 157.513 153.591 159.079C151.917 160.591 149.703 161.347 146.949 161.347ZM154.806 165.559V211H138.93V165.559H154.806ZM185.636 196.015L194.141 165.559H211.07L195.437 211H175.673L160.04 165.559H176.969L185.636 196.015ZM259.865 187.753C259.865 188.995 259.784 190.237 259.622 191.479H229.571C229.733 193.963 230.408 195.826 231.596 197.068C232.838 198.256 234.404 198.85 236.294 198.85C238.94 198.85 240.83 197.662 241.964 195.286H258.893C258.191 198.418 256.814 201.226 254.762 203.71C252.764 206.14 250.226 208.057 247.148 209.461C244.07 210.865 240.668 211.567 236.942 211.567C232.46 211.567 228.464 210.622 224.954 208.732C221.498 206.842 218.771 204.142 216.773 200.632C214.829 197.122 213.857 192.991 213.857 188.239C213.857 183.487 214.829 179.383 216.773 175.927C218.717 172.417 221.417 169.717 224.873 167.827C228.383 165.937 232.406 164.992 236.942 164.992C241.424 164.992 245.393 165.91 248.849 167.746C252.305 169.582 255.005 172.228 256.949 175.684C258.893 179.086 259.865 183.109 259.865 187.753ZM243.665 183.784C243.665 181.84 243.017 180.328 241.721 179.248C240.425 178.114 238.805 177.547 236.861 177.547C234.917 177.547 233.324 178.087 232.082 179.167C230.84 180.193 230.03 181.732 229.652 183.784H243.665ZM282.238 173.578C284.02 170.986 286.18 168.934 288.718 167.422C291.256 165.91 293.983 165.154 296.899 165.154V182.083H292.444C288.988 182.083 286.423 182.758 284.749 184.108C283.075 185.458 282.238 187.807 282.238 191.155V211H266.362V165.559H282.238V173.578ZM351.515 165.559L322.679 232.627H305.426L316.28 209.056L297.65 165.559H315.308L324.866 191.317L334.1 165.559H351.515Z" fill="#1A2B42"/>
<path d="M42.849 157.54L42.3724 158.419L42.3787 158.423L42.385 158.426L42.849 157.54ZM53.298 167.584L54.1696 167.094L54.1696 167.094L53.298 167.584ZM53.217 197.149L52.3501 196.651L52.3454 196.659L53.217 197.149ZM42.768 207.355L43.2446 208.234L43.2483 208.232L42.768 207.355ZM4.536 211H3.536V212H4.536V211ZM4.536 153.895V152.895H3.536V153.895H4.536ZM36.855 171.553L36.1552 172.267L36.1628 172.275L36.855 171.553ZM20.412 167.665V166.665H19.412V167.665H20.412ZM20.412 196.987H19.412V197.987H20.412V196.987ZM27.135 154.895C32.9918 154.895 38.0605 156.081 42.3724 158.419L43.3256 156.661C38.6735 154.139 33.2662 152.895 27.135 152.895V154.895ZM42.385 158.426C46.7558 160.715 50.0945 163.929 52.4264 168.074L54.1696 167.094C51.6415 162.599 48.0143 159.117 43.313 156.654L42.385 158.426ZM52.4264 168.074C54.7623 172.227 55.943 176.995 55.943 182.407H57.943C57.943 176.695 56.6937 171.581 54.1696 167.094L52.4264 168.074ZM55.943 182.407C55.943 187.759 54.7379 192.498 52.3501 196.651L54.0839 197.647C56.6641 193.16 57.943 188.071 57.943 182.407H55.943ZM52.3454 196.659C50.0112 200.808 46.6671 204.08 42.2877 206.478L43.2483 208.232C47.9409 205.662 51.5628 202.13 54.0886 197.639L52.3454 196.659ZM42.2914 206.476C37.9782 208.814 32.9362 210 27.135 210V212C33.2139 212 38.5938 210.756 43.2446 208.234L42.2914 206.476ZM27.135 210H4.536V212H27.135V210ZM5.536 211V153.895H3.536V211H5.536ZM4.536 154.895H27.135V152.895H4.536V154.895ZM25.92 197.987C30.7501 197.987 34.6689 196.663 37.5472 193.902L36.1628 192.458C33.7491 194.773 30.3779 195.987 25.92 195.987V197.987ZM37.5472 193.902C40.4392 191.128 41.824 187.247 41.824 182.407H39.824C39.824 186.855 38.5628 190.156 36.1628 192.458L37.5472 193.902ZM41.824 182.407C41.824 177.517 40.4414 173.607 37.5472 170.831L36.1628 172.275C38.5606 174.575 39.824 177.901 39.824 182.407H41.824ZM37.5548 170.839C34.6773 168.02 30.7558 166.665 25.92 166.665V168.665C30.3722 168.665 33.7407 169.902 36.1552 172.267L37.5548 170.839ZM25.92 166.665H20.412V168.665H25.92V166.665ZM19.412 167.665V196.987H21.412V167.665H19.412ZM20.412 197.987H25.92V195.987H20.412V197.987ZM107.272 191.479V192.479H108.151L108.264 191.608L107.272 191.479ZM77.2215 191.479V190.479H76.1541L76.2236 191.544L77.2215 191.479ZM79.2465 197.068L78.5238 197.759L78.5392 197.775L78.5553 197.791L79.2465 197.068ZM89.6145 195.286V194.286H88.9837L88.712 194.855L89.6145 195.286ZM106.543 195.286L107.519 195.505L107.792 194.286H106.543V195.286ZM102.412 203.71L101.642 203.073L101.64 203.075L102.412 203.71ZM94.7985 209.461L95.2135 210.371L95.2135 210.371L94.7985 209.461ZM72.6045 208.732L72.1247 209.609L72.1304 209.612L72.6045 208.732ZM64.4235 200.632L63.5486 201.117L63.5544 201.127L64.4235 200.632ZM64.4235 175.927L65.2951 176.417L65.2983 176.411L64.4235 175.927ZM72.5235 167.827L72.0494 166.947L72.0437 166.95L72.5235 167.827ZM96.4995 167.746L96.9686 166.863L96.9686 166.863L96.4995 167.746ZM104.599 175.684L103.728 176.174L103.731 176.18L104.599 175.684ZM91.3155 183.784V184.784H92.3155V183.784H91.3155ZM89.3715 179.248L88.713 180.001L88.722 180.009L88.7313 180.016L89.3715 179.248ZM79.7325 179.167L80.3694 179.938L80.3791 179.93L80.3887 179.922L79.7325 179.167ZM77.3025 183.784L76.319 183.603L76.1014 184.784H77.3025V183.784ZM106.515 187.753C106.515 188.951 106.437 190.15 106.281 191.35L108.264 191.608C108.432 190.324 108.515 189.039 108.515 187.753H106.515ZM107.272 190.479H77.2215V192.479H107.272V190.479ZM76.2236 191.544C76.3942 194.16 77.1141 196.285 78.5238 197.759L79.9691 196.377C79.0029 195.367 78.3728 193.766 78.2194 191.414L76.2236 191.544ZM78.5553 197.791C80.0027 199.175 81.825 199.85 83.9445 199.85V197.85C82.284 197.85 80.9743 197.337 79.9377 196.345L78.5553 197.791ZM83.9445 199.85C85.4204 199.85 86.7468 199.517 87.8787 198.806C89.0109 198.094 89.8832 197.045 90.517 195.717L88.712 194.855C88.2117 195.903 87.5721 196.636 86.8143 197.112C86.0562 197.589 85.1145 197.85 83.9445 197.85V199.85ZM89.6145 196.286H106.543V194.286H89.6145V196.286ZM105.568 195.067C104.9 198.045 103.594 200.71 101.642 203.073L103.183 204.347C105.335 201.742 106.783 198.791 107.519 195.505L105.568 195.067ZM101.64 203.075C99.7459 205.379 97.3336 207.205 94.3835 208.551L95.2135 210.371C98.4193 208.909 101.083 206.901 103.185 204.345L101.64 203.075ZM94.3835 208.551C91.4485 209.89 88.1899 210.567 84.5925 210.567V212.567C88.447 212.567 91.9925 211.84 95.2135 210.371L94.3835 208.551ZM84.5925 210.567C80.2551 210.567 76.4255 209.654 73.0786 207.852L72.1304 209.612C75.8034 211.59 79.9659 212.567 84.5925 212.567V210.567ZM73.0843 207.855C69.7953 206.056 67.2012 203.49 65.2925 200.137L63.5544 201.127C65.6417 204.794 68.5016 207.628 72.1247 209.609L73.0843 207.855ZM65.2983 200.147C63.4503 196.811 62.5075 192.853 62.5075 188.239H60.5075C60.5075 193.129 61.5086 197.433 63.5487 201.116L65.2983 200.147ZM62.5075 188.239C62.5075 183.625 63.4505 179.696 65.2951 176.417L63.5519 175.437C61.5085 179.07 60.5075 183.349 60.5075 188.239H62.5075ZM65.2983 176.411C67.1523 173.064 69.7167 170.502 73.0033 168.704L72.0437 166.95C68.4182 168.932 65.5827 171.77 63.5487 175.442L65.2983 176.411ZM72.9976 168.707C76.3428 166.906 80.1989 165.992 84.5925 165.992V163.992C79.9141 163.992 75.7241 164.968 72.0494 166.947L72.9976 168.707ZM84.5925 165.992C88.9349 165.992 92.7386 166.88 96.0303 168.629L96.9686 166.863C93.3484 164.94 89.2141 163.992 84.5925 163.992V165.992ZM96.0303 168.629C99.315 170.374 101.876 172.883 103.728 176.174L105.471 175.194C103.435 171.573 100.596 168.79 96.9686 166.863L96.0303 168.629ZM103.731 176.18C105.574 179.405 106.515 183.251 106.515 187.753H108.515C108.515 182.967 107.513 178.767 105.468 175.188L103.731 176.18ZM92.3155 183.784C92.3155 181.594 91.5718 179.78 90.0117 178.48L88.7313 180.016C89.7632 180.876 90.3155 182.086 90.3155 183.784H92.3155ZM90.03 178.495C88.5281 177.181 86.6643 176.547 84.5115 176.547V178.547C86.2466 178.547 87.6229 179.047 88.713 180.001L90.03 178.495ZM84.5115 176.547C82.3723 176.547 80.5322 177.146 79.0763 178.412L80.3887 179.922C81.4167 179.028 82.7626 178.547 84.5115 178.547V176.547ZM79.0956 178.396C77.6245 179.611 76.7268 181.389 76.319 183.603L78.2859 183.965C78.6341 182.075 79.3565 180.775 80.3694 179.938L79.0956 178.396ZM77.3025 184.784H91.3155V182.784H77.3025V184.784ZM129.889 151.06H130.889V150.06H129.889V151.06ZM129.889 211V212H130.889V211H129.889ZM114.013 211H113.013V212H114.013V211ZM114.013 151.06V150.06H113.013V151.06H114.013ZM128.889 151.06V211H130.889V151.06H128.889ZM129.889 210H114.013V212H129.889V210ZM115.013 211V151.06H113.013V211H115.013ZM114.013 152.06H129.889V150.06H114.013V152.06ZM140.145 159.079L139.461 159.809L139.474 159.821L139.486 159.832L140.145 159.079ZM140.145 147.334L139.473 146.593L139.467 146.598L139.461 146.604L140.145 147.334ZM153.591 147.334L152.907 148.064L152.913 148.07L152.919 148.075L153.591 147.334ZM153.591 159.079L154.261 159.821L154.262 159.82L153.591 159.079ZM154.806 165.559H155.806V164.559H154.806V165.559ZM154.806 211V212H155.806V211H154.806ZM138.93 211H137.93V212H138.93V211ZM138.93 165.559V164.559H137.93V165.559H138.93ZM146.949 160.347C144.326 160.347 142.31 159.645 140.803 158.326L139.486 159.832C141.435 161.537 143.955 162.347 146.949 162.347V160.347ZM140.828 158.349C139.359 156.975 138.634 155.296 138.634 153.247H136.634C136.634 155.842 137.582 158.051 139.461 159.809L140.828 158.349ZM138.634 153.247C138.634 151.136 139.364 149.434 140.828 148.064L139.461 146.604C137.577 148.366 136.634 150.606 136.634 153.247H138.634ZM140.816 148.075C142.324 146.708 144.335 145.985 146.949 145.985V143.985C143.946 143.985 141.421 144.828 139.473 146.593L140.816 148.075ZM146.949 145.985C149.503 145.985 151.455 146.705 152.907 148.064L154.274 146.604C152.378 144.831 149.902 143.985 146.949 143.985V145.985ZM152.919 148.075C154.433 149.447 155.183 151.147 155.183 153.247H157.183C157.183 150.595 156.204 148.353 154.262 146.593L152.919 148.075ZM155.183 153.247C155.183 155.285 154.439 156.961 152.919 158.338L154.262 159.82C156.198 158.065 157.183 155.853 157.183 153.247H155.183ZM152.92 158.337C151.469 159.648 149.512 160.347 146.949 160.347V162.347C149.893 162.347 152.365 161.534 154.261 159.821L152.92 158.337ZM153.806 165.559V211H155.806V165.559H153.806ZM154.806 210H138.93V212H154.806V210ZM139.93 211V165.559H137.93V211H139.93ZM138.93 166.559H154.806V164.559H138.93V166.559ZM185.636 196.015L184.674 196.289L185.645 199.7L186.599 196.284L185.636 196.015ZM194.141 165.559V164.559H193.382L193.177 165.29L194.141 165.559ZM211.07 165.559L212.015 165.884L212.471 164.559H211.07V165.559ZM195.437 211V212H196.15L196.382 211.325L195.437 211ZM175.673 211L174.727 211.325L174.959 212H175.673V211ZM160.04 165.559V164.559H158.638L159.094 165.884L160.04 165.559ZM176.969 165.559L177.93 165.285L177.724 164.559H176.969V165.559ZM186.599 196.284L195.104 165.828L193.177 165.29L184.672 195.746L186.599 196.284ZM194.141 166.559H211.07V164.559H194.141V166.559ZM210.124 165.234L194.491 210.675L196.382 211.325L212.015 165.884L210.124 165.234ZM195.437 210H175.673V212H195.437V210ZM176.618 210.675L160.985 165.234L159.094 165.884L174.727 211.325L176.618 210.675ZM160.04 166.559H176.969V164.559H160.04V166.559ZM176.007 165.833L184.674 196.289L186.597 195.741L177.93 165.285L176.007 165.833ZM259.622 191.479V192.479H260.5L260.614 191.608L259.622 191.479ZM229.571 191.479V190.479H228.504L228.573 191.544L229.571 191.479ZM231.596 197.068L230.873 197.759L230.889 197.775L230.905 197.791L231.596 197.068ZM241.964 195.286V194.286H241.333L241.062 194.855L241.964 195.286ZM258.893 195.286L259.869 195.505L260.142 194.286H258.893V195.286ZM254.762 203.71L253.991 203.073L253.99 203.075L254.762 203.71ZM247.148 209.461L247.563 210.371L247.563 210.371L247.148 209.461ZM224.954 208.732L224.474 209.609L224.48 209.612L224.954 208.732ZM216.773 200.632L215.898 201.117L215.904 201.127L216.773 200.632ZM216.773 175.927L217.645 176.417L217.648 176.411L216.773 175.927ZM224.873 167.827L224.399 166.947L224.393 166.95L224.873 167.827ZM248.849 167.746L249.318 166.863L249.318 166.863L248.849 167.746ZM256.949 175.684L256.077 176.174L256.081 176.18L256.949 175.684ZM243.665 183.784V184.784H244.665V183.784H243.665ZM241.721 179.248L241.063 180.001L241.072 180.009L241.081 180.016L241.721 179.248ZM232.082 179.167L232.719 179.938L232.729 179.93L232.738 179.922L232.082 179.167ZM229.652 183.784L228.669 183.603L228.451 184.784H229.652V183.784ZM258.865 187.753C258.865 188.951 258.787 190.15 258.63 191.35L260.614 191.608C260.781 190.324 260.865 189.039 260.865 187.753H258.865ZM259.622 190.479H229.571V192.479H259.622V190.479ZM228.573 191.544C228.744 194.16 229.464 196.285 230.873 197.759L232.319 196.377C231.352 195.367 230.722 193.766 230.569 191.414L228.573 191.544ZM230.905 197.791C232.352 199.175 234.175 199.85 236.294 199.85V197.85C234.634 197.85 233.324 197.337 232.287 196.345L230.905 197.791ZM236.294 199.85C237.77 199.85 239.096 199.517 240.228 198.806C241.36 198.094 242.233 197.045 242.867 195.717L241.062 194.855C240.561 195.903 239.922 196.636 239.164 197.112C238.406 197.589 237.464 197.85 236.294 197.85V199.85ZM241.964 196.286H258.893V194.286H241.964V196.286ZM257.917 195.067C257.25 198.045 255.943 200.71 253.991 203.073L255.533 204.347C257.685 201.742 259.132 198.791 259.869 195.505L257.917 195.067ZM253.99 203.075C252.096 205.379 249.683 207.205 246.733 208.551L247.563 210.371C250.769 208.909 253.433 206.901 255.535 204.345L253.99 203.075ZM246.733 208.551C243.798 209.89 240.54 210.567 236.942 210.567V212.567C240.797 212.567 244.342 211.84 247.563 210.371L246.733 208.551ZM236.942 210.567C232.605 210.567 228.775 209.654 225.428 207.852L224.48 209.612C228.153 211.59 232.315 212.567 236.942 212.567V210.567ZM225.434 207.855C222.145 206.056 219.551 203.49 217.642 200.137L215.904 201.127C217.991 204.794 220.851 207.628 224.474 209.609L225.434 207.855ZM217.648 200.147C215.8 196.811 214.857 192.853 214.857 188.239H212.857C212.857 193.129 213.858 197.433 215.898 201.116L217.648 200.147ZM214.857 188.239C214.857 183.625 215.8 179.696 217.645 176.417L215.902 175.437C213.858 179.07 212.857 183.349 212.857 188.239H214.857ZM217.648 176.411C219.502 173.064 222.066 170.502 225.353 168.704L224.393 166.95C220.768 168.932 217.932 171.77 215.898 175.442L217.648 176.411ZM225.347 168.707C228.692 166.906 232.549 165.992 236.942 165.992V163.992C232.264 163.992 228.074 164.968 224.399 166.947L225.347 168.707ZM236.942 165.992C241.284 165.992 245.088 166.88 248.38 168.629L249.318 166.863C245.698 164.94 241.564 163.992 236.942 163.992V165.992ZM248.38 168.629C251.665 170.374 254.226 172.883 256.078 176.174L257.821 175.194C255.784 171.573 252.946 168.79 249.318 166.863L248.38 168.629ZM256.081 176.18C257.924 179.405 258.865 183.251 258.865 187.753H260.865C260.865 182.967 259.862 178.767 257.817 175.188L256.081 176.18ZM244.665 183.784C244.665 181.594 243.921 179.78 242.361 178.48L241.081 180.016C242.113 180.876 242.665 182.086 242.665 183.784H244.665ZM242.38 178.495C240.878 177.181 239.014 176.547 236.861 176.547V178.547C238.596 178.547 239.973 179.047 241.063 180.001L242.38 178.495ZM236.861 176.547C234.722 176.547 232.882 177.146 231.426 178.412L232.738 179.922C233.766 179.028 235.112 178.547 236.861 178.547V176.547ZM231.445 178.396C229.974 179.611 229.076 181.389 228.669 183.603L230.636 183.965C230.984 182.075 231.706 180.775 232.719 179.938L231.445 178.396ZM229.652 184.784H243.665V182.784H229.652V184.784ZM282.238 173.578H281.238V176.798L283.062 174.145L282.238 173.578ZM296.899 165.154H297.899V164.154H296.899V165.154ZM296.899 182.083V183.083H297.899V182.083H296.899ZM284.749 184.108L285.377 184.886L285.377 184.886L284.749 184.108ZM282.238 211V212H283.238V211H282.238ZM266.362 211H265.362V212H266.362V211ZM266.362 165.559V164.559H265.362V165.559H266.362ZM282.238 165.559H283.238V164.559H282.238V165.559ZM283.062 174.145C284.768 171.664 286.824 169.715 289.23 168.281L288.206 166.563C285.536 168.153 283.272 170.308 281.414 173.011L283.062 174.145ZM289.23 168.281C291.615 166.86 294.166 166.154 296.899 166.154V164.154C293.801 164.154 290.897 164.96 288.206 166.563L289.23 168.281ZM295.899 165.154V182.083H297.899V165.154H295.899ZM296.899 181.083H292.444V183.083H296.899V181.083ZM292.444 181.083C288.889 181.083 286.053 181.772 284.121 183.33L285.377 184.886C286.793 183.744 289.087 183.083 292.444 183.083V181.083ZM284.121 183.33C282.106 184.955 281.238 187.674 281.238 191.155H283.238C283.238 187.94 284.045 185.961 285.377 184.886L284.121 183.33ZM281.238 191.155V211H283.238V191.155H281.238ZM282.238 210H266.362V212H282.238V210ZM267.362 211V165.559H265.362V211H267.362ZM266.362 166.559H282.238V164.559H266.362V166.559ZM281.238 165.559V173.578H283.238V165.559H281.238ZM351.515 165.559L352.433 165.954L353.033 164.559H351.515V165.559ZM322.679 232.627V233.627H323.337L323.597 233.022L322.679 232.627ZM305.426 232.627L304.517 232.209L303.864 233.627H305.426V232.627ZM316.28 209.056L317.188 209.474L317.374 209.071L317.199 208.662L316.28 209.056ZM297.65 165.559V164.559H296.134L296.73 165.953L297.65 165.559ZM315.308 165.559L316.245 165.211L316.003 164.559H315.308V165.559ZM324.866 191.317L323.928 191.665L324.882 194.235L325.807 191.654L324.866 191.317ZM334.1 165.559V164.559H333.396L333.158 165.222L334.1 165.559ZM350.596 165.164L321.76 232.232L323.597 233.022L352.433 165.954L350.596 165.164ZM322.679 231.627H305.426V233.627H322.679V231.627ZM306.334 233.045L317.188 209.474L315.371 208.638L304.517 232.209L306.334 233.045ZM317.199 208.662L298.569 165.165L296.73 165.953L315.36 209.45L317.199 208.662ZM297.65 166.559H315.308V164.559H297.65V166.559ZM314.37 165.907L323.928 191.665L325.803 190.969L316.245 165.211L314.37 165.907ZM325.807 191.654L335.041 165.896L333.158 165.222L323.924 190.98L325.807 191.654ZM334.1 166.559H351.515V164.559H334.1V166.559Z" fill="#1A2B42" mask="url(#path-1-outside-1_71_953)"/>
<mask id="path-3-outside-2_71_953" maskUnits="userSpaceOnUse" x="3" y="30" width="284" height="82" fill="black">
<rect fill="white" x="3" y="30" width="284" height="82"/>
<path d="M20.412 31.895V89H4.536V31.895H20.412ZM59.18 43.154C64.418 43.154 68.576 44.909 71.654 48.419C74.732 51.875 76.271 56.573 76.271 62.513V89H60.395V64.619C60.395 62.027 59.72 60.002 58.37 58.544C57.02 57.032 55.211 56.276 52.943 56.276C50.567 56.276 48.704 57.032 47.354 58.544C46.004 60.002 45.329 62.027 45.329 64.619V89H29.453V43.559H45.329V50.039C46.733 47.987 48.623 46.34 50.999 45.098C53.375 43.802 56.102 43.154 59.18 43.154ZM106.771 74.015L115.276 43.559H132.205L116.572 89H96.8083L81.1753 43.559H98.1043L106.771 74.015ZM181.001 65.753C181.001 66.995 180.92 68.237 180.758 69.479H150.707C150.869 71.963 151.544 73.826 152.732 75.068C153.974 76.256 155.54 76.85 157.43 76.85C160.076 76.85 161.966 75.662 163.1 73.286H180.029C179.327 76.418 177.95 79.226 175.898 81.71C173.9 84.14 171.362 86.057 168.284 87.461C165.206 88.865 161.804 89.567 158.078 89.567C153.596 89.567 149.6 88.622 146.09 86.732C142.634 84.842 139.907 82.142 137.909 78.632C135.965 75.122 134.993 70.991 134.993 66.239C134.993 61.487 135.965 57.383 137.909 53.927C139.853 50.417 142.553 47.717 146.009 45.827C149.519 43.937 153.542 42.992 158.078 42.992C162.56 42.992 166.529 43.91 169.985 45.746C173.441 47.582 176.141 50.228 178.085 53.684C180.029 57.086 181.001 61.109 181.001 65.753ZM164.801 61.784C164.801 59.84 164.153 58.328 162.857 57.248C161.561 56.114 159.941 55.547 157.997 55.547C156.053 55.547 154.46 56.087 153.218 57.167C151.976 58.193 151.166 59.732 150.788 61.784H164.801ZM230.914 65.753C230.914 66.995 230.833 68.237 230.671 69.479H200.62C200.782 71.963 201.457 73.826 202.645 75.068C203.887 76.256 205.453 76.85 207.343 76.85C209.989 76.85 211.879 75.662 213.013 73.286H229.942C229.24 76.418 227.863 79.226 225.811 81.71C223.813 84.14 221.275 86.057 218.197 87.461C215.119 88.865 211.717 89.567 207.991 89.567C203.509 89.567 199.513 88.622 196.003 86.732C192.547 84.842 189.82 82.142 187.822 78.632C185.878 75.122 184.906 70.991 184.906 66.239C184.906 61.487 185.878 57.383 187.822 53.927C189.766 50.417 192.466 47.717 195.922 45.827C199.432 43.937 203.455 42.992 207.991 42.992C212.473 42.992 216.442 43.91 219.898 45.746C223.354 47.582 226.054 50.228 227.998 53.684C229.942 57.086 230.914 61.109 230.914 65.753ZM214.714 61.784C214.714 59.84 214.066 58.328 212.77 57.248C211.474 56.114 209.854 55.547 207.91 55.547C205.966 55.547 204.373 56.087 203.131 57.167C201.889 58.193 201.079 59.732 200.701 61.784H214.714ZM253.287 49.877C254.529 47.771 256.284 46.097 258.552 44.855C260.82 43.613 263.493 42.992 266.571 42.992C270.189 42.992 273.456 43.937 276.372 45.827C279.342 47.717 281.664 50.417 283.338 53.927C285.066 57.437 285.93 61.541 285.93 66.239C285.93 70.937 285.066 75.068 283.338 78.632C281.664 82.142 279.342 84.842 276.372 86.732C273.456 88.622 270.189 89.567 266.571 89.567C263.493 89.567 260.82 88.946 258.552 87.704C256.338 86.462 254.583 84.788 253.287 82.682V110.708H237.411V43.559H253.287V49.877ZM269.811 66.239C269.811 63.269 269.001 60.974 267.381 59.354C265.815 57.68 263.871 56.843 261.549 56.843C259.227 56.843 257.256 57.68 255.636 59.354C254.07 61.028 253.287 63.323 253.287 66.239C253.287 69.209 254.07 71.531 255.636 73.205C257.256 74.879 259.227 75.716 261.549 75.716C263.871 75.716 265.815 74.879 267.381 73.205C269.001 71.477 269.811 69.155 269.811 66.239Z"/>
</mask>
<path d="M20.412 31.895V89H4.536V31.895H20.412ZM59.18 43.154C64.418 43.154 68.576 44.909 71.654 48.419C74.732 51.875 76.271 56.573 76.271 62.513V89H60.395V64.619C60.395 62.027 59.72 60.002 58.37 58.544C57.02 57.032 55.211 56.276 52.943 56.276C50.567 56.276 48.704 57.032 47.354 58.544C46.004 60.002 45.329 62.027 45.329 64.619V89H29.453V43.559H45.329V50.039C46.733 47.987 48.623 46.34 50.999 45.098C53.375 43.802 56.102 43.154 59.18 43.154ZM106.771 74.015L115.276 43.559H132.205L116.572 89H96.8083L81.1753 43.559H98.1043L106.771 74.015ZM181.001 65.753C181.001 66.995 180.92 68.237 180.758 69.479H150.707C150.869 71.963 151.544 73.826 152.732 75.068C153.974 76.256 155.54 76.85 157.43 76.85C160.076 76.85 161.966 75.662 163.1 73.286H180.029C179.327 76.418 177.95 79.226 175.898 81.71C173.9 84.14 171.362 86.057 168.284 87.461C165.206 88.865 161.804 89.567 158.078 89.567C153.596 89.567 149.6 88.622 146.09 86.732C142.634 84.842 139.907 82.142 137.909 78.632C135.965 75.122 134.993 70.991 134.993 66.239C134.993 61.487 135.965 57.383 137.909 53.927C139.853 50.417 142.553 47.717 146.009 45.827C149.519 43.937 153.542 42.992 158.078 42.992C162.56 42.992 166.529 43.91 169.985 45.746C173.441 47.582 176.141 50.228 178.085 53.684C180.029 57.086 181.001 61.109 181.001 65.753ZM164.801 61.784C164.801 59.84 164.153 58.328 162.857 57.248C161.561 56.114 159.941 55.547 157.997 55.547C156.053 55.547 154.46 56.087 153.218 57.167C151.976 58.193 151.166 59.732 150.788 61.784H164.801ZM230.914 65.753C230.914 66.995 230.833 68.237 230.671 69.479H200.62C200.782 71.963 201.457 73.826 202.645 75.068C203.887 76.256 205.453 76.85 207.343 76.85C209.989 76.85 211.879 75.662 213.013 73.286H229.942C229.24 76.418 227.863 79.226 225.811 81.71C223.813 84.14 221.275 86.057 218.197 87.461C215.119 88.865 211.717 89.567 207.991 89.567C203.509 89.567 199.513 88.622 196.003 86.732C192.547 84.842 189.82 82.142 187.822 78.632C185.878 75.122 184.906 70.991 184.906 66.239C184.906 61.487 185.878 57.383 187.822 53.927C189.766 50.417 192.466 47.717 195.922 45.827C199.432 43.937 203.455 42.992 207.991 42.992C212.473 42.992 216.442 43.91 219.898 45.746C223.354 47.582 226.054 50.228 227.998 53.684C229.942 57.086 230.914 61.109 230.914 65.753ZM214.714 61.784C214.714 59.84 214.066 58.328 212.77 57.248C211.474 56.114 209.854 55.547 207.91 55.547C205.966 55.547 204.373 56.087 203.131 57.167C201.889 58.193 201.079 59.732 200.701 61.784H214.714ZM253.287 49.877C254.529 47.771 256.284 46.097 258.552 44.855C260.82 43.613 263.493 42.992 266.571 42.992C270.189 42.992 273.456 43.937 276.372 45.827C279.342 47.717 281.664 50.417 283.338 53.927C285.066 57.437 285.93 61.541 285.93 66.239C285.93 70.937 285.066 75.068 283.338 78.632C281.664 82.142 279.342 84.842 276.372 86.732C273.456 88.622 270.189 89.567 266.571 89.567C263.493 89.567 260.82 88.946 258.552 87.704C256.338 86.462 254.583 84.788 253.287 82.682V110.708H237.411V43.559H253.287V49.877ZM269.811 66.239C269.811 63.269 269.001 60.974 267.381 59.354C265.815 57.68 263.871 56.843 261.549 56.843C259.227 56.843 257.256 57.68 255.636 59.354C254.07 61.028 253.287 63.323 253.287 66.239C253.287 69.209 254.07 71.531 255.636 73.205C257.256 74.879 259.227 75.716 261.549 75.716C263.871 75.716 265.815 74.879 267.381 73.205C269.001 71.477 269.811 69.155 269.811 66.239Z" fill="#5CC59E"/>
<path d="M20.412 31.895H21.412V30.895H20.412V31.895ZM20.412 89V90H21.412V89H20.412ZM4.536 89H3.536V90H4.536V89ZM4.536 31.895V30.895H3.536V31.895H4.536ZM19.412 31.895V89H21.412V31.895H19.412ZM20.412 88H4.536V90H20.412V88ZM5.536 89V31.895H3.536V89H5.536ZM4.536 32.895H20.412V30.895H4.536V32.895ZM71.654 48.419L70.9021 49.0783L70.9072 49.0841L71.654 48.419ZM76.271 89V90H77.271V89H76.271ZM60.395 89H59.395V90H60.395V89ZM58.37 58.544L57.6241 59.21L57.6301 59.2168L57.6362 59.2234L58.37 58.544ZM47.354 58.544L48.0878 59.2234L48.0939 59.2168L48.0999 59.21L47.354 58.544ZM45.329 89V90H46.329V89H45.329ZM29.453 89H28.453V90H29.453V89ZM29.453 43.559V42.559H28.453V43.559H29.453ZM45.329 43.559H46.329V42.559H45.329V43.559ZM45.329 50.039H44.329V53.2714L46.1543 50.6037L45.329 50.039ZM50.999 45.098L51.4622 45.9842L51.4701 45.9801L51.4778 45.9759L50.999 45.098ZM59.18 44.154C64.1692 44.154 68.0384 45.8127 70.9021 49.0783L72.4059 47.7597C69.1136 44.0053 64.6668 42.154 59.18 42.154V44.154ZM70.9072 49.0841C73.7801 52.3098 75.271 56.7467 75.271 62.513H77.271C77.271 56.3993 75.6839 51.4402 72.4008 47.7539L70.9072 49.0841ZM75.271 62.513V89H77.271V62.513H75.271ZM76.271 88H60.395V90H76.271V88ZM61.395 89V64.619H59.395V89H61.395ZM61.395 64.619C61.395 61.854 60.6719 59.5582 59.1038 57.8646L57.6362 59.2234C58.7681 60.4458 59.395 62.2 59.395 64.619H61.395ZM59.1159 57.878C57.5525 56.1269 55.4581 55.276 52.943 55.276V57.276C54.9638 57.276 56.4875 57.9371 57.6241 59.21L59.1159 57.878ZM52.943 55.276C50.336 55.276 48.1809 56.1164 46.6081 57.878L48.0999 59.21C49.2271 57.9476 50.798 57.276 52.943 57.276V55.276ZM46.6202 57.8646C45.0521 59.5582 44.329 61.854 44.329 64.619H46.329C46.329 62.2 46.9559 60.4458 48.0878 59.2234L46.6202 57.8646ZM44.329 64.619V89H46.329V64.619H44.329ZM45.329 88H29.453V90H45.329V88ZM30.453 89V43.559H28.453V89H30.453ZM29.453 44.559H45.329V42.559H29.453V44.559ZM44.329 43.559V50.039H46.329V43.559H44.329ZM46.1543 50.6037C47.4586 48.6974 49.2198 47.1564 51.4622 45.9842L50.5357 44.2118C48.0262 45.5236 46.0074 47.2766 44.5037 49.4743L46.1543 50.6037ZM51.4778 45.9759C53.6878 44.7705 56.2461 44.154 59.18 44.154V42.154C55.9579 42.154 53.0622 42.8335 50.5201 44.2201L51.4778 45.9759ZM106.771 74.015L105.809 74.2887L106.78 77.7004L107.734 74.284L106.771 74.015ZM115.276 43.559V42.559H114.517L114.313 43.29L115.276 43.559ZM132.205 43.559L133.151 43.8843L133.607 42.559H132.205V43.559ZM116.572 89V90H117.286L117.518 89.3253L116.572 89ZM96.8083 89L95.8627 89.3253L96.0948 90H96.8083V89ZM81.1753 43.559V42.559H79.7737L80.2297 43.8843L81.1753 43.559ZM98.1043 43.559L99.0661 43.2853L98.8594 42.559H98.1043V43.559ZM107.734 74.284L116.239 43.828L114.313 43.29L105.808 73.746L107.734 74.284ZM115.276 44.559H132.205V42.559H115.276V44.559ZM131.26 43.2337L115.627 88.6747L117.518 89.3253L133.151 43.8843L131.26 43.2337ZM116.572 88H96.8083V90H116.572V88ZM97.7539 88.6747L82.1209 43.2337L80.2297 43.8843L95.8627 89.3253L97.7539 88.6747ZM81.1753 44.559H98.1043V42.559H81.1753V44.559ZM97.1425 43.8327L105.809 74.2887L107.733 73.7413L99.0661 43.2853L97.1425 43.8327ZM180.758 69.479V70.479H181.636L181.749 69.6083L180.758 69.479ZM150.707 69.479V68.479H149.639L149.709 69.5441L150.707 69.479ZM152.732 75.068L152.009 75.7592L152.025 75.7753L152.041 75.7906L152.732 75.068ZM163.1 73.286V72.286H162.469L162.197 72.8553L163.1 73.286ZM180.029 73.286L181.005 73.5047L181.278 72.286H180.029V73.286ZM175.898 81.71L175.127 81.0731L175.125 81.0749L175.898 81.71ZM168.284 87.461L168.699 88.3708L168.284 87.461ZM146.09 86.732L145.61 87.6094L145.616 87.6125L146.09 86.732ZM137.909 78.632L137.034 79.1165L137.04 79.1267L137.909 78.632ZM137.909 53.927L138.78 54.4173L138.784 54.4115L137.909 53.927ZM146.009 45.827L145.535 44.9465L145.529 44.9496L146.009 45.827ZM169.985 45.746L170.454 44.8629L169.985 45.746ZM178.085 53.684L177.213 54.1743L177.217 54.1801L178.085 53.684ZM164.801 61.784V62.784H165.801V61.784H164.801ZM162.857 57.248L162.198 58.0006L162.207 58.0085L162.217 58.0162L162.857 57.248ZM153.218 57.167L153.855 57.938L153.864 57.9299L153.874 57.9216L153.218 57.167ZM150.788 61.784L149.804 61.6028L149.587 62.784H150.788V61.784ZM180.001 65.753C180.001 66.9514 179.923 68.1502 179.766 69.3497L181.749 69.6083C181.917 68.3238 182.001 67.0386 182.001 65.753H180.001ZM180.758 68.479H150.707V70.479H180.758V68.479ZM149.709 69.5441C149.88 72.1599 150.599 74.2854 152.009 75.7592L153.454 74.3768C152.488 73.3666 151.858 71.7661 151.705 69.4139L149.709 69.5441ZM152.041 75.7906C153.488 77.1751 155.31 77.85 157.43 77.85V75.85C155.769 75.85 154.46 75.3369 153.423 74.3454L152.041 75.7906ZM157.43 77.85C158.906 77.85 160.232 77.5171 161.364 76.8056C162.496 76.094 163.369 75.0445 164.002 73.7167L162.197 72.8553C161.697 73.9035 161.057 74.636 160.3 75.1124C159.542 75.5889 158.6 75.85 157.43 75.85V77.85ZM163.1 74.286H180.029V72.286H163.1V74.286ZM179.053 73.0673C178.386 76.0451 177.079 78.71 175.127 81.0731L176.669 82.3469C178.821 79.742 180.268 76.7909 181.005 73.5047L179.053 73.0673ZM175.125 81.0749C173.231 83.3786 170.819 85.2055 167.869 86.5512L168.699 88.3708C171.905 86.9085 174.568 84.9014 176.67 82.3451L175.125 81.0749ZM167.869 86.5512C164.934 87.89 161.675 88.567 158.078 88.567V90.567C161.932 90.567 165.478 89.84 168.699 88.3708L167.869 86.5512ZM158.078 88.567C153.74 88.567 149.911 87.6537 146.564 85.8515L145.616 87.6125C149.289 89.5903 153.451 90.567 158.078 90.567V88.567ZM146.57 85.8546C143.281 84.056 140.687 81.4904 138.778 78.1373L137.04 79.1267C139.127 82.7936 141.987 85.628 145.61 87.6094L146.57 85.8546ZM138.784 78.1475C136.936 74.8109 135.993 70.8528 135.993 66.239H133.993C133.993 71.1292 134.994 75.4331 137.034 79.1165L138.784 78.1475ZM135.993 66.239C135.993 61.6247 136.936 57.6965 138.78 54.4173L137.037 53.4367C134.994 57.0695 133.993 61.3493 133.993 66.239H135.993ZM138.784 54.4115C140.638 51.064 143.202 48.5017 146.489 46.7044L145.529 44.9496C141.904 46.9323 139.068 49.77 137.034 53.4425L138.784 54.4115ZM146.483 46.7075C149.828 44.9062 153.684 43.992 158.078 43.992V41.992C153.399 41.992 149.209 42.9678 145.535 44.9465L146.483 46.7075ZM158.078 43.992C162.42 43.992 166.224 44.8804 169.516 46.6291L170.454 44.8629C166.834 42.9396 162.699 41.992 158.078 41.992V43.992ZM169.516 46.6291C172.8 48.3741 175.362 50.8827 177.213 54.1743L178.956 53.1937C176.92 49.5733 174.081 46.7899 170.454 44.8629L169.516 46.6291ZM177.217 54.1801C179.059 57.4052 180.001 61.2507 180.001 65.753H182.001C182.001 60.9673 180.998 56.7668 178.953 53.1879L177.217 54.1801ZM165.801 61.784C165.801 59.5937 165.057 57.7799 163.497 56.4798L162.217 58.0162C163.249 58.8761 163.801 60.0863 163.801 61.784H165.801ZM163.515 56.4954C162.013 55.1812 160.15 54.547 157.997 54.547V56.547C159.732 56.547 161.108 57.0468 162.198 58.0006L163.515 56.4954ZM157.997 54.547C155.858 54.547 154.018 55.1464 152.562 56.4124L153.874 57.9216C154.902 57.0276 156.248 56.547 157.997 56.547V54.547ZM152.581 56.396C151.11 57.6113 150.212 59.3891 149.804 61.6028L151.771 61.9652C152.119 60.0749 152.842 58.7747 153.855 57.938L152.581 56.396ZM150.788 62.784H164.801V60.784H150.788V62.784ZM230.671 69.479V70.479H231.549L231.663 69.6083L230.671 69.479ZM200.62 69.479V68.479H199.553L199.622 69.5441L200.62 69.479ZM202.645 75.068L201.922 75.7592L201.938 75.7753L201.954 75.7906L202.645 75.068ZM213.013 73.286V72.286H212.382L212.11 72.8553L213.013 73.286ZM229.942 73.286L230.918 73.5047L231.191 72.286H229.942V73.286ZM225.811 81.71L225.04 81.0731L225.038 81.0749L225.811 81.71ZM218.197 87.461L218.612 88.3708L218.197 87.461ZM196.003 86.732L195.523 87.6094L195.529 87.6125L196.003 86.732ZM187.822 78.632L186.947 79.1165L186.953 79.1267L187.822 78.632ZM187.822 53.927L188.694 54.4173L188.697 54.4115L187.822 53.927ZM195.922 45.827L195.448 44.9465L195.442 44.9496L195.922 45.827ZM219.898 45.746L220.367 44.8629L219.898 45.746ZM227.998 53.684L227.126 54.1743L227.13 54.1801L227.998 53.684ZM214.714 61.784V62.784H215.714V61.784H214.714ZM212.77 57.248L212.111 58.0006L212.12 58.0085L212.13 58.0162L212.77 57.248ZM203.131 57.167L203.768 57.938L203.778 57.9299L203.787 57.9216L203.131 57.167ZM200.701 61.784L199.717 61.6028L199.5 62.784H200.701V61.784ZM229.914 65.753C229.914 66.9514 229.836 68.1502 229.679 69.3497L231.663 69.6083C231.83 68.3238 231.914 67.0386 231.914 65.753H229.914ZM230.671 68.479H200.62V70.479H230.671V68.479ZM199.622 69.5441C199.793 72.1599 200.513 74.2854 201.922 75.7592L203.368 74.3768C202.401 73.3666 201.771 71.7661 201.618 69.4139L199.622 69.5441ZM201.954 75.7906C203.401 77.1751 205.223 77.85 207.343 77.85V75.85C205.682 75.85 204.373 75.3369 203.336 74.3454L201.954 75.7906ZM207.343 77.85C208.819 77.85 210.145 77.5171 211.277 76.8056C212.409 76.094 213.282 75.0445 213.915 73.7167L212.11 72.8553C211.61 73.9035 210.971 74.636 210.213 75.1124C209.455 75.5889 208.513 75.85 207.343 75.85V77.85ZM213.013 74.286H229.942V72.286H213.013V74.286ZM228.966 73.0673C228.299 76.0451 226.992 78.71 225.04 81.0731L226.582 82.3469C228.734 79.742 230.181 76.7909 230.918 73.5047L228.966 73.0673ZM225.038 81.0749C223.144 83.3786 220.732 85.2055 217.782 86.5512L218.612 88.3708C221.818 86.9085 224.481 84.9014 226.583 82.3451L225.038 81.0749ZM217.782 86.5512C214.847 87.89 211.588 88.567 207.991 88.567V90.567C211.845 90.567 215.391 89.84 218.612 88.3708L217.782 86.5512ZM207.991 88.567C203.654 88.567 199.824 87.6537 196.477 85.8515L195.529 87.6125C199.202 89.5903 203.364 90.567 207.991 90.567V88.567ZM196.483 85.8546C193.194 84.056 190.6 81.4904 188.691 78.1373L186.953 79.1267C189.04 82.7936 191.9 85.628 195.523 87.6094L196.483 85.8546ZM188.697 78.1475C186.849 74.8109 185.906 70.8528 185.906 66.239H183.906C183.906 71.1292 184.907 75.4331 186.947 79.1165L188.697 78.1475ZM185.906 66.239C185.906 61.6247 186.849 57.6965 188.693 54.4173L186.95 53.4367C184.907 57.0695 183.906 61.3493 183.906 66.239H185.906ZM188.697 54.4115C190.551 51.064 193.115 48.5017 196.402 46.7044L195.442 44.9496C191.817 46.9323 188.981 49.77 186.947 53.4425L188.697 54.4115ZM196.396 46.7075C199.741 44.9062 203.597 43.992 207.991 43.992V41.992C203.312 41.992 199.123 42.9678 195.448 44.9465L196.396 46.7075ZM207.991 43.992C212.333 43.992 216.137 44.8804 219.429 46.6291L220.367 44.8629C216.747 42.9396 212.613 41.992 207.991 41.992V43.992ZM219.429 46.6291C222.713 48.3741 225.275 50.8827 227.126 54.1743L228.869 53.1937C226.833 49.5733 223.994 46.7899 220.367 44.8629L219.429 46.6291ZM227.13 54.1801C228.973 57.4052 229.914 61.2507 229.914 65.753H231.914C231.914 60.9673 230.911 56.7668 228.866 53.1879L227.13 54.1801ZM215.714 61.784C215.714 59.5937 214.97 57.7799 213.41 56.4798L212.13 58.0162C213.162 58.8761 213.714 60.0863 213.714 61.784H215.714ZM213.428 56.4954C211.926 55.1812 210.063 54.547 207.91 54.547V56.547C209.645 56.547 211.021 57.0468 212.111 58.0006L213.428 56.4954ZM207.91 54.547C205.771 54.547 203.931 55.1464 202.475 56.4124L203.787 57.9216C204.815 57.0276 206.161 56.547 207.91 56.547V54.547ZM202.494 56.396C201.023 57.6113 200.125 59.3891 199.717 61.6028L201.684 61.9652C202.033 60.0749 202.755 58.7747 203.768 57.938L202.494 56.396ZM200.701 62.784H214.714V60.784H200.701V62.784ZM253.287 49.877H252.287V53.5412L254.148 50.385L253.287 49.877ZM258.552 44.855L258.072 43.9779L258.552 44.855ZM276.372 45.827L275.828 46.6662L275.835 46.6707L276.372 45.827ZM283.338 53.927L282.435 54.3575L282.441 54.3687L283.338 53.927ZM283.338 78.632L282.438 78.1957L282.435 78.2015L283.338 78.632ZM276.372 86.732L275.835 85.8883L275.828 85.8928L276.372 86.732ZM258.552 87.704L258.063 88.5762L258.072 88.5811L258.552 87.704ZM253.287 82.682L254.139 82.1579L252.287 79.149V82.682H253.287ZM253.287 110.708V111.708H254.287V110.708H253.287ZM237.411 110.708H236.411V111.708H237.411V110.708ZM237.411 43.559V42.559H236.411V43.559H237.411ZM253.287 43.559H254.287V42.559H253.287V43.559ZM267.381 59.354L266.651 60.0372L266.662 60.0493L266.674 60.0611L267.381 59.354ZM255.636 59.354L254.917 58.6586L254.912 58.6647L254.906 58.6708L255.636 59.354ZM255.636 73.205L254.906 73.8882L254.912 73.8943L254.917 73.9004L255.636 73.205ZM267.381 73.205L266.651 72.5211L266.651 72.5218L267.381 73.205ZM254.148 50.385C255.294 48.4431 256.913 46.8928 259.032 45.7321L258.072 43.9779C255.655 45.3012 253.764 47.0989 252.426 49.369L254.148 50.385ZM259.032 45.7321C261.127 44.5848 263.629 43.992 266.571 43.992V41.992C263.357 41.992 260.513 42.6412 258.072 43.9779L259.032 45.7321ZM266.571 43.992C270.004 43.992 273.081 44.8856 275.828 46.6661L276.916 44.9878C273.831 42.9884 270.374 41.992 266.571 41.992V43.992ZM275.835 46.6707C278.631 48.4496 280.833 50.9985 282.435 54.3575L284.241 53.4965C282.495 49.8355 280.053 46.9844 276.909 44.9833L275.835 46.6707ZM282.441 54.3687C284.089 57.7164 284.93 61.6638 284.93 66.239H286.93C286.93 61.4182 286.043 57.1576 284.235 53.4853L282.441 54.3687ZM284.93 66.239C284.93 70.8138 284.089 74.7907 282.438 78.1957L284.238 79.0683C286.043 75.3453 286.93 71.0602 286.93 66.239H284.93ZM282.435 78.2015C280.833 81.5605 278.631 84.1094 275.835 85.8883L276.909 87.5757C280.053 85.5746 282.495 82.7235 284.241 79.0625L282.435 78.2015ZM275.828 85.8928C273.081 87.6734 270.004 88.567 266.571 88.567V90.567C270.374 90.567 273.831 89.5706 276.916 87.5712L275.828 85.8928ZM266.571 88.567C263.629 88.567 261.127 87.9742 259.032 86.8269L258.072 88.5811C260.513 89.9178 263.357 90.567 266.571 90.567V88.567ZM259.041 86.8319C256.972 85.6708 255.343 84.115 254.139 82.1579L252.435 83.2061C253.823 85.461 255.704 87.2532 258.063 88.5761L259.041 86.8319ZM252.287 82.682V110.708H254.287V82.682H252.287ZM253.287 109.708H237.411V111.708H253.287V109.708ZM238.411 110.708V43.559H236.411V110.708H238.411ZM237.411 44.559H253.287V42.559H237.411V44.559ZM252.287 43.559V49.877H254.287V43.559H252.287ZM270.811 66.239C270.811 63.0858 269.947 60.5054 268.088 58.6469L266.674 60.0611C268.055 61.4426 268.811 63.4522 268.811 66.239H270.811ZM268.111 58.6708C266.353 56.7918 264.144 55.843 261.549 55.843V57.843C263.598 57.843 265.277 58.5682 266.651 60.0372L268.111 58.6708ZM261.549 55.843C258.955 55.843 256.725 56.7906 254.917 58.6586L256.355 60.0494C257.787 58.5694 259.499 57.843 261.549 57.843V55.843ZM254.906 58.6708C253.123 60.5766 252.287 63.1411 252.287 66.239H254.287C254.287 63.5049 255.017 61.4794 256.366 60.0372L254.906 58.6708ZM252.287 66.239C252.287 69.3852 253.12 71.9792 254.906 73.8882L256.366 72.5218C255.02 71.0828 254.287 69.0328 254.287 66.239H252.287ZM254.917 73.9004C256.725 75.7684 258.955 76.716 261.549 76.716V74.716C259.499 74.716 257.787 73.9896 256.355 72.5096L254.917 73.9004ZM261.549 76.716C264.144 76.716 266.353 75.7672 268.111 73.8882L266.651 72.5218C265.277 73.9908 263.598 74.716 261.549 74.716V76.716ZM268.111 73.8889C269.942 71.935 270.811 69.3473 270.811 66.239H268.811C268.811 68.9627 268.06 71.019 266.651 72.5211L268.111 73.8889Z" fill="#5CC59E" mask="url(#path-3-outside-2_71_953)"/>
<path d="M339.074 677.93C482.718 752.97 715.612 752.973 859.253 677.932C1002.9 602.889 1002.9 481.225 859.253 406.185C715.608 331.143 482.715 331.143 339.072 406.183C195.428 481.223 195.428 602.89 339.074 677.93Z" fill="#F5F5F5"/>
<path d="M285.442 552.061C285.442 552.061 291.387 535.71 292.713 517.879C294.04 500.049 285.403 472.753 269.571 463.613C253.739 454.473 245.187 465.771 250.493 475.506C255.798 485.241 273.703 512.617 273.924 536.286L285.442 552.061Z" fill="#27DEBF"/>
<path d="M279.93 551.672C279.884 551.672 279.837 551.669 279.791 551.66C279.332 551.584 279.019 551.15 279.095 550.69L279.13 550.47C280.459 542.427 282.278 531.413 279.888 511.282C277.198 488.632 269.801 478.152 262.921 470.887C262.602 470.548 262.615 470.013 262.955 469.691C263.295 469.372 263.829 469.387 264.15 469.725C271.221 477.19 278.821 487.943 281.566 511.084C283.987 531.452 282.144 542.603 280.799 550.746L280.763 550.964C280.694 551.378 280.336 551.672 279.93 551.672Z" fill="white"/>
<path d="M276.439 562.198C274.796 553.842 268.56 544.457 256.684 538.934C244.807 533.412 232.591 530.19 230.38 523.077C228.169 515.964 235.684 507.73 251.158 511.183C266.63 514.638 283.209 537.626 282.325 553.1L276.439 562.198Z" fill="#27DEBF"/>
<path d="M279.927 557.651C279.516 557.651 279.156 557.35 279.093 556.932C275.926 535.972 258.144 519.972 244.168 518.721C243.705 518.681 243.36 518.268 243.402 517.803C243.445 517.337 243.861 517.004 244.32 517.038C258.922 518.344 277.481 534.949 280.765 556.679C280.836 557.14 280.518 557.571 280.057 557.641C280.013 557.648 279.969 557.651 279.927 557.651Z" fill="white"/>
<path d="M855.789 401.64C855.789 401.64 847.903 384.202 849.195 369.247C850.516 353.954 855.976 339.636 868.933 329.577C881.888 319.517 891.967 324.078 894.103 327.758C896.24 331.438 896.287 338.695 886.635 346.589C876.983 354.485 866.437 376.037 869.42 397.567L864.988 410.161L855.789 401.64Z" fill="#27DEBF"/>
<path d="M860.552 403.302C860.253 403.302 859.962 403.141 859.809 402.86C856.519 396.8 856.019 371.669 861.323 357.61C867.777 340.507 879.415 330.84 888.155 327.496C888.586 327.33 889.079 327.547 889.245 327.983C889.412 328.419 889.194 328.908 888.758 329.073C880.36 332.287 869.16 341.628 862.904 358.207C857.839 371.631 858.213 396.379 861.294 402.052C861.518 402.463 861.365 402.975 860.955 403.199C860.828 403.268 860.689 403.302 860.552 403.302Z" fill="white"/>
<path d="M893.087 438.023C894.409 429.331 894.62 423.993 902.719 418.673C910.818 413.354 918.022 409.584 918.602 401.989C919.18 394.394 914.175 385.836 914.432 379.213C914.689 372.59 918.749 369.481 927.304 363.655C935.858 357.828 944.626 347.893 936.223 340.804C927.82 333.714 915.292 340.302 909.584 345.246C903.875 350.191 899.242 352.018 890.489 349.689C881.736 347.359 873.171 353.421 875.254 364.589C877.336 375.758 876.258 380.839 869.214 380.447C862.17 380.055 851.832 387.373 860.109 404.232L893.087 438.023Z" fill="#27DEBF"/>
<path d="M875.255 420.594C875.22 420.594 875.188 420.592 875.152 420.589C874.691 420.533 874.358 420.114 874.415 419.649C878.43 385.922 911.896 349.716 927.115 344.449C927.546 344.298 928.036 344.53 928.19 344.971C928.342 345.412 928.109 345.894 927.666 346.046C912.782 351.197 880.037 386.719 876.092 419.849C876.04 420.28 875.676 420.594 875.255 420.594Z" fill="white"/>
<path d="M889.742 383.345C889.38 383.345 889.046 383.11 888.934 382.746C885.369 371.066 884.13 359.656 884.118 359.542C884.069 359.079 884.405 358.662 884.869 358.613C885.328 358.564 885.748 358.898 885.798 359.363C885.81 359.475 887.032 370.731 890.55 382.253C890.685 382.699 890.435 383.171 889.989 383.308C889.908 383.333 889.823 383.345 889.742 383.345Z" fill="white"/>
<path d="M880.294 401.594C879.972 401.594 879.661 401.406 879.52 401.09C879.333 400.662 879.527 400.164 879.955 399.976C895.138 393.284 909.268 398.015 909.861 398.22C910.302 398.372 910.536 398.852 910.385 399.293C910.233 399.734 909.755 399.973 909.312 399.817C909.17 399.772 895.199 395.104 880.634 401.523C880.524 401.57 880.408 401.594 880.294 401.594Z" fill="white"/>
<path d="M654.093 233.681L612.895 209.896L571.712 233.681L612.895 257.466L654.093 233.681Z" fill="#F5F5F5"/>
<path d="M612.895 305.037L654.093 281.253V233.681L612.895 257.464V305.037Z" fill="#EBEBEB"/>
<path d="M620.833 289.258C620.611 289.258 620.403 289.204 620.214 289.094C619.724 288.812 619.442 288.188 619.442 287.385V282.346C619.442 282.343 619.442 282.339 619.442 282.336V281.962L619.699 282.008L623.651 279.687V285.319C623.651 286.753 622.795 288.369 621.705 288.998C621.408 289.172 621.11 289.258 620.833 289.258ZM620.076 282.718V287.385C620.076 287.955 620.243 288.377 620.532 288.545C620.821 288.712 621.156 288.584 621.389 288.45C622.271 287.939 623.019 286.506 623.019 285.319V284.907H621.555L621.267 282.931L620.076 282.718ZM622.101 284.273H623.017V280.794L620.659 282.179L621.825 282.388L622.101 284.273Z" fill="white"/>
<path d="M621.546 293.275C621.37 293.275 621.228 293.133 621.228 292.957V288.723C621.228 288.547 621.37 288.405 621.546 288.405C621.72 288.405 621.864 288.547 621.864 288.723V292.957C621.862 293.133 621.72 293.275 621.546 293.275Z" fill="white"/>
<path d="M619.705 294.338C619.597 294.338 619.489 294.28 619.431 294.179C619.344 294.027 619.396 293.832 619.546 293.746L623.226 291.621C623.373 291.537 623.571 291.586 623.659 291.738C623.747 291.89 623.695 292.084 623.544 292.171L619.864 294.295C619.813 294.324 619.759 294.338 619.705 294.338Z" fill="white"/>
<path d="M632.818 287.045C632.694 287.045 632.576 287.014 632.473 286.955C632.231 286.817 632.093 286.539 632.093 286.193V285.324C632.093 285.148 632.235 285.006 632.41 285.006C632.586 285.006 632.728 285.148 632.728 285.324V286.193C632.728 286.323 632.764 286.391 632.787 286.404C632.811 286.418 632.887 286.413 632.997 286.35C633.274 286.186 633.585 285.557 633.585 284.918V279.288C633.585 279.112 633.727 278.97 633.903 278.97C634.079 278.97 634.221 279.112 634.221 279.288V284.918C634.221 285.743 633.834 286.595 633.32 286.896C633.149 286.996 632.977 287.045 632.818 287.045Z" fill="white"/>
<path d="M629.479 282.122V281.573C629.479 278.991 631.298 275.842 633.533 274.551C634.677 273.892 635.769 273.795 636.604 274.279C637.441 274.762 637.904 275.756 637.904 277.075V277.257L629.479 282.122ZM635.431 274.608C634.954 274.608 634.415 274.774 633.851 275.099C631.951 276.196 630.377 278.748 630.144 281.005L637.269 276.892C637.233 275.901 636.887 275.17 636.29 274.825C636.036 274.681 635.746 274.608 635.431 274.608Z" fill="white"/>
<path d="M644.199 280.557C644.023 280.557 643.881 280.415 643.881 280.239V269.454C643.881 269.279 644.023 269.137 644.199 269.137C644.373 269.137 644.517 269.279 644.517 269.454V280.239C644.517 280.415 644.375 280.557 644.199 280.557Z" fill="white"/>
<path d="M643.271 271.914C643.229 271.914 643.187 271.906 643.146 271.887C642.984 271.818 642.911 271.632 642.98 271.469L644.108 268.866L645.366 270.318C645.48 270.45 645.467 270.65 645.333 270.765C645.196 270.878 645 270.866 644.885 270.732L644.289 270.043L643.56 271.723C643.511 271.843 643.394 271.914 643.271 271.914Z" fill="white"/>
<path d="M647.13 278.886C646.956 278.886 646.812 278.744 646.812 278.568V267.783C646.812 267.607 646.954 267.465 647.13 267.465C647.306 267.465 647.448 267.607 647.448 267.783V278.568C647.448 278.744 647.306 278.886 647.13 278.886Z" fill="white"/>
<path d="M646.204 270.244C646.162 270.244 646.119 270.236 646.079 270.217C645.917 270.148 645.844 269.962 645.913 269.8L647.041 267.195L648.298 268.647C648.413 268.779 648.398 268.978 648.266 269.093C648.131 269.206 647.933 269.195 647.818 269.061L647.22 268.371L646.491 270.052C646.442 270.172 646.326 270.244 646.204 270.244Z" fill="white"/>
<path d="M612.895 305.037L571.695 281.253L571.712 233.681L612.895 257.466V305.037Z" fill="#E0E0E0"/>
<path d="M594.53 246.862L635.707 223.063L631.048 220.374L589.873 244.171L594.53 246.862Z" fill="white"/>
<path d="M577.961 260.954L592.705 269.467C594.323 270.4 595.633 272.67 595.633 274.538V283.634C595.633 285.502 594.323 286.258 592.705 285.325L577.961 276.812C576.344 275.879 575.033 273.608 575.033 271.741V262.645C575.033 260.778 576.344 260.021 577.961 260.954Z" fill="#27DEBF"/>
<path d="M576.818 263.229L577.378 263.551V273.653L576.818 273.33V263.229Z" fill="#27DEBF"/>
<path d="M579.099 264.544L580.064 265.112V275.214L579.099 274.646V264.544Z" fill="#27DEBF"/>
<path d="M581.379 265.859L581.939 266.183V276.285L581.379 275.962V265.859Z" fill="#27DEBF"/>
<path d="M583.098 266.834L584.219 267.499V277.602L583.098 276.938V266.834Z" fill="#27DEBF"/>
<path d="M585.94 268.493L586.501 268.816L586.499 278.918L585.94 278.595V268.493Z" fill="#27DEBF"/>
<path d="M587.583 269.419L588.781 270.132L588.78 280.234L587.581 279.521L587.583 269.419Z" fill="#27DEBF"/>
<path d="M590.5 271.124L591.062 271.447L591.06 281.549L590.5 281.226V271.124Z" fill="#27DEBF"/>
<path d="M591.802 271.864L592.083 272.025L592.081 282.128L591.802 281.966V271.864Z" fill="#27DEBF"/>
<path d="M589.461 270.574L589.741 270.736V280.838L589.461 280.676V270.574Z" fill="#27DEBF"/>
<path d="M584.868 267.882L585.147 268.044V278.146L584.868 277.985V267.882Z" fill="#27DEBF"/>
<path d="M582.351 266.438L582.632 266.601V276.703L582.351 276.542V266.438Z" fill="#27DEBF"/>
<path d="M580.544 265.441L580.825 265.604V275.705L580.544 275.543V265.441Z" fill="#27DEBF"/>
<path d="M578.095 263.954L578.375 264.116L578.374 274.218L578.095 274.056V263.954Z" fill="#27DEBF"/>
<path d="M592.781 272.44L593.342 272.763V282.866L592.781 282.543V272.44Z" fill="#27DEBF"/>
<path d="M599.16 225.751L551.096 198L503.03 225.751L551.094 253.502L599.16 225.751Z" fill="#F5F5F5"/>
<path d="M530.495 241.605L578.561 213.856L573.899 211.167L525.838 238.916L530.495 241.605Z" fill="white"/>
<path d="M551.096 340.717L599.16 312.967V225.751L551.096 253.501V340.717Z" fill="#EBEBEB"/>
<path d="M559.032 324.937C558.811 324.937 558.603 324.883 558.414 324.773C557.923 324.49 557.641 323.867 557.641 323.064V318.025C557.641 318.021 557.641 318.018 557.641 318.015V317.641L557.898 317.687L561.85 315.366V321C561.85 322.433 560.995 324.049 559.904 324.678C559.607 324.851 559.309 324.937 559.032 324.937ZM558.275 318.398V323.065C558.275 323.635 558.442 324.058 558.731 324.227C559.017 324.392 559.355 324.266 559.588 324.132C560.471 323.622 561.218 322.188 561.218 321.001V320.589H559.756L559.467 318.611L558.275 318.398ZM560.302 319.953H561.216V316.475L558.858 317.859L560.024 318.069L560.302 319.953Z" fill="white"/>
<path d="M559.746 328.954C559.57 328.954 559.428 328.812 559.428 328.637V324.402C559.428 324.226 559.57 324.084 559.746 324.084C559.921 324.084 560.063 324.226 560.063 324.402V328.637C560.063 328.812 559.921 328.954 559.746 328.954Z" fill="white"/>
<path d="M557.906 330.018C557.798 330.018 557.69 329.961 557.632 329.859C557.545 329.707 557.597 329.513 557.747 329.427L561.427 327.302C561.576 327.217 561.772 327.266 561.86 327.419C561.948 327.571 561.896 327.765 561.745 327.851L558.065 329.976C558.016 330.003 557.96 330.018 557.906 330.018Z" fill="white"/>
<path d="M571.019 322.725C570.895 322.725 570.777 322.695 570.674 322.636C570.432 322.497 570.294 322.22 570.294 321.873V321.005C570.294 320.829 570.436 320.687 570.611 320.687C570.787 320.687 570.929 320.829 570.929 321.005V321.873C570.929 322.004 570.965 322.071 570.988 322.086C571.02 322.1 571.088 322.097 571.196 322.032C571.475 321.868 571.786 321.238 571.786 320.599V314.968C571.786 314.792 571.928 314.65 572.104 314.65C572.28 314.65 572.422 314.792 572.422 314.968V320.599C572.422 321.424 572.033 322.274 571.521 322.578C571.348 322.676 571.179 322.725 571.019 322.725Z" fill="white"/>
<path d="M567.68 317.801V317.252C567.68 314.671 569.499 311.52 571.734 310.23C572.878 309.571 573.967 309.474 574.803 309.958C575.64 310.441 576.103 311.434 576.103 312.754V312.936L567.68 317.801ZM573.632 310.289C573.155 310.289 572.616 310.455 572.052 310.781C570.152 311.876 568.578 314.431 568.344 316.687L575.468 312.575C575.432 311.582 575.086 310.854 574.489 310.507C574.236 310.36 573.946 310.289 573.632 310.289Z" fill="white"/>
<path d="M582.4 316.236C582.224 316.236 582.084 316.094 582.084 315.918V305.133C582.084 304.957 582.226 304.815 582.4 304.815C582.576 304.815 582.718 304.957 582.718 305.133V315.918C582.718 316.094 582.576 316.236 582.4 316.236Z" fill="white"/>
<path d="M581.474 307.593C581.432 307.593 581.389 307.584 581.349 307.566C581.186 307.496 581.114 307.31 581.183 307.148L582.311 304.545L583.568 305.997C583.683 306.129 583.67 306.328 583.536 306.443C583.401 306.556 583.203 306.543 583.088 306.411L582.49 305.721L581.761 307.402C581.712 307.523 581.596 307.593 581.474 307.593Z" fill="white"/>
<path d="M585.331 314.566C585.155 314.566 585.013 314.424 585.013 314.248V303.464C585.013 303.288 585.155 303.146 585.331 303.146C585.505 303.146 585.649 303.288 585.649 303.464V314.248C585.647 314.424 585.505 314.566 585.331 314.566Z" fill="white"/>
<path d="M584.405 305.923C584.363 305.923 584.32 305.915 584.28 305.896C584.118 305.827 584.045 305.641 584.114 305.479L585.242 302.874L586.499 304.326C586.614 304.458 586.599 304.657 586.467 304.772C586.332 304.886 586.136 304.872 586.019 304.74L585.421 304.051L584.692 305.731C584.645 305.852 584.527 305.923 584.405 305.923Z" fill="white"/>
<path d="M551.096 340.718L503.031 312.967L503.029 225.751L551.094 253.503L551.096 340.718Z" fill="#E0E0E0"/>
<path d="M512.81 294.83L527.552 303.343C529.17 304.276 530.48 306.546 530.48 308.414V317.51C530.48 319.378 529.17 320.134 527.552 319.201L512.807 310.688C511.189 309.755 509.879 307.484 509.879 305.617V296.521C509.882 294.653 511.192 293.895 512.81 294.83Z" fill="#F5F5F5"/>
<path d="M511.667 297.104L512.227 297.427V307.53L511.667 307.206V297.104Z" fill="#E0E0E0"/>
<path d="M513.948 298.42L514.913 298.988V309.091L513.948 308.523V298.42Z" fill="#E0E0E0"/>
<path d="M516.228 299.736L516.789 300.059L516.788 310.163L516.228 309.838V299.736Z" fill="#E0E0E0"/>
<path d="M517.947 300.71L519.07 301.376L519.068 311.478L517.947 310.813V300.71Z" fill="#E0E0E0"/>
<path d="M520.789 302.368L521.35 302.691V312.794L520.789 312.47V302.368Z" fill="#E0E0E0"/>
<path d="M522.432 303.295L523.63 304.008V314.11L522.432 313.398V303.295Z" fill="#E0E0E0"/>
<path d="M525.349 305L525.911 305.323V315.426L525.349 315.102V305Z" fill="#E0E0E0"/>
<path d="M526.651 305.74L526.932 305.903V316.004L526.651 315.842V305.74Z" fill="#E0E0E0"/>
<path d="M524.31 304.449L524.59 304.611V314.713L524.31 314.553V304.449Z" fill="#E0E0E0"/>
<path d="M519.717 301.759L519.998 301.92L519.996 312.023L519.717 311.861V301.759Z" fill="#E0E0E0"/>
<path d="M517.202 300.314L517.481 300.476V310.58L517.202 310.417V300.314Z" fill="#E0E0E0"/>
<path d="M515.395 299.317L515.674 299.479V309.581L515.395 309.42V299.317Z" fill="#E0E0E0"/>
<path d="M512.944 297.83L513.224 297.992V308.094L512.944 307.933V297.83Z" fill="#E0E0E0"/>
<path d="M527.631 306.315L528.191 306.64V316.742L527.63 316.419L527.631 306.315Z" fill="#E0E0E0"/>
<path d="M525.838 250.171L530.495 252.86V241.605L525.838 238.916V250.171Z" fill="#F0F0F0"/>
<path d="M454.967 316.93L420.633 297.109L372.569 324.86L406.902 344.682L454.967 316.93Z" fill="#F5F5F5"/>
<path d="M406.902 423.968L454.967 396.217V316.931L406.902 344.682V423.968Z" fill="#EBEBEB"/>
<path d="M414.837 408.186C414.617 408.186 414.409 408.132 414.22 408.022C413.73 407.739 413.447 407.116 413.447 406.313V401.274C413.447 401.27 413.447 401.267 413.447 401.264V400.89L413.704 400.936L417.656 398.615V404.247C417.656 405.681 416.801 407.297 415.711 407.925C415.411 408.1 415.117 408.186 414.837 408.186ZM414.081 401.647V406.314C414.081 406.884 414.248 407.307 414.538 407.474C414.822 407.638 415.16 407.513 415.395 407.379C416.279 406.869 417.024 405.437 417.024 404.249V403.836H415.562L415.273 401.859L414.081 401.647ZM416.108 403.202H417.022V399.724L414.664 401.106L415.832 401.316L416.108 403.202Z" fill="white"/>
<path d="M415.552 412.206C415.376 412.206 415.234 412.064 415.234 411.888V407.654C415.234 407.478 415.376 407.336 415.552 407.336C415.728 407.336 415.87 407.478 415.87 407.654V411.888C415.87 412.064 415.728 412.206 415.552 412.206Z" fill="white"/>
<path d="M413.713 413.267C413.604 413.267 413.496 413.21 413.439 413.108C413.351 412.956 413.403 412.762 413.554 412.676L417.235 410.551C417.382 410.466 417.58 410.515 417.668 410.668C417.756 410.82 417.704 411.014 417.553 411.1L413.871 413.225C413.821 413.254 413.767 413.267 413.713 413.267Z" fill="white"/>
<path d="M426.825 405.976C426.702 405.976 426.583 405.945 426.48 405.886C426.238 405.749 426.1 405.47 426.1 405.126V404.257C426.1 404.081 426.242 403.939 426.418 403.939C426.593 403.939 426.735 404.081 426.735 404.257V405.126C426.735 405.256 426.771 405.323 426.795 405.337C426.82 405.349 426.896 405.347 427.002 405.283C427.281 405.119 427.592 404.49 427.592 403.849V398.219C427.592 398.043 427.734 397.901 427.91 397.901C428.086 397.901 428.228 398.043 428.228 398.219V403.849C428.228 404.674 427.841 405.526 427.325 405.829C427.156 405.927 426.986 405.976 426.825 405.976Z" fill="white"/>
<path d="M423.488 401.052V400.502C423.488 397.921 425.307 394.77 427.542 393.48C428.686 392.823 429.775 392.726 430.611 393.208C431.448 393.692 431.911 394.684 431.911 396.004V396.187L423.488 401.052ZM429.438 393.539C428.962 393.539 428.422 393.705 427.858 394.03C425.958 395.125 424.384 397.679 424.151 399.936L431.274 395.823C431.239 394.831 430.894 394.101 430.295 393.756C430.044 393.612 429.754 393.539 429.438 393.539Z" fill="white"/>
<path d="M438.208 399.488C438.032 399.488 437.89 399.346 437.89 399.17V388.385C437.89 388.209 438.032 388.067 438.208 388.067C438.384 388.067 438.526 388.209 438.526 388.385V399.17C438.524 399.346 438.382 399.488 438.208 399.488Z" fill="white"/>
<path d="M437.28 390.844C437.238 390.844 437.196 390.836 437.155 390.817C436.993 390.748 436.92 390.562 436.989 390.4L438.117 387.795L439.374 389.247C439.489 389.379 439.476 389.578 439.342 389.693C439.205 389.806 439.009 389.795 438.894 389.661L438.296 388.971L437.567 390.652C437.518 390.773 437.402 390.844 437.28 390.844Z" fill="white"/>
<path d="M441.138 397.817C440.962 397.817 440.82 397.675 440.82 397.499V386.714C440.82 386.538 440.962 386.396 441.138 386.396C441.313 386.396 441.455 386.538 441.455 386.714V397.499C441.455 397.675 441.313 397.817 441.138 397.817Z" fill="white"/>
<path d="M440.211 389.173C440.169 389.173 440.127 389.165 440.086 389.146C439.924 389.077 439.851 388.891 439.92 388.728L441.048 386.124L442.306 387.576C442.421 387.707 442.407 387.907 442.275 388.022C442.14 388.135 441.942 388.123 441.827 387.99L441.229 387.3L440.5 388.98C440.451 389.102 440.333 389.173 440.211 389.173Z" fill="white"/>
<path d="M406.902 423.968L372.57 404.146L372.569 324.86L406.902 344.682V423.968Z" fill="#E0E0E0"/>
<path d="M388.511 345.32L393.168 348.009V336.753L388.511 334.065V345.32Z" fill="#F5F5F5"/>
<path d="M393.168 336.754L441.232 309.003L436.572 306.315L388.511 334.065L393.168 336.754Z" fill="white"/>
<path d="M393.168 384.326L331.37 348.646L269.571 384.326L331.37 420.005L393.168 384.326Z" fill="#F5F5F5"/>
<path d="M331.37 467.577L393.169 431.898V384.325L331.37 420.004V467.577Z" fill="#EBEBEB"/>
<path d="M339.308 451.797C339.087 451.797 338.879 451.743 338.69 451.633C338.199 451.349 337.917 450.725 337.917 449.922V444.882C337.917 444.878 337.917 444.875 337.917 444.872V444.498L338.174 444.544L342.126 442.223V447.855C342.126 449.288 341.271 450.904 340.181 451.535C339.883 451.709 339.586 451.797 339.308 451.797ZM338.551 445.255V449.922C338.551 450.492 338.718 450.916 339.007 451.084C339.295 451.249 339.631 451.121 339.865 450.989C340.747 450.477 341.494 449.045 341.494 447.857V447.444H340.032L339.743 445.468L338.551 445.255ZM340.578 446.81H341.492V443.33L339.134 444.714L340.302 444.922L340.578 446.81Z" fill="white"/>
<path d="M340.022 455.815C339.846 455.815 339.704 455.673 339.704 455.498V451.263C339.704 451.089 339.846 450.945 340.022 450.945C340.198 450.945 340.34 451.087 340.34 451.263V455.498C340.338 455.673 340.196 455.815 340.022 455.815Z" fill="white"/>
<path d="M338.181 456.877C338.073 456.877 337.965 456.821 337.907 456.718C337.819 456.566 337.872 456.373 338.022 456.285L341.704 454.161C341.852 454.069 342.049 454.122 342.136 454.276C342.224 454.428 342.172 454.62 342.021 454.708L338.34 456.833C338.289 456.864 338.235 456.877 338.181 456.877Z" fill="white"/>
<path d="M351.295 449.585C351.171 449.585 351.053 449.554 350.948 449.495C350.707 449.357 350.568 449.079 350.568 448.733V447.864C350.568 447.688 350.71 447.546 350.884 447.546C351.06 447.546 351.202 447.688 351.202 447.864V448.733C351.202 448.863 351.237 448.931 351.263 448.946C351.288 448.959 351.362 448.954 351.469 448.892C351.748 448.726 352.059 448.097 352.059 447.458V441.828C352.059 441.652 352.201 441.51 352.377 441.51C352.553 441.51 352.695 441.652 352.695 441.828V447.458C352.695 448.283 352.307 449.133 351.795 449.436C351.624 449.536 351.454 449.585 351.295 449.585Z" fill="white"/>
<path d="M347.956 444.663V444.113C347.956 441.532 349.774 438.381 352.008 437.091C353.153 436.432 354.245 436.336 355.08 436.819C355.918 437.303 356.38 438.297 356.38 439.615V439.798L347.956 444.663ZM353.908 437.149C353.43 437.149 352.891 437.314 352.326 437.641C350.428 438.736 348.854 441.289 348.621 443.547L355.744 439.433C355.708 438.442 355.362 437.712 354.765 437.367C354.512 437.222 354.223 437.149 353.908 437.149Z" fill="white"/>
<path d="M362.675 443.095C362.499 443.095 362.357 442.953 362.357 442.777V431.992C362.357 431.816 362.499 431.674 362.675 431.674C362.85 431.674 362.992 431.816 362.992 431.992V442.777C362.992 442.953 362.85 443.095 362.675 443.095Z" fill="white"/>
<path d="M361.748 434.453C361.706 434.453 361.664 434.445 361.623 434.426C361.461 434.357 361.388 434.171 361.458 434.009L362.585 431.404L363.843 432.856C363.958 432.988 363.944 433.187 363.812 433.302C363.677 433.415 363.479 433.402 363.364 433.27L362.768 432.58L362.039 434.261C361.988 434.381 361.87 434.453 361.748 434.453Z" fill="white"/>
<path d="M365.606 441.425C365.432 441.425 365.29 441.283 365.29 441.107V430.322C365.29 430.146 365.432 430.004 365.606 430.004C365.782 430.004 365.924 430.146 365.924 430.322V441.107C365.924 441.283 365.782 441.425 365.606 441.425Z" fill="white"/>
<path d="M364.679 432.781C364.637 432.781 364.595 432.773 364.554 432.754C364.392 432.685 364.319 432.499 364.389 432.337L365.516 429.732L366.774 431.184C366.889 431.316 366.875 431.515 366.742 431.63C366.607 431.744 366.409 431.732 366.294 431.598L365.695 430.908L364.967 432.589C364.918 432.71 364.801 432.781 364.679 432.781Z" fill="white"/>
<path d="M331.37 467.577L269.571 431.898V384.325L331.37 420.004V467.577Z" fill="#E0E0E0"/>
<path d="M298.142 412.076L302.799 414.766V403.509L298.142 400.82V412.076Z" fill="#F5F5F5"/>
<path d="M302.799 403.511L364.598 367.832L359.94 365.141L298.142 400.82L302.799 403.511Z" fill="white"/>
<path d="M279.367 413.765L294.109 422.278C295.727 423.211 297.037 425.481 297.037 427.349V436.445C297.037 438.313 295.727 439.069 294.109 438.136L279.364 429.623C277.746 428.69 276.436 426.42 276.436 424.552V415.456C276.439 413.589 277.749 412.832 279.367 413.765Z" fill="#F5F5F5"/>
<path d="M278.224 416.04L278.784 416.363V426.465L278.224 426.142V416.04Z" fill="#E0E0E0"/>
<path d="M280.505 417.356L281.47 417.924V428.027L280.505 427.459V417.356Z" fill="#E0E0E0"/>
<path d="M282.785 418.672L283.346 418.995L283.345 429.098L282.785 428.774V418.672Z" fill="#E0E0E0"/>
<path d="M284.504 419.646L285.627 420.312L285.625 430.413L284.504 429.749V419.646Z" fill="#E0E0E0"/>
<path d="M287.346 421.304L287.907 421.627V431.729L287.346 431.406V421.304Z" fill="#E0E0E0"/>
<path d="M288.989 422.23L290.187 422.944V433.046L288.989 432.334V422.23Z" fill="#E0E0E0"/>
<path d="M291.908 423.936L292.468 424.258V434.362L291.906 434.037L291.908 423.936Z" fill="#E0E0E0"/>
<path d="M293.208 424.676L293.489 424.838V434.94L293.208 434.778V424.676Z" fill="#E0E0E0"/>
<path d="M290.867 423.385L291.147 423.547V433.649L290.867 433.488V423.385Z" fill="#E0E0E0"/>
<path d="M286.274 420.693L286.555 420.855L286.553 430.959L286.274 430.796V420.693Z" fill="#E0E0E0"/>
<path d="M283.759 419.25L284.038 419.412V429.515L283.759 429.353V419.25Z" fill="#E0E0E0"/>
<path d="M281.952 418.252L282.231 418.415V428.517L281.952 428.356V418.252Z" fill="#E0E0E0"/>
<path d="M279.501 416.765L279.781 416.927V427.029L279.501 426.869V416.765Z" fill="#E0E0E0"/>
<path d="M294.188 425.251L294.748 425.576V435.677L294.188 435.354V425.251Z" fill="#E0E0E0"/>
<path d="M379.435 289.181L331.37 261.43L283.306 289.179L331.37 316.93L379.435 289.181Z" fill="#F5F5F5"/>
<path d="M331.37 412.074L379.437 384.325V289.18L331.37 316.931V412.074Z" fill="#EBEBEB"/>
<path d="M339.308 396.295C339.087 396.295 338.879 396.241 338.69 396.131C338.199 395.847 337.917 395.225 337.917 394.422V389.383C337.917 389.38 337.917 389.376 337.917 389.373V388.999L338.174 389.045L342.126 386.724V392.358C342.126 393.79 341.271 395.406 340.181 396.036C339.883 396.209 339.586 396.295 339.308 396.295ZM338.551 389.757V394.424C338.551 394.994 338.718 395.416 339.007 395.583C339.295 395.751 339.631 395.622 339.865 395.489C340.747 394.978 341.494 393.545 341.494 392.358V391.944H340.032L339.743 389.968L338.551 389.757ZM340.578 391.31H341.492V387.831L339.134 389.216L340.302 389.425L340.578 391.31Z" fill="white"/>
<path d="M340.022 400.315C339.846 400.315 339.704 400.173 339.704 399.997V395.763C339.704 395.587 339.846 395.445 340.022 395.445C340.198 395.445 340.34 395.587 340.34 395.763V399.997C340.338 400.173 340.196 400.315 340.022 400.315Z" fill="white"/>
<path d="M338.181 401.376C338.073 401.376 337.965 401.319 337.907 401.217C337.819 401.065 337.872 400.871 338.022 400.784L341.704 398.66C341.852 398.573 342.049 398.624 342.136 398.776C342.224 398.928 342.172 399.123 342.021 399.209L338.34 401.334C338.289 401.363 338.235 401.376 338.181 401.376Z" fill="white"/>
<path d="M351.295 394.083C351.171 394.083 351.051 394.053 350.948 393.994C350.707 393.857 350.568 393.578 350.568 393.233V392.364C350.568 392.188 350.71 392.046 350.884 392.046C351.06 392.046 351.202 392.188 351.202 392.364V393.233C351.202 393.363 351.237 393.431 351.261 393.444C351.291 393.46 351.362 393.454 351.471 393.39C351.748 393.226 352.059 392.597 352.059 391.957V386.326C352.059 386.15 352.201 386.008 352.377 386.008C352.553 386.008 352.695 386.15 352.695 386.326V391.957C352.695 392.783 352.307 393.634 351.794 393.936C351.624 394.034 351.454 394.083 351.295 394.083Z" fill="white"/>
<path d="M347.956 389.159V388.61C347.956 386.029 349.774 382.878 352.008 381.588C353.153 380.929 354.245 380.832 355.08 381.316C355.918 381.799 356.38 382.793 356.38 384.112V384.294L347.956 389.159ZM353.908 381.647C353.43 381.647 352.891 381.813 352.326 382.139C350.428 383.234 348.854 385.789 348.621 388.045L355.744 383.933C355.708 382.942 355.362 382.212 354.765 381.867C354.512 381.72 354.223 381.647 353.908 381.647Z" fill="white"/>
<path d="M362.675 387.594C362.499 387.594 362.357 387.452 362.357 387.276V376.491C362.357 376.315 362.499 376.173 362.675 376.173C362.85 376.173 362.992 376.315 362.992 376.491V387.276C362.992 387.452 362.85 387.594 362.675 387.594Z" fill="white"/>
<path d="M361.748 378.952C361.706 378.952 361.664 378.944 361.623 378.925C361.461 378.856 361.388 378.67 361.458 378.508L362.585 375.903L363.843 377.355C363.958 377.487 363.944 377.686 363.812 377.801C363.677 377.914 363.479 377.901 363.364 377.769L362.768 377.079L362.039 378.76C361.988 378.88 361.87 378.952 361.748 378.952Z" fill="white"/>
<path d="M365.606 385.923C365.432 385.923 365.29 385.781 365.29 385.605V374.82C365.29 374.644 365.432 374.502 365.606 374.502C365.782 374.502 365.924 374.644 365.924 374.82V385.605C365.924 385.781 365.782 385.923 365.606 385.923Z" fill="white"/>
<path d="M364.679 377.281C364.637 377.281 364.595 377.272 364.554 377.254C364.392 377.185 364.319 376.999 364.389 376.836L365.516 374.231L366.774 375.683C366.889 375.815 366.875 376.015 366.742 376.13C366.607 376.243 366.409 376.229 366.294 376.098L365.695 375.408L364.967 377.088C364.918 377.21 364.801 377.281 364.679 377.281Z" fill="white"/>
<path d="M331.37 412.076L283.306 384.325V289.18L331.37 316.931V412.076Z" fill="#E0E0E0"/>
<path d="M306.112 313.601L310.771 316.29V305.034L306.112 302.346V313.601Z" fill="#F5F5F5"/>
<path d="M310.771 305.036L358.836 277.284L354.175 274.597L306.112 302.346L310.771 305.036Z" fill="white"/>
<path d="M293.085 366.189L307.828 374.701C309.444 375.635 310.756 377.905 310.756 379.773V388.869C310.756 390.736 309.446 391.492 307.828 390.559L293.083 382.046C291.465 381.113 290.155 378.843 290.155 376.975V367.879C290.157 366.011 291.469 365.254 293.085 366.189Z" fill="#F5F5F5"/>
<path d="M291.942 368.462L292.503 368.785V378.889L291.942 378.564V368.462Z" fill="#E0E0E0"/>
<path d="M294.222 369.777L295.189 370.345V380.448L294.222 379.88V369.777Z" fill="#E0E0E0"/>
<path d="M296.504 371.094L297.064 371.417V381.521L296.504 381.196V371.094Z" fill="#E0E0E0"/>
<path d="M298.223 372.067L299.344 372.733V382.835L298.223 382.171V372.067Z" fill="#E0E0E0"/>
<path d="M301.065 373.727L301.624 374.049V384.153L301.065 383.828V373.727Z" fill="#E0E0E0"/>
<path d="M302.706 374.653L303.905 375.366V385.468L302.706 384.756V374.653Z" fill="#E0E0E0"/>
<path d="M305.626 376.358L306.185 376.681V386.784L305.626 386.46V376.358Z" fill="#E0E0E0"/>
<path d="M306.927 377.098L307.206 377.26V387.362L306.926 387.2L306.927 377.098Z" fill="#E0E0E0"/>
<path d="M304.586 375.807L304.867 375.969L304.865 386.073L304.586 385.911V375.807Z" fill="#E0E0E0"/>
<path d="M299.992 373.118L300.272 373.278V383.382L299.992 383.219V373.118Z" fill="#E0E0E0"/>
<path d="M297.476 371.672L297.757 371.834V381.938L297.476 381.775V371.672Z" fill="#E0E0E0"/>
<path d="M295.669 370.675L295.95 370.837V380.939L295.669 380.778V370.675Z" fill="#E0E0E0"/>
<path d="M293.22 369.188L293.499 369.35V379.452L293.22 379.291V369.188Z" fill="#E0E0E0"/>
<path d="M307.906 377.673L308.465 377.998V388.1L307.906 387.777V377.673Z" fill="#E0E0E0"/>
<path d="M283.759 551.09L468.241 657.593C472.283 659.928 478.838 659.928 482.88 657.593L887.101 424.233C891.145 421.9 891.145 418.115 887.101 415.781L702.617 309.276C698.574 306.942 692.02 306.942 687.978 309.276L283.759 542.638C279.717 544.973 279.717 548.756 283.759 551.09Z" fill="#455A64"/>
<path d="M383.466 600.566C389.082 603.808 398.185 603.808 403.8 600.566C409.416 597.324 409.416 592.07 403.8 588.828C398.185 585.585 389.082 585.585 383.466 588.828C377.851 592.07 377.853 597.325 383.466 600.566Z" fill="#263238"/>
<path d="M471.622 657.593L287.14 551.09C283.525 549.004 283.152 545.76 286.002 543.427C282.504 546.081 279.82 551.098 279.82 555.316V562.197C279.82 566.866 283.098 572.541 287.14 574.875L471.622 681.378C473.642 682.545 476.293 683.13 478.941 683.13V659.344C476.293 659.344 473.644 658.761 471.622 657.593Z" fill="#37474F"/>
<path d="M887.102 448.018C891.145 445.686 894.421 440.009 894.421 435.342V428.459C894.421 424.24 891.733 419.219 888.232 416.567C891.091 418.9 890.722 422.147 887.103 424.235L482.88 657.593C480.858 658.759 478.21 659.344 475.561 659.344V683.13C478.21 683.13 480.858 682.545 482.88 681.378L887.102 448.018Z" fill="#263238"/>
<path d="M498.641 635.523L322.058 533.525C319.632 532.124 319.632 529.853 322.058 528.454L663.388 331.346C665.816 329.944 669.748 329.944 672.172 331.344L848.818 433.327C851.243 434.728 851.243 436.998 848.818 438.398L507.425 635.523C504.999 636.924 501.065 636.924 498.641 635.523Z" fill="white"/>
<path d="M427.501 578.577L448.1 566.684L441.234 562.72L420.635 574.612L427.501 578.577Z" fill="#27DEBF"/>
<path d="M674.695 435.862L695.295 423.967L688.428 420.005L667.829 431.897L674.695 435.862Z" fill="#27DEBF"/>
<path d="M715.894 412.076L736.493 400.182L729.628 396.218L709.027 408.11L715.894 412.076Z" fill="#27DEBF"/>
<path d="M782.018 370.402C783.44 371.223 785.746 371.222 787.167 370.402C788.591 369.582 788.591 368.25 787.167 367.428C785.746 366.609 783.44 366.609 782.018 367.428C780.595 368.25 780.595 369.582 782.018 370.402Z" fill="#263238"/>
<path d="M790.247 393.755C793.092 395.398 797.702 395.398 800.547 393.755C803.392 392.112 803.392 389.45 800.547 387.808C797.702 386.165 793.092 386.165 790.247 387.808C787.402 389.45 787.402 392.112 790.247 393.755Z" fill="#263238"/>
<path d="M782.985 383.406C784.882 382.311 784.782 380.48 782.759 379.312L748.88 359.753C746.86 358.586 743.684 358.525 741.787 359.621C739.892 360.716 739.992 362.548 742.013 363.717L775.894 383.276C777.914 384.442 781.09 384.502 782.985 383.406Z" fill="#263238"/>
<path d="M725.341 304.087L726.484 303.428C725.745 306.012 725.343 308.971 725.343 312.279V316.405C725.343 331.203 743.114 369.035 749.641 382.432C750.324 383.831 741.343 393.38 741.343 393.38L752.009 387.222C752.009 387.222 778.675 365.322 778.675 347.195V343.069C778.675 324.941 766.737 303.353 752.011 294.852C744.586 290.566 737.872 290.429 733.038 293.664L733.036 293.661L722.906 299.479L725.341 304.087ZM738.675 317.943C738.675 309.441 744.644 305.994 752.007 310.245C751.411 315.702 761.375 332.714 765.339 333.338C765.339 341.84 759.371 345.287 752.007 341.036C744.644 336.786 738.675 326.446 738.675 317.943Z" fill="#27DEBF"/>
<path d="M714.303 323.004C714.601 341.129 742.129 393.374 742.129 393.374C742.129 393.374 768.431 371.039 768.132 352.913L768.064 348.788C767.767 330.664 755.474 309.275 740.611 301.016C725.747 292.757 713.938 300.754 714.235 318.88L714.303 323.004ZM727.659 324.325C727.519 315.824 733.432 312.279 740.862 316.409C748.295 320.538 754.433 330.779 754.573 339.28C754.714 347.781 748.801 351.325 741.37 347.196C733.937 343.064 727.799 332.826 727.659 324.325Z" fill="#27DEBF"/>
<path opacity="0.1" d="M714.303 323.004C714.601 341.129 742.129 393.374 742.129 393.374C742.129 393.374 768.431 371.039 768.132 352.913L768.064 348.788C767.767 330.664 755.474 309.275 740.611 301.016C725.747 292.757 713.938 300.754 714.235 318.88L714.303 323.004ZM727.659 324.325C727.519 315.824 733.432 312.279 740.862 316.409C748.295 320.538 754.433 330.779 754.573 339.28C754.714 347.781 748.801 351.325 741.37 347.196C733.937 343.064 727.799 332.826 727.659 324.325Z" fill="black"/>
<path d="M456.515 564.682C473.6 574.524 513.665 567.365 546.006 548.695L634.816 497.422C667.156 478.75 679.491 455.654 662.367 445.836C645.244 436.017 605.144 443.194 572.805 461.864L484.139 513.056C451.799 531.727 439.432 554.841 456.515 564.682Z" fill="#F0F0F0"/>
<path d="M468.701 554.793L489.3 542.899L482.434 538.935L461.835 550.827L468.701 554.793Z" fill="#27DEBF"/>
<path d="M509.899 531.007L530.498 519.111L523.632 515.149L503.033 527.041L509.899 531.007Z" fill="#27DEBF"/>
<path d="M501.439 526.204C501.439 536.144 494.474 548.23 485.87 553.183C481.289 555.837 477.165 555.921 474.325 553.927C474.325 553.91 474.308 553.91 474.308 553.91C472.229 552.456 470.826 549.904 470.403 546.421C470.978 546.168 471.553 545.864 472.144 545.525C480.749 540.573 487.713 528.486 487.713 518.547C487.713 517.769 487.679 517.025 487.578 516.332C490.823 514.862 493.765 514.727 496.097 515.724C499.377 517.127 501.439 520.795 501.439 526.204Z" fill="#263238"/>
<path d="M502.842 505.75C502.74 505.699 502.656 505.649 502.555 505.581C498.227 503.282 492.345 503.705 485.87 507.457C472.601 515.115 461.833 533.743 461.833 549.075C461.833 556.783 464.555 562.175 468.95 564.677C473.294 567.145 479.278 566.756 485.87 562.953C499.14 555.295 509.891 536.65 509.891 521.319C509.891 513.644 507.203 508.252 502.842 505.75ZM485.87 553.182C481.273 555.836 477.148 555.921 474.308 553.909C471.806 552.168 470.285 548.821 470.285 544.19C470.285 534.267 477.266 522.181 485.87 517.211C489.792 514.946 493.359 514.557 496.097 515.723C499.377 517.126 501.439 520.795 501.439 526.204C501.439 536.143 494.474 548.23 485.87 553.182Z" fill="#37474F"/>
<path d="M496.868 516.104C496.802 516.072 496.748 516.038 496.682 515.994C493.878 514.503 490.064 514.777 485.867 517.211C477.265 522.176 470.285 534.25 470.285 544.19C470.285 549.187 472.05 552.682 474.898 554.303C477.714 555.904 481.594 555.651 485.867 553.186C494.469 548.221 501.439 536.135 501.439 526.195C501.439 521.221 499.696 517.725 496.868 516.104ZM485.869 549.653C482.172 551.786 478.857 551.854 476.573 550.238C474.562 548.838 473.34 546.147 473.34 542.423C473.34 534.446 478.952 524.73 485.869 520.734C489.021 518.913 491.888 518.601 494.091 519.539C496.728 520.666 498.384 523.616 498.384 527.964C498.384 535.954 492.786 545.67 485.869 549.653Z" fill="#27DEBF"/>
<path d="M551.098 507.22L571.697 495.326L564.832 491.364L544.231 503.254L551.098 507.22Z" fill="#27DEBF"/>
<path d="M592.297 483.434L612.897 471.54L606.03 467.576L585.431 479.468L592.297 483.434Z" fill="#27DEBF"/>
<path d="M633.496 459.649L654.095 447.755L647.23 443.791L626.629 455.683L633.496 459.649Z" fill="#27DEBF"/>
<path d="M530.984 349.044C532.336 347.883 533.7 348.363 534.028 350.114C534.356 351.866 533.526 354.227 532.174 355.387C530.821 356.546 529.457 356.068 529.129 354.315C528.801 352.567 529.631 350.206 530.984 349.044Z" fill="#27DEBF"/>
<path d="M546.839 356.516L533.054 348.56L530.039 355.838L543.854 363.814L546.839 356.516Z" fill="#27DEBF"/>
<path d="M544.716 356.974C546.069 355.814 547.433 356.292 547.761 358.045C548.089 359.797 547.259 362.158 545.906 363.318C544.554 364.477 543.19 363.999 542.862 362.248C542.534 360.495 543.364 358.133 544.716 356.974Z" fill="#27DEBF"/>
<path d="M650.607 423.639C650.624 423.978 650.658 424.282 650.658 424.62C650.658 425.296 650.641 425.989 650.591 426.682C647.852 425.516 644.285 425.905 640.364 428.17C631.76 433.139 624.778 445.226 624.778 455.148C624.778 459.78 626.3 463.127 628.801 464.868C628.091 465.375 627.365 465.832 626.621 466.254C626.35 466.406 626.097 466.525 625.826 466.66L623.443 475.636L609.649 467.945C605.288 465.426 602.6 460.05 602.6 452.376C602.6 437.044 613.351 418.416 626.621 410.742C633.18 406.955 639.113 406.566 643.457 408.984V408.967L657.048 416.54C657.149 416.607 657.234 416.658 657.335 416.709L650.607 423.639Z" fill="#455A64"/>
<path d="M657.335 416.707C657.234 416.656 657.149 416.606 657.048 416.538C652.721 414.239 646.838 414.662 640.364 418.414C627.094 426.072 616.326 444.7 616.326 460.032C616.326 467.74 619.048 473.132 623.443 475.634C627.787 478.102 633.771 477.713 640.364 473.91C653.633 466.252 664.384 447.607 664.384 432.276C664.384 424.601 661.696 419.211 657.335 416.707ZM640.364 464.141C635.766 466.795 631.641 466.88 628.801 464.868C626.3 463.127 624.778 459.78 624.778 455.148C624.778 445.226 631.76 433.139 640.364 428.17C644.285 425.905 647.852 425.516 650.591 426.682C653.87 428.085 655.932 431.753 655.932 437.163C655.932 447.102 648.968 459.187 640.364 464.141Z" fill="#37474F"/>
<path d="M655.932 437.163C655.932 447.102 648.968 459.189 640.364 464.141C635.783 466.795 631.658 466.88 628.818 464.885C628.818 464.868 628.801 464.868 628.801 464.868C626.722 463.415 625.319 460.862 624.897 457.38C625.471 457.126 626.046 456.822 626.638 456.484C635.242 451.531 642.206 439.445 642.206 429.505C642.206 428.728 642.172 427.984 642.071 427.291C645.316 425.82 648.258 425.685 650.591 426.682C653.87 428.085 655.932 431.754 655.932 437.163Z" fill="#263238"/>
<path d="M651.363 427.068C651.297 427.034 651.243 427.002 651.177 426.958C648.373 425.467 644.559 425.741 640.362 428.173C631.76 433.138 624.78 445.214 624.78 455.152C624.78 460.149 626.545 463.644 629.393 465.266C632.209 466.865 636.089 466.613 640.362 464.148C648.964 459.184 655.934 447.097 655.934 437.158C655.932 432.185 654.189 428.689 651.363 427.068ZM640.362 460.615C636.665 462.749 633.35 462.816 631.067 461.2C629.055 459.801 627.833 457.109 627.833 453.385C627.833 445.409 633.445 435.692 640.362 431.696C643.515 429.876 646.381 429.563 648.584 430.501C651.221 431.628 652.878 434.578 652.878 438.926C652.878 446.918 647.279 456.634 640.362 460.615Z" fill="#27DEBF"/>
<path d="M626.626 442.214C626.626 442.214 660.99 422.374 665.512 419.764C670.034 417.152 655.283 401.844 644.466 400.826C633.65 399.809 626.626 402.571 626.626 402.571C626.626 402.571 634.922 413.208 633.494 419.241C632.064 425.273 626.626 442.214 626.626 442.214Z" fill="#27DEBF"/>
<path d="M571.695 378.783C571.695 378.783 628.049 407.205 630.485 408.909C632.921 410.615 630.561 430.453 626.626 442.213C622.691 453.972 616.798 472.037 614.42 477.193C612.043 482.348 608.921 484.15 603.207 487.448C597.494 490.746 562.611 510.901 562.611 510.901L507.719 517.536L485.918 505.642L491.586 469.963C491.586 469.963 549.953 438.904 557.959 434.284C565.964 429.664 589.6 408.09 571.695 378.783Z" fill="#27DEBF"/>
<path opacity="0.2" d="M571.695 378.783C571.695 378.783 628.049 407.205 630.485 408.909C632.921 410.615 630.561 430.453 626.626 442.213C622.691 453.972 616.798 472.037 614.42 477.193C612.043 482.348 608.921 484.15 603.207 487.448C597.494 490.746 562.611 510.901 562.611 510.901L507.719 517.536L485.918 505.642L491.586 469.963C491.586 469.963 549.953 438.904 557.959 434.284C565.964 429.664 589.6 408.09 571.695 378.783Z" fill="black"/>
<path d="M631.567 435.445C636.604 421.812 640.431 410.517 639.781 402.903C639.006 393.861 635.637 386.462 620.716 382.747C605.795 379.031 584.91 379.082 584.91 379.082L578.561 382.749C578.561 382.749 621.431 407.597 626.296 410.309C629.271 411.965 632.448 419.444 626.626 442.213C626.626 442.213 627.072 442.472 627.623 442.79C628.174 443.107 629.949 439.823 631.567 435.445Z" fill="#27DEBF"/>
<path opacity="0.3" d="M631.567 435.445C636.604 421.812 640.431 410.517 639.781 402.903C639.006 393.861 635.637 386.462 620.716 382.747C605.795 379.031 584.91 379.082 584.91 379.082L578.561 382.749C578.561 382.749 621.431 407.597 626.296 410.309C629.271 411.965 632.448 419.444 626.626 442.213C626.626 442.213 627.072 442.472 627.623 442.79C628.174 443.107 629.949 439.823 631.567 435.445Z" fill="white"/>
<path d="M599.098 394.641L606.027 390.677C606.027 390.677 605.621 366.658 595.524 360.828C585.428 354.998 551.094 358.962 551.094 358.962L544.228 362.926L599.098 394.641Z" fill="#27DEBF"/>
<path d="M576.621 366.318C573.328 368.22 573.328 371.301 576.621 373.203C579.914 375.105 585.254 375.105 588.546 373.203C591.839 371.301 591.839 368.218 588.546 366.318C585.252 364.418 579.914 364.418 576.621 366.318Z" fill="#F0F0F0"/>
<path d="M587.174 377.798C584.844 379.142 584.844 381.321 587.174 382.666C589.502 384.01 593.278 384.01 595.606 382.666C597.933 381.322 597.933 379.143 595.606 377.798C593.276 376.454 589.502 376.454 587.174 377.798Z" fill="#F0F0F0"/>
<path d="M560.613 363.251C558.283 364.595 558.283 366.776 560.613 368.119C562.94 369.463 566.717 369.463 569.044 368.119C571.372 366.776 571.372 364.595 569.044 363.251C566.715 361.907 562.94 361.907 560.613 363.251Z" fill="#F0F0F0"/>
<path d="M600.092 387.665C601.444 386.505 602.808 386.983 603.136 388.735C603.464 390.486 602.634 392.847 601.282 394.009C599.93 395.168 598.565 394.69 598.237 392.939C597.91 391.186 598.74 388.824 600.092 387.665Z" fill="#27DEBF"/>
<path d="M615.948 395.134L602.163 387.178L599.147 394.458L612.962 402.432L615.948 395.134Z" fill="#27DEBF"/>
<path d="M613.825 395.592C615.177 394.433 616.541 394.911 616.869 396.664C617.197 398.415 616.367 400.777 615.015 401.936C613.662 403.098 612.298 402.618 611.97 400.866C611.642 399.113 612.472 396.754 613.825 395.592Z" fill="#27DEBF"/>
<path d="M613.825 395.592C615.177 394.433 616.541 394.911 616.869 396.664C617.197 398.415 616.367 400.777 615.015 401.936C613.662 403.098 612.298 402.618 611.97 400.866C611.642 399.113 612.472 396.754 613.825 395.592Z" fill="black"/>
<path d="M496.114 512.68C496.131 513.019 496.165 513.323 496.165 513.661C496.165 514.337 496.148 515.03 496.097 515.723C493.359 514.557 489.792 514.946 485.87 517.211C477.266 522.18 470.285 534.267 470.285 544.189C470.285 548.821 471.806 552.168 474.308 553.909C473.598 554.416 472.871 554.873 472.127 555.295C471.857 555.447 471.603 555.566 471.333 555.701L468.95 564.677L455.156 556.986C450.795 554.467 448.107 549.091 448.107 541.417C448.107 526.085 458.858 507.457 472.127 499.783C478.686 495.996 484.619 495.608 488.964 498.025V498.008L502.555 505.581C502.656 505.648 502.74 505.699 502.842 505.75L496.114 512.68Z" fill="#455A64"/>
<path d="M454.965 485.82L444.665 521.499L465.265 533.393L475.941 497.93L454.965 485.82Z" fill="#27DEBF"/>
<path opacity="0.2" d="M454.965 485.82L444.665 521.499L465.265 533.393L475.941 497.93L454.965 485.82Z" fill="black"/>
<path d="M454.965 485.821C454.965 485.821 466.651 495.685 475.941 497.931C488.141 500.883 507.543 501.204 514.424 501.679C524.951 502.404 532.887 502.399 536.616 501.06C541.434 499.329 554.382 491.854 557.962 489.787C564.829 485.823 567.748 470.259 548.827 466C529.905 461.74 509.898 462.036 509.898 462.036L454.965 485.821Z" fill="#27DEBF"/>
<path d="M571.389 481.243C570.851 481.955 570.755 483.599 570.211 485.824C569.666 488.047 569.484 489.771 569.847 490.859C570.211 491.948 572.603 494.397 575.535 495.305C578.468 496.213 582.074 495.451 585.566 493.365C589.057 491.279 591.692 488.74 596.665 487.325C601.638 485.91 604.125 484.761 606.481 482.871C609.238 480.656 612.92 474.539 607.648 473.124C602.33 471.697 590.899 476.708 580.466 477.162L571.389 481.243Z" fill="#37474F"/>
<path d="M571.389 474.721V482.536C571.389 482.536 572.111 485.237 575.542 485.824C576.401 485.971 577.253 485.839 578.049 485.557C580.649 484.639 582.344 482.12 582.525 479.37L582.83 474.72H571.389V474.721Z" fill="#FFA8A7"/>
<path d="M586.315 426.412C586.371 436.135 583.585 478.146 583.585 478.146C583.585 478.146 579.609 483.177 570.971 478.146L568.04 431.219L586.315 426.412Z" fill="#37474F"/>
<path d="M541.021 467.85L568.034 452.255C570.055 451.088 571.693 448.367 571.693 446.178C571.693 443.988 570.055 441.267 568.034 440.101L547.888 428.469C545.866 427.303 542.59 427.303 540.568 428.469L513.549 444.068C511.527 445.234 509.891 447.956 509.893 450.143C509.894 452.332 511.534 455.052 513.556 456.218L533.702 467.85C535.723 469.018 539.001 469.018 541.021 467.85Z" fill="#27DEBF"/>
<path d="M541.021 467.85L568.034 452.255C570.055 451.088 571.693 448.367 571.693 446.178C571.693 443.988 570.055 441.267 568.034 440.101L547.888 428.469C545.866 427.303 542.59 427.303 540.568 428.469L513.549 444.068C511.527 445.234 509.891 447.956 509.893 450.143C509.894 452.332 511.534 455.052 513.556 456.218L533.702 467.85C535.723 469.018 539.001 469.018 541.021 467.85Z" fill="white"/>
<path d="M513.551 448.292L533.702 459.922C535.723 461.088 539.001 461.088 541.021 459.922L568.034 444.327C570.055 443.16 570.055 441.267 568.034 440.101L547.887 428.469C545.866 427.303 542.59 427.303 540.568 428.469L513.549 444.068C511.529 445.234 511.529 447.126 513.551 448.292Z" fill="#27DEBF"/>
<path d="M530.027 344.838L526.602 358.98L511.864 359.875L515.047 340.274L530.027 344.838Z" fill="#FFA8A7"/>
<path d="M544.317 334.175C544.317 334.175 545.92 340.173 545.313 340.502C544.706 340.832 542.1 340.516 542.1 340.516L544.317 334.175Z" fill="#F28F8F"/>
<path d="M541.572 315.084C543.951 317.875 546.106 322.451 544.437 333.648C542.608 345.92 540.34 347.333 538.511 348.525C536.143 350.069 526.595 349.25 523.909 347.288C520.681 344.93 515.694 337.482 514.511 330.13C513.121 321.481 516.022 311.896 522.374 310.272C531.315 307.985 539.559 312.723 541.572 315.084Z" fill="#FFA8A7"/>
<path d="M513.554 344.24C515.826 346.607 520.513 347.258 523.461 347.785C526.411 348.314 535.439 348.917 538.114 342.484C540.788 336.05 538.954 331.41 542.24 329.855C545.528 328.3 548.797 327.281 549.656 326.412C550.513 325.541 550.538 315.005 541.731 309.582C532.924 304.159 519.435 302.761 510.562 313.972C503.763 322.561 506.586 336.982 513.554 344.24Z" fill="#455A64"/>
<path d="M522.396 347.885C524.672 348.076 531.895 346.938 534.067 343.97C536.239 341.001 537.123 335.678 537.38 332.879C537.637 330.078 539.131 328.957 541.297 328.266C543.462 327.574 548.29 325.21 548.29 325.21L548.319 323.895C548.319 323.895 551.961 323.688 552.982 323.871C554.003 324.053 553.447 325.551 550.876 326.875C548.305 328.198 541.263 330.693 540.171 331.552C539.081 332.412 538.585 336.053 537.725 339.919C536.864 343.785 534.326 349.587 522.396 347.885Z" fill="#37474F"/>
<path d="M542.69 363.815L551.094 358.962C551.899 356.511 550.609 355.282 548.297 355.434C545.984 355.586 546.711 353.355 545.311 352.721C543.465 351.884 542.422 352.356 541.603 351.971C540.56 351.482 540.418 350.591 539.332 350.486C534.501 350.021 531.2 356.918 531.2 356.918L542.69 363.815Z" fill="#F28F8F"/>
<path d="M485.329 425.953C485.329 425.953 522.67 407.44 529.193 404.414C535.717 401.388 545.911 397.083 551.334 397.086C555.276 397.088 559.228 400.962 559.426 405.369C559.624 409.776 558.867 415.126 558.867 415.126C558.867 415.126 543.129 420.491 527.55 423.121C511.968 425.75 485.329 425.953 485.329 425.953Z" fill="#37474F"/>
<path d="M489.395 415.262C489.408 422.927 488.675 430.902 491.87 436.519C494.958 441.949 512.359 455.137 528.664 452.394C539.316 450.6 570.923 436.039 570.923 436.039C570.923 436.039 586.244 430.419 586.314 426.412C586.415 420.506 586.011 412.199 572.64 412.554C560.461 412.877 524.508 420.378 524.508 420.378L489.395 415.262Z" fill="#455A64"/>
<path d="M499.833 354.457C505.609 348.412 509.514 347.914 512.283 348.646C521.935 351.2 528.739 355.228 530.691 356.023C530.691 356.023 528.462 377.628 539.018 383.855V417.512C539.018 417.512 538.704 421.17 534.099 424.801C530.04 428.001 520.872 431.23 509.908 430.32C496.895 429.242 489.393 415.264 489.393 415.264C489.393 415.264 489.053 387.728 490.901 376.791C493.06 364.025 497.833 356.548 499.833 354.457Z" fill="#455A64"/>
<path d="M539.018 385.482C539.018 385.482 532.632 380.465 530.691 373.824C530.691 373.824 531.453 384.167 539.018 389.416V385.482Z" fill="#37474F"/>
<path d="M598.166 401.374C600.66 401.705 604.649 400.393 606.61 398.765C606.61 398.765 609.555 393.045 613.164 393.529C613.164 393.529 613.809 391.108 612.313 390.3C610.817 389.492 610.187 389.724 609.587 388.894C608.985 388.064 608.904 386.465 606.263 386.465C605.146 386.465 605.31 385.667 602.602 385.347C599.894 385.029 597.218 391.27 595.244 391.27L598.166 401.374Z" fill="#FFA8A7"/>
<path d="M530.691 356.022C539.97 357.456 543.332 360.21 546.713 363.347C550.241 366.621 570.789 387.236 570.789 387.236L595.834 390.836C595.834 390.836 597.595 392.023 598.608 394.959C599.62 397.895 598.709 401.1 597.747 401.873C597.747 401.873 572.904 403.348 568.018 402.432C563.135 401.516 538.937 385.43 538.937 385.43C538.937 385.43 532.071 381.057 530.492 370.856C528.916 360.652 530.691 356.022 530.691 356.022Z" fill="#455A64"/>
<path d="M508.42 445.319L469.981 492.176C469.558 492.227 469.136 492.261 468.696 492.261C467.107 492.261 465.535 491.906 464.318 491.23C464.301 491.213 431.896 472.5 431.896 472.5C431.896 472.5 430.912 471.932 429.699 471.232C428.485 470.532 427.501 467.694 427.501 464.893V456.999C427.501 440.484 436.308 425.237 450.592 416.988L489.302 394.641L530.497 418.424L508.42 445.319Z" fill="#27DEBF"/>
<g opacity="0.1">
<path d="M508.42 445.319L469.981 492.176C469.558 492.227 469.136 492.261 468.696 492.261C467.107 492.261 465.535 491.906 464.318 491.23C464.301 491.213 431.896 472.5 431.896 472.5C431.896 472.5 430.912 471.932 429.699 471.232C428.485 470.532 427.501 467.694 427.501 464.893V456.999C427.501 440.484 436.308 425.237 450.592 416.988L489.302 394.641L530.497 418.424L508.42 445.319Z" fill="black"/>
</g>
<path d="M495.183 461.468L530.495 418.428L489.295 394.642L450.599 416.984C445.509 419.922 441.131 423.761 437.583 428.215L495.183 461.468Z" fill="#27DEBF"/>
<path d="M530.497 452.994C530.497 455.795 529.513 458.633 528.299 459.333L526.102 460.601L473.091 491.214C472.178 491.721 471.113 492.042 469.981 492.177C469.558 492.228 469.136 492.262 468.696 492.262V480.784C468.696 464.269 477.503 449.021 491.804 440.772L496.182 438.254L530.497 418.425V452.994Z" fill="#27DEBF"/>
<g opacity="0.2">
<path d="M530.497 452.994C530.497 455.795 529.513 458.633 528.299 459.333L526.102 460.601L473.091 491.214C472.178 491.721 471.113 492.042 469.981 492.177C469.558 492.228 469.136 492.262 468.696 492.262V480.784C468.696 464.269 477.503 449.021 491.804 440.772L496.182 438.254L530.497 418.425V452.994Z" fill="black"/>
</g>
<path d="M541.865 510.973L562.612 510.901L592.294 493.75L563.209 514.778L541.322 515.081L541.865 510.973Z" fill="#E0E0E0"/>
<path d="M491.508 540.476C491.508 540.476 528.899 526.378 532.042 524.721C536.1 522.581 542.624 517.003 542.624 517.003C543.947 515.799 543.893 512.287 542.071 510.968C542.071 510.968 526.832 510.275 522.947 511.465C520.765 512.133 485.583 523.42 485.583 523.42L491.508 540.476Z" fill="#E0E0E0"/>
<path d="M489.833 524.72C486.741 522.068 483.626 523.163 482.873 527.167C482.123 531.172 484.021 536.568 487.113 539.22C490.205 541.872 493.32 540.777 494.072 536.772C494.823 532.768 492.924 527.372 489.833 524.72Z" fill="#455A64"/>
</svg>
