<svg width="1097" height="1049" viewBox="0 0 1097 1049" fill="none" xmlns="http://www.w3.org/2000/svg">
<path d="M889.119 56.9546H898.772L914.218 59.8506L924.836 63.7119L934.49 69.5039L944.143 77.2266L962.484 95.5679L971.172 106.187L980.826 116.805L991.444 130.32L1004.96 148.661L1014.61 163.141L1026.2 181.482L1040.68 207.546L1053.23 233.61L1063.84 259.674L1077.36 299.253L1086.05 334.005L1091.84 365.861L1095.7 399.647L1096.67 414.127V468.186L1094.73 493.285L1090.87 523.21L1087.01 535.759L1080.25 548.309L1071.57 558.927L1060.95 567.615L1044.54 575.338L1033.92 578.234H1011.72L993.375 573.407L946.074 557.962L897.807 542.517L728.874 487.493L727.909 457.567L725.978 439.226L721.151 416.058L712.463 389.994L702.81 369.722L690.261 349.45L679.642 335.936L668.058 323.386L667.093 320.49L678.677 305.045L688.33 291.53L701.845 273.189L739.493 221.061L751.077 205.616L760.73 192.101L773.279 174.725L786.794 156.384L796.447 142.869L807.066 128.389L820.581 110.048L832.165 93.6372L844.714 78.1919L853.402 70.4692L860.159 65.6426L874.639 59.8506L889.119 56.9546Z" fill="#2DD4BF"/>
<path d="M311.802 541.535L314.698 542.5L325.317 567.599L336.901 587.871L348.485 603.316L357.173 613.935L374.549 631.311L388.063 641.93L400.613 650.618L418.954 661.236L438.261 669.924L461.429 677.647L462.394 678.612V891.951L460.463 908.361L455.637 920.911L447.914 932.495L438.261 942.148L424.746 949.871L414.127 953.732L408.335 954.697H390.959L355.242 947.94L327.248 940.217L295.392 929.599L270.293 918.98L250.021 909.327L228.784 897.743L208.512 885.193L193.066 874.575L181.482 865.887L167.968 855.268L154.453 843.684L139.973 830.169L120.667 810.863L113.909 803.14L103.291 790.591L95.5679 780.938L82.0532 762.596L72.3999 748.116L66.6079 738.463L56.9546 722.052L47.3013 703.711L42.4746 690.196L40.5439 678.612L41.5093 664.132L46.3359 649.652L52.1279 639.034L62.7466 627.45L73.3652 620.692L83.9839 615.866L141.904 596.559L178.586 584.975L214.304 573.391L244.229 563.738L311.802 541.535Z" fill="#F2F2F2"/>
<path d="M170.864 124.512H193.066L202.72 127.408L218.165 135.13L227.818 143.818L235.541 153.472L260.64 188.224L274.154 206.565L281.877 217.184L319.525 269.312L331.109 284.757L340.762 298.271L353.312 315.647L360.069 325.301L354.277 333.023L344.624 344.607L334.005 360.053L326.282 373.567L316.629 395.77L309.872 417.007L305.045 440.175L303.114 458.517V483.615L305.045 502.922L306.976 513.541L306.01 518.367L255.813 534.778L214.304 548.292L92.6719 587.871L76.2612 591.732L74.3306 592.698H62.7466L51.1626 590.767L40.5439 586.906L31.856 582.079L23.168 575.322L14.48 564.703L7.72266 551.188L4.82666 540.57L0.965332 508.714L0 492.303V443.071L2.896 412.181L8.68799 377.429L15.4453 348.469L24.1333 319.509L34.752 292.479L43.4399 273.173L55.9893 248.074L68.5386 226.837L76.2612 215.253L87.8452 198.842L99.4292 183.397L111.013 169.882L117.771 162.16L129.354 149.61L138.042 140.922L149.626 132.234L162.176 126.442L170.864 124.512Z" fill="#F2F2F2"/>
<path d="M477.888 0H511.674L547.392 2.896L579.248 7.72266L606.277 13.5146L636.202 22.2026L658.405 29.9253L681.573 39.5786L707.637 52.1279L716.325 58.8853L724.047 66.6079L732.735 82.0532L735.631 91.7065L736.597 99.4292V111.013L734.666 122.597L729.839 134.181L720.186 149.626L711.498 161.21L710.533 163.141H708.602L706.671 167.968L693.157 186.309L683.503 199.824L671.919 215.269L660.335 231.68L648.751 247.125L629.445 274.154L620.757 285.738L614.965 283.808L594.693 274.154L567.664 265.466L548.357 261.605L529.05 259.674H498.16L476.922 262.57L455.685 267.397L438.309 273.189L419.002 281.877L403.557 290.565L385.216 303.114L381.354 305.045L375.562 296.357L363.979 280.912L357.221 271.258L345.637 255.813L335.984 242.298L323.435 224.922L309.92 206.581L302.197 195.962L290.613 179.552L281.925 167.968L269.376 150.592L259.723 136.112L254.896 126.458L252 114.875V98.4639L253.931 87.8452L259.723 74.3306L269.376 61.7812L279.995 53.0933L302.197 41.5093L327.296 30.8906L363.979 18.3413L398.73 9.65332L432.517 3.86133L462.442 0.965332L477.888 0Z" fill="#F2F2F2"/>
<path d="M1016.48 690.613L1019.45 699.801L1021.43 715.389L1021.01 726.681L1018.46 737.646L1014.07 749.203L1002.24 772.287L994.801 783.814L987.656 796.259L978.052 810.512L964.741 829.003L953.922 842.633L940.019 859.286L919.655 881.064L898.698 901.005L877.149 919.108L843.626 944.114L813.216 963.046L784.673 978.332L753.701 992.373L740.215 997.735L688.764 1014.32L664.284 1020.18L634.617 1025.69L621.488 1025.87L607.471 1023.28L594.699 1018.27L583.172 1010.83L570.787 997.583L564.772 988.365L557.96 967.233L556.927 948.295L557.115 898.537L557.006 847.859L557.545 670.192L585.731 660.091L602.595 652.626L623.165 640.924L645.306 624.658L661.639 609.251L677.083 591.087L686.688 576.834L695.077 561.959L697.538 560.151L715.792 566.438L731.617 571.479L753.22 578.715L814.385 598.553L832.639 604.84L848.464 609.881L868.852 616.494L890.455 623.729L906.28 628.77L923.319 634.434L944.922 641.67L964.096 647.66L982.646 654.865L992.662 660.765L999.329 665.715L1009.28 677.72L1016.48 690.613Z" fill="#818CF8"/>
</svg>
