<svg width="1304" height="1003" viewBox="0 0 1304 1003" fill="none" xmlns="http://www.w3.org/2000/svg">
<path d="M206.058 993.845C205.588 995.019 204.085 997.507 201.83 998.07C201.595 999.714 200.562 1003 198.307 1003H101.779C99.5246 1003 98.4912 999.714 98.2563 998.07C96.0016 997.507 94.4985 995.019 94.0288 993.845H206.058Z" fill="#23213B"/>
<path d="M1620.09 993.845C1619.62 995.019 1618.11 997.507 1615.86 998.07C1615.63 999.714 1614.59 1003 1612.34 1003H1515.81C1513.55 1003 1512.52 999.714 1512.29 998.07C1510.03 997.507 1508.53 995.019 1508.06 993.845H1620.09Z" fill="#23213B"/>
<path d="M1713.55 932.134V925.556H0V932.134C0 951.357 0 960.969 3.68617 968.311C6.92862 974.769 12.1024 980.02 18.4661 983.311C25.7006 987.052 35.1711 987.052 54.1122 987.052H1659.44C1678.38 987.052 1687.85 987.052 1695.09 983.311C1701.45 980.02 1706.62 974.769 1709.87 968.311C1713.55 960.969 1713.55 951.357 1713.55 932.134Z" fill="#1C1B2D"/>
<path d="M708.169 932.349H1006.21C1006.21 939.117 1006.21 942.502 1005.2 945.204C1003.58 949.539 1000.16 952.959 995.825 954.578C993.123 955.587 989.738 955.587 982.969 955.587H731.407C724.638 955.587 721.254 955.587 718.551 954.578C714.217 952.959 710.797 949.539 709.178 945.204C708.169 942.502 708.169 939.117 708.169 932.349Z" fill="#353447"/>
<path d="M157.939 24.7065C157.939 11.0615 169 0 182.645 0H1490.65C1504.3 0 1515.36 11.0615 1515.36 24.7065V926.175H157.939V24.7065Z" fill="#23213B"/>
<path d="M210.591 23.7759C200.27 23.7759 191.904 32.4205 191.904 43.0842V889.892H1482.59V43.0842C1482.59 32.4205 1474.22 23.7759 1463.9 23.7759H904.406C902.588 23.7759 901.115 25.3032 901.115 27.1872V40.8324C901.115 43.9724 898.659 46.5179 895.63 46.5179H778.256C774.621 46.5179 771.675 43.4633 771.675 39.6953V27.1872C771.675 25.3032 770.201 23.7759 768.384 23.7759H210.591Z" fill="#353447"/>
</svg>
