<svg width="1023" height="1451" viewBox="0 0 1023 1451" fill="none" xmlns="http://www.w3.org/2000/svg">
<path d="M915.852 0H929.367L947.708 2.896L962.188 7.72266L978.599 16.4106L992.113 27.0293L999.836 34.752L1010.45 50.1973L1017.21 64.6772L1022.04 81.0879L1023 87.8452V113.909L1019.14 131.285L1013.35 145.765L1004.66 160.245L993.079 172.794L986.321 179.552L972.807 188.24L961.223 194.032L945.777 198.858L936.124 200.789H911.025L893.649 196.928L880.135 192.101L866.62 184.378L856.967 176.656L844.417 164.106L834.764 149.626L828.972 137.077L824.146 121.632L822.215 106.187V94.6025L825.111 76.2612L829.938 61.7812L838.625 45.3706L846.348 35.7173L854.071 27.0293L867.585 16.4106L883.996 7.72266L898.476 2.896L915.852 0Z" fill="#2DD4BF"/>
<path d="M599.471 1250.1L616.847 1251.07L634.223 1254.93L648.703 1260.72L661.252 1268.45L671.871 1277.13L680.559 1285.82L689.247 1298.37L696.97 1312.85L701.796 1329.26L703.727 1339.88V1362.08L699.866 1380.42L692.143 1398.77L685.386 1409.38L676.698 1420L669.94 1426.76L656.426 1436.41L640.98 1444.14L625.535 1448.96L612.986 1450.89H592.714L574.373 1447.03L559.893 1441.24L549.274 1435.45L537.69 1426.76L531.898 1421.93L523.21 1411.32L514.522 1397.8L508.73 1384.29L504.869 1369.81L502.938 1356.29V1343.74L506.799 1322.5L511.626 1309.96L517.418 1298.37L525.141 1287.75L535.759 1276.17L548.309 1266.52L564.719 1257.83L584.026 1252.04L599.471 1250.1Z" fill="#818CF8"/>
<path d="M0 1093.72L5.79199 1094.69L6.75732 1095.65V1343.74H502.938V1356.29H501.973V1350.5L0.965332 1349.53L0 1139.09V1093.72Z" fill="white"/>
<path d="M641.946 1298.37L649.668 1299.34L654.495 1303.2L655.46 1305.13V1313.82L645.807 1329.26L617.812 1370.77L600.437 1396.84L593.679 1402.63H586.922L582.095 1399.73L574.373 1391.04L566.65 1380.42L555.066 1364.98L551.205 1358.22L552.17 1350.5L556.997 1345.67L560.858 1343.74L566.65 1344.71L574.373 1351.46L585.957 1366.91L589.818 1370.77L617.812 1329.26L635.188 1303.2L640.015 1299.34L641.946 1298.37Z" fill="#F8F8F8"/>
<path d="M959.292 49.2319H967.98L973.772 53.0933L975.703 60.8159L970.876 70.4692L942.881 111.979L919.713 146.73L912.956 152.522H906.199L900.407 148.661L886.892 131.285L873.377 112.944L870.481 107.152L871.447 100.395L876.273 95.5679L878.204 94.6025H885.927L893.649 101.36L907.164 119.701V121.632L910.06 120.667L919.713 105.221L935.159 82.0532L953.5 55.0239L958.327 50.1973L959.292 49.2319Z" fill="#F9F9F9"/>
<path d="M823.18 114.875H824.146L825.111 125.493H327V162.176L324.104 164.106L319.277 158.314V118.736H665.831L822.215 117.771L823.18 114.875Z" fill="white"/>
<path d="M0 1093.72L5.79199 1094.69L6.75732 1095.65V1341.81H5.79199L4.82666 1315.75L3.86133 1314.78L2.896 1307.06V1292.58L1.93066 1333.12H0.965332L0 1139.09V1093.72Z" fill="white"/>
<path d="M823.18 114.875H824.146L825.111 125.493L637.836 124.528L640.732 122.597L679.346 121.632L664.866 120.667L665.831 118.736L822.215 117.771L823.18 114.875Z" fill="white"/>
<path d="M36.6826 1345.67H355.242L357.173 1347.6L347.52 1348.57H36.6826V1345.67Z" fill="white"/>
<path d="M483.383 120.667H680.311L679.346 122.597L633.975 123.562H537.442L483.383 122.597V120.667Z" fill="white"/>
<path d="M1.93066 1275.2H2.896L3.86133 1294.51V1307.06L4.82666 1314.78L5.79199 1315.75L6.75732 1343.74H35.7173L36.6826 1346.64L34.752 1349.53H0.965332L1.93066 1275.2Z" fill="white"/>
<path d="M1.93066 1275.2H2.896L3.86133 1294.51V1307.06L4.82666 1314.78L5.79199 1315.75V1342.78L3.86133 1343.74L1.93066 1333.12V1275.2Z" fill="white"/>
<rect x="319" y="128" width="8" height="143" fill="white"/>
</svg>
