<svg width="1211" height="996" viewBox="0 0 1211 996" fill="none" xmlns="http://www.w3.org/2000/svg">
<path d="M206.058 986.845C205.588 988.019 204.085 990.507 201.83 991.07C201.595 992.714 200.562 996 198.307 996H101.779C99.5246 996 98.4912 992.714 98.2563 991.07C96.0016 990.507 94.4985 988.019 94.0288 986.845H206.058Z" fill="#23213B"/>
<path d="M1620.09 986.845C1619.62 988.019 1618.11 990.507 1615.86 991.07C1615.63 992.714 1614.59 996 1612.34 996H1515.81C1513.55 996 1512.52 992.714 1512.29 991.07C1510.03 990.507 1508.53 988.019 1508.06 986.845H1620.09Z" fill="#23213B"/>
<path d="M1713.55 932.134V925.556H0V932.134C0 951.357 0 960.969 3.68617 968.311C6.92862 974.769 12.1024 980.02 18.4661 983.311C25.7006 987.052 35.1711 987.052 54.1122 987.052H1659.44C1678.38 987.052 1687.85 987.052 1695.09 983.311C1701.45 980.02 1706.62 974.769 1709.87 968.311C1713.55 960.969 1713.55 951.357 1713.55 932.134Z" fill="#1C1B2D"/>
<path d="M708.169 932.349H1006.21C1006.21 939.117 1006.21 942.502 1005.2 945.204C1003.58 949.539 1000.16 952.959 995.825 954.578C993.123 955.587 989.738 955.587 982.969 955.587H731.407C724.638 955.587 721.254 955.587 718.551 954.578C714.217 952.959 710.797 949.539 709.178 945.204C708.169 942.502 708.169 939.117 708.169 932.349Z" fill="#353447"/>
<path d="M157.939 24.7065C157.939 11.0615 169 0 182.645 0H1490.65C1504.3 0 1515.36 11.0615 1515.36 24.7065V926.175H157.939V24.7065Z" fill="#23213B"/>
<path d="M210.59 23.7759C200.27 23.7759 191.904 32.4205 191.904 43.0842V889.892H1482.59V43.0842C1482.59 32.4205 1474.22 23.7759 1463.9 23.7759H904.406C902.588 23.7759 901.115 25.3032 901.115 27.1872V40.8324C901.115 43.9724 898.659 46.5179 895.63 46.5179H778.256C774.621 46.5179 771.675 43.4633 771.675 39.6953V27.1872C771.675 25.3032 770.201 23.7759 768.384 23.7759H210.59Z" fill="#EAEAEA"/>
<mask id="path-6-outside-1_45_1959" maskUnits="userSpaceOnUse" x="285" y="142" width="284" height="82" fill="black">
<rect fill="white" x="285" y="142" width="284" height="82"/>
<path d="M302.412 143.895V201H286.536V143.895H302.412ZM341.18 155.154C346.418 155.154 350.576 156.909 353.654 160.419C356.732 163.875 358.271 168.573 358.271 174.513V201H342.395V176.619C342.395 174.027 341.72 172.002 340.37 170.544C339.02 169.032 337.211 168.276 334.943 168.276C332.567 168.276 330.704 169.032 329.354 170.544C328.004 172.002 327.329 174.027 327.329 176.619V201H311.453V155.559H327.329V162.039C328.733 159.987 330.623 158.34 332.999 157.098C335.375 155.802 338.102 155.154 341.18 155.154ZM388.771 186.015L397.276 155.559H414.205L398.572 201H378.808L363.175 155.559H380.104L388.771 186.015ZM463.001 177.753C463.001 178.995 462.92 180.237 462.758 181.479H432.707C432.869 183.963 433.544 185.826 434.732 187.068C435.974 188.256 437.54 188.85 439.43 188.85C442.076 188.85 443.966 187.662 445.1 185.286H462.029C461.327 188.418 459.95 191.226 457.898 193.71C455.9 196.14 453.362 198.057 450.284 199.461C447.206 200.865 443.804 201.567 440.078 201.567C435.596 201.567 431.6 200.622 428.09 198.732C424.634 196.842 421.907 194.142 419.909 190.632C417.965 187.122 416.993 182.991 416.993 178.239C416.993 173.487 417.965 169.383 419.909 165.927C421.853 162.417 424.553 159.717 428.009 157.827C431.519 155.937 435.542 154.992 440.078 154.992C444.56 154.992 448.529 155.91 451.985 157.746C455.441 159.582 458.141 162.228 460.085 165.684C462.029 169.086 463.001 173.109 463.001 177.753ZM446.801 173.784C446.801 171.84 446.153 170.328 444.857 169.248C443.561 168.114 441.941 167.547 439.997 167.547C438.053 167.547 436.46 168.087 435.218 169.167C433.976 170.193 433.166 171.732 432.788 173.784H446.801ZM512.914 177.753C512.914 178.995 512.833 180.237 512.671 181.479H482.62C482.782 183.963 483.457 185.826 484.645 187.068C485.887 188.256 487.453 188.85 489.343 188.85C491.989 188.85 493.879 187.662 495.013 185.286H511.942C511.24 188.418 509.863 191.226 507.811 193.71C505.813 196.14 503.275 198.057 500.197 199.461C497.119 200.865 493.717 201.567 489.991 201.567C485.509 201.567 481.513 200.622 478.003 198.732C474.547 196.842 471.82 194.142 469.822 190.632C467.878 187.122 466.906 182.991 466.906 178.239C466.906 173.487 467.878 169.383 469.822 165.927C471.766 162.417 474.466 159.717 477.922 157.827C481.432 155.937 485.455 154.992 489.991 154.992C494.473 154.992 498.442 155.91 501.898 157.746C505.354 159.582 508.054 162.228 509.998 165.684C511.942 169.086 512.914 173.109 512.914 177.753ZM496.714 173.784C496.714 171.84 496.066 170.328 494.77 169.248C493.474 168.114 491.854 167.547 489.91 167.547C487.966 167.547 486.373 168.087 485.131 169.167C483.889 170.193 483.079 171.732 482.701 173.784H496.714ZM535.287 161.877C536.529 159.771 538.284 158.097 540.552 156.855C542.82 155.613 545.493 154.992 548.571 154.992C552.189 154.992 555.456 155.937 558.372 157.827C561.342 159.717 563.664 162.417 565.338 165.927C567.066 169.437 567.93 173.541 567.93 178.239C567.93 182.937 567.066 187.068 565.338 190.632C563.664 194.142 561.342 196.842 558.372 198.732C555.456 200.622 552.189 201.567 548.571 201.567C545.493 201.567 542.82 200.946 540.552 199.704C538.338 198.462 536.583 196.788 535.287 194.682V222.708H519.411V155.559H535.287V161.877ZM551.811 178.239C551.811 175.269 551.001 172.974 549.381 171.354C547.815 169.68 545.871 168.843 543.549 168.843C541.227 168.843 539.256 169.68 537.636 171.354C536.07 173.028 535.287 175.323 535.287 178.239C535.287 181.209 536.07 183.531 537.636 185.205C539.256 186.879 541.227 187.716 543.549 187.716C545.871 187.716 547.815 186.879 549.381 185.205C551.001 183.477 551.811 181.155 551.811 178.239Z"/>
</mask>
<path d="M302.412 143.895V201H286.536V143.895H302.412ZM341.18 155.154C346.418 155.154 350.576 156.909 353.654 160.419C356.732 163.875 358.271 168.573 358.271 174.513V201H342.395V176.619C342.395 174.027 341.72 172.002 340.37 170.544C339.02 169.032 337.211 168.276 334.943 168.276C332.567 168.276 330.704 169.032 329.354 170.544C328.004 172.002 327.329 174.027 327.329 176.619V201H311.453V155.559H327.329V162.039C328.733 159.987 330.623 158.34 332.999 157.098C335.375 155.802 338.102 155.154 341.18 155.154ZM388.771 186.015L397.276 155.559H414.205L398.572 201H378.808L363.175 155.559H380.104L388.771 186.015ZM463.001 177.753C463.001 178.995 462.92 180.237 462.758 181.479H432.707C432.869 183.963 433.544 185.826 434.732 187.068C435.974 188.256 437.54 188.85 439.43 188.85C442.076 188.85 443.966 187.662 445.1 185.286H462.029C461.327 188.418 459.95 191.226 457.898 193.71C455.9 196.14 453.362 198.057 450.284 199.461C447.206 200.865 443.804 201.567 440.078 201.567C435.596 201.567 431.6 200.622 428.09 198.732C424.634 196.842 421.907 194.142 419.909 190.632C417.965 187.122 416.993 182.991 416.993 178.239C416.993 173.487 417.965 169.383 419.909 165.927C421.853 162.417 424.553 159.717 428.009 157.827C431.519 155.937 435.542 154.992 440.078 154.992C444.56 154.992 448.529 155.91 451.985 157.746C455.441 159.582 458.141 162.228 460.085 165.684C462.029 169.086 463.001 173.109 463.001 177.753ZM446.801 173.784C446.801 171.84 446.153 170.328 444.857 169.248C443.561 168.114 441.941 167.547 439.997 167.547C438.053 167.547 436.46 168.087 435.218 169.167C433.976 170.193 433.166 171.732 432.788 173.784H446.801ZM512.914 177.753C512.914 178.995 512.833 180.237 512.671 181.479H482.62C482.782 183.963 483.457 185.826 484.645 187.068C485.887 188.256 487.453 188.85 489.343 188.85C491.989 188.85 493.879 187.662 495.013 185.286H511.942C511.24 188.418 509.863 191.226 507.811 193.71C505.813 196.14 503.275 198.057 500.197 199.461C497.119 200.865 493.717 201.567 489.991 201.567C485.509 201.567 481.513 200.622 478.003 198.732C474.547 196.842 471.82 194.142 469.822 190.632C467.878 187.122 466.906 182.991 466.906 178.239C466.906 173.487 467.878 169.383 469.822 165.927C471.766 162.417 474.466 159.717 477.922 157.827C481.432 155.937 485.455 154.992 489.991 154.992C494.473 154.992 498.442 155.91 501.898 157.746C505.354 159.582 508.054 162.228 509.998 165.684C511.942 169.086 512.914 173.109 512.914 177.753ZM496.714 173.784C496.714 171.84 496.066 170.328 494.77 169.248C493.474 168.114 491.854 167.547 489.91 167.547C487.966 167.547 486.373 168.087 485.131 169.167C483.889 170.193 483.079 171.732 482.701 173.784H496.714ZM535.287 161.877C536.529 159.771 538.284 158.097 540.552 156.855C542.82 155.613 545.493 154.992 548.571 154.992C552.189 154.992 555.456 155.937 558.372 157.827C561.342 159.717 563.664 162.417 565.338 165.927C567.066 169.437 567.93 173.541 567.93 178.239C567.93 182.937 567.066 187.068 565.338 190.632C563.664 194.142 561.342 196.842 558.372 198.732C555.456 200.622 552.189 201.567 548.571 201.567C545.493 201.567 542.82 200.946 540.552 199.704C538.338 198.462 536.583 196.788 535.287 194.682V222.708H519.411V155.559H535.287V161.877ZM551.811 178.239C551.811 175.269 551.001 172.974 549.381 171.354C547.815 169.68 545.871 168.843 543.549 168.843C541.227 168.843 539.256 169.68 537.636 171.354C536.07 173.028 535.287 175.323 535.287 178.239C535.287 181.209 536.07 183.531 537.636 185.205C539.256 186.879 541.227 187.716 543.549 187.716C545.871 187.716 547.815 186.879 549.381 185.205C551.001 183.477 551.811 181.155 551.811 178.239Z" fill="#5CC59E"/>
<path d="M302.412 143.895H303.412V142.895H302.412V143.895ZM302.412 201V202H303.412V201H302.412ZM286.536 201H285.536V202H286.536V201ZM286.536 143.895V142.895H285.536V143.895H286.536ZM301.412 143.895V201H303.412V143.895H301.412ZM302.412 200H286.536V202H302.412V200ZM287.536 201V143.895H285.536V201H287.536ZM286.536 144.895H302.412V142.895H286.536V144.895ZM353.654 160.419L352.902 161.078L352.907 161.084L353.654 160.419ZM358.271 201V202H359.271V201H358.271ZM342.395 201H341.395V202H342.395V201ZM340.37 170.544L339.624 171.21L339.63 171.217L339.636 171.223L340.37 170.544ZM329.354 170.544L330.088 171.223L330.094 171.217L330.1 171.21L329.354 170.544ZM327.329 201V202H328.329V201H327.329ZM311.453 201H310.453V202H311.453V201ZM311.453 155.559V154.559H310.453V155.559H311.453ZM327.329 155.559H328.329V154.559H327.329V155.559ZM327.329 162.039H326.329V165.271L328.154 162.604L327.329 162.039ZM332.999 157.098L333.462 157.984L333.47 157.98L333.478 157.976L332.999 157.098ZM341.18 156.154C346.169 156.154 350.038 157.813 352.902 161.078L354.406 159.76C351.114 156.005 346.667 154.154 341.18 154.154V156.154ZM352.907 161.084C355.78 164.31 357.271 168.747 357.271 174.513H359.271C359.271 168.399 357.684 163.44 354.401 159.754L352.907 161.084ZM357.271 174.513V201H359.271V174.513H357.271ZM358.271 200H342.395V202H358.271V200ZM343.395 201V176.619H341.395V201H343.395ZM343.395 176.619C343.395 173.854 342.672 171.558 341.104 169.865L339.636 171.223C340.768 172.446 341.395 174.2 341.395 176.619H343.395ZM341.116 169.878C339.552 168.127 337.458 167.276 334.943 167.276V169.276C336.964 169.276 338.488 169.937 339.624 171.21L341.116 169.878ZM334.943 167.276C332.336 167.276 330.181 168.116 328.608 169.878L330.1 171.21C331.227 169.948 332.798 169.276 334.943 169.276V167.276ZM328.62 169.865C327.052 171.558 326.329 173.854 326.329 176.619H328.329C328.329 174.2 328.956 172.446 330.088 171.223L328.62 169.865ZM326.329 176.619V201H328.329V176.619H326.329ZM327.329 200H311.453V202H327.329V200ZM312.453 201V155.559H310.453V201H312.453ZM311.453 156.559H327.329V154.559H311.453V156.559ZM326.329 155.559V162.039H328.329V155.559H326.329ZM328.154 162.604C329.459 160.697 331.22 159.156 333.462 157.984L332.536 156.212C330.026 157.524 328.007 159.277 326.504 161.474L328.154 162.604ZM333.478 157.976C335.688 156.77 338.246 156.154 341.18 156.154V154.154C337.958 154.154 335.062 154.834 332.52 156.22L333.478 157.976ZM388.771 186.015L387.809 186.289L388.78 189.7L389.734 186.284L388.771 186.015ZM397.276 155.559V154.559H396.517L396.313 155.29L397.276 155.559ZM414.205 155.559L415.151 155.884L415.607 154.559H414.205V155.559ZM398.572 201V202H399.286L399.518 201.325L398.572 201ZM378.808 201L377.863 201.325L378.095 202H378.808V201ZM363.175 155.559V154.559H361.774L362.23 155.884L363.175 155.559ZM380.104 155.559L381.066 155.285L380.859 154.559H380.104V155.559ZM389.734 186.284L398.239 155.828L396.313 155.29L387.808 185.746L389.734 186.284ZM397.276 156.559H414.205V154.559H397.276V156.559ZM413.26 155.234L397.627 200.675L399.518 201.325L415.151 155.884L413.26 155.234ZM398.572 200H378.808V202H398.572V200ZM379.754 200.675L364.121 155.234L362.23 155.884L377.863 201.325L379.754 200.675ZM363.175 156.559H380.104V154.559H363.175V156.559ZM379.142 155.833L387.809 186.289L389.733 185.741L381.066 155.285L379.142 155.833ZM462.758 181.479V182.479H463.636L463.749 181.608L462.758 181.479ZM432.707 181.479V180.479H431.639L431.709 181.544L432.707 181.479ZM434.732 187.068L434.009 187.759L434.025 187.775L434.041 187.791L434.732 187.068ZM445.1 185.286V184.286H444.469L444.197 184.855L445.1 185.286ZM462.029 185.286L463.005 185.505L463.278 184.286H462.029V185.286ZM457.898 193.71L457.127 193.073L457.125 193.075L457.898 193.71ZM450.284 199.461L450.699 200.371L450.284 199.461ZM428.09 198.732L427.61 199.609L427.616 199.612L428.09 198.732ZM419.909 190.632L419.034 191.117L419.04 191.127L419.909 190.632ZM419.909 165.927L420.78 166.417L420.784 166.411L419.909 165.927ZM428.009 157.827L427.535 156.947L427.529 156.95L428.009 157.827ZM451.985 157.746L452.454 156.863L451.985 157.746ZM460.085 165.684L459.213 166.174L459.217 166.18L460.085 165.684ZM446.801 173.784V174.784H447.801V173.784H446.801ZM444.857 169.248L444.198 170.001L444.207 170.009L444.217 170.016L444.857 169.248ZM435.218 169.167L435.855 169.938L435.864 169.93L435.874 169.922L435.218 169.167ZM432.788 173.784L431.804 173.603L431.587 174.784H432.788V173.784ZM462.001 177.753C462.001 178.951 461.923 180.15 461.766 181.35L463.749 181.608C463.917 180.324 464.001 179.039 464.001 177.753H462.001ZM462.758 180.479H432.707V182.479H462.758V180.479ZM431.709 181.544C431.88 184.16 432.599 186.285 434.009 187.759L435.454 186.377C434.488 185.367 433.858 183.766 433.705 181.414L431.709 181.544ZM434.041 187.791C435.488 189.175 437.31 189.85 439.43 189.85V187.85C437.769 187.85 436.46 187.337 435.423 186.345L434.041 187.791ZM439.43 189.85C440.906 189.85 442.232 189.517 443.364 188.806C444.496 188.094 445.369 187.045 446.002 185.717L444.197 184.855C443.697 185.903 443.057 186.636 442.3 187.112C441.542 187.589 440.6 187.85 439.43 187.85V189.85ZM445.1 186.286H462.029V184.286H445.1V186.286ZM461.053 185.067C460.386 188.045 459.079 190.71 457.127 193.073L458.669 194.347C460.821 191.742 462.268 188.791 463.005 185.505L461.053 185.067ZM457.125 193.075C455.231 195.379 452.819 197.205 449.869 198.551L450.699 200.371C453.905 198.909 456.568 196.901 458.67 194.345L457.125 193.075ZM449.869 198.551C446.934 199.89 443.675 200.567 440.078 200.567V202.567C443.932 202.567 447.478 201.84 450.699 200.371L449.869 198.551ZM440.078 200.567C435.74 200.567 431.911 199.654 428.564 197.852L427.616 199.612C431.289 201.59 435.451 202.567 440.078 202.567V200.567ZM428.57 197.855C425.281 196.056 422.687 193.49 420.778 190.137L419.04 191.127C421.127 194.794 423.987 197.628 427.61 199.609L428.57 197.855ZM420.784 190.147C418.936 186.811 417.993 182.853 417.993 178.239H415.993C415.993 183.129 416.994 187.433 419.034 191.117L420.784 190.147ZM417.993 178.239C417.993 173.625 418.936 169.696 420.78 166.417L419.037 165.437C416.994 169.07 415.993 173.349 415.993 178.239H417.993ZM420.784 166.411C422.638 163.064 425.202 160.502 428.489 158.704L427.529 156.95C423.904 158.932 421.068 161.77 419.034 165.442L420.784 166.411ZM428.483 158.707C431.828 156.906 435.684 155.992 440.078 155.992V153.992C435.399 153.992 431.209 154.968 427.535 156.947L428.483 158.707ZM440.078 155.992C444.42 155.992 448.224 156.88 451.516 158.629L452.454 156.863C448.834 154.94 444.699 153.992 440.078 153.992V155.992ZM451.516 158.629C454.8 160.374 457.362 162.883 459.213 166.174L460.956 165.194C458.92 161.573 456.081 158.79 452.454 156.863L451.516 158.629ZM459.217 166.18C461.059 169.405 462.001 173.251 462.001 177.753H464.001C464.001 172.967 462.998 168.767 460.953 165.188L459.217 166.18ZM447.801 173.784C447.801 171.594 447.057 169.78 445.497 168.48L444.217 170.016C445.249 170.876 445.801 172.086 445.801 173.784H447.801ZM445.515 168.495C444.013 167.181 442.15 166.547 439.997 166.547V168.547C441.732 168.547 443.108 169.047 444.198 170.001L445.515 168.495ZM439.997 166.547C437.858 166.547 436.018 167.146 434.562 168.412L435.874 169.922C436.902 169.028 438.248 168.547 439.997 168.547V166.547ZM434.581 168.396C433.11 169.611 432.212 171.389 431.804 173.603L433.771 173.965C434.119 172.075 434.842 170.775 435.855 169.938L434.581 168.396ZM432.788 174.784H446.801V172.784H432.788V174.784ZM512.671 181.479V182.479H513.549L513.663 181.608L512.671 181.479ZM482.62 181.479V180.479H481.553L481.622 181.544L482.62 181.479ZM484.645 187.068L483.922 187.759L483.938 187.775L483.954 187.791L484.645 187.068ZM495.013 185.286V184.286H494.382L494.11 184.855L495.013 185.286ZM511.942 185.286L512.918 185.505L513.191 184.286H511.942V185.286ZM507.811 193.71L507.04 193.073L507.038 193.075L507.811 193.71ZM500.197 199.461L500.612 200.371L500.197 199.461ZM478.003 198.732L477.523 199.609L477.529 199.612L478.003 198.732ZM469.822 190.632L468.947 191.117L468.953 191.127L469.822 190.632ZM469.822 165.927L470.694 166.417L470.697 166.411L469.822 165.927ZM477.922 157.827L477.448 156.947L477.442 156.95L477.922 157.827ZM501.898 157.746L502.367 156.863L501.898 157.746ZM509.998 165.684L509.126 166.174L509.13 166.18L509.998 165.684ZM496.714 173.784V174.784H497.714V173.784H496.714ZM494.77 169.248L494.111 170.001L494.12 170.009L494.13 170.016L494.77 169.248ZM485.131 169.167L485.768 169.938L485.778 169.93L485.787 169.922L485.131 169.167ZM482.701 173.784L481.717 173.603L481.5 174.784H482.701V173.784ZM511.914 177.753C511.914 178.951 511.836 180.15 511.679 181.35L513.663 181.608C513.83 180.324 513.914 179.039 513.914 177.753H511.914ZM512.671 180.479H482.62V182.479H512.671V180.479ZM481.622 181.544C481.793 184.16 482.513 186.285 483.922 187.759L485.368 186.377C484.401 185.367 483.771 183.766 483.618 181.414L481.622 181.544ZM483.954 187.791C485.401 189.175 487.223 189.85 489.343 189.85V187.85C487.682 187.85 486.373 187.337 485.336 186.345L483.954 187.791ZM489.343 189.85C490.819 189.85 492.145 189.517 493.277 188.806C494.409 188.094 495.282 187.045 495.915 185.717L494.11 184.855C493.61 185.903 492.971 186.636 492.213 187.112C491.455 187.589 490.513 187.85 489.343 187.85V189.85ZM495.013 186.286H511.942V184.286H495.013V186.286ZM510.966 185.067C510.299 188.045 508.992 190.71 507.04 193.073L508.582 194.347C510.734 191.742 512.181 188.791 512.918 185.505L510.966 185.067ZM507.038 193.075C505.144 195.379 502.732 197.205 499.782 198.551L500.612 200.371C503.818 198.909 506.481 196.901 508.583 194.345L507.038 193.075ZM499.782 198.551C496.847 199.89 493.588 200.567 489.991 200.567V202.567C493.845 202.567 497.391 201.84 500.612 200.371L499.782 198.551ZM489.991 200.567C485.654 200.567 481.824 199.654 478.477 197.852L477.529 199.612C481.202 201.59 485.364 202.567 489.991 202.567V200.567ZM478.483 197.855C475.194 196.056 472.6 193.49 470.691 190.137L468.953 191.127C471.04 194.794 473.9 197.628 477.523 199.609L478.483 197.855ZM470.697 190.147C468.849 186.811 467.906 182.853 467.906 178.239H465.906C465.906 183.129 466.907 187.433 468.947 191.117L470.697 190.147ZM467.906 178.239C467.906 173.625 468.849 169.696 470.693 166.417L468.95 165.437C466.907 169.07 465.906 173.349 465.906 178.239H467.906ZM470.697 166.411C472.551 163.064 475.115 160.502 478.402 158.704L477.442 156.95C473.817 158.932 470.981 161.77 468.947 165.442L470.697 166.411ZM478.396 158.707C481.741 156.906 485.597 155.992 489.991 155.992V153.992C485.312 153.992 481.123 154.968 477.448 156.947L478.396 158.707ZM489.991 155.992C494.333 155.992 498.137 156.88 501.429 158.629L502.367 156.863C498.747 154.94 494.613 153.992 489.991 153.992V155.992ZM501.429 158.629C504.713 160.374 507.275 162.883 509.126 166.174L510.869 165.194C508.833 161.573 505.994 158.79 502.367 156.863L501.429 158.629ZM509.13 166.18C510.973 169.405 511.914 173.251 511.914 177.753H513.914C513.914 172.967 512.911 168.767 510.866 165.188L509.13 166.18ZM497.714 173.784C497.714 171.594 496.97 169.78 495.41 168.48L494.13 170.016C495.162 170.876 495.714 172.086 495.714 173.784H497.714ZM495.428 168.495C493.926 167.181 492.063 166.547 489.91 166.547V168.547C491.645 168.547 493.021 169.047 494.111 170.001L495.428 168.495ZM489.91 166.547C487.771 166.547 485.931 167.146 484.475 168.412L485.787 169.922C486.815 169.028 488.161 168.547 489.91 168.547V166.547ZM484.494 168.396C483.023 169.611 482.125 171.389 481.717 173.603L483.684 173.965C484.033 172.075 484.755 170.775 485.768 169.938L484.494 168.396ZM482.701 174.784H496.714V172.784H482.701V174.784ZM535.287 161.877H534.287V165.541L536.148 162.385L535.287 161.877ZM540.552 156.855L540.072 155.978L540.552 156.855ZM558.372 157.827L557.828 158.666L557.835 158.671L558.372 157.827ZM565.338 165.927L564.435 166.358L564.441 166.369L565.338 165.927ZM565.338 190.632L564.438 190.196L564.435 190.202L565.338 190.632ZM558.372 198.732L557.835 197.888L557.828 197.893L558.372 198.732ZM540.552 199.704L540.063 200.576L540.072 200.581L540.552 199.704ZM535.287 194.682L536.139 194.158L534.287 191.149V194.682H535.287ZM535.287 222.708V223.708H536.287V222.708H535.287ZM519.411 222.708H518.411V223.708H519.411V222.708ZM519.411 155.559V154.559H518.411V155.559H519.411ZM535.287 155.559H536.287V154.559H535.287V155.559ZM549.381 171.354L548.651 172.037L548.662 172.049L548.674 172.061L549.381 171.354ZM537.636 171.354L536.917 170.659L536.912 170.665L536.906 170.671L537.636 171.354ZM537.636 185.205L536.906 185.888L536.912 185.894L536.917 185.9L537.636 185.205ZM549.381 185.205L548.651 184.521L548.651 184.522L549.381 185.205ZM536.148 162.385C537.294 160.443 538.913 158.893 541.032 157.732L540.072 155.978C537.655 157.301 535.764 159.099 534.426 161.369L536.148 162.385ZM541.032 157.732C543.127 156.585 545.629 155.992 548.571 155.992V153.992C545.357 153.992 542.513 154.641 540.072 155.978L541.032 157.732ZM548.571 155.992C552.004 155.992 555.081 156.886 557.828 158.666L558.916 156.988C555.831 154.988 552.374 153.992 548.571 153.992V155.992ZM557.835 158.671C560.631 160.45 562.833 162.998 564.435 166.357L566.241 165.497C564.495 161.836 562.053 158.984 558.909 156.983L557.835 158.671ZM564.441 166.369C566.089 169.716 566.93 173.664 566.93 178.239H568.93C568.93 173.418 568.043 169.158 566.235 165.485L564.441 166.369ZM566.93 178.239C566.93 182.814 566.089 186.791 564.438 190.196L566.238 191.068C568.043 187.345 568.93 183.06 568.93 178.239H566.93ZM564.435 190.202C562.833 193.561 560.631 196.109 557.835 197.888L558.909 199.576C562.053 197.575 564.495 194.723 566.241 191.062L564.435 190.202ZM557.828 197.893C555.081 199.673 552.004 200.567 548.571 200.567V202.567C552.374 202.567 555.831 201.571 558.916 199.571L557.828 197.893ZM548.571 200.567C545.629 200.567 543.127 199.974 541.032 198.827L540.072 200.581C542.513 201.918 545.357 202.567 548.571 202.567V200.567ZM541.041 198.832C538.972 197.671 537.343 196.115 536.139 194.158L534.435 195.206C535.823 197.461 537.704 199.253 540.063 200.576L541.041 198.832ZM534.287 194.682V222.708H536.287V194.682H534.287ZM535.287 221.708H519.411V223.708H535.287V221.708ZM520.411 222.708V155.559H518.411V222.708H520.411ZM519.411 156.559H535.287V154.559H519.411V156.559ZM534.287 155.559V161.877H536.287V155.559H534.287ZM552.811 178.239C552.811 175.086 551.947 172.505 550.088 170.647L548.674 172.061C550.055 173.443 550.811 175.452 550.811 178.239H552.811ZM550.111 170.671C548.353 168.792 546.144 167.843 543.549 167.843V169.843C545.598 169.843 547.277 170.568 548.651 172.037L550.111 170.671ZM543.549 167.843C540.955 167.843 538.725 168.791 536.917 170.659L538.355 172.049C539.787 170.569 541.499 169.843 543.549 169.843V167.843ZM536.906 170.671C535.123 172.577 534.287 175.141 534.287 178.239H536.287C536.287 175.505 537.017 173.479 538.366 172.037L536.906 170.671ZM534.287 178.239C534.287 181.385 535.12 183.979 536.906 185.888L538.366 184.522C537.02 183.083 536.287 181.033 536.287 178.239H534.287ZM536.917 185.9C538.725 187.768 540.955 188.716 543.549 188.716V186.716C541.499 186.716 539.787 185.99 538.355 184.51L536.917 185.9ZM543.549 188.716C546.144 188.716 548.353 187.767 550.111 185.888L548.651 184.522C547.277 185.991 545.598 186.716 543.549 186.716V188.716ZM550.111 185.889C551.942 183.935 552.811 181.347 552.811 178.239H550.811C550.811 180.963 550.06 183.019 548.651 184.521L550.111 185.889Z" fill="#5CC59E" mask="url(#path-6-outside-1_45_1959)"/>
<mask id="path-8-outside-2_45_1959" maskUnits="userSpaceOnUse" x="283" y="264" width="187" height="61" fill="black">
<rect fill="white" x="283" y="264" width="187" height="61"/>
<path d="M284.592 294.326C284.592 288.71 285.753 283.715 288.075 279.341C290.451 274.913 293.799 271.484 298.119 269.054C302.439 266.57 307.407 265.328 313.023 265.328C320.151 265.328 326.145 267.245 331.005 271.079C335.865 274.859 338.997 280.016 340.401 286.55H323.31C322.284 284.39 320.853 282.743 319.017 281.609C317.235 280.475 315.156 279.908 312.78 279.908C309.108 279.908 306.165 281.231 303.951 283.877C301.791 286.469 300.711 289.952 300.711 294.326C300.711 298.754 301.791 302.291 303.951 304.937C306.165 307.529 309.108 308.825 312.78 308.825C315.156 308.825 317.235 308.258 319.017 307.124C320.853 305.99 322.284 304.343 323.31 302.183H340.401C338.997 308.717 335.865 313.901 331.005 317.735C326.145 321.515 320.151 323.405 313.023 323.405C307.407 323.405 302.439 322.19 298.119 319.76C293.799 317.276 290.451 313.847 288.075 309.473C285.753 305.045 284.592 299.996 284.592 294.326ZM376.836 323L365.496 301.94H363.795V323H347.919V265.895H372.948C377.538 265.895 381.426 266.705 384.612 268.325C387.798 269.891 390.201 272.078 391.821 274.886C393.441 277.64 394.251 280.745 394.251 284.201C394.251 288.089 393.171 291.518 391.011 294.488C388.905 297.404 385.8 299.483 381.696 300.725L394.575 323H376.836ZM363.795 291.086H371.652C373.812 291.086 375.432 290.573 376.512 289.547C377.592 288.521 378.132 287.036 378.132 285.092C378.132 283.256 377.565 281.825 376.431 280.799C375.351 279.719 373.758 279.179 371.652 279.179H363.795V291.086ZM468.134 265.895V323H452.258V291.491L441.485 323H428.201L417.347 291.248V323H401.471V265.895H420.668L435.005 302.993L449.018 265.895H468.134Z"/>
</mask>
<path d="M284.592 294.326C284.592 288.71 285.753 283.715 288.075 279.341C290.451 274.913 293.799 271.484 298.119 269.054C302.439 266.57 307.407 265.328 313.023 265.328C320.151 265.328 326.145 267.245 331.005 271.079C335.865 274.859 338.997 280.016 340.401 286.55H323.31C322.284 284.39 320.853 282.743 319.017 281.609C317.235 280.475 315.156 279.908 312.78 279.908C309.108 279.908 306.165 281.231 303.951 283.877C301.791 286.469 300.711 289.952 300.711 294.326C300.711 298.754 301.791 302.291 303.951 304.937C306.165 307.529 309.108 308.825 312.78 308.825C315.156 308.825 317.235 308.258 319.017 307.124C320.853 305.99 322.284 304.343 323.31 302.183H340.401C338.997 308.717 335.865 313.901 331.005 317.735C326.145 321.515 320.151 323.405 313.023 323.405C307.407 323.405 302.439 322.19 298.119 319.76C293.799 317.276 290.451 313.847 288.075 309.473C285.753 305.045 284.592 299.996 284.592 294.326ZM376.836 323L365.496 301.94H363.795V323H347.919V265.895H372.948C377.538 265.895 381.426 266.705 384.612 268.325C387.798 269.891 390.201 272.078 391.821 274.886C393.441 277.64 394.251 280.745 394.251 284.201C394.251 288.089 393.171 291.518 391.011 294.488C388.905 297.404 385.8 299.483 381.696 300.725L394.575 323H376.836ZM363.795 291.086H371.652C373.812 291.086 375.432 290.573 376.512 289.547C377.592 288.521 378.132 287.036 378.132 285.092C378.132 283.256 377.565 281.825 376.431 280.799C375.351 279.719 373.758 279.179 371.652 279.179H363.795V291.086ZM468.134 265.895V323H452.258V291.491L441.485 323H428.201L417.347 291.248V323H401.471V265.895H420.668L435.005 302.993L449.018 265.895H468.134Z" fill="#1A2B42"/>
<path d="M288.075 279.341L287.194 278.868L287.192 278.872L288.075 279.341ZM298.119 269.054L298.609 269.926L298.617 269.921L298.119 269.054ZM331.005 271.079L330.386 271.864L330.391 271.868L331.005 271.079ZM340.401 286.55V287.55H341.639L341.379 286.34L340.401 286.55ZM323.31 286.55L322.407 286.979L322.678 287.55H323.31V286.55ZM319.017 281.609L318.48 282.453L318.492 282.46L319.017 281.609ZM303.951 283.877L303.184 283.235L303.183 283.237L303.951 283.877ZM303.951 304.937L303.176 305.569L303.183 305.578L303.191 305.586L303.951 304.937ZM319.017 307.124L318.491 306.273L318.48 306.28L319.017 307.124ZM323.31 302.183V301.183H322.678L322.407 301.754L323.31 302.183ZM340.401 302.183L341.379 302.393L341.639 301.183H340.401V302.183ZM331.005 317.735L331.619 318.524L331.624 318.52L331.005 317.735ZM298.119 319.76L297.621 320.627L297.629 320.632L298.119 319.76ZM288.075 309.473L287.189 309.937L287.193 309.944L287.196 309.95L288.075 309.473ZM285.592 294.326C285.592 288.851 286.723 284.021 288.958 279.81L287.192 278.872C284.783 283.409 283.592 288.569 283.592 294.326H285.592ZM288.956 279.814C291.244 275.551 294.457 272.261 298.609 269.926L297.629 268.182C293.141 270.707 289.658 274.275 287.194 278.868L288.956 279.814ZM298.617 269.921C302.767 267.535 307.559 266.328 313.023 266.328V264.328C307.255 264.328 302.111 265.605 297.621 268.187L298.617 269.921ZM313.023 266.328C319.962 266.328 325.728 268.19 330.386 271.864L331.624 270.294C326.562 266.3 320.34 264.328 313.023 264.328V266.328ZM330.391 271.868C335.049 275.491 338.064 280.435 339.423 286.76L341.379 286.34C339.93 279.597 336.681 274.227 331.619 270.29L330.391 271.868ZM340.401 285.55H323.31V287.55H340.401V285.55ZM324.213 286.121C323.114 283.806 321.56 282.004 319.542 280.758L318.492 282.46C320.146 283.482 321.454 284.974 322.407 286.979L324.213 286.121ZM319.554 280.765C317.592 279.517 315.322 278.908 312.78 278.908V280.908C314.99 280.908 316.878 281.433 318.48 282.453L319.554 280.765ZM312.78 278.908C308.834 278.908 305.602 280.346 303.184 283.235L304.718 284.519C306.728 282.116 309.382 280.908 312.78 280.908V278.908ZM303.183 283.237C300.833 286.056 299.711 289.789 299.711 294.326H301.711C301.711 290.115 302.749 286.882 304.719 284.517L303.183 283.237ZM299.711 294.326C299.711 298.915 300.832 302.698 303.176 305.569L304.726 304.305C302.75 301.884 301.711 298.593 301.711 294.326H299.711ZM303.191 305.586C305.611 308.42 308.841 309.825 312.78 309.825V307.825C309.375 307.825 306.719 306.638 304.711 304.288L303.191 305.586ZM312.78 309.825C315.322 309.825 317.592 309.216 319.554 307.968L318.48 306.28C316.878 307.3 314.99 307.825 312.78 307.825V309.825ZM319.542 307.975C321.56 306.729 323.114 304.927 324.213 302.612L322.407 301.754C321.454 303.759 320.146 305.251 318.492 306.273L319.542 307.975ZM323.31 303.183H340.401V301.183H323.31V303.183ZM339.423 301.973C338.064 308.299 335.048 313.272 330.386 316.95L331.624 318.52C336.682 314.53 339.93 309.135 341.379 302.393L339.423 301.973ZM330.391 316.946C325.733 320.568 319.965 322.405 313.023 322.405V324.405C320.337 324.405 326.557 322.462 331.619 318.524L330.391 316.946ZM313.023 322.405C307.556 322.405 302.761 321.224 298.609 318.888L297.629 320.632C302.117 323.156 307.258 324.405 313.023 324.405V322.405ZM298.617 318.893C294.458 316.501 291.241 313.207 288.954 308.996L287.196 309.95C289.661 314.487 293.14 318.051 297.621 320.627L298.617 318.893ZM288.961 309.009C286.723 304.742 285.592 299.856 285.592 294.326H283.592C283.592 300.136 284.783 305.348 287.189 309.937L288.961 309.009ZM376.836 323L375.955 323.474L376.239 324H376.836V323ZM365.496 301.94L366.376 301.466L366.093 300.94H365.496V301.94ZM363.795 301.94V300.94H362.795V301.94H363.795ZM363.795 323V324H364.795V323H363.795ZM347.919 323H346.919V324H347.919V323ZM347.919 265.895V264.895H346.919V265.895H347.919ZM384.612 268.325L384.159 269.216L384.171 269.222L384.612 268.325ZM391.821 274.886L390.955 275.386L390.959 275.393L391.821 274.886ZM391.011 294.488L390.202 293.9L390.2 293.903L391.011 294.488ZM381.696 300.725L381.406 299.768L380.199 300.133L380.83 301.226L381.696 300.725ZM394.575 323V324H396.308L395.441 322.499L394.575 323ZM363.795 291.086H362.795V292.086H363.795V291.086ZM376.512 289.547L375.823 288.822L375.823 288.822L376.512 289.547ZM376.431 280.799L375.724 281.506L375.741 281.524L375.76 281.541L376.431 280.799ZM363.795 279.179V278.179H362.795V279.179H363.795ZM377.716 322.526L366.376 301.466L364.615 302.414L375.955 323.474L377.716 322.526ZM365.496 300.94H363.795V302.94H365.496V300.94ZM362.795 301.94V323H364.795V301.94H362.795ZM363.795 322H347.919V324H363.795V322ZM348.919 323V265.895H346.919V323H348.919ZM347.919 266.895H372.948V264.895H347.919V266.895ZM372.948 266.895C377.424 266.895 381.147 267.685 384.159 269.216L385.065 267.434C381.704 265.725 377.652 264.895 372.948 264.895V266.895ZM384.171 269.222C387.196 270.71 389.443 272.766 390.955 275.386L392.687 274.386C390.958 271.39 388.399 269.072 385.053 267.428L384.171 269.222ZM390.959 275.393C392.481 277.981 393.251 280.908 393.251 284.201H395.251C395.251 280.582 394.4 277.299 392.683 274.379L390.959 275.393ZM393.251 284.201C393.251 287.891 392.23 291.111 390.202 293.9L391.82 295.076C394.111 291.925 395.251 288.287 395.251 284.201H393.251ZM390.2 293.903C388.246 296.609 385.342 298.577 381.406 299.768L381.985 301.682C386.258 300.389 389.564 298.199 391.821 295.073L390.2 293.903ZM380.83 301.226L393.709 323.501L395.441 322.499L382.562 300.224L380.83 301.226ZM394.575 322H376.836V324H394.575V322ZM363.795 292.086H371.652V290.086H363.795V292.086ZM371.652 292.086C373.954 292.086 375.866 291.54 377.201 290.272L375.823 288.822C374.998 289.606 373.67 290.086 371.652 290.086V292.086ZM377.201 290.272C378.535 289.004 379.132 287.222 379.132 285.092H377.132C377.132 286.85 376.649 288.038 375.823 288.822L377.201 290.272ZM379.132 285.092C379.132 283.035 378.487 281.311 377.102 280.057L375.76 281.541C376.643 282.339 377.132 283.477 377.132 285.092H379.132ZM377.138 280.092C375.809 278.763 373.92 278.179 371.652 278.179V280.179C373.595 280.179 374.893 280.675 375.724 281.506L377.138 280.092ZM371.652 278.179H363.795V280.179H371.652V278.179ZM362.795 279.179V291.086H364.795V279.179H362.795ZM468.134 265.895H469.134V264.895H468.134V265.895ZM468.134 323V324H469.134V323H468.134ZM452.258 323H451.258V324H452.258V323ZM452.258 291.491H453.258L451.311 291.167L452.258 291.491ZM441.485 323V324H442.2L442.431 323.324L441.485 323ZM428.201 323L427.254 323.323L427.486 324H428.201V323ZM417.347 291.248L418.293 290.925L416.347 291.248H417.347ZM417.347 323V324H418.347V323H417.347ZM401.471 323H400.471V324H401.471V323ZM401.471 265.895V264.895H400.471V265.895H401.471ZM420.668 265.895L421.6 265.535L421.353 264.895H420.668V265.895ZM435.005 302.993L434.072 303.353L435.015 305.795L435.94 303.346L435.005 302.993ZM449.018 265.895V264.895H448.326L448.082 265.542L449.018 265.895ZM467.134 265.895V323H469.134V265.895H467.134ZM468.134 322H452.258V324H468.134V322ZM453.258 323V291.491H451.258V323H453.258ZM451.311 291.167L440.538 322.676L442.431 323.324L453.204 291.815L451.311 291.167ZM441.485 322H428.201V324H441.485V322ZM429.147 322.677L418.293 290.925L416.4 291.571L427.254 323.323L429.147 322.677ZM416.347 291.248V323H418.347V291.248H416.347ZM417.347 322H401.471V324H417.347V322ZM402.471 323V265.895H400.471V323H402.471ZM401.471 266.895H420.668V264.895H401.471V266.895ZM419.735 266.255L434.072 303.353L435.937 302.633L421.6 265.535L419.735 266.255ZM435.94 303.346L449.953 266.248L448.082 265.542L434.069 302.64L435.94 303.346ZM449.018 266.895H468.134V264.895H449.018V266.895Z" fill="#1A2B42" mask="url(#path-8-outside-2_45_1959)"/>
<path d="M1009.36 682.531C1009.36 682.549 1009.85 684.695 1010.89 688.165L1009.02 688.721C1007.97 685.19 1007.47 683.056 1007.46 682.965L1009.36 682.531ZM1012.66 693.728C1013.23 695.43 1013.89 697.27 1014.63 699.216L1012.81 699.911C1012.06 697.939 1011.39 696.075 1010.81 694.354L1012.66 693.728ZM1016.81 704.63C1017.54 706.362 1018.33 708.142 1019.18 709.949L1017.42 710.784C1016.55 708.95 1015.75 707.146 1015.01 705.39L1016.81 704.63ZM1021.78 715.158C1022.7 716.912 1023.66 718.621 1024.61 720.24L1022.94 721.23C1021.96 719.587 1020.99 717.85 1020.06 716.068L1021.78 715.158ZM1027.7 725.16C1028.8 726.791 1029.93 728.377 1031.07 729.875L1029.52 731.062C1028.35 729.53 1027.19 727.908 1026.08 726.244L1027.7 725.16ZM1034.74 734.346C1036.05 735.821 1037.4 737.22 1038.75 738.51L1037.4 739.922C1036.01 738.596 1034.62 737.157 1033.28 735.641L1034.74 734.346ZM1043.1 742.281C1044.64 743.48 1046.22 744.583 1047.81 745.561L1046.79 747.225C1045.14 746.208 1043.49 745.063 1041.9 743.819L1043.1 742.281ZM1052.85 748.247C1054.59 749.039 1056.39 749.711 1058.19 750.246L1057.63 752.115C1055.75 751.555 1053.87 750.849 1052.04 750.021L1052.85 748.247ZM1063.74 751.491C1065.6 751.77 1067.51 751.923 1069.42 751.953L1069.39 753.903C1067.39 753.874 1065.39 753.712 1063.45 753.419L1063.74 751.491ZM1080.78 750.683L1081.22 752.585C1079.25 753.039 1077.27 753.382 1075.35 753.601L1075.13 751.662C1076.98 751.45 1078.88 751.121 1080.78 750.683ZM1091.7 747.029L1092.48 748.817C1090.63 749.621 1088.77 750.34 1086.94 750.953L1086.32 749.105C1088.09 748.507 1089.9 747.807 1091.7 747.029ZM1101.95 741.685L1102.96 743.354C1101.23 744.397 1099.5 745.374 1097.82 746.259L1096.91 744.53C1098.56 743.664 1100.26 742.705 1101.95 741.685ZM1092.61 583.203C1093.11 584.925 1094 586.651 1095.09 588.059L1093.56 589.259C1092.29 587.64 1091.32 585.735 1090.73 583.753L1092.61 583.203ZM1093.63 572.014L1094.9 573.494C1093.53 574.668 1092.66 576.149 1092.29 577.895L1090.38 577.496C1090.84 575.321 1091.93 573.475 1093.63 572.014ZM1111.56 735.17L1112.73 736.732C1111.13 737.928 1109.52 739.081 1107.93 740.162L1106.83 738.547C1108.4 737.486 1109.98 736.351 1111.56 735.17ZM1099.27 591.274C1100.87 591.911 1102.66 592.159 1104.58 592.013L1104.73 593.961C1102.5 594.128 1100.42 593.836 1098.55 593.086L1099.27 591.274ZM1103.57 568.444C1104.09 568.396 1104.63 568.36 1105.18 568.338L1105.27 570.29C1104.74 570.311 1104.23 570.344 1103.74 570.388C1102.28 570.522 1100.92 570.759 1099.71 571.091L1099.19 569.211C1100.51 568.847 1101.98 568.588 1103.57 568.444ZM1120.58 727.839L1121.87 729.309C1120.35 730.635 1118.85 731.899 1117.37 733.107L1116.14 731.593C1117.6 730.402 1119.08 729.151 1120.58 727.839ZM1114.9 588.005L1116 589.615C1114.25 590.811 1112.46 591.782 1110.68 592.503L1109.95 590.694C1111.6 590.027 1113.27 589.122 1114.9 588.005ZM1129.12 719.913L1130.48 721.303C1129.05 722.711 1127.63 724.066 1126.24 725.368L1124.9 723.941C1126.29 722.65 1127.7 721.307 1129.12 719.913ZM1111.16 568.497C1111.97 568.57 1112.81 568.659 1113.68 568.769C1114.77 568.91 1115.92 569.15 1117.1 569.49L1116.57 571.368C1115.48 571.054 1114.42 570.832 1113.43 570.705C1112.59 570.598 1111.77 570.51 1110.99 570.443L1111.16 568.497ZM1123.1 580.146L1124.64 581.347C1123.39 582.953 1122.05 584.453 1120.65 585.804L1119.29 584.4C1120.63 583.111 1121.91 581.682 1123.1 580.146ZM1137.22 711.535L1138.66 712.861C1137.3 714.328 1135.95 715.752 1134.62 717.131L1133.22 715.772C1134.54 714.406 1135.87 712.995 1137.22 711.535ZM1122.71 571.69C1124.13 572.388 1125.6 573.209 1127.08 574.127C1127.76 572.898 1128.4 571.623 1128.98 570.325L1130.76 571.125C1129.94 572.953 1129.01 574.732 1128.01 576.415L1127.1 575.87L1126.83 576.286C1125.14 575.193 1123.47 574.238 1121.85 573.443L1122.71 571.69ZM1143.89 704.065C1144.26 703.65 1144.61 703.233 1144.96 702.816L1146.45 704.071C1146.1 704.493 1145.74 704.919 1145.37 705.341C1144.44 706.419 1143.52 707.474 1142.6 708.509L1141.14 707.213C1142.05 706.184 1142.97 705.135 1143.89 704.065ZM1132.73 578.104C1134.24 579.291 1135.76 580.584 1137.25 581.943L1135.93 583.383C1134.48 582.055 1132.99 580.797 1131.52 579.641L1132.73 578.104ZM1132.57 559.414L1134.47 559.832C1134.04 561.78 1133.52 563.711 1132.91 565.572L1131.06 564.966C1131.64 563.167 1132.15 561.299 1132.57 559.414ZM1133.96 547.99L1135.91 548.05C1135.85 550.037 1135.7 552.031 1135.46 553.974L1133.53 553.735C1133.76 551.851 1133.9 549.919 1133.96 547.99ZM1133.41 526.546C1133.74 527.837 1134.03 529.115 1134.3 530.379L1132.39 530.775C1132.13 529.54 1131.84 528.294 1131.52 527.029L1133.41 526.546ZM1135.29 536.217C1135.56 538.225 1135.74 540.196 1135.84 542.121L1133.9 542.222C1133.79 540.348 1133.62 538.431 1133.36 536.472L1135.29 536.217ZM1151.91 693.543L1153.54 694.625C1152.47 696.23 1151.32 697.856 1150.13 699.45L1148.57 698.277C1149.74 696.711 1150.87 695.118 1151.91 693.543ZM1141.47 586.087C1142.82 587.497 1144.15 588.981 1145.42 590.492L1143.93 591.749C1142.68 590.269 1141.38 588.816 1140.06 587.433L1141.47 586.087ZM1157.71 683.525L1159.46 684.389C1158.6 686.131 1157.66 687.882 1156.66 689.601L1154.97 688.625C1155.95 686.942 1156.87 685.226 1157.71 683.525ZM1149.1 595.131C1150.26 596.697 1151.41 598.329 1152.49 599.974L1150.86 601.046C1149.8 599.432 1148.68 597.834 1147.53 596.296L1149.1 595.131ZM1162.1 672.834L1163.95 673.445C1163.34 675.304 1162.65 677.172 1161.9 678.998L1160.09 678.257C1160.83 676.474 1161.5 674.648 1162.1 672.834ZM1155.59 605.01C1156.57 606.711 1157.51 608.461 1158.39 610.218L1156.64 611.091C1155.78 609.369 1154.86 607.649 1153.9 605.984L1155.59 605.01ZM1164.88 661.627L1166.81 661.952C1166.48 663.889 1166.07 665.841 1165.6 667.753L1163.7 667.284C1164.16 665.417 1164.56 663.515 1164.88 661.627ZM1160.86 615.587C1161.64 617.407 1162.36 619.261 1163 621.105L1161.16 621.751C1160.53 619.945 1159.82 618.129 1159.07 616.351L1160.86 615.587ZM1164.78 626.746C1165.32 628.654 1165.79 630.589 1166.18 632.499L1164.27 632.891C1163.88 631.029 1163.42 629.135 1162.9 627.268L1164.78 626.746ZM1165.93 650.127L1167.88 650.157C1167.86 652.126 1167.75 654.116 1167.57 656.076L1165.63 655.901C1165.8 653.987 1165.9 652.05 1165.93 650.127ZM1167.18 638.335C1167.44 640.279 1167.63 642.245 1167.75 644.23L1165.8 644.349C1165.68 642.41 1165.5 640.492 1165.24 638.594L1167.18 638.335Z" fill="white"/>
<path d="M1126.87 531.79L1128.6 536.188L1133.48 530.524L1125.18 512.092L1126.87 531.79Z" fill="#F0C542"/>
<path d="M1119.51 532.856L1125.18 512.092L1129.51 531.409L1119.51 532.856Z" fill="#FAD77E"/>
<path d="M1125.18 512.092L1132.11 530.866L1141.12 528.584L1125.18 512.092Z" fill="#FAD784"/>
<path d="M1128.6 536.187L1129.51 531.408L1126.87 531.79L1128.6 536.187Z" fill="#DBAB33"/>
<path d="M763.798 779C1001.76 779 1194.66 764.032 1194.66 745.568C1194.66 727.104 1001.76 712.136 763.798 712.136C525.838 712.136 332.932 727.104 332.932 745.568C332.932 764.032 525.838 779 763.798 779Z" fill="#1A2B42" fill-opacity="0.12"/>
<path d="M598.177 741.109C588.725 745.814 567.494 750.891 539.843 750.891C461.263 750.891 420.773 701.985 420.773 637.23C420.773 559.639 476.074 516.469 544.874 516.469C571.537 516.469 591.759 521.877 600.88 526.602L590.417 567.396C579.953 563.024 565.47 558.979 547.247 558.979C506.453 558.979 474.734 583.596 474.734 634.172C474.734 679.715 501.704 708.377 547.6 708.377C563.096 708.377 580.283 704.99 590.417 700.947L598.177 741.109Z" fill="white"/>
<path d="M638.524 523.241C655.053 520.514 679.672 518.492 706.993 518.492C740.734 518.492 764.342 523.57 780.518 536.385C794.013 547.177 801.419 563.026 801.419 583.952C801.419 612.943 780.846 632.833 761.284 639.911V640.946C777.131 647.341 785.925 662.533 791.639 683.411C798.716 709.062 805.817 738.738 810.191 747.507H757.569C753.878 741.111 748.47 722.536 741.722 694.556C735.655 666.224 725.874 658.466 704.971 658.135H689.453V747.507H638.524V523.241ZM689.453 621.03H709.698C735.327 621.03 750.516 608.215 750.516 588.324C750.516 567.397 736.338 556.958 712.73 556.628C700.245 556.628 693.168 557.615 689.453 558.297V621.03Z" fill="white"/>
<path d="M1037.37 660.508C1036.38 633.186 1035.35 600.127 1035.35 567.07H1034.36C1027.26 596.084 1017.81 628.437 1009.06 655.102L981.409 743.792H941.249L916.984 655.762C909.554 629.144 901.795 596.743 896.41 567.071H895.728C894.389 597.779 893.378 632.834 891.685 661.169L887.64 747.507H840.097L854.582 520.187H923.049L945.317 596.084C952.392 622.372 959.469 650.728 964.525 677.346H965.561C971.956 651.057 979.716 621.032 987.145 595.756L1011.41 520.187H1078.52L1091.02 747.507H1040.76L1037.37 660.508Z" fill="white"/>
<path d="M473.415 625.407C473.338 625.457 471.489 626.63 468.257 628.402L467.318 626.694C470.491 624.951 472.351 623.77 472.368 623.761L473.415 625.407ZM463.024 631.151C461.399 631.965 459.616 632.825 457.697 633.7L456.889 631.924C458.784 631.06 460.544 630.212 462.149 629.406L463.024 631.151ZM452.282 636.05C450.52 636.779 448.681 637.496 446.777 638.193L446.108 636.359C447.985 635.673 449.8 634.965 451.539 634.247L452.282 636.05ZM441.185 640.1C439.267 640.709 437.356 641.261 435.508 641.747L435.012 639.863C436.83 639.382 438.709 638.837 440.598 638.237L441.185 640.1ZM429.748 643.103C427.786 643.503 425.826 643.844 423.918 644.115L423.649 642.181C425.514 641.916 427.434 641.584 429.356 641.192L429.748 643.103ZM418.022 644.727C416.003 644.863 414.005 644.913 412.081 644.876L412.117 642.928C413.985 642.958 415.927 642.911 417.892 642.779L418.022 644.727ZM406.144 644.488C404.139 644.254 402.163 643.913 400.275 643.476L400.716 641.572C402.533 641.995 404.435 642.322 406.37 642.548L406.144 644.488ZM394.568 641.773C392.687 641.078 390.853 640.259 389.121 639.335L390.04 637.612C391.695 638.496 393.447 639.28 395.244 639.944L394.568 641.773ZM384.064 636.17C382.479 635.016 380.943 633.727 379.499 632.341L380.85 630.935C382.232 632.258 383.699 633.492 385.213 634.595L384.064 636.17ZM376.993 626.711L375.473 627.936C374.261 626.429 373.096 624.798 372.01 623.087L373.659 622.042C374.704 623.693 375.826 625.262 376.993 626.711ZM370.831 617.031L369.088 617.906C368.223 616.189 367.402 614.369 366.653 612.498L368.463 611.773C369.194 613.591 369.991 615.361 370.831 617.031ZM366.512 606.332L364.651 606.924C364.074 605.109 363.527 603.197 363.032 601.241L364.923 600.763C365.411 602.681 365.945 604.553 366.512 606.332ZM483.903 496.302C482.094 497.3 480.061 497.971 478.025 498.235L477.772 496.3C479.542 496.07 481.384 495.464 482.955 494.594L483.903 496.302ZM488.552 492.099L486.913 491.04C487.881 489.54 488.296 487.871 488.15 486.076L490.095 485.918C490.276 488.15 489.755 490.23 488.552 492.099ZM363.658 595.103L361.742 595.481C361.37 593.594 361.035 591.641 360.74 589.67L362.671 589.383C362.96 591.322 363.291 593.249 363.658 595.103ZM471.784 497.447C469.922 496.66 468.239 495.407 466.772 493.724L468.246 492.443C469.515 493.901 470.959 494.98 472.544 495.65L471.784 497.447ZM488.107 480.013L486.417 480.986C485.789 479.899 484.99 478.777 484.041 477.65C483.723 477.274 483.383 476.893 483.025 476.507L484.456 475.178C484.836 475.585 485.196 475.991 485.532 476.391C486.558 477.607 487.424 478.825 488.107 480.013ZM361.928 583.616L359.987 583.827C359.781 581.927 359.603 579.974 359.457 577.965L361.403 577.821C361.545 579.807 361.722 581.74 361.928 583.616ZM465.35 487.732L463.561 488.506C462.801 486.742 462.209 484.792 461.808 482.712L463.723 482.342C464.098 484.284 464.648 486.099 465.35 487.732ZM361.067 572.01L359.118 572.091C359.037 570.18 358.981 568.223 358.954 566.214L360.904 566.185C360.931 568.173 360.988 570.116 361.067 572.01ZM478.847 472.597C478.243 472.094 477.602 471.586 476.928 471.069C476.131 470.462 475.225 469.877 474.23 469.336L475.167 467.622C476.248 468.212 477.238 468.851 478.113 469.52C478.808 470.052 479.466 470.578 480.094 471.095L478.847 472.597ZM463.132 476.689L461.182 476.736C461.136 474.791 461.233 472.78 461.472 470.758L463.41 470.984C463.181 472.918 463.088 474.835 463.132 476.689ZM360.895 560.357L358.943 560.337C358.964 558.419 359.007 556.46 359.072 554.463L361.023 554.527C360.958 556.514 360.915 558.455 360.895 560.357ZM469.014 467.1C467.303 466.526 465.437 466.027 463.471 465.618L463.57 465.135L462.54 464.883C463.008 462.981 463.6 461.064 464.299 459.184L466.127 459.866C465.631 461.201 465.19 462.557 464.811 463.911C466.506 464.295 468.126 464.742 469.633 465.248L469.014 467.1ZM361.276 548.7L359.329 548.598C359.401 547.216 359.487 545.816 359.582 544.396C359.617 543.837 359.66 543.282 359.704 542.731L361.648 542.888C361.605 543.431 361.564 543.976 361.528 544.525C361.432 545.934 361.348 547.327 361.276 548.7ZM457.778 464.711C455.916 464.499 453.976 464.351 452.011 464.274L452.087 462.323C454.1 462.403 456.091 462.551 458 462.769L457.778 464.711ZM468.421 454.596L466.677 453.725C467.55 451.974 468.535 450.231 469.6 448.545L471.249 449.586C470.219 451.218 469.267 452.904 468.421 454.596ZM474.558 444.872L473.012 443.681C474.21 442.132 475.505 440.609 476.858 439.152L478.287 440.48C476.974 441.894 475.719 443.371 474.558 444.872ZM494.757 427.286C493.639 427.959 492.556 428.643 491.506 429.341L490.425 427.716C491.501 427 492.609 426.3 493.751 425.614L494.757 427.286ZM486.809 432.71C485.25 433.922 483.777 435.161 482.389 436.422L481.074 434.981C482.5 433.682 484.014 432.408 485.614 431.169L486.809 432.71ZM362.272 537.123L360.34 536.861C360.608 534.884 360.934 532.919 361.302 531.029L363.219 531.403C362.854 533.26 362.536 535.183 362.272 537.123ZM446.223 464.251C444.314 464.308 442.366 464.425 440.44 464.603L440.26 462.659C442.228 462.478 444.217 462.357 446.166 462.302L446.223 464.251ZM364.499 525.756L362.61 525.262C363.11 523.341 363.672 521.433 364.286 519.59L366.137 520.205C365.539 522.005 364.989 523.873 364.499 525.756ZM434.681 465.304C432.788 465.594 430.867 465.943 428.979 466.345L428.57 464.437C430.497 464.028 432.455 463.671 434.387 463.375L434.681 465.304ZM368.143 514.78L366.336 514.039C367.086 512.213 367.907 510.396 368.779 508.645L370.528 509.514C369.675 511.223 368.874 512.996 368.143 514.78ZM423.344 467.721C421.49 468.231 419.627 468.806 417.805 469.427L417.176 467.579C419.035 466.946 420.934 466.361 422.828 465.84L423.344 467.721ZM373.289 504.439L371.61 503.441C372.616 501.747 373.699 500.072 374.827 498.464L376.424 499.584C375.325 501.154 374.27 502.785 373.289 504.439ZM412.38 471.462C410.593 472.198 408.816 472.994 407.096 473.831L406.239 472.079C407.995 471.223 409.81 470.409 411.639 469.658L412.38 471.462ZM401.979 476.534C400.296 477.498 398.638 478.521 397.055 479.575L395.971 477.95C397.594 476.87 399.289 475.824 401.009 474.841L401.979 476.534ZM379.92 494.988L378.413 493.748C379.664 492.228 380.987 490.737 382.351 489.318L383.758 490.667C382.43 492.053 381.14 493.506 379.92 494.988ZM392.355 482.946C390.841 484.118 389.36 485.349 387.915 486.648L386.611 485.195C388.092 483.869 389.611 482.604 391.161 481.405L392.355 482.946Z" fill="white"/>
<path d="M494.72 433.942L490.392 435.849L490.904 428.393L509.765 421.117L494.72 433.942Z" fill="#F0C542"/>
<path d="M499.204 439.871L509.765 421.117L493.107 431.811L499.204 439.871Z" fill="#FAD77E"/>
<path d="M509.765 421.117L491.636 429.597L486.829 421.639L509.765 421.117Z" fill="#FAD784"/>
<path d="M490.392 435.849L493.107 431.811L494.72 433.942L490.392 435.849Z" fill="#DBAB33"/>
<path d="M777.847 468.622C776.732 468.622 775.65 468.81 774.606 469.127C772.476 465.392 769.11 462.97 765.314 462.97C762.906 462.97 760.664 463.946 758.805 465.61C758.132 459.016 753.901 453.93 748.765 453.93C743.245 453.93 738.769 459.799 738.638 467.112C736.848 465.846 734.81 465.12 732.637 465.12C726.583 465.12 721.527 470.706 720.17 478.216C719.252 477.812 718.268 477.593 717.248 477.593C712.983 477.593 709.377 481.375 708.224 486.568H792.11C791.68 476.563 785.471 468.622 777.847 468.622Z" fill="#EAEAE8"/>
<path d="M748.765 453.93C743.245 453.93 738.769 459.799 738.638 467.112C736.848 465.846 734.81 465.12 732.637 465.12C726.583 465.12 721.527 470.706 720.17 478.216C719.252 477.812 718.268 477.593 717.248 477.593C712.983 477.593 709.377 481.375 708.224 486.568H725.184C727.283 484.102 728.686 481.094 729.123 477.795C732.589 479.71 736.671 480.821 741.047 480.821C752.596 480.821 762.115 473.115 763.492 463.16C761.779 463.522 760.186 464.375 758.804 465.613C758.132 459.016 753.9 453.93 748.765 453.93Z" fill="#F9F9F9"/>
<path d="M1086.96 459.291C1085.15 459.291 1083.41 459.594 1081.72 460.108C1078.26 454.058 1072.81 450.141 1066.67 450.141C1062.76 450.141 1059.14 451.717 1056.12 454.409C1055.03 443.732 1048.17 435.491 1039.86 435.491C1030.92 435.491 1023.67 444.999 1023.45 456.849C1020.55 454.795 1017.25 453.619 1013.74 453.619C1003.93 453.619 995.743 462.673 993.542 474.831C992.059 474.181 990.461 473.819 988.815 473.819C981.905 473.819 976.062 479.949 974.199 488.356H1110.06C1109.37 472.152 1099.31 459.291 1086.96 459.291Z" fill="#EAEAE8"/>
<path d="M1039.86 435.491C1030.92 435.491 1023.67 444.999 1023.45 456.849C1020.55 454.795 1017.25 453.619 1013.74 453.619C1003.93 453.619 995.743 462.673 993.542 474.831C992.059 474.181 990.461 473.819 988.815 473.819C981.905 473.819 976.062 479.949 974.199 488.356H1001.67C1005.07 484.362 1007.34 479.491 1008.05 474.148C1013.65 477.253 1020.27 479.045 1027.36 479.045C1046.07 479.045 1061.48 466.566 1063.72 450.444C1060.94 451.028 1058.36 452.407 1056.12 454.411C1055.03 443.732 1048.17 435.491 1039.86 435.491Z" fill="#F9F9F9"/>
<path d="M940.748 660.028C945.305 660.031 945.12 673.698 948.812 676.366C952.503 679.04 965.827 674.549 966.842 678.987C967.86 683.428 954.652 687.232 953.795 691.706C952.942 696.18 960.786 707.324 956.877 709.663C952.967 712.001 945.268 700.615 940.748 701.184C936.232 701.754 928.056 712.657 924.622 709.663C921.19 706.668 929.64 695.826 927.703 691.706C925.764 687.584 912.87 683.18 914.656 678.987C916.44 674.797 929.36 679.479 932.686 676.366C936.013 673.256 936.198 660.028 940.748 660.028Z" fill="#FDD247"/>
<path d="M1003.69 660.028C1008.25 660.031 1008.06 673.698 1011.76 676.366C1015.44 679.04 1028.77 674.549 1029.78 678.987C1030.8 683.428 1017.59 687.232 1016.74 691.706C1015.88 696.18 1023.73 707.324 1019.82 709.663C1015.91 712.001 1008.21 700.615 1003.69 701.184C999.175 701.754 991.001 712.657 987.563 709.663C984.133 706.668 992.584 695.826 990.646 691.706C988.706 687.584 975.812 683.18 977.599 678.987C979.383 674.797 992.304 679.479 995.628 676.366C998.951 673.256 999.141 660.028 1003.69 660.028Z" fill="#FDD247"/>
<path d="M1068.58 740.263C1068.58 740.263 1037.14 701.981 1018.13 706.268C1006.32 708.93 999.282 750.509 999.282 750.509H1008.96L1022.46 726.654L1043.1 750.509L1068.58 740.263Z" fill="#427242"/>
<path d="M1091.5 742.953C1091.5 742.953 1093.54 759.257 1074.69 758.243C1074.69 758.243 1031.9 755.531 1017.63 755.969C1005.73 756.336 970.243 760.785 970.243 760.785V751.875L1025.78 740.237C1025.78 740.237 1073.16 736.842 1091.5 742.953Z" fill="#538854"/>
<path d="M970.244 751.877C970.244 751.877 967.183 751.491 965.653 745.949C964.125 740.406 961.067 741.302 961.577 745.949C962.087 750.599 960.559 762.318 964.125 760.787C967.7 759.264 970.244 760.787 970.244 760.787V751.877Z" fill="#312E3F"/>
<path d="M1070.45 701.171C1070.45 701.171 1062.32 728.666 1052.05 723.389C1041.78 718.112 1036.64 710.761 1036.64 710.761L1038.33 704.389C1038.33 704.389 1048.7 719.581 1056.11 715.31C1059.32 713.453 1062.69 698.976 1062.69 698.976L1070.45 701.171Z" fill="#F99C73"/>
<path d="M1060.48 702.659L1073.18 706.647C1073.18 706.647 1079.56 688.799 1072.42 688.184C1065.28 687.569 1062.37 698.034 1060.48 702.659Z" fill="#FDD247"/>
<path d="M1126.45 705.178C1126.45 705.178 1135.17 709.819 1132.49 715.077C1129.81 720.334 1120.43 725.964 1123.45 734.757C1126.46 743.548 1136.44 748.708 1127.93 751.286C1119.42 753.862 1095.26 734.72 1093.62 731.979C1091.99 729.23 1110.3 707.082 1110.3 707.082L1126.45 705.178Z" fill="#312E3F"/>
<path d="M1087.54 664.369C1087.54 664.369 1093.28 667.15 1093.31 671.678C1093.34 676.199 1100.34 683.571 1106.19 685.106C1142.46 694.602 1112.99 694.579 1128.58 707.083C1135.17 712.378 1113.22 704.599 1103.25 731.246C1101.56 735.765 1096.81 718.038 1095.71 715.341C1094.61 712.654 1085.19 698.6 1084.35 694.047C1083.49 689.479 1077.87 690.994 1076.39 687.662C1074.92 684.315 1077.14 680.159 1076.51 678.327C1074.25 671.612 1077.76 667.221 1081.61 664.602C1085.45 661.973 1087.54 664.369 1087.54 664.369Z" fill="#312E3F"/>
<path d="M1042.65 694.266C1037.93 694.269 1038.12 707.904 1034.3 710.566C1030.47 713.234 1016.65 708.755 1015.59 713.184C1014.54 717.613 1028.24 721.409 1029.13 725.876C1030.01 730.339 1021.88 741.457 1025.93 743.795C1029.99 746.13 1037.97 734.763 1042.65 735.333C1047.34 735.905 1055.82 746.785 1059.38 743.795C1062.95 740.807 1054.18 729.989 1056.19 725.876C1058.2 721.762 1071.58 717.367 1069.72 713.184C1067.87 709.001 1054.47 713.673 1051.02 710.566C1047.57 707.466 1047.38 694.266 1042.65 694.266Z" fill="#FDD247"/>
<path d="M1092.31 687.073C1092.31 687.073 1106.6 692.298 1102.51 710.49C1098.43 728.684 1091.22 745.052 1091.22 745.052C1091.22 745.052 1074.75 744.016 1066.18 738.541C1066.18 738.541 1051.08 673.052 1092.31 687.073Z" fill="#4E49A3"/>
<path d="M1098.89 703.808C1098.89 703.808 1102.78 735.976 1089.65 734.74C1076.52 733.503 1058.19 723.138 1058.19 723.138L1059.71 719.398C1059.71 719.398 1084.42 732.15 1090.26 724.588C1092.79 721.303 1089.78 704.744 1089.78 704.744L1098.89 703.808Z" fill="#F99C73"/>
<path d="M1086.81 711.773L1100.06 713.402C1100.06 713.402 1102.85 694.715 1095.72 695.399C1088.59 696.088 1087.77 706.89 1086.81 711.773Z" fill="#FDD247"/>
<path d="M1087.82 676.898L1089.79 686.788C1089.79 686.788 1078.18 694.856 1079.5 690.025C1080.72 685.549 1081.74 676.592 1081.74 676.592L1087.82 676.898Z" fill="#F99C73"/>
<path d="M1088.32 665.68C1088.97 667.712 1090.27 671.672 1089.11 674.243C1087.92 676.824 1086.15 681.435 1083.3 682.413C1080.45 683.399 1079.86 679.973 1079.32 678.817C1078.76 677.669 1077.78 666.528 1082.42 664.105C1085.91 662.284 1087.83 664.13 1088.32 665.68Z" fill="#F99C73"/>
<path d="M1083.96 666.67C1083.96 666.67 1086.27 672.67 1089.93 674.061C1089.93 674.061 1090.94 664.846 1085.74 663.404C1085.74 663.404 1079.44 662.649 1078.49 671.022C1078.49 671.022 1083.47 669.535 1083.96 666.67Z" fill="#312E3F"/>
<path d="M1062.5 720.744C1062.5 720.744 1058.94 716.245 1055.17 715.834C1051.41 715.42 1050.9 717.493 1050.4 720.085C1049.9 722.672 1055.84 721.872 1058.19 723.14C1060.54 724.403 1062.5 720.744 1062.5 720.744Z" fill="#F99C73"/>
<path d="M390.368 623.769C390.368 623.769 363.109 589.4 371.149 570.871C379.197 552.344 391.822 549.035 414.174 549.035C436.527 549.035 497.677 544.921 509.529 555.666C521.38 566.415 532.736 599.776 500.174 604.242C467.62 608.704 408.834 605.306 403.487 604.818C398.145 604.33 390.368 623.769 390.368 623.769Z" fill="#312E3F"/>
<path d="M404.177 568.849C405.858 568.849 405.785 573.867 407.141 574.849C408.499 575.829 413.392 574.18 413.766 575.811C414.136 577.444 409.288 578.84 408.972 580.483C408.662 582.122 411.541 586.22 410.105 587.079C408.669 587.939 405.844 583.754 404.177 583.965C402.524 584.175 399.522 588.179 398.257 587.079C396.992 585.979 400.101 581.998 399.39 580.483C398.673 578.968 393.943 577.351 394.596 575.811C395.255 574.272 399.996 575.991 401.221 574.849C402.446 573.706 402.511 568.849 404.177 568.849Z" fill="#FDD247"/>
<path d="M425.871 568.849C427.545 568.849 427.479 573.867 428.835 574.849C430.193 575.829 435.078 574.18 435.454 575.811C435.823 577.444 430.981 578.84 430.666 580.483C430.349 582.122 433.229 586.22 431.792 587.079C430.356 587.939 427.532 583.754 425.871 583.965C424.219 584.175 421.209 588.179 419.951 587.079C418.686 585.979 421.789 581.998 421.078 580.483C420.366 578.968 415.637 577.351 416.283 575.811C416.949 574.272 421.69 575.991 422.915 574.849C424.14 573.706 424.198 568.849 425.871 568.849Z" fill="#FDD247"/>
<path d="M448.159 568.849C449.832 568.849 449.765 573.867 451.122 574.849C452.471 575.829 457.366 574.18 457.74 575.811C458.11 577.444 453.268 578.84 452.946 580.483C452.636 582.122 455.515 586.22 454.079 587.079C452.643 587.939 449.818 583.754 448.159 583.965C446.498 584.175 443.496 588.179 442.238 587.079C440.973 585.979 444.075 581.998 443.364 580.483C442.652 578.968 437.917 577.351 438.57 575.811C439.229 574.272 443.977 575.991 445.195 574.849C446.414 573.706 446.485 568.849 448.159 568.849Z" fill="#FDD247"/>
<path d="M471.848 568.849C473.529 568.849 473.456 573.867 474.812 574.849C476.168 575.829 481.056 574.18 481.43 575.811C481.807 577.444 476.958 578.84 476.643 580.483C476.326 582.122 479.204 586.22 477.776 587.079C476.34 587.939 473.507 583.754 471.848 583.965C470.195 584.175 467.186 588.179 465.928 587.079C464.663 585.979 467.772 581.998 467.054 580.483C466.342 578.968 461.608 577.351 462.267 575.811C462.926 574.272 467.667 575.991 468.892 574.849C470.115 573.706 470.175 568.849 471.848 568.849Z" fill="#FDD247"/>
<path d="M494.136 568.849C495.809 568.849 495.735 573.867 497.099 574.849C498.455 575.829 503.346 574.18 503.72 575.811C504.09 577.444 499.239 578.84 498.922 580.483C498.613 582.122 501.495 586.22 500.056 587.079C498.619 587.939 495.795 583.754 494.136 583.965C492.475 584.175 489.473 588.179 488.214 587.079C486.949 585.979 490.052 581.998 489.341 580.483C488.629 578.968 483.894 577.351 484.546 575.811C485.205 574.272 489.954 575.991 491.172 574.849C492.396 573.706 492.462 568.849 494.136 568.849Z" fill="#1A1A1E"/>
<path d="M1073.04 643.973C1073.04 643.973 1088.73 624.186 1084.1 613.519C1079.47 602.85 1072.2 600.947 1059.33 600.947C1046.46 600.947 1011.25 598.579 1004.43 604.765C997.61 610.952 991.073 630.161 1009.82 632.731C1028.56 635.302 1062.41 633.343 1065.49 633.064C1068.56 632.784 1073.04 643.973 1073.04 643.973Z" fill="#312E3F"/>
<path d="M1065.08 612.352C1064.12 612.352 1064.16 615.241 1063.38 615.806C1062.6 616.371 1059.78 615.422 1059.57 616.363C1059.35 617.3 1062.14 618.105 1062.32 619.05C1062.5 619.996 1060.85 622.355 1061.67 622.849C1062.5 623.343 1064.13 620.934 1065.08 621.054C1066.04 621.175 1067.76 623.481 1068.49 622.849C1069.22 622.217 1067.43 619.922 1067.84 619.05C1068.25 618.181 1070.98 617.248 1070.6 616.363C1070.22 615.475 1067.49 616.465 1066.79 615.806C1066.09 615.149 1066.04 612.352 1065.08 612.352Z" fill="#FDD247"/>
<path d="M1052.6 612.352C1051.63 612.352 1051.67 615.241 1050.89 615.806C1050.11 616.371 1047.3 615.422 1047.08 616.363C1046.87 617.3 1049.66 618.105 1049.84 619.05C1050.02 619.996 1048.36 622.355 1049.19 622.849C1050.02 623.343 1051.64 620.934 1052.6 621.054C1053.55 621.175 1055.28 623.481 1056.01 622.849C1056.74 622.217 1054.95 619.922 1055.36 619.05C1055.77 618.181 1058.49 617.248 1058.12 616.363C1057.74 615.475 1055.01 616.465 1054.3 615.806C1053.6 615.149 1053.56 612.352 1052.6 612.352Z" fill="#FDD247"/>
<path d="M1039.76 612.352C1038.8 612.352 1038.84 615.241 1038.06 615.806C1037.28 616.371 1034.47 615.422 1034.25 616.363C1034.04 617.3 1036.82 618.105 1037.01 619.05C1037.19 619.996 1035.53 622.355 1036.36 622.849C1037.18 623.343 1038.81 620.934 1039.77 621.054C1040.72 621.175 1042.45 623.481 1043.18 622.849C1043.9 622.217 1042.12 619.922 1042.53 619.05C1042.94 618.181 1045.66 617.248 1045.29 616.363C1044.91 615.475 1042.17 616.465 1041.47 615.806C1040.77 615.149 1040.73 612.352 1039.76 612.352Z" fill="#FDD247"/>
<path d="M1026.12 612.352C1025.16 612.352 1025.2 615.241 1024.42 615.806C1023.64 616.371 1020.82 615.422 1020.61 616.363C1020.39 617.3 1023.18 618.105 1023.37 619.05C1023.55 619.996 1021.89 622.355 1022.72 622.849C1023.54 623.343 1025.17 620.934 1026.12 621.054C1027.08 621.175 1028.81 623.481 1029.54 622.849C1030.26 622.217 1028.48 619.922 1028.89 619.05C1029.3 618.181 1032.02 617.248 1031.65 616.363C1031.27 615.475 1028.53 616.465 1027.83 615.806C1027.12 615.149 1027.09 612.352 1026.12 612.352Z" fill="#1A1A1E"/>
<path d="M1013.29 612.352C1012.33 612.352 1012.37 615.241 1011.59 615.806C1010.81 616.371 1007.99 615.422 1007.78 616.363C1007.57 617.3 1010.36 618.105 1010.54 619.05C1010.72 619.996 1009.06 622.355 1009.89 622.849C1010.71 623.343 1012.34 620.934 1013.29 621.054C1014.25 621.175 1015.98 623.481 1016.7 622.849C1017.43 622.217 1015.65 619.922 1016.06 619.05C1016.47 618.181 1019.19 617.248 1018.82 616.363C1018.44 615.475 1015.71 616.465 1015 615.806C1014.3 615.149 1014.26 612.352 1013.29 612.352Z" fill="#1A1A1E"/>
<path d="M405.414 662.781C405.414 662.781 379.449 641.372 367.346 660.34C355.244 679.306 330.798 739.454 382.817 747.515C434.835 755.575 497.158 754.673 475.622 731.061C454.085 707.452 424.005 674.148 405.414 662.781Z" fill="#427242"/>
<path d="M383.884 652.676C383.884 652.676 355.843 678.785 380.934 707.41C406.022 736.031 454.226 746.546 469.723 724.596C469.723 724.596 418.692 653.102 383.884 652.676Z" fill="#538854"/>
<path d="M394.571 700.107L421.432 702.256L452.887 706.766C452.887 706.766 459.794 706.947 459.326 724.65L459.783 756.554L456.163 756.498C456.163 756.498 447.225 737.277 445.644 721.374C445.644 721.374 420.248 719.96 410.856 715.794C401.467 711.627 392.453 701.283 394.571 700.107Z" fill="#5AA0A0"/>
<path d="M386.826 701.607C386.826 701.607 421.462 705.948 443.574 715.079C448.036 716.923 450.206 716.726 444.67 734.362L436.235 767.039L432.616 765.946C432.616 765.946 430.082 745.036 432.449 728.334C432.449 728.334 406.965 729.576 395.723 725.105C385.765 721.126 383.38 706.491 386.826 701.607Z" fill="#8AC4C5"/>
<path d="M439.529 763.726C439.529 763.726 439.558 767.029 445.256 769.334C450.954 771.643 449.624 774.779 444.752 773.662C439.872 772.546 427.236 772.726 429.303 769.126C431.365 765.516 430.057 762.625 430.057 762.625L439.529 763.726Z" fill="#F45866"/>
<path d="M462.832 755.008C462.832 755.008 462.866 758.307 468.562 760.615C474.266 762.924 472.931 766.062 468.061 764.945C463.184 763.825 450.543 764.007 452.612 760.407C454.674 756.798 453.366 753.908 453.366 753.908L462.832 755.008Z" fill="#F45866"/>
<path d="M414.665 670.167C414.665 670.167 415.032 701.036 426.832 698.329C438.629 695.627 454.043 683.682 454.043 683.682L452.198 680.331C452.198 680.331 435.847 690.596 429.619 684.123C426.919 681.317 423.07 669.993 423.07 669.993L414.665 670.167Z" fill="#F99C73"/>
<path d="M415.764 679.645L426.411 673.589C426.411 673.589 417.758 657.814 412.925 662.262C408.085 666.711 413.671 675.402 415.764 679.645Z" fill="#FDD247"/>
<path d="M404.549 653.24C404.549 653.24 419.792 655.713 418.57 673.506C417.349 691.303 424.096 699.198 417.434 704.84C412.409 709.098 395.163 712.156 385.645 708.475C385.645 708.475 360.742 647.105 404.549 653.24Z" fill="#D99C31"/>
<path d="M395.281 647.042L393.118 655.966C393.118 655.966 395.703 660.957 401.77 655.746L399.486 646.472L395.281 647.042Z" fill="#F99C73"/>
<path d="M394.7 632.569C393.627 634.198 391.502 637.36 392.025 639.898C392.532 642.442 393.176 646.924 395.634 648.479C398.096 650.041 400.155 647.977 400.811 647.005C401.853 645.423 404.424 635.877 400.621 632.631C397.745 630.184 395.513 631.338 394.7 632.569Z" fill="#F99C73"/>
<path d="M407.938 632.553C407.938 632.553 399.697 636.236 396.878 634.893C394.063 633.54 393.832 636.555 393.765 636.871C393.701 637.197 393.347 641.487 392.303 641.353C391.255 641.204 390.955 635.701 393.19 632.514C395.414 629.326 407.103 627.795 407.938 632.553Z" fill="#171B23"/>
<path d="M382.083 673.273C382.083 673.273 382.452 704.144 394.252 701.439C406.044 698.733 421.462 686.791 421.462 686.791L419.617 683.436C419.617 683.436 403.264 693.704 397.039 687.23C394.339 684.425 390.489 673.1 390.489 673.1L382.083 673.273Z" fill="#F99C73"/>
<path d="M381.156 680.995L392.221 675.744C392.221 675.744 384.759 659.372 379.605 663.449C374.452 667.528 379.379 676.61 381.156 680.995Z" fill="#FDD247"/>
<path d="M429.635 703.192L401.321 703.789L401.378 706.496L429.692 705.899L429.635 703.192Z" fill="#59589E"/>
<path d="M474.182 677.984L434.761 678.811L427.189 705.947L466.586 705.107L474.182 677.984Z" fill="#59589E"/>
<path d="M448.762 694.015C448.8 695.923 450.388 697.44 452.293 697.398C454.211 697.359 455.732 695.778 455.692 693.867C455.654 691.952 454.063 690.438 452.152 690.476C450.243 690.518 448.719 692.097 448.762 694.015Z" fill="#EAEAEA"/>
<path d="M619.473 639.347C619.473 639.347 613.309 661.039 605.509 656.874C597.709 652.711 593.808 646.91 593.808 646.91L595.091 641.885C595.091 641.885 602.959 653.868 608.588 650.497C611.027 649.038 613.579 637.611 613.579 637.611L619.473 639.347Z" fill="#F99C73"/>
<path d="M611.5 639.604L624.422 643.827C624.422 643.827 630.919 624.938 623.65 624.287C616.386 623.64 613.42 634.713 611.5 639.604Z" fill="#538854"/>
<path d="M678.661 642.27C678.661 642.27 687.545 647.184 684.816 652.749C682.085 658.312 672.533 664.271 675.603 673.573C678.673 682.877 665.215 697.021 656.553 699.75C647.895 702.481 646.906 673.535 645.238 670.628C643.571 667.721 662.223 644.287 662.223 644.287L678.661 642.27Z" fill="#312E3F"/>
<path d="M639.048 599.087C639.048 599.087 644.893 602.032 644.921 606.821C644.954 611.602 652.075 619.403 658.035 621.027C694.962 631.08 664.962 631.052 680.823 644.287C687.538 649.886 665.201 641.655 655.04 669.851C653.32 674.639 648.488 655.88 647.363 653.025C646.244 650.185 636.662 635.313 635.805 630.494C634.933 625.659 629.202 627.264 627.695 623.734C626.198 620.197 628.465 615.795 627.824 613.858C625.517 606.754 629.089 602.107 633.013 599.331C636.928 596.55 639.048 599.087 639.048 599.087Z" fill="#312E3F"/>
<path d="M642.791 684.466C642.791 684.466 642.465 710.8 640.843 718.688C638.625 729.47 634.418 752.992 634.418 752.992L630.704 750.502C630.704 750.502 633.789 723.46 631.638 715.563C629.491 707.665 625.989 681.548 625.989 681.548L642.791 684.466Z" fill="#F99C73"/>
<path d="M617.3 677.575C617.3 677.575 617.031 712.696 618.649 720.582C620.867 731.367 625.667 754.411 625.667 754.411L629.378 751.919C629.378 751.919 626.103 725.169 628.251 717.271C630.4 709.374 634.088 682.966 634.088 682.966L617.3 677.575Z" fill="#F99C73"/>
<path d="M643.904 623.111C643.904 623.111 658.448 628.642 654.292 647.895C650.136 667.147 642.791 684.466 642.791 684.466C642.791 684.466 626.026 683.369 617.3 677.575C617.3 677.575 601.923 608.278 643.904 623.111Z" fill="#FDD247"/>
<path d="M639.329 612.347L641.337 622.811C641.337 622.811 629.518 631.346 630.861 626.236C632.107 621.499 633.147 612.021 633.147 612.021L639.329 612.347Z" fill="#F99C73"/>
<path d="M639.843 600.477C640.508 602.625 641.825 606.816 640.638 609.535C639.435 612.266 637.631 617.145 634.731 618.181C631.828 619.225 631.228 615.597 630.673 614.375C630.114 613.163 629.111 601.373 633.833 598.812C637.383 596.881 639.341 598.838 639.843 600.477Z" fill="#F99C73"/>
<path d="M635.401 601.521C635.401 601.521 637.754 607.868 641.476 609.345C641.476 609.345 642.509 599.591 637.218 598.068C637.218 598.068 630.8 597.268 629.833 606.125C629.833 606.125 634.902 604.553 635.401 601.521Z" fill="#312E3F"/>
<path d="M646.387 675.094C646.387 675.094 636.706 680.295 615.762 670.377C615.762 670.377 602.862 693.805 597.316 703.923C595.563 707.116 596.171 715.044 600.617 713.45C605.069 711.854 617.798 708.92 624.642 715.358C630.747 721.104 637.295 706.249 647.861 714.631C655.501 720.697 656.987 719.059 661.537 715.563C666.093 712.066 646.387 675.094 646.387 675.094Z" fill="#8AC4C5"/>
<path d="M631.047 750.731C631.047 750.731 627.553 755.526 635.038 758.769C642.517 762.014 650.832 761.705 646.811 757.842C642.794 753.979 632.971 750.661 631.047 750.731Z" fill="#5AA0A0"/>
<path d="M629.028 751.36C629.028 751.36 632.791 754.676 627.012 758.991C621.235 763.299 614.162 764.785 616.904 760.678C619.646 756.572 627.386 751.705 629.028 751.36Z" fill="#5AA0A0"/>
<path d="M684.029 609.551C680.388 613.046 674.11 617.186 672.124 615.116C670.138 613.044 673.588 606.511 677.232 603.013C680.869 599.525 682.926 600.112 684.91 602.182C686.9 604.251 687.673 606.061 684.029 609.551Z" fill="#F45866"/>
<path d="M668.359 583.871C665.993 588.903 661.171 595.638 658.316 594.293C655.45 592.946 656.422 584.864 658.787 579.834C661.15 574.806 663.495 574.596 666.353 575.94C669.214 577.292 670.73 578.837 668.359 583.871Z" fill="#D99C31"/>
<path d="M648.26 642.074C648.26 642.074 632.326 672.417 622.026 663.798C611.725 655.169 602.501 635.59 602.501 635.59L606.017 633.197C606.017 633.197 619.174 658.534 628.596 655.272C632.679 653.86 640.034 637.662 640.034 637.662L648.26 642.074Z" fill="#F99C73"/>
<path d="M633.352 642.1L643.518 651.131C643.518 651.131 657.017 636.407 650.612 632.91C644.213 629.414 637.073 638.385 633.352 642.1Z" fill="#538854"/>
<path d="M607.115 635.287C607.115 635.287 604.208 630.057 600.472 629.077C596.733 628.096 595.916 630.195 595.018 632.836C594.119 635.474 600.229 635.499 602.406 637.167C604.587 638.831 607.115 635.287 607.115 635.287Z" fill="#F99C73"/>
<path d="M623.582 463.503C623.582 463.503 570.752 454.348 571.059 480.13C571.362 505.914 559.021 521.974 610.042 529.725L628.956 558.815L646.425 536.073C646.425 536.073 690.699 534.717 689.064 513.817C687.437 492.921 715.173 461.926 623.582 463.503Z" fill="#B967A1"/>
<path d="M634.085 493.811C638.978 505.688 637.436 517.588 630.626 520.397C623.823 523.204 614.335 515.852 609.436 503.977C604.54 492.105 606.086 480.206 612.89 477.396C619.7 474.589 629.187 481.936 634.085 493.811Z" fill="white"/>
<path d="M647.153 505.938C641.452 517.449 631.482 524.131 624.885 520.861C618.291 517.593 617.563 505.615 623.266 494.102C628.963 482.595 638.932 475.915 645.53 479.179C652.129 482.449 652.849 494.425 647.153 505.938Z" fill="white"/>
<path d="M562.81 577.165C562.81 577.165 526.533 570.881 526.75 588.579C526.953 606.285 518.479 617.315 553.512 622.639L566.499 642.61L578.498 626.998C578.498 626.998 608.899 626.066 607.777 611.716C606.654 597.367 625.702 576.085 562.81 577.165Z" fill="#B967A1"/>
<path d="M570.019 597.975C573.38 606.131 572.326 614.305 567.647 616.229C562.975 618.157 556.458 613.11 553.098 604.958C549.737 596.803 550.797 588.63 555.469 586.705C560.142 584.779 566.659 589.824 570.019 597.975Z" fill="white"/>
<path d="M578.995 606.3C575.08 614.205 568.235 618.795 563.708 616.552C559.175 614.308 558.677 606.081 562.591 598.179C566.505 590.275 573.35 585.691 577.878 587.93C582.412 590.177 582.909 598.401 578.995 606.3Z" fill="white"/>
<path d="M885.357 680.306C885.357 680.306 877.692 703.764 867.768 710.977C857.844 718.194 844.31 736.687 841.154 747.062C838 757.431 838 757.431 838 757.431H831.683C831.683 757.431 837.86 695.19 861.765 680.306H885.357Z" fill="#B967A1"/>
<path d="M885.357 680.306C885.357 680.306 888.652 715.256 892.264 718.87C895.872 722.478 918.283 731.273 918.283 731.273V736.796C918.283 736.796 878.764 750.812 861.764 716.236L885.357 680.306Z" fill="#A34F8F"/>
<path d="M829.456 756.361C829.456 756.361 829.423 759.652 823.746 761.954C818.066 764.255 819.391 767.38 824.248 766.266C829.11 765.156 841.699 765.332 839.64 761.748C837.59 758.153 838.889 755.271 838.889 755.271L829.456 756.361Z" fill="#312E3F"/>
<path d="M916.361 739.023C916.361 739.023 919.542 739.855 920.383 745.926C921.228 751.993 924.58 751.474 924.687 746.492C924.795 741.504 928.049 729.342 924.068 730.461C920.08 731.571 917.601 729.604 917.601 729.604L916.361 739.023Z" fill="#312E3F"/>
<path d="M841.612 633.283C841.612 633.283 829.496 635.392 819.503 626.883C809.506 618.373 800.661 599.165 800.661 599.165L804.117 596.864C804.117 596.864 816.366 616.294 825.732 618.961C837.469 622.302 845.542 622.798 845.542 622.798L841.612 633.283Z" fill="#F99C73"/>
<path d="M835.267 634.045L837.565 620.967C837.565 620.967 856.83 624.043 854.051 630.604C851.275 637.17 840.366 634.634 835.267 634.045Z" fill="#427242"/>
<path d="M867.327 621.705C867.327 621.705 884.05 622.589 884.818 641.918C885.581 661.246 888.318 682.261 888.318 682.261C888.318 682.261 866.308 688.38 855.619 685.527C855.619 685.527 819.374 620.218 867.327 621.705Z" fill="#312E3F"/>
<path d="M853.792 629.484L857.666 637.752L851.275 643.881L847.446 636.837L853.792 629.484Z" fill="#D99C31"/>
<path d="M851.951 643.232C851.951 643.232 852.723 680.481 866.949 684.813L870.694 694.668L859.27 691.382C859.27 691.382 838.603 677.722 849.552 640.703L851.951 643.232Z" fill="#D99C31"/>
<path d="M863.332 617.347L867.242 626.504C867.242 626.504 865.369 632.302 857.949 627.818L858.735 617.491L863.332 617.347Z" fill="#F99C73"/>
<path d="M861.36 601.763C862.801 603.314 865.644 606.313 865.542 609.124C865.451 611.936 865.566 616.843 863.21 618.948C860.852 621.058 858.285 619.221 857.413 618.299C856.012 616.792 851.557 607.043 855.04 602.888C857.679 599.755 860.277 600.589 861.36 601.763Z" fill="#F99C73"/>
<path d="M847.2 604.116C847.2 604.116 856.677 606.582 859.453 604.641C862.222 602.691 863.003 605.871 863.134 606.201C863.264 606.535 864.409 611.06 865.503 610.731C866.594 610.377 865.933 604.444 862.969 601.434C860.017 598.422 847.244 598.875 847.2 604.116Z" fill="#171B23"/>
<path d="M868.029 645.629C868.029 645.629 846.883 671.59 838.697 661.333C830.506 651.074 825.482 630.536 825.482 630.536L829.311 628.929C829.311 628.929 836.258 648.679 845.919 647.386C850.101 646.827 861.014 639.812 861.014 639.812L868.029 645.629Z" fill="#F99C73"/>
<path d="M868.569 648.263L859.352 638.699C859.352 638.699 873.189 624.941 876.856 631.047C880.521 637.16 872.051 644.486 868.569 648.263Z" fill="#427242"/>
<path d="M829.311 628.929C829.311 628.929 828.658 618.905 825.482 620.968C822.309 623.029 825.482 630.535 825.482 630.535L829.311 628.929Z" fill="#F99C73"/>
<path d="M817.156 597.018C817.156 597.018 801.152 594.431 792.303 581.396C790.029 578.046 784.011 571.457 791.816 539.251C792.558 536.193 786.314 525.906 779.395 537.211C772.476 548.512 769.608 557.107 771.17 565.058C771.17 565.058 771.42 568.878 759.321 563.963C750.886 560.536 749.684 569.456 751.193 573.155C751.193 573.155 744.324 573.249 741.971 581.5C741.971 581.5 741.558 585.937 744.92 588.883C744.92 588.883 732.381 594.946 738.398 603.237C738.398 603.237 719.146 612.199 736.683 622.266C736.683 622.266 748.234 630.562 770.224 632.173C792.211 633.788 792.191 636.061 798.213 638.817C804.236 641.572 804.236 641.572 804.236 641.572L818.825 597.699L817.156 597.018Z" fill="#F99C73"/>
<path d="M816.278 596.661L800.992 640.09L809.42 643.594L827.06 599.848L816.278 596.661Z" fill="#538854"/>
<path d="M791.973 533.692C791.973 533.692 785.575 534.27 785.075 540.348C784.574 546.431 786.595 547.935 787.263 547.872C787.929 547.811 791.121 545.379 791.858 542.872C792.598 540.367 795.393 533.961 791.973 533.692Z" fill="#FDD247"/>
<path d="M918.418 460.354C918.418 481.011 901.671 497.756 881.019 497.756C860.364 497.756 843.62 481.009 843.62 460.354C843.62 439.696 860.364 422.955 881.019 422.955C901.671 422.955 918.418 439.696 918.418 460.354Z" fill="#FDD247"/>
<path d="M872.173 450.583C872.173 454.112 869.308 456.974 865.779 456.974C862.251 456.974 859.385 454.112 859.385 450.583C859.385 447.052 862.251 444.186 865.779 444.186C869.308 444.186 872.173 447.05 872.173 450.583Z" fill="#8F3F1F"/>
<path d="M900.239 450.583C900.239 454.112 897.376 456.974 893.847 456.974C890.314 456.974 887.45 454.112 887.45 450.583C887.45 447.052 890.316 444.186 893.847 444.186C897.376 444.186 900.239 447.05 900.239 450.583Z" fill="#8F3F1F"/>
<path d="M912.143 461.321C912.143 463.452 909.148 465.178 905.449 465.178C901.75 465.178 898.755 463.452 898.755 461.321C898.755 459.187 901.75 457.458 905.449 457.458C909.148 457.458 912.143 459.187 912.143 461.321Z" fill="#F45866"/>
<path d="M862.922 461.321C862.922 463.452 859.924 465.178 856.228 465.178C852.528 465.178 849.531 463.452 849.531 461.321C849.531 459.187 852.528 457.458 856.228 457.458C859.924 457.458 862.922 459.187 862.922 461.321Z" fill="#F45866"/>
<path d="M888.688 439.504L886.21 438.011C886.285 437.886 888.113 434.909 891.843 434.02C894.665 433.353 897.753 434.04 901.01 436.084L899.47 438.533C896.899 436.921 894.557 436.349 892.511 436.839C889.997 437.442 888.702 439.486 888.688 439.504Z" fill="#FDC33B"/>
<path d="M870.934 439.515C870.928 439.492 869.614 437.416 867.074 436.827C865.036 436.359 862.709 436.93 860.155 438.533L858.615 436.085C861.864 434.039 864.96 433.353 867.783 434.02C871.509 434.909 873.334 437.886 873.413 438.011L870.934 439.504L872.173 438.76L870.934 439.515Z" fill="#FDC33B"/>
<path d="M880.972 483.831C880.722 483.831 880.474 483.826 880.225 483.816C868.581 483.321 860.883 471.53 860.564 471.028L862.996 469.461C863.071 469.574 870.224 480.504 880.362 480.924C886.695 481.195 893.018 477.294 899.112 469.363L901.41 471.128C894.933 479.562 888.061 483.831 880.972 483.831Z" fill="#8F3F1F"/>
<path d="M863.228 470.247C863.228 471.048 862.578 471.697 861.78 471.697C860.977 471.697 860.328 471.048 860.328 470.247C860.328 469.447 860.976 468.798 861.78 468.798C862.578 468.8 863.228 469.449 863.228 470.247Z" fill="#8F3F1F"/>
<path d="M901.708 470.247C901.708 471.048 901.058 471.697 900.257 471.697C899.459 471.697 898.809 471.048 898.809 470.247C898.809 469.447 899.459 468.798 900.257 468.798C901.058 468.8 901.708 469.449 901.708 470.247Z" fill="#8F3F1F"/>
<path d="M545.602 471.695C545.602 485 534.817 495.785 521.514 495.785C508.209 495.785 497.424 484.999 497.424 471.695C497.424 458.389 508.209 447.607 521.514 447.607C534.817 447.607 545.602 458.389 545.602 471.695Z" fill="#FDD247"/>
<path d="M515.818 465.402C515.818 467.675 513.973 469.518 511.698 469.518C509.424 469.518 507.579 467.674 507.579 465.402C507.579 463.127 509.424 461.281 511.698 461.281C513.973 461.281 515.818 463.127 515.818 465.402Z" fill="#8F3F1F"/>
<path d="M533.894 465.402C533.894 467.675 532.05 469.518 529.776 469.518C527.501 469.518 525.656 467.674 525.656 465.402C525.656 463.127 527.501 461.281 529.776 461.281C532.05 461.281 533.894 463.127 533.894 465.402Z" fill="#8F3F1F"/>
<path d="M541.563 472.318C541.563 473.691 539.633 474.802 537.25 474.802C534.868 474.802 532.939 473.691 532.939 472.318C532.939 470.944 534.868 469.831 537.25 469.831C539.632 469.83 541.563 470.944 541.563 472.318Z" fill="#F45866"/>
<path d="M509.858 472.318C509.858 473.691 507.927 474.802 505.547 474.802C503.164 474.802 501.233 473.691 501.233 472.318C501.233 470.944 503.164 469.831 505.547 469.831C507.927 469.83 509.858 470.944 509.858 472.318Z" fill="#F45866"/>
<path d="M526.455 458.265L524.859 457.305C524.907 457.224 526.085 455.307 528.487 454.734C530.305 454.304 532.294 454.747 534.392 456.064L533.401 457.641C531.745 456.604 530.236 456.234 528.92 456.548C527.297 456.938 526.464 458.255 526.455 458.265Z" fill="#FDC33B"/>
<path d="M515.019 458.272C515.016 458.258 514.168 456.921 512.533 456.542C511.221 456.241 509.72 456.608 508.075 457.641L507.085 456.064C509.176 454.747 511.17 454.304 512.988 454.734C515.39 455.306 516.565 457.224 516.615 457.305L515.019 458.265L515.818 457.786L515.019 458.272Z" fill="#FDC33B"/>
<path d="M521.484 486.817C521.323 486.817 521.162 486.814 521.003 486.809C513.503 486.49 508.545 478.895 508.34 478.572L509.906 477.563C509.955 477.636 514.56 484.676 521.091 484.946C525.169 485.121 529.243 482.608 533.167 477.5L534.646 478.637C530.478 484.068 526.05 486.817 521.484 486.817Z" fill="#8F3F1F"/>
<path d="M510.056 478.068C510.056 478.583 509.636 479.002 509.124 479.002C508.606 479.002 508.189 478.583 508.189 478.068C508.189 477.553 508.606 477.135 509.124 477.135C509.636 477.135 510.056 477.553 510.056 478.068Z" fill="#8F3F1F"/>
<path d="M534.841 478.068C534.841 478.583 534.422 479.002 533.907 479.002C533.393 479.002 532.975 478.583 532.975 478.068C532.975 477.553 533.393 477.135 533.907 477.135C534.422 477.135 534.841 477.553 534.841 478.068Z" fill="#8F3F1F"/>
<path d="M1123.52 422.088C1123.52 435.393 1112.73 446.178 1099.43 446.178C1086.12 446.178 1075.34 435.392 1075.34 422.088C1075.34 408.782 1086.12 398 1099.43 398C1112.73 398 1123.52 408.782 1123.52 422.088Z" fill="#FDD247"/>
<path d="M1093.73 415.795C1093.73 418.069 1091.89 419.913 1089.61 419.913C1087.34 419.913 1085.49 418.069 1085.49 415.795C1085.49 413.52 1087.34 411.675 1089.61 411.675C1091.89 411.675 1093.73 413.522 1093.73 415.795Z" fill="#8F3F1F"/>
<path d="M1111.81 415.795C1111.81 418.069 1109.97 419.913 1107.69 419.913C1105.42 419.913 1103.57 418.069 1103.57 415.795C1103.57 413.52 1105.42 411.675 1107.69 411.675C1109.97 411.675 1111.81 413.522 1111.81 415.795Z" fill="#8F3F1F"/>
<path d="M1119.48 422.712C1119.48 424.085 1117.55 425.196 1115.17 425.196C1112.78 425.196 1110.85 424.085 1110.85 422.712C1110.85 421.337 1112.78 420.225 1115.17 420.225C1117.55 420.223 1119.48 421.337 1119.48 422.712Z" fill="#F45866"/>
<path d="M1087.77 422.712C1087.77 424.085 1085.84 425.196 1083.46 425.196C1081.08 425.196 1079.15 424.085 1079.15 422.712C1079.15 421.337 1081.08 420.225 1083.46 420.225C1085.84 420.223 1087.77 421.337 1087.77 422.712Z" fill="#F45866"/>
<path d="M1104.37 408.66L1102.77 407.699C1102.82 407.618 1104 405.702 1106.4 405.128C1108.22 404.699 1110.21 405.141 1112.31 406.459L1111.31 408.035C1109.66 406.997 1108.15 406.628 1106.83 406.943C1105.21 407.331 1104.38 408.649 1104.37 408.66Z" fill="#FDC33B"/>
<path d="M1092.93 408.665C1092.93 408.651 1092.08 407.313 1090.45 406.935C1089.14 406.633 1087.64 407 1085.99 408.033L1085 406.457C1087.09 405.139 1089.08 404.697 1090.9 405.126C1093.3 405.698 1094.48 407.616 1094.53 407.698L1092.93 408.658L1093.73 408.178L1092.93 408.665Z" fill="#FDC33B"/>
<path d="M1099.4 437.21C1099.24 437.21 1099.08 437.207 1098.92 437.202C1091.42 436.883 1086.46 429.288 1086.25 428.965L1087.82 427.956C1087.87 428.029 1092.48 435.067 1099.01 435.338C1103.09 435.514 1107.16 433 1111.08 427.892L1112.56 429.029C1108.39 434.461 1103.97 437.21 1099.4 437.21Z" fill="#8F3F1F"/>
<path d="M1087.97 428.462C1087.97 428.977 1087.55 429.395 1087.04 429.395C1086.52 429.395 1086.1 428.978 1086.1 428.462C1086.1 427.947 1086.52 427.528 1087.04 427.528C1087.55 427.528 1087.97 427.947 1087.97 428.462Z" fill="#8F3F1F"/>
<path d="M1112.76 428.462C1112.76 428.977 1112.34 429.395 1111.82 429.395C1111.31 429.395 1110.89 428.978 1110.89 428.462C1110.89 427.947 1111.31 427.528 1111.82 427.528C1112.34 427.528 1112.76 427.947 1112.76 428.462Z" fill="#8F3F1F"/>
<path d="M831.67 512.091C831.67 521.173 824.308 528.532 815.229 528.532C806.149 528.532 798.79 521.173 798.79 512.091C798.79 503.012 806.149 495.652 815.229 495.652C824.308 495.653 831.67 503.012 831.67 512.091Z" fill="#C0D838"/>
<path d="M811.343 507.798C811.343 509.349 810.083 510.608 808.53 510.608C806.98 510.608 805.719 509.349 805.719 507.798C805.719 506.243 806.98 504.985 808.53 504.985C810.083 504.985 811.343 506.243 811.343 507.798Z" fill="#51641E"/>
<path d="M823.682 507.798C823.682 509.349 822.421 510.608 820.869 510.608C819.317 510.608 818.056 509.349 818.056 507.798C818.056 506.243 819.317 504.985 820.869 504.985C822.421 504.985 823.682 506.243 823.682 507.798Z" fill="#51641E"/>
<path d="M828.912 512.516C828.912 513.454 827.595 514.212 825.969 514.212C824.344 514.212 823.026 513.454 823.026 512.516C823.026 511.58 824.345 510.819 825.969 510.819C827.595 510.819 828.912 511.58 828.912 512.516Z" fill="#F99C73"/>
<path d="M807.276 512.516C807.276 513.454 805.957 514.212 804.333 514.212C802.704 514.212 801.388 513.454 801.388 512.516C801.388 511.58 802.705 510.819 804.333 510.819C805.957 510.819 807.276 511.58 807.276 512.516Z" fill="#F99C73"/>
<path d="M818.604 502.926L817.513 502.271C817.546 502.215 818.349 500.909 819.989 500.518C821.228 500.223 822.588 500.526 824.018 501.424L823.341 502.502C822.21 501.794 821.182 501.541 820.283 501.757C819.175 502.02 818.607 502.918 818.604 502.926Z" fill="#B9CD34"/>
<path d="M810.798 502.931C810.793 502.922 810.217 502.01 809.098 501.751C808.205 501.543 807.182 501.795 806.06 502.501L805.38 501.422C806.812 500.525 808.171 500.222 809.413 500.516C811.05 500.907 811.856 502.214 811.886 502.269L810.796 502.925L811.343 502.598L810.798 502.931Z" fill="#B9CD34"/>
<path d="M815.209 522.411C815.101 522.411 814.99 522.409 814.882 522.404C809.761 522.188 806.378 517.004 806.24 516.784L807.307 516.096C807.341 516.146 810.484 520.95 814.943 521.132C817.723 521.256 820.506 519.54 823.183 516.054L824.194 516.831C821.347 520.534 818.327 522.411 815.209 522.411Z" fill="white"/>
<path d="M807.409 516.44C807.409 516.792 807.125 517.076 806.773 517.076C806.42 517.076 806.137 516.792 806.137 516.44C806.137 516.087 806.42 515.804 806.773 515.804C807.125 515.804 807.409 516.087 807.409 516.44Z" fill="white"/>
<path d="M824.324 516.44C824.324 516.792 824.038 517.076 823.685 517.076C823.338 517.076 823.052 516.792 823.052 516.44C823.052 516.087 823.338 515.804 823.685 515.804C824.038 515.804 824.324 516.087 824.324 516.44Z" fill="white"/>
<path d="M806.773 515.804H823.685L820.871 519.644L814.457 521.868C814.457 521.868 807.681 519.367 806.773 515.804Z" fill="white"/>
<path d="M672.993 425.355C672.993 434.437 665.632 441.796 656.553 441.796C647.472 441.796 640.113 434.437 640.113 425.355C640.113 416.276 647.472 408.916 656.553 408.916C665.632 408.917 672.993 416.278 672.993 425.355Z" fill="#C0D838"/>
<path d="M652.667 421.062C652.667 422.613 651.406 423.873 649.854 423.873C648.303 423.873 647.043 422.613 647.043 421.062C647.043 419.507 648.303 418.25 649.854 418.25C651.406 418.25 652.667 419.507 652.667 421.062Z" fill="#51641E"/>
<path d="M665.004 421.062C665.004 422.613 663.744 423.873 662.191 423.873C660.639 423.873 659.378 422.613 659.378 421.062C659.378 419.507 660.639 418.25 662.191 418.25C663.745 418.25 665.004 419.507 665.004 421.062Z" fill="#51641E"/>
<path d="M670.235 425.781C670.235 426.719 668.917 427.477 667.291 427.477C665.666 427.477 664.348 426.719 664.348 425.781C664.348 424.845 665.667 424.083 667.291 424.083C668.917 424.083 670.235 424.845 670.235 425.781Z" fill="#F99C73"/>
<path d="M648.598 425.781C648.598 426.719 647.279 427.477 645.655 427.477C644.026 427.477 642.71 426.719 642.71 425.781C642.71 424.845 644.028 424.083 645.655 424.083C647.279 424.083 648.598 424.845 648.598 425.781Z" fill="#F99C73"/>
<path d="M659.926 416.191L658.835 415.535C658.868 415.48 659.671 414.174 661.311 413.782C662.55 413.488 663.91 413.791 665.34 414.689L664.663 415.767C663.532 415.059 662.504 414.805 661.605 415.022C660.497 415.285 659.93 416.183 659.926 416.191Z" fill="#B9CD34"/>
<path d="M652.122 416.195C652.116 416.186 651.54 415.274 650.422 415.015C649.528 414.808 648.505 415.059 647.384 415.765L646.702 414.687C648.134 413.789 649.493 413.486 650.735 413.78C652.372 414.172 653.178 415.478 653.208 415.533L652.118 416.189L652.666 415.863L652.122 416.195Z" fill="#B9CD34"/>
<path d="M656.531 435.675C656.423 435.675 656.312 435.674 656.204 435.668C651.083 435.452 647.7 430.268 647.562 430.048L648.629 429.361C648.663 429.41 651.806 434.214 656.265 434.396C659.045 434.52 661.829 432.804 664.505 429.318L665.516 430.095C662.671 433.798 659.65 435.675 656.531 435.675Z" fill="white"/>
<path d="M648.733 429.705C648.733 430.056 648.448 430.341 648.097 430.341C647.744 430.341 647.461 430.056 647.461 429.705C647.461 429.352 647.744 429.069 648.097 429.069C648.448 429.069 648.733 429.352 648.733 429.705Z" fill="white"/>
<path d="M665.647 429.705C665.647 430.056 665.361 430.341 665.009 430.341C664.661 430.341 664.375 430.056 664.375 429.705C664.375 429.352 664.661 429.069 665.009 429.069C665.36 429.069 665.647 429.352 665.647 429.705Z" fill="white"/>
<path d="M648.097 429.069H665.009L662.193 432.909L655.779 435.133C655.779 435.133 649.003 432.632 648.097 429.069Z" fill="white"/>
</svg>
