<svg width="1168" height="77" viewBox="0 0 1168 77" fill="none" xmlns="http://www.w3.org/2000/svg">
<g clip-path="url(#clip0_332_62)">
<path d="M32.0752 39.7704C32.0553 36.1113 33.7052 33.3495 37.0445 31.3155C35.1761 28.6335 32.3535 27.1579 28.6265 26.8688C25.0983 26.5896 21.2421 28.9326 19.8308 28.9326C18.34 28.9326 14.9211 26.9685 12.2377 26.9685C6.69195 27.0582 0.79834 31.4053 0.79834 40.2489C0.79834 42.8612 1.27539 45.5598 2.2295 48.3448C3.50165 52.0039 8.0933 60.9772 12.8837 60.8276C15.3883 60.7678 17.1573 59.043 20.4172 59.043C23.5777 59.043 25.2176 60.8276 28.0103 60.8276C32.8405 60.7578 36.9948 52.6021 38.2074 48.9331C31.7274 45.8722 32.0752 39.9598 32.0752 39.7704ZM26.45 23.3991C29.1632 20.1687 28.9147 17.2275 28.8352 16.1707C26.44 16.3102 23.6671 17.8058 22.0869 19.6503C20.3476 21.6244 19.324 24.0671 19.5426 26.8189C22.1366 27.0183 24.502 25.6823 26.45 23.3991Z" fill="white" fill-opacity="0.8"/>
<path d="M53.0901 40.1425L50.4862 48.0678H47.1391L55.6615 22.881H59.5673L68.1223 48.0678H64.6612L61.9814 40.1425H53.0901ZM61.3141 37.5987L58.8621 30.3488C58.3034 28.7038 57.9345 27.2114 57.5602 25.7516H57.4896C57.1153 27.2441 56.7085 28.7747 56.2257 30.3107L53.7736 37.5933L61.3141 37.5987ZM70.6611 35.8829C70.6611 33.568 70.5906 31.6942 70.5092 29.9784H73.4494L73.6013 33.0832H73.6719C75.0118 30.8772 77.1329 29.5699 80.0731 29.5699C84.4293 29.5699 87.7004 33.2684 87.7004 38.7644C87.7004 45.268 83.7566 48.4763 79.5144 48.4763C77.1329 48.4763 75.0498 47.4305 73.9702 45.6384H73.8997V55.4648H70.6611V35.8829ZM73.8943 40.7035C73.8943 41.1937 73.9648 41.6349 74.0462 42.0489C74.6429 44.3257 76.6121 45.8999 78.9611 45.8999C82.4221 45.8999 84.4347 43.062 84.4347 38.9114C84.4347 35.2838 82.536 32.1899 79.075 32.1899C76.8454 32.1899 74.7622 33.7967 74.1221 36.2642C74.0082 36.6727 73.8997 37.163 73.8997 37.6096L73.8943 40.7035ZM91.0855 35.8829C91.0855 33.568 91.015 31.6942 90.9336 29.9784H93.8739L94.0258 33.0832H94.0963C95.4362 30.8772 97.5573 29.5699 100.498 29.5699C104.854 29.5699 108.125 33.2684 108.125 38.7644C108.125 45.268 104.181 48.4763 99.9388 48.4763C97.5573 48.4763 95.4742 47.4305 94.3946 45.6384H94.3241V55.4648H91.0855V35.8829ZM94.3241 40.7035C94.3241 41.1937 94.3946 41.6349 94.476 42.0489C95.0727 44.3257 97.042 45.8999 99.3909 45.8999C102.852 45.8999 104.865 43.062 104.865 38.9114C104.865 35.2838 102.966 32.1899 99.5048 32.1899C97.2752 32.1899 95.1921 33.7967 94.552 36.2642C94.438 36.6727 94.3295 37.163 94.3295 37.6096L94.3241 40.7035ZM111.515 21.5356H114.792V48.0623H111.515V21.5356ZM121.378 39.6195C121.448 44.0643 124.28 45.8999 127.551 45.8999C129.895 45.8999 131.31 45.4914 132.536 44.9685L133.095 47.3216C131.945 47.8445 129.971 48.4436 127.106 48.4436C121.562 48.4436 118.248 44.7833 118.248 39.3254C118.248 33.8676 121.448 29.5699 126.694 29.5699C132.574 29.5699 134.137 34.7609 134.137 38.089C134.137 38.7644 134.066 39.2818 134.023 39.6195H121.378ZM130.98 37.2665C131.018 35.1748 130.122 31.923 126.439 31.923C123.124 31.923 121.676 34.9896 121.416 37.2665H130.98Z" fill="white" fill-opacity="0.8"/>
<g clip-path="url(#clip1_332_62)">
<path d="M234.989 15.7278H236.209C240.443 15.8196 244.609 17.5184 247.601 20.5257C246.496 21.6506 245.368 22.7296 244.287 23.8545C242.607 22.3393 240.581 21.1685 238.372 20.7553C235.104 20.0666 231.583 20.6864 228.844 22.5459C225.852 24.4973 223.827 27.803 223.389 31.3384C222.906 34.8278 223.896 38.5009 226.174 41.2098C228.361 43.8498 231.698 45.5027 235.15 45.6175C238.372 45.8012 241.732 44.814 244.079 42.5643C245.921 40.9802 246.772 38.5698 247.048 36.2282C243.228 36.2282 239.408 36.2511 235.587 36.2282V31.4991H251.674C252.503 36.5725 251.306 42.2888 247.44 45.9159C244.862 48.4871 241.295 50.0023 237.658 50.3007C234.137 50.645 230.501 49.9793 227.371 48.2805C223.62 46.2833 220.628 42.9086 219.155 38.9371C217.774 35.287 217.751 31.1547 219.04 27.4817C220.213 24.13 222.469 21.1685 225.369 19.1024C228.153 17.0593 231.537 15.9344 234.989 15.7278Z" fill="white" fill-opacity="0.8"/>
<path d="M327.277 16.9219H332.202V49.7042C330.568 49.7042 328.911 49.7271 327.277 49.6812C327.3 38.7767 327.277 27.8493 327.277 16.9219Z" fill="white" fill-opacity="0.8"/>
<path d="M262.629 28.2854C265.667 27.7115 268.958 28.3543 271.467 30.1679C273.745 31.7749 275.333 34.3001 275.816 37.0549C276.438 40.2459 275.655 43.7353 273.584 46.2606C271.352 49.0843 267.692 50.5994 264.125 50.3698C260.857 50.1862 257.681 48.5563 255.748 45.8933C253.561 42.9548 253.032 38.9144 254.229 35.4709C255.426 31.7749 258.809 28.9512 262.629 28.2854ZM263.32 32.6472C262.077 32.9686 260.926 33.6803 260.098 34.6904C257.865 37.3534 258.003 41.6922 260.466 44.1715C261.87 45.5948 263.987 46.2606 265.943 45.8703C267.761 45.5489 269.349 44.3322 270.224 42.7252C271.743 39.9934 271.306 36.2285 268.981 34.0935C267.485 32.7161 265.299 32.1422 263.32 32.6472Z" fill="white" fill-opacity="0.8"/>
<path d="M287.025 28.2854C290.5 27.6197 294.297 28.5838 296.898 31.0173C301.132 34.8051 301.593 41.8988 297.979 46.2606C295.793 49.0154 292.249 50.5305 288.751 50.3698C285.413 50.278 282.122 48.6251 280.143 45.8933C277.911 42.8859 277.427 38.7537 278.693 35.2413C279.959 31.6601 283.273 28.9282 287.025 28.2854ZM287.715 32.6472C286.472 32.9686 285.321 33.6803 284.493 34.6674C282.284 37.2845 282.376 41.5544 284.746 44.0567C286.15 45.5489 288.336 46.2835 290.362 45.8703C292.157 45.5259 293.768 44.3322 294.642 42.7252C296.138 39.9704 295.701 36.2055 293.353 34.0705C291.858 32.6931 289.671 32.1421 287.715 32.6472Z" fill="white" fill-opacity="0.8"/>
<path d="M307.715 29.6169C310.361 27.964 313.882 27.5049 316.736 28.9282C317.634 29.3184 318.37 29.9842 319.084 30.6499C319.107 30.0301 319.084 29.3873 319.107 28.7445C320.649 28.7675 322.191 28.7445 323.756 28.7675V49.0154C323.733 52.0686 322.95 55.3055 320.741 57.5323C318.324 59.9887 314.619 60.7463 311.282 60.2412C307.715 59.7132 304.608 57.1191 303.227 53.8363C304.608 53.1705 306.057 52.6425 307.484 52.0227C308.29 53.9052 309.924 55.5121 311.972 55.8794C314.02 56.2467 316.391 55.7417 317.726 54.0429C319.153 52.2982 319.153 49.9107 319.084 47.7757C318.025 48.8088 316.805 49.727 315.332 50.0714C312.133 50.9667 308.612 49.8648 306.15 47.7068C303.664 45.5489 302.191 42.2202 302.329 38.9144C302.398 35.1724 304.515 31.5682 307.715 29.6169ZM312.479 32.5554C311.075 32.7849 309.763 33.5655 308.865 34.6444C306.702 37.2156 306.702 41.3248 308.888 43.8501C310.131 45.3423 312.133 46.1687 314.067 45.9621C315.885 45.7785 317.565 44.6306 318.462 43.0466C319.981 40.3607 319.728 36.7105 317.68 34.3689C316.414 32.9227 314.389 32.211 312.479 32.5554Z" fill="white" fill-opacity="0.8"/>
<path d="M338.117 30.7876C340.878 28.2164 345.136 27.3441 348.68 28.6985C352.04 29.9612 354.181 33.1522 355.262 36.435C350.268 38.5011 345.297 40.5442 340.303 42.6103C340.993 43.9189 342.052 45.1126 343.479 45.5947C345.481 46.3064 347.875 46.0539 349.555 44.7224C350.222 44.2173 350.752 43.5516 351.258 42.9088C352.524 43.7582 353.79 44.5846 355.055 45.434C353.26 48.12 350.245 50.0024 347 50.3009C343.41 50.737 339.59 49.3596 337.265 46.5589C333.445 42.1512 333.813 34.7591 338.117 30.7876ZM340.579 35.0346C339.797 36.1595 339.475 37.5369 339.498 38.8913C342.835 37.5139 346.172 36.1365 349.509 34.7362C348.956 33.4506 347.622 32.6701 346.264 32.4635C344.077 32.0732 341.799 33.244 340.579 35.0346Z" fill="white" fill-opacity="0.8"/>
</g>
<path fill-rule="evenodd" clip-rule="evenodd" d="M529.975 50.8443C521.541 57.0674 509.274 60.383 498.693 60.383C483.869 60.383 470.58 54.925 460.459 45.8454C459.692 45.1313 460.357 44.1621 461.328 44.7232C472.215 51.0483 485.658 54.823 499.562 54.823C508.916 54.823 519.241 52.8847 528.748 48.855C530.18 48.2939 531.355 49.8241 529.975 50.8443Z" fill="white" fill-opacity="0.8"/>
<path fill-rule="evenodd" clip-rule="evenodd" d="M533.502 46.8146C532.429 45.4373 526.346 46.1515 523.637 46.5085C522.819 46.6105 522.666 45.8964 523.432 45.3863C528.288 41.9687 536.211 42.9889 537.131 44.1111C538.051 45.2333 536.876 53.1907 532.326 56.9653C531.611 57.5264 530.946 57.2204 531.253 56.4553C532.275 53.9048 534.575 48.2428 533.502 46.8146Z" fill="white" fill-opacity="0.8"/>
<path fill-rule="evenodd" clip-rule="evenodd" d="M523.79 21.412V18.0964C523.79 17.5864 524.148 17.2803 524.608 17.2803H539.431C539.891 17.2803 540.3 17.6374 540.3 18.0964V20.9019C540.3 21.361 539.891 21.9731 539.176 22.9933L531.508 33.9092C534.371 33.8582 537.387 34.2663 539.942 35.6945C540.505 36.0006 540.658 36.5107 540.709 36.9697V40.4893C540.709 40.9994 540.198 41.5605 539.636 41.2545C535.086 38.8571 529.004 38.602 523.995 41.3055C523.483 41.5605 522.921 41.0504 522.921 40.5404V37.1738C522.921 36.6637 522.921 35.7455 523.483 34.9294L532.377 22.2282H524.659C524.199 22.2282 523.79 21.8711 523.79 21.412ZM469.762 41.9686H465.264C464.855 41.9176 464.497 41.6115 464.446 41.2035V18.1475C464.446 17.6884 464.855 17.3313 465.315 17.3313H469.506C469.966 17.3313 470.273 17.6884 470.324 18.0964V21.106H470.426C471.5 18.1985 473.595 16.8212 476.355 16.8212C479.167 16.8212 480.956 18.1985 482.183 21.106C483.256 18.1985 485.761 16.8212 488.419 16.8212C490.31 16.8212 492.354 17.5864 493.632 19.3717C495.064 21.31 494.757 24.1155 494.757 26.6149V41.2035C494.757 41.6625 494.348 42.0196 493.888 42.0196H489.441C488.981 41.9686 488.623 41.6115 488.623 41.2035V28.9613C488.623 27.9922 488.725 25.5437 488.521 24.6256C488.163 23.0953 487.192 22.6362 485.863 22.6362C484.789 22.6362 483.614 23.3504 483.154 24.5236C482.694 25.6968 482.745 27.6351 482.745 28.9613V41.2035C482.745 41.6625 482.336 42.0196 481.876 42.0196H477.378C476.918 41.9686 476.56 41.6115 476.56 41.2035V28.9613C476.56 26.4109 476.969 22.5852 473.8 22.5852C470.58 22.5852 470.682 26.2579 470.682 28.9613V41.2035C470.631 41.6115 470.273 41.9686 469.762 41.9686ZM553.079 16.8212C559.775 16.8212 563.404 22.5342 563.404 29.8285C563.404 36.8677 559.417 42.4787 553.079 42.4787C546.536 42.4787 542.958 36.7657 542.958 29.6245C542.907 22.4322 546.536 16.8212 553.079 16.8212ZM553.079 21.565C549.756 21.565 549.552 26.1048 549.552 28.9103C549.552 31.7158 549.501 37.7349 553.028 37.7349C556.504 37.7349 556.708 32.889 556.708 29.9305C556.708 27.9922 556.606 25.6458 556.044 23.8094C555.532 22.1772 554.51 21.565 553.079 21.565ZM572.043 41.9686H567.544C567.084 41.9176 566.727 41.5605 566.727 41.1525V18.0454C566.778 17.6374 567.136 17.2803 567.596 17.2803L571.787 17.2803C572.196 17.2803 572.503 17.5864 572.605 17.9434V21.463H572.707C573.985 18.3005 575.723 16.8212 578.841 16.8212C580.834 16.8212 582.828 17.5353 584.106 19.5247C585.281 21.361 585.281 24.4726 585.281 26.7169V41.2545C585.23 41.6626 584.872 41.9686 584.412 41.9686H579.914C579.505 41.9176 579.148 41.6115 579.096 41.2545V28.7063C579.096 26.1558 579.403 22.4832 576.285 22.4832C575.212 22.4832 574.189 23.1973 573.678 24.3195C573.065 25.7478 572.963 27.125 572.963 28.7063V41.1525C572.911 41.6116 572.503 41.9686 572.043 41.9686ZM511.983 30.9507C511.983 32.685 512.034 34.1643 511.165 35.7455C510.449 37.0207 509.325 37.7859 508.047 37.7859C506.309 37.7859 505.287 36.4597 505.287 34.5213C505.287 30.6956 508.711 29.9815 511.983 29.9815V30.9507ZM516.532 41.9176C516.225 42.1727 515.816 42.2237 515.458 42.0196C513.976 40.7954 513.669 40.1833 512.852 39.0101C510.398 41.5095 508.609 42.2747 505.44 42.2747C501.657 42.2747 498.693 39.9283 498.693 35.2864C498.693 31.6138 500.686 29.1654 503.497 27.9412C505.951 26.87 509.376 26.6659 511.983 26.3599V25.7988C511.983 24.7276 512.085 23.4524 511.42 22.5342C510.858 21.7181 509.836 21.361 508.916 21.361C507.178 21.361 505.644 22.2282 505.287 24.0645C505.184 24.4726 504.929 24.8806 504.52 24.8806L500.175 24.4215C499.817 24.3195 499.408 24.0645 499.511 23.5034C500.533 18.1985 505.287 16.6172 509.58 16.6172C511.778 16.6172 514.641 17.1783 516.378 18.8616C518.576 20.9019 518.372 23.6564 518.372 26.6149V33.6031C518.372 35.6945 519.241 36.6127 520.059 37.7859C520.365 38.194 520.417 38.704 520.059 38.9591C519.088 39.7242 517.452 41.1525 516.532 41.9176ZM452.945 30.9507C452.945 32.685 452.996 34.1643 452.127 35.7455C451.411 37.0207 450.287 37.7859 449.009 37.7859C447.271 37.7859 446.249 36.4597 446.249 34.5213C446.249 30.6956 449.674 29.9815 452.945 29.9815V30.9507ZM457.443 41.9176C457.136 42.1727 456.727 42.2237 456.37 42.0196C454.887 40.7954 454.581 40.1833 453.763 39.0101C451.309 41.5095 449.52 42.2747 446.351 42.2747C442.569 42.2747 439.604 39.9283 439.604 35.2864C439.604 31.6138 441.597 29.1654 444.409 27.9412C446.862 26.87 450.287 26.6659 452.894 26.3599V25.7988C452.894 24.7276 452.996 23.4524 452.331 22.5342C451.769 21.7181 450.747 21.361 449.827 21.361C448.089 21.361 446.556 22.2282 446.198 24.0645C446.095 24.4726 445.84 24.8806 445.431 24.8806L441.086 24.4215C440.728 24.3195 440.319 24.0645 440.422 23.5034C441.444 18.1985 446.198 16.6172 450.491 16.6172C452.689 16.6172 455.552 17.1783 457.29 18.8616C459.488 20.9019 459.283 23.6564 459.283 26.6149V33.6031C459.283 35.6945 460.152 36.6127 460.97 37.7859C461.277 38.194 461.328 38.704 460.97 38.9591C459.999 39.7242 458.363 41.1525 457.443 41.9176Z" fill="white" fill-opacity="0.8"/>
<g clip-path="url(#clip2_332_62)">
<path d="M879.12 36.3745V32.6975H874.554V26.9813L874.401 27.0286L870.112 28.3408L870.027 28.3665V32.6977H863.258V30.2849C863.258 29.1614 863.509 28.3016 864.004 27.7282C864.496 27.1617 865.199 26.8737 866.096 26.8737C866.741 26.8737 867.409 27.0256 868.081 27.3251L868.249 27.4004V23.5281L868.17 23.4989C867.543 23.2736 866.691 23.1602 865.634 23.1602C864.302 23.1602 863.092 23.45 862.037 24.0244C860.981 24.5996 860.15 25.4207 859.568 26.4647C858.988 27.5076 858.694 28.712 858.694 30.0448V32.6975H855.515V36.3745H858.694V51.8647H863.258V36.3745H870.027V46.2183C870.027 50.2724 871.94 52.3269 875.711 52.3269C876.331 52.3269 876.983 52.2543 877.649 52.1121C878.327 51.9661 878.789 51.8202 879.061 51.6645L879.121 51.6289V47.918L878.935 48.0408C878.687 48.2058 878.379 48.3407 878.017 48.441C877.654 48.5431 877.35 48.5943 877.115 48.5943C876.232 48.5943 875.578 48.3563 875.173 47.8864C874.763 47.4124 874.555 46.5833 874.555 45.4236V36.3745H879.12ZM845.322 48.5949C843.665 48.5949 842.359 48.0456 841.439 46.9636C840.513 45.8761 840.043 44.3256 840.043 42.3557C840.043 40.3232 840.513 38.7325 841.439 37.6258C842.36 36.5264 843.654 35.9684 845.285 35.9684C846.867 35.9684 848.127 36.5013 849.03 37.5532C849.936 38.6106 850.397 40.1885 850.397 42.2446C850.397 44.326 849.964 45.9248 849.11 46.9943C848.263 48.0557 846.988 48.5949 845.322 48.5949ZM845.525 32.2358C842.364 32.2358 839.854 33.1619 838.064 34.9884C836.275 36.8152 835.368 39.3431 835.368 42.5027C835.368 45.5037 836.254 47.9176 838 49.6762C839.746 51.4354 842.122 52.3265 845.063 52.3265C848.126 52.3265 850.587 51.3874 852.376 49.5356C854.165 47.6858 855.071 45.1817 855.071 42.096C855.071 39.048 854.221 36.6162 852.542 34.8693C850.864 33.1217 848.502 32.2358 845.525 32.2358ZM828.009 32.2358C825.859 32.2358 824.081 32.7857 822.722 33.87C821.356 34.9607 820.662 36.3913 820.662 38.1223C820.662 39.0222 820.812 39.8215 821.106 40.4994C821.403 41.1796 821.861 41.7784 822.47 42.281C823.075 42.7796 824.008 43.3018 825.245 43.8331C826.284 44.2609 827.06 44.6227 827.552 44.9079C828.033 45.1874 828.375 45.4683 828.568 45.742C828.755 46.0097 828.851 46.3762 828.851 46.8285C828.851 48.1162 827.886 48.7428 825.902 48.7428C825.166 48.7428 824.326 48.5891 823.407 48.2861C822.494 47.9877 821.632 47.5507 820.851 46.9905L820.662 46.8546V51.2489L820.732 51.2812C821.377 51.5794 822.192 51.8308 823.151 52.0286C824.109 52.2266 824.979 52.3273 825.735 52.3273C828.068 52.3273 829.947 51.7747 831.318 50.684C832.698 49.5858 833.397 48.1215 833.397 46.3305C833.397 45.0385 833.02 43.9306 832.278 43.0371C831.542 42.1508 830.263 41.3371 828.479 40.6179C827.058 40.0476 826.148 39.5741 825.772 39.2107C825.41 38.8595 825.226 38.363 825.226 37.7342C825.226 37.1768 825.453 36.7302 825.919 36.3686C826.388 36.0052 827.042 35.8203 827.861 35.8203C828.622 35.8203 829.4 35.9404 830.174 36.1759C830.947 36.4113 831.626 36.7266 832.193 37.1123L832.38 37.2397V33.0713L832.308 33.0406C831.785 32.8163 831.095 32.6243 830.258 32.4686C829.424 32.3139 828.667 32.2358 828.009 32.2358ZM808.764 48.5949C807.107 48.5949 805.801 48.0456 804.881 46.9636C803.954 45.8761 803.486 44.326 803.486 42.3557C803.486 40.3232 803.955 38.7325 804.882 37.6258C805.802 36.5264 807.095 35.9684 808.727 35.9684C810.309 35.9684 811.569 36.5013 812.472 37.5532C813.379 38.6106 813.839 40.1885 813.839 42.2446C813.839 44.326 813.406 45.9248 812.552 46.9943C811.705 48.0557 810.431 48.5949 808.764 48.5949ZM808.967 32.2358C805.806 32.2358 803.295 33.1619 801.506 34.9884C799.718 36.8152 798.81 39.3431 798.81 42.5027C798.81 45.5049 799.696 47.9176 801.442 49.6762C803.188 51.4354 805.565 52.3265 808.505 52.3265C811.568 52.3265 814.029 51.3874 815.818 49.5356C817.607 47.6858 818.513 45.1817 818.513 42.096C818.513 39.048 817.663 36.6162 815.984 34.8693C814.305 33.1217 811.944 32.2358 808.967 32.2358ZM791.882 36.0169V32.6975H787.373V51.8643H791.882V42.0598C791.882 40.3926 792.26 39.023 793.006 37.9884C793.742 36.9663 794.723 36.4483 795.921 36.4483C796.328 36.4483 796.783 36.5152 797.277 36.6477C797.766 36.7794 798.12 36.9224 798.328 37.0729L798.518 37.2102V32.6648L798.445 32.6334C798.025 32.455 797.431 32.365 796.68 32.365C795.547 32.365 794.533 32.7291 793.664 33.4459C792.902 34.0759 792.351 34.9397 791.93 36.0169H791.882ZM779.299 32.2358C777.231 32.2358 775.386 32.6793 773.816 33.5537C772.244 34.43 771.028 35.6812 770.2 37.2721C769.377 38.8591 768.958 40.713 768.958 42.7804C768.958 44.5914 769.364 46.2533 770.165 47.718C770.967 49.1851 772.102 50.3329 773.539 51.1289C774.974 51.924 776.632 52.3271 778.468 52.3271C780.611 52.3271 782.44 51.8987 783.907 51.0539L783.966 51.0199V46.8893L783.777 47.0277C783.112 47.5117 782.37 47.898 781.571 48.1763C780.774 48.4544 780.048 48.5949 779.41 48.5949C777.641 48.5949 776.221 48.0414 775.19 46.95C774.157 45.8572 773.633 44.3228 773.633 42.3919C773.633 40.4488 774.18 38.8749 775.256 37.7136C776.33 36.5557 777.752 35.9684 779.485 35.9684C780.967 35.9684 782.411 36.4701 783.777 37.4612L783.966 37.5985V33.2462L783.905 33.2119C783.391 32.9241 782.69 32.6864 781.819 32.5062C780.952 32.3264 780.105 32.2358 779.299 32.2358ZM765.853 32.6977H761.345V51.8643H765.853V32.6977ZM763.645 24.5326C762.903 24.5326 762.256 24.7852 761.724 25.2858C761.19 25.7878 760.919 26.4198 760.919 27.1658C760.919 27.8999 761.187 28.5204 761.716 29.0091C762.241 29.4963 762.89 29.7432 763.645 29.7432C764.4 29.7432 765.051 29.4963 765.583 29.0099C766.118 28.5204 766.39 27.9001 766.39 27.1658C766.39 26.4459 766.126 25.8204 765.605 25.306C765.085 24.7927 764.425 24.5326 763.645 24.5326ZM752.396 31.2836V51.8643H756.997V25.1194H750.629L742.534 44.9847L734.679 25.1194H728.051V51.8641H732.375V31.2816H732.524L740.819 51.8643H744.082L752.247 31.2836H752.396Z" fill="white" fill-opacity="0.8"/>
<path d="M691.253 37.3916H670.043V16.1819H691.253V37.3916Z" fill="white" fill-opacity="0.8"/>
<path d="M714.671 37.3916H693.462V16.1819H714.671V37.3916Z" fill="white" fill-opacity="0.8"/>
<path d="M691.253 60.8179H670.043V39.6084H691.253V60.8179Z" fill="white" fill-opacity="0.8"/>
<path d="M714.671 60.8179H693.462V39.6084H714.671V60.8179Z" fill="white" fill-opacity="0.8"/>
</g>
<path d="M1074.92 30.9077H1079.48V43.6037C1079.48 50.0482 1075.93 53.7445 1069.74 53.7445C1063.62 53.7445 1060.1 50.1124 1060.1 43.7805V30.9237H1064.66V43.6358C1064.66 47.3964 1066.51 49.4053 1069.81 49.4053C1073.1 49.4053 1074.92 47.4447 1074.92 43.7966V30.9077ZM1049.2 39.9717H1038.89V30.9077H1034.32V53.407H1038.89V44.2626H1049.19V53.407H1053.75V30.9077H1049.19V39.9717H1049.2ZM1163.5 30.9077V53.3748H1168V30.9077H1163.5ZM1145.58 43.7162H1153.89V39.6181H1145.58V35.0058H1157.63V30.9237H1141.08V53.3909H1158.07V49.2928H1145.58V43.7162ZM1127.68 46.3679L1122.57 30.8916H1118.84L1113.73 46.3679L1108.76 30.9077H1103.91L1111.75 53.3909H1115.53L1120.64 38.6217L1125.75 53.3909H1129.56L1137.38 30.9077H1132.64L1127.68 46.3679ZM1095.79 31.0362L1105.61 53.3909H1100.82L1098.8 48.7143H1088.5L1088.35 49.0357L1086.46 53.3909H1081.8L1091.71 30.9077H1095.7L1095.79 31.0362ZM1096.89 44.118L1093.64 36.5807L1090.41 44.118L1090.18 44.6322H1097.09L1096.89 44.118Z" fill="white" fill-opacity="0.8"/>
<path d="M989.388 51.0124C989.452 50.9642 989.468 50.8678 989.436 50.7874C985.004 41.2627 979.476 32.288 972.963 24.0454C972.963 24.0454 967.788 28.9631 968.158 33.8969C968.245 35.0344 968.555 36.1436 969.07 37.1612C969.586 38.1787 970.297 39.0846 971.163 39.8271C975.679 44.2305 986.607 49.791 989.147 51.0606C989.227 51.0928 989.323 51.0767 989.388 51.0124ZM987.7 54.773C987.668 54.6766 987.572 54.6123 987.459 54.6123L969.267 55.2391C971.244 58.7586 974.57 61.4907 978.025 60.655C980.42 60.0604 985.82 56.2837 987.604 54.998C987.748 54.8855 987.7 54.7891 987.7 54.773ZM987.973 53.1499C988.07 53.0052 987.909 52.8767 987.909 52.8767C979.922 47.4768 964.429 39.1842 964.429 39.1842C963.916 40.7581 963.772 42.4293 964.01 44.0677C964.247 45.7062 964.859 47.2679 965.798 48.6314C966.737 49.9948 967.978 51.1234 969.424 51.9294C970.87 52.7354 972.483 53.197 974.136 53.2784C974.41 53.3266 984.952 53.2784 987.781 53.2624C987.861 53.2463 987.925 53.2141 987.973 53.1499ZM989.179 16.1867C988.391 16.251 986.254 16.7492 986.254 16.7492C981.433 17.9867 980.291 22.374 980.291 22.374C979.408 25.1222 980.308 28.1596 980.308 28.1596C981.915 35.2951 989.822 47.0429 991.525 49.5018C991.638 49.6303 991.734 49.5821 991.734 49.5821C991.83 49.55 991.911 49.4696 991.911 49.3571C994.546 23.1294 989.179 16.1867 989.179 16.1867ZM995.205 49.55C995.302 49.5821 995.414 49.55 995.462 49.4536C997.214 46.9304 1005.07 35.2468 1006.68 28.1435C1006.68 28.1435 1007.55 24.7043 1006.71 22.358C1006.71 22.358 1005.52 17.9063 1000.7 16.7331C1000.7 16.7331 999.319 16.3796 997.841 16.1707C997.841 16.1707 992.441 23.1133 995.077 49.3411C995.061 49.4375 995.125 49.5178 995.205 49.55ZM999.512 54.6284C999.469 54.637 999.429 54.6543 999.393 54.6792C999.357 54.7041 999.327 54.736 999.303 54.773C999.287 54.8695 999.303 54.9498 999.368 55.0141C1001.1 56.2676 1006.39 59.9639 1008.93 60.6711C1008.93 60.6711 1013.64 62.2782 1017.72 55.2552L999.512 54.6284ZM1022.57 39.1521C1022.57 39.1521 1007.11 47.4608 999.111 52.8606C999.03 52.9249 998.982 53.0213 999.014 53.1177C999.014 53.1177 999.094 53.2624 999.207 53.2624C1002.07 53.2624 1012.9 53.2784 1013.19 53.2302C1014.27 53.1499 1015.33 52.9088 1016.32 52.507C1016.32 52.507 1020.18 51.2856 1022.17 46.8983C1022.17 46.8983 1023.96 43.3305 1022.57 39.1521ZM997.648 51.0124C997.712 51.0606 997.809 51.0767 997.889 51.0285C1000.49 49.7268 1011.34 44.2144 1015.82 39.8271C1015.82 39.8271 1018.67 37.545 1018.81 33.8647C1019.13 28.7703 1014.01 24.0454 1014.01 24.0454C1014.01 24.0454 1004.53 35.5361 997.568 50.7232C997.557 50.7743 997.558 50.8273 997.572 50.8778C997.586 50.9282 997.612 50.9744 997.648 51.0124Z" fill="white" fill-opacity="0.8"/>
</g>
<defs>
<clipPath id="clip0_332_62">
<rect width="1167.2" height="75.92" fill="white" transform="translate(0.79834 0.540039)"/>
</clipPath>
<clipPath id="clip1_332_62">
<rect width="137.55" height="45.552" fill="white" transform="translate(218.095 15.7241)"/>
</clipPath>
<clipPath id="clip2_332_62">
<rect width="209.896" height="44.6588" fill="white" transform="translate(670.043 16.1707)"/>
</clipPath>
</defs>
</svg>
