<svg width="1645" height="1451" viewBox="0 0 1645 1451" fill="none" xmlns="http://www.w3.org/2000/svg">
<path d="M711.415 639.05L749.063 650.634L778.023 660.287L808.914 669.94L843.666 681.524L880.348 693.108L915.1 704.692L959.505 719.172L973.02 724.964L984.604 732.687L996.188 744.271L1004.88 759.716L1008.74 773.231L1009.7 779.988V795.434L1005.84 809.914L998.119 827.29L985.569 849.492L974.951 866.868L960.471 888.105L948.887 903.551L936.337 918.996L924.753 932.511L911.239 946.991L891.932 966.297L884.209 973.055L869.729 985.604L856.215 996.223L837.874 1009.74L814.706 1025.18L800.226 1033.87L778.988 1045.45L757.751 1056.07L727.826 1068.62L706.588 1076.35L677.628 1085.03L654.46 1090.83L628.396 1095.65L621.639 1096.62H595.575L592.679 1095.65V1343.74H1089.83L1090.79 1331.19L1094.65 1316.71L1101.41 1302.23L1110.1 1288.72L1121.68 1276.17L1134.23 1266.52L1150.64 1257.83L1169.95 1252.04L1185.39 1250.1L1202.77 1251.07L1220.15 1254.93L1234.62 1260.72L1247.17 1268.45L1257.79 1277.13L1266.48 1285.82L1275.17 1298.37L1282.89 1312.85L1287.72 1329.26L1289.65 1339.88V1362.08L1285.79 1380.42L1278.06 1398.77L1271.31 1409.38L1262.62 1420L1255.86 1426.76L1242.35 1436.41L1226.9 1444.14L1211.46 1448.96L1198.91 1450.89H1178.64L1160.29 1447.03L1145.81 1441.24L1135.2 1435.45L1123.61 1426.76L1117.82 1421.93L1109.13 1411.32L1100.44 1397.8L1094.65 1384.29L1090.79 1369.81L1089.83 1364.98V1356.29H1087.89V1350.5L586.887 1349.53L585.922 1139.09V1092.76L580.13 1090.83L570.477 1085.03L561.789 1078.28V1076.35H559.858L551.17 1064.76L545.378 1052.21L541.517 1036.77L540.551 997.188V768.404L546.343 766.474L577.234 758.751L598.471 751.028L613.917 743.306L629.362 734.618L645.772 723.034L659.287 711.45L674.732 696.004L685.351 682.49L694.039 669.94L703.692 653.53L711.415 639.05Z" fill="#818CF8"/>
<path d="M889.071 140.938H898.724L914.169 143.834L924.788 147.696L934.441 153.488L944.095 161.21L962.436 179.552L971.124 190.17L980.777 200.789L991.396 214.304L1004.91 232.645L1014.56 247.125L1026.15 265.466L1040.63 291.53L1053.18 317.594L1063.8 343.658L1077.31 383.237L1086 417.989L1091.79 449.845L1095.65 483.631L1096.62 498.111V552.17L1094.69 577.269L1090.83 607.194L1086.96 619.743L1080.21 632.292L1071.52 642.911L1060.9 651.599L1044.49 659.322L1033.87 662.218H1011.67L993.327 657.391L946.025 641.946L897.759 626.5L728.826 571.477L727.86 541.551L725.93 523.21L721.103 500.042L712.415 473.978L702.762 453.706L690.212 433.434L679.594 419.919L668.01 407.37L667.044 404.474L678.628 389.029L688.282 375.514L701.796 357.173L739.444 305.045L751.028 289.6L760.682 276.085L773.231 258.709L786.746 240.368L796.399 226.853L807.018 212.373L820.532 194.032L832.116 177.621L844.666 162.176L853.354 154.453L860.111 149.626L874.591 143.834L889.071 140.938Z" fill="#2DD4BF"/>
<path d="M311.802 625.535L314.698 626.5L325.317 651.599L336.901 671.871L348.485 687.316L357.173 697.935L374.549 715.311L388.063 725.93L400.613 734.618L418.954 745.236L438.261 753.924L461.429 761.647L462.394 762.612V975.951L460.463 992.361L455.637 1004.91L447.914 1016.49L438.261 1026.15L424.746 1033.87L414.127 1037.73L408.335 1038.7H390.959L355.242 1031.94L327.248 1024.22L295.392 1013.6L270.293 1002.98L250.021 993.327L228.784 981.743L208.512 969.193L193.066 958.575L181.482 949.887L167.968 939.268L154.453 927.684L139.973 914.169L120.667 894.863L113.909 887.14L103.291 874.591L95.5679 864.938L82.0532 846.596L72.3999 832.116L66.6079 822.463L56.9546 806.052L47.3013 787.711L42.4746 774.196L40.5439 762.612L41.5093 748.132L46.3359 733.652L52.1279 723.034L62.7466 711.45L73.3652 704.692L83.9839 699.866L141.904 680.559L178.586 668.975L214.304 657.391L244.229 647.738L311.802 625.535Z" fill="#F2F2F2"/>
<path d="M170.864 208.512H193.066L202.72 211.408L218.165 219.13L227.818 227.818L235.541 237.472L260.64 272.224L274.154 290.565L281.877 301.184L319.525 353.312L331.109 368.757L340.762 382.271L353.312 399.647L360.069 409.301L354.277 417.023L344.624 428.607L334.005 444.053L326.282 457.567L316.629 479.77L309.872 501.007L305.045 524.175L303.114 542.517V567.615L305.045 586.922L306.976 597.541L306.01 602.367L255.813 618.778L214.304 632.292L92.6719 671.871L76.2612 675.732L74.3306 676.698H62.7466L51.1626 674.767L40.5439 670.906L31.856 666.079L23.168 659.322L14.48 648.703L7.72266 635.188L4.82666 624.57L0.965332 592.714L0 576.303V527.071L2.896 496.181L8.68799 461.429L15.4453 432.469L24.1333 403.509L34.752 376.479L43.4399 357.173L55.9893 332.074L68.5386 310.837L76.2612 299.253L87.8452 282.842L99.4292 267.397L111.013 253.882L117.771 246.16L129.354 233.61L138.042 224.922L149.626 216.234L162.176 210.442L170.864 208.512Z" fill="#F2F2F2"/>
<path d="M477.839 83.9839H511.626L547.343 86.8799L579.199 91.7065L606.229 97.4985L636.154 106.187L658.356 113.909L681.524 123.562L707.588 136.112L716.276 142.869L723.999 150.592L732.687 166.037L735.583 175.69L736.548 183.413V194.997L734.618 206.581L729.791 218.165L720.138 233.61L711.45 245.194L710.484 247.125H708.554L706.623 251.952L693.108 270.293L683.455 283.808L671.871 299.253L660.287 315.664L648.703 331.109L629.396 358.138L620.708 369.722L614.917 367.792L594.645 358.138L567.615 349.45L548.309 345.589L529.002 343.658H498.111L476.874 346.554L455.637 351.381L438.261 357.173L418.954 365.861L403.509 374.549L385.167 387.098L381.306 389.029L375.514 380.341L363.93 364.896L357.173 355.242L345.589 339.797L335.936 326.282L323.386 308.906L309.872 290.565L302.149 279.946L290.565 263.536L281.877 251.952L269.328 234.576L259.674 220.096L254.848 210.442L251.952 198.858V182.448L253.882 171.829L259.674 158.314L269.328 145.765L279.946 137.077L302.149 125.493L327.248 114.875L363.93 102.325L398.682 93.6372L432.469 87.8452L462.394 84.9492L477.839 83.9839Z" fill="#F2F2F2"/>
<path d="M1537.77 0H1551.29L1569.63 2.896L1584.11 7.72266L1600.52 16.4106L1614.04 27.0293L1621.76 34.752L1632.38 50.1973L1639.13 64.6772L1643.96 81.0879L1644.93 87.8452V113.909L1641.06 131.285L1635.27 145.765L1626.58 160.245L1615 172.794L1608.24 179.552L1594.73 188.24L1583.14 194.032L1567.7 198.858L1558.05 200.789H1532.95L1515.57 196.928L1502.06 192.101L1488.54 184.378L1478.89 176.656L1466.34 164.106L1456.69 149.626L1450.89 137.077L1446.07 121.632L1444.14 106.187V94.6025L1447.03 76.2612L1451.86 61.7812L1460.55 45.3706L1468.27 35.7173L1475.99 27.0293L1489.51 16.4106L1505.92 7.72266L1520.4 2.896L1537.77 0Z" fill="#2DD4BF"/>
<path d="M1186.39 1250.1L1203.77 1251.07L1221.15 1254.93L1235.62 1260.72L1248.17 1268.45L1258.79 1277.13L1267.48 1285.82L1276.17 1298.37L1283.89 1312.85L1288.72 1329.26L1290.65 1339.88V1362.08L1286.79 1380.42L1279.06 1398.77L1272.31 1409.38L1263.62 1420L1256.86 1426.76L1243.35 1436.41L1227.9 1444.14L1212.46 1448.96L1199.91 1450.89H1179.64L1161.29 1447.03L1146.81 1441.24L1136.2 1435.45L1124.61 1426.76L1118.82 1421.93L1110.13 1411.32L1101.44 1397.8L1095.65 1384.29L1091.79 1369.81L1089.86 1356.29V1343.74L1093.72 1322.5L1098.55 1309.96L1104.34 1298.37L1112.06 1287.75L1122.68 1276.17L1135.23 1266.52L1151.64 1257.83L1170.95 1252.04L1186.39 1250.1Z" fill="#818CF8"/>
<path d="M586.922 1093.72L592.714 1094.69L593.679 1095.65V1343.74H1089.86V1356.29H1088.89V1350.5L587.887 1349.53L586.922 1139.09V1093.72Z" fill="white"/>
<path d="M1228.87 1298.37L1236.59 1299.34L1241.42 1303.2L1242.38 1305.13V1313.82L1232.73 1329.26L1204.73 1370.77L1187.36 1396.84L1180.6 1402.63H1173.84L1169.02 1399.73L1161.29 1391.04L1153.57 1380.42L1141.99 1364.98L1138.13 1358.22L1139.09 1350.5L1143.92 1345.67L1147.78 1343.74L1153.57 1344.71L1161.29 1351.46L1172.88 1366.91L1176.74 1370.77L1204.73 1329.26L1222.11 1303.2L1226.94 1299.34L1228.87 1298.37Z" fill="#F8F8F8"/>
<path d="M1581.21 49.2319H1589.9L1595.69 53.0933L1597.62 60.8159L1592.8 70.4692L1564.8 111.979L1541.64 146.73L1534.88 152.522H1528.12L1522.33 148.661L1508.81 131.285L1495.3 112.944L1492.4 107.152L1493.37 100.395L1498.2 95.5679L1500.13 94.6025H1507.85L1515.57 101.36L1529.09 119.701V121.632L1531.98 120.667L1541.64 105.221L1557.08 82.0532L1575.42 55.0239L1580.25 50.1973L1581.21 49.2319Z" fill="#F9F9F9"/>
<path d="M311.802 625.535L314.698 626.5L325.317 651.599L336.901 671.871L348.485 687.316L357.173 697.935L374.549 715.311L388.063 725.93L400.613 734.618L418.954 745.236L438.261 753.924L461.429 761.647L462.394 762.612V975.951L460.463 992.361L455.637 1004.91L447.914 1016.49L438.261 1026.15L424.746 1033.87L414.127 1037.73L408.335 1038.7H390.959L380.341 1036.77L379.375 1034.84L389.029 1035.8H401.578L415.093 1032.91L425.711 1029.04L436.33 1022.29L442.122 1017.46L449.845 1006.84L453.706 999.119L457.567 989.465L458.533 957.609V930.58L457.567 807.983L456.602 772.266L454.671 766.474L449.845 763.578L430.538 756.82L414.127 749.098L402.543 742.34L390.959 734.618L377.445 723.999L368.757 716.276L361.034 709.519L343.658 688.282L333.04 673.802L319.525 649.668L312.768 634.223L308.906 632.292L298.288 634.223L283.808 639.05L263.536 646.772L234.576 656.426L216.234 662.218L179.552 674.767L151.557 683.455L131.285 689.247L87.8452 703.727L72.3999 711.45L65.6426 717.242H63.7119V719.172H61.7812L59.8506 723.034L54.0586 730.756L47.3013 744.271L45.3706 751.994L44.4053 754.89H42.4746V744.271L47.3013 731.722L53.0933 722.068L62.7466 711.45L73.3652 704.692L83.9839 699.866L141.904 680.559L178.586 668.975L214.304 657.391L244.229 647.738L311.802 625.535Z" fill="#ECEBF8"/>
<path d="M1445.1 114.875H1446.07L1447.03 125.493H948.921V162.176L946.025 164.106L941.199 158.314V118.736H1287.75L1444.14 117.771L1445.1 114.875Z" fill="white"/>
<path d="M42.4746 767.439L45.3706 771.3L53.0933 788.676L62.7466 807.018L71.4346 820.532L81.0879 835.978L92.6719 852.388L104.256 866.868L111.013 875.556L121.632 887.14L128.389 894.863L131.285 897.759V899.689H133.216V901.62H135.146V903.551L138.042 904.516L144.8 912.239L154.453 920.927L162.176 927.684L171.829 936.372L179.552 942.164L189.205 949.887L202.72 959.54L216.234 968.228L233.61 978.847L249.056 987.535L262.57 995.257L270.293 999.119L295.392 1009.74L303.114 1013.6L317.594 1018.43L319.525 1020.36L311.802 1019.39L285.738 1009.74L253.882 995.257L228.784 981.743L208.512 969.193L193.066 958.575L181.482 949.887L167.968 939.268L154.453 927.684L139.973 914.169L120.667 894.863L113.909 887.14L103.291 874.591L95.5679 864.938L82.0532 846.596L72.3999 832.116L66.6079 822.463L56.9546 806.052L47.3013 787.711L42.4746 774.196V767.439Z" fill="#F4F4F7"/>
<path d="M477.839 83.9839H511.626L547.343 86.8799L579.199 91.7065L606.229 97.4985L636.154 106.187L658.356 113.909L681.524 123.562L707.588 136.112L716.276 142.869L723.999 150.592L730.756 162.176L729.791 166.037L725.93 162.176L720.138 154.453L710.484 144.8L699.866 138.042L677.663 127.424L651.599 116.805L619.743 106.187L599.471 100.395L575.338 95.5679L559.893 92.6719L531.898 89.7759L511.626 88.8105H489.423L457.567 89.7759L449.845 90.7412L429.573 92.6719L413.162 94.6025L398.682 97.4985L387.098 99.4292L381.306 101.36L377.445 100.395L378.41 98.4639L403.509 92.6719L432.469 87.8452L462.394 84.9492L477.839 83.9839Z" fill="#F4F4F7"/>
<path d="M586.922 1093.72L592.714 1094.69L593.679 1095.65V1341.81H592.714L591.749 1315.75L590.783 1314.78L589.818 1307.06V1292.58L588.853 1333.12H587.887L586.922 1139.09V1093.72Z" fill="white"/>
<path d="M253.882 200.789L257.744 205.616L261.605 214.304L268.362 225.888L278.016 238.437L284.773 248.09L296.357 263.536L300.218 269.328V271.258H302.149L321.456 298.288L332.074 312.768L341.728 326.282L362.965 355.242L372.618 368.757L381.306 379.375L384.202 380.341L391.925 377.445L407.37 367.792L425.711 359.104L433.434 355.242L444.053 351.381L463.359 345.589L475.909 342.693L483.631 341.728L501.973 340.762L504.869 339.797H518.383L538.655 341.728V342.693L498.111 343.658L476.874 346.554L455.637 351.381L438.261 357.173L418.954 365.861L403.509 374.549L385.167 387.098L381.306 389.029L375.514 380.341L363.93 364.896L357.173 355.242L345.589 339.797L335.936 326.282L323.386 308.906L309.872 290.565L302.149 279.946L290.565 263.536L281.877 251.952L269.328 234.576L259.674 220.096L254.848 210.442L253.882 200.789Z" fill="#F5F6F7"/>
<path d="M1445.1 114.875H1446.07L1447.03 125.493L1259.76 124.528L1262.65 122.597L1301.27 121.632L1286.79 120.667L1287.75 118.736L1444.14 117.771L1445.1 114.875Z" fill="white"/>
<path d="M623.604 1345.67H942.164L944.095 1347.6L934.441 1348.57H623.604V1345.67Z" fill="white"/>
<path d="M370.688 100.395H376.479V102.325L363.93 106.187L348.485 111.979L332.074 117.771L320.49 122.597L293.461 135.146L278.016 144.8L273.189 149.626L266.432 157.349L259.674 168.933L256.778 176.656L253.882 175.69L254.848 169.898L259.674 158.314L269.328 145.765L279.946 137.077L302.149 125.493L327.248 114.875L363.93 102.325L370.688 100.395Z" fill="#F3F3F8"/>
<path d="M1105.31 120.667H1302.23L1301.27 122.597L1255.9 123.562H1159.36L1105.31 122.597V120.667Z" fill="white"/>
<path d="M588.853 1275.2H589.818L590.783 1294.51V1307.06L591.749 1314.78L592.714 1315.75L593.679 1343.74H622.639L623.604 1346.64L621.674 1349.53H587.887L588.853 1275.2Z" fill="white"/>
<path d="M459.498 988.5L460.463 992.361L455.637 1004.91L447.914 1016.49L438.261 1026.15L424.746 1033.87L414.127 1037.73L408.335 1038.7H390.959L380.341 1036.77L379.375 1034.84L389.029 1035.8H401.578L415.093 1032.91L425.711 1029.04L436.33 1022.29L442.122 1017.46L449.845 1006.84L453.706 999.119L457.567 990.431L459.498 988.5Z" fill="#F4F4F6"/>
<path d="M504.869 339.797H518.383L538.655 341.728V342.693L498.111 343.658L476.874 346.554L455.637 351.381L440.191 356.208L442.122 352.346L449.845 349.45L463.359 345.589L475.909 342.693L483.631 341.728L501.973 340.762L504.869 339.797Z" fill="#F2F2F6"/>
<path d="M588.853 1275.2H589.818L590.783 1294.51V1307.06L591.749 1314.78L592.714 1315.75V1342.78L590.783 1343.74L588.853 1333.12V1275.2Z" fill="white"/>
<path d="M459.498 931.545H460.463L461.429 949.887V986.569L458.533 989.465L457.567 982.708L458.533 957.609L459.498 931.545Z" fill="#F9F9F9"/>
<path d="M436.33 354.277H440.191V356.208L417.023 366.826L414.127 367.792L416.058 363.93L428.607 357.173L436.33 354.277Z" fill="#F6F7F6"/>
<path d="M538.655 341.728L546.378 342.693L551.205 343.658V344.624H541.551L529.002 343.658V342.693L538.655 341.728Z" fill="#E5E5F4"/>
</svg>
