<svg width="1097" height="1050" viewBox="0 0 1097 1050" fill="none" xmlns="http://www.w3.org/2000/svg">
<path d="M889.119 57.9546H898.772L914.218 60.8506L924.836 64.7119L934.49 70.5039L944.143 78.2266L962.484 96.5679L971.172 107.187L980.826 117.805L991.444 131.32L1004.96 149.661L1014.61 164.141L1026.2 182.482L1040.68 208.546L1053.23 234.61L1063.84 260.674L1077.36 300.253L1086.05 335.005L1091.84 366.861L1095.7 400.647L1096.67 415.127V469.186L1094.73 494.285L1090.87 524.21L1087.01 536.759L1080.25 549.309L1071.57 559.927L1060.95 568.615L1044.54 576.338L1033.92 579.234H1011.72L993.375 574.407L946.074 558.962L897.807 543.517L728.874 488.493L727.909 458.567L725.978 440.226L721.151 417.058L712.463 390.994L702.81 370.722L690.261 350.45L679.642 336.936L668.058 324.386L667.093 321.49L678.677 306.045L688.33 292.53L701.845 274.189L739.493 222.061L751.077 206.616L760.73 193.101L773.279 175.725L786.794 157.384L796.447 143.869L807.066 129.389L820.581 111.048L832.165 94.6372L844.714 79.1919L853.402 71.4692L860.159 66.6426L874.639 60.8506L889.119 57.9546Z" fill="#2DD4BF"/>
<path d="M311.802 542.535L314.698 543.5L325.317 568.599L336.901 588.871L348.485 604.316L357.173 614.935L374.549 632.311L388.063 642.93L400.613 651.618L418.954 662.236L438.261 670.924L461.429 678.647L462.394 679.612V892.951L460.463 909.361L455.637 921.911L447.914 933.495L438.261 943.148L424.746 950.871L414.127 954.732L408.335 955.697H390.959L355.242 948.94L327.248 941.217L295.392 930.599L270.293 919.98L250.021 910.327L228.784 898.743L208.512 886.193L193.066 875.575L181.482 866.887L167.968 856.268L154.453 844.684L139.973 831.169L120.667 811.863L113.909 804.14L103.291 791.591L95.5679 781.938L82.0532 763.596L72.3999 749.116L66.6079 739.463L56.9546 723.052L47.3013 704.711L42.4746 691.196L40.5439 679.612L41.5093 665.132L46.3359 650.652L52.1279 640.034L62.7466 628.45L73.3652 621.692L83.9839 616.866L141.904 597.559L178.586 585.975L214.304 574.391L244.229 564.738L311.802 542.535Z" fill="#D3D3D3"/>
<path d="M170.864 125.512H193.066L202.72 128.408L218.165 136.13L227.818 144.818L235.541 154.472L260.64 189.224L274.154 207.565L281.877 218.184L319.525 270.312L331.109 285.757L340.762 299.271L353.312 316.647L360.069 326.301L354.277 334.023L344.624 345.607L334.005 361.053L326.282 374.567L316.629 396.77L309.872 418.007L305.045 441.175L303.114 459.517V484.615L305.045 503.922L306.976 514.541L306.01 519.367L255.813 535.778L214.304 549.292L92.6719 588.871L76.2612 592.732L74.3306 593.698H62.7466L51.1626 591.767L40.5439 587.906L31.856 583.079L23.168 576.322L14.48 565.703L7.72266 552.188L4.82666 541.57L0.965332 509.714L0 493.303V444.071L2.896 413.181L8.68799 378.429L15.4453 349.469L24.1333 320.509L34.752 293.479L43.4399 274.173L55.9893 249.074L68.5386 227.837L76.2612 216.253L87.8452 199.842L99.4292 184.397L111.013 170.882L117.771 163.16L129.354 150.61L138.042 141.922L149.626 133.234L162.176 127.442L170.864 125.512Z" fill="#D3D3D3"/>
<path d="M477.888 1H511.674L547.392 3.896L579.248 8.72266L606.277 14.5146L636.202 23.2026L658.405 30.9253L681.573 40.5786L707.637 53.1279L716.325 59.8853L724.047 67.6079L732.735 83.0532L735.631 92.7065L736.597 100.429V112.013L734.666 123.597L729.839 135.181L720.186 150.626L711.498 162.21L710.533 164.141H708.602L706.671 168.968L693.157 187.309L683.503 200.824L671.919 216.269L660.335 232.68L648.751 248.125L629.445 275.154L620.757 286.738L614.965 284.808L594.693 275.154L567.664 266.466L548.357 262.605L529.05 260.674H498.16L476.922 263.57L455.685 268.397L438.309 274.189L419.002 282.877L403.557 291.565L385.216 304.114L381.354 306.045L375.562 297.357L363.979 281.912L357.221 272.258L345.637 256.813L335.984 243.298L323.435 225.922L309.92 207.581L302.197 196.962L290.613 180.552L281.925 168.968L269.376 151.592L259.723 137.112L254.896 127.458L252 115.875V99.4639L253.931 88.8452L259.723 75.3306L269.376 62.7812L279.995 54.0933L302.197 42.5093L327.296 31.8906L363.979 19.3413L398.73 10.6533L432.517 4.86133L462.442 1.96533L477.888 1Z" fill="#D3D3D3"/>
<path d="M311.802 542.535L314.698 543.5L325.317 568.599L336.901 588.871L348.485 604.316L357.173 614.935L374.549 632.311L388.063 642.93L400.613 651.618L418.954 662.236L438.261 670.924L461.429 678.647L462.394 679.612V892.951L460.463 909.361L455.637 921.911L447.914 933.495L438.261 943.148L424.746 950.871L414.127 954.732L408.335 955.697H390.959L380.341 953.767L379.375 951.836L389.029 952.801H401.578L415.093 949.905L425.711 946.044L436.33 939.287L442.122 934.46L449.845 923.841L453.706 916.119L457.567 906.465L458.533 874.609V847.58L457.567 724.983L456.602 689.266L454.671 683.474L449.845 680.578L430.538 673.82L414.127 666.098L402.543 659.34L390.959 651.618L377.445 640.999L368.757 633.276L361.034 626.519L343.658 605.282L333.04 590.802L319.525 566.668L312.768 551.223L308.906 549.292L298.288 551.223L283.808 556.05L263.536 563.772L234.576 573.426L216.234 579.218L179.552 591.767L151.557 600.455L131.285 606.247L87.8452 620.727L72.3999 628.45L65.6426 634.242H63.7119V636.172H61.7812L59.8506 640.034L54.0586 647.756L47.3013 661.271L45.3706 668.994L44.4053 671.89H42.4746V661.271L47.3013 648.722L53.0933 639.068L62.7466 628.45L73.3652 621.692L83.9839 616.866L141.904 597.559L178.586 585.975L214.304 574.391L244.229 564.738L311.802 542.535Z" fill="#D3D3D3"/>
<path d="M42.4746 684.439L45.3706 688.3L53.0933 705.676L62.7466 724.018L71.4346 737.532L81.0879 752.978L92.6719 769.388L104.256 783.868L111.013 792.556L121.632 804.14L128.389 811.863L131.285 814.759V816.689H133.216V818.62H135.146V820.551L138.042 821.516L144.8 829.239L154.453 837.927L162.176 844.684L171.829 853.372L179.552 859.164L189.205 866.887L202.72 876.54L216.234 885.228L233.61 895.847L249.056 904.535L262.57 912.257L270.293 916.119L295.392 926.737L303.114 930.599L317.594 935.425L319.525 937.356L311.802 936.391L285.738 926.737L253.882 912.257L228.784 898.743L208.512 886.193L193.066 875.575L181.482 866.887L167.968 856.268L154.453 844.684L139.973 831.169L120.667 811.863L113.909 804.14L103.291 791.591L95.5679 781.938L82.0532 763.596L72.3999 749.116L66.6079 739.463L56.9546 723.052L47.3013 704.711L42.4746 691.196V684.439Z" fill="#D3D3D3"/>
<path d="M477.839 0.983887H511.626L547.343 3.87988L579.199 8.70654L606.229 14.4985L636.154 23.1865L658.356 30.9092L681.524 40.5625L707.588 53.1118L716.276 59.8691L723.999 67.5918L730.756 79.1758L729.791 83.0371L725.93 79.1758L720.138 71.4531L710.484 61.7998L699.866 55.0425L677.663 44.4238L651.599 33.8052L619.743 23.1865L599.471 17.3945L575.338 12.5679L559.893 9.67188L531.898 6.77588L511.626 5.81055H489.423L457.567 6.77588L449.845 7.74121L429.573 9.67188L413.162 11.6025L398.682 14.4985L387.098 16.4292L381.306 18.3599L377.445 17.3945L378.41 15.4639L403.509 9.67188L432.469 4.84521L462.394 1.94922L477.839 0.983887Z" fill="#D3D3D3"/>
<path d="M253.882 117.789L257.744 122.616L261.605 131.304L268.362 142.888L278.016 155.437L284.773 165.09L296.357 180.536L300.218 186.328V188.258H302.149L321.456 215.288L332.074 229.768L341.728 243.282L362.965 272.242L372.618 285.757L381.306 296.375L384.202 297.341L391.925 294.445L407.37 284.792L425.711 276.104L433.434 272.242L444.053 268.381L463.359 262.589L475.909 259.693L483.631 258.728L501.973 257.762L504.869 256.797H518.383L538.655 258.728V259.693L498.111 260.658L476.874 263.554L455.637 268.381L438.261 274.173L418.954 282.861L403.509 291.549L385.167 304.098L381.306 306.029L375.514 297.341L363.93 281.896L357.173 272.242L345.589 256.797L335.936 243.282L323.386 225.906L309.872 207.565L302.149 196.946L290.565 180.536L281.877 168.952L269.328 151.576L259.674 137.096L254.848 127.442L253.882 117.789Z" fill="#D3D3D3"/>
<path d="M370.688 17.3945H376.479V19.3252L363.93 23.1865L348.485 28.9785L332.074 34.7705L320.49 39.5972L293.461 52.1465L278.016 61.7998L273.189 66.6265L266.432 74.3491L259.674 85.9331L256.778 93.6558L253.882 92.6904L254.848 86.8984L259.674 75.3145L269.328 62.7651L279.946 54.0771L302.149 42.4932L327.248 31.8745L363.93 19.3252L370.688 17.3945Z" fill="#D3D3D3"/>
<path d="M459.498 905.5L460.463 909.361L455.637 921.911L447.914 933.495L438.261 943.148L424.746 950.871L414.127 954.732L408.335 955.697H390.959L380.341 953.767L379.375 951.836L389.029 952.801H401.578L415.093 949.905L425.711 946.044L436.33 939.287L442.122 934.46L449.845 923.841L453.706 916.119L457.567 907.431L459.498 905.5Z" fill="#D3D3D3"/>
<path d="M504.869 256.797H518.383L538.655 258.728V259.693L498.111 260.658L476.874 263.554L455.637 268.381L440.191 273.208L442.122 269.346L449.845 266.45L463.359 262.589L475.909 259.693L483.631 258.728L501.973 257.762L504.869 256.797Z" fill="#D3D3D3"/>
<path d="M459.498 848.545H460.463L461.429 866.887V903.569L458.533 906.465L457.567 899.708L458.533 874.609L459.498 848.545Z" fill="#D3D3D3"/>
<path d="M436.33 271.277H440.191V273.208L417.023 283.826L414.127 284.792L416.058 280.93L428.607 274.173L436.33 271.277Z" fill="#D3D3D3"/>
<path d="M538.655 258.728L546.378 259.693L551.205 260.658V261.624H541.551L529.002 260.658V259.693L538.655 258.728Z" fill="#D3D3D3"/>
<path d="M1016.48 691.613L1019.45 700.801L1021.43 716.389L1021.01 727.681L1018.46 738.646L1014.07 750.203L1002.24 773.287L994.801 784.814L987.657 797.259L978.052 811.512L964.741 830.003L953.922 843.633L940.019 860.286L919.655 882.064L898.698 902.005L877.149 920.108L843.626 945.114L813.216 964.046L784.673 979.332L753.701 993.373L740.216 998.735L688.764 1015.32L664.284 1021.18L634.617 1026.69L621.488 1026.87L607.471 1024.28L594.699 1019.27L583.172 1011.83L570.787 998.583L564.773 989.365L557.96 968.233L556.927 949.295L557.115 899.537L557.006 848.859L557.545 671.192L585.731 661.091L602.595 653.626L623.165 641.924L645.306 625.658L661.639 610.251L677.083 592.087L686.688 577.834L695.078 562.959L697.538 561.151L715.792 567.438L731.617 572.479L753.22 579.715L814.385 599.553L832.639 605.84L848.464 610.881L868.852 617.494L890.455 624.729L906.28 629.77L923.319 635.434L944.923 642.67L964.096 648.66L982.646 655.865L992.662 661.765L999.329 666.715L1009.28 678.72L1016.48 691.613Z" fill="#818CF8"/>
</svg>
